#VRML V2.0 utf8
# 3D model generated by easyeda2kicad.py (https://github.com/uPesy/easyeda2kicad.py)

Shape{
    appearance Appearance {
        material  Material 	{
            diffuseColor 1.0 1.0 1.0
            specularColor 0.8784313725490196 0.8784313725490196 0.8784313725490196
            ambientIntensity 1.0
            transparency 0.0
            shininess 0.5
        }
    }
    geometry IndexedFaceSet {
        ccw TRUE
        solid FALSE
        coord DEF co Coordinate {
            point [
                -0.0287 -0.0308 0.0, -0.1814 -0.0308 0.0, -0.1814 0.2461 0.0, -0.0287 -0.0563 0.0, -0.0284 -0.0855 0.0, -0.0284 -0.1158 0.0, -0.0253 -0.0366 0.0, -0.0188 -0.0366 0.0, 0.1814 -0.0308 0.0, 0.0151 -0.0774 0.0, 0.0207 -0.0739 0.0, 0.0307 -0.1079 0.0, 0.0249 -0.0504 0.0, -0.0194 -0.0376 0.0, 0.024 -0.0432 0.0, 0.0211 -0.0366 0.0, 0.0291 -0.0366 0.0, 0.0243 -0.0562 0.0, 0.0227 -0.0606 0.0, 0.0199 -0.0648 0.0, 0.0159 -0.0683 0.0, 0.0113 -0.0707 0.0, 0.0049 -0.0723 0.0, 0.0005 -0.0726 0.0, -0.0059 -0.072 0.0, -0.011 -0.0704 0.0, -0.0226 -0.0517 0.0, -0.018 -0.0652 0.0, -0.022 -0.0572 0.0, -0.0204 -0.0615 0.0, -0.0151 -0.0679 0.0, -0.0217 -0.0439 0.0, -0.0129 -0.0782 0.0, -0.0219 -0.0855 0.0, -0.0186 -0.0751 0.0, -0.0233 -0.0706 0.0, -0.0283 -0.0601 0.0, -0.0264 -0.0658 0.0, -0.0219 -0.1079 0.0, 0.0256 -0.0688 0.0, 0.0289 -0.0633 0.0, 0.0308 -0.0568 0.0, -0.0067 -0.0799 0.0, 0.0 -0.0805 0.0, 0.0084 -0.0796 0.0, 0.0314 -0.0505 0.0, 0.0309 -0.0434 0.0, -0.0279 -0.0429 0.0, -0.0287 -0.0488 0.0, -0.0291 -0.0512 0.0, -0.0291 -0.0528 0.0, 0.0307 -0.1158 0.0, 0.1814 -0.3248 0.0, -0.0287 -0.3248 0.0, -0.1814 -0.3248 0.0, 0.0242 0.0052 0.0, 0.0242 -0.0171 0.0, 0.0047 -0.0171 0.0, 0.0047 0.0038 0.0, -0.0017 0.0038 0.0, -0.0284 0.0182 0.0, -0.1026 0.3248 0.0, -0.0287 0.3248 0.0, -0.0284 0.0067 0.0, -0.0284 -0.025 0.0, 0.0307 -0.025 0.0, 0.0307 0.0052 0.0, 0.0214 0.0584 0.0, 0.0167 0.062 0.0, 0.0307 0.0924 0.0, 0.0109 0.0645 0.0, -0.0017 -0.0171 0.0, -0.0219 -0.0171 0.0, -0.0219 0.0067 0.0, 0.0307 0.0182 0.0, 0.0307 0.0348 0.0, -0.0122 0.0628 0.0, -0.0175 0.0594 0.0, -0.0284 0.07 0.0, -0.0221 0.0545 0.0, -0.0257 0.0483 0.0, 0.1814 0.3248 0.0, 0.0307 0.1003 0.0, -0.0284 0.1233 0.0, -0.0284 0.1147 0.0, 0.0298 0.0434 0.0, 0.0273 0.0503 0.0, 0.0235 0.0561 0.0, 0.0048 0.0656 0.0, 0.0019 0.0657 0.0, -0.006 0.0649 0.0, -0.0118 0.1087 0.0, -0.0118 0.0843 0.0, -0.0284 0.0787 0.0, -0.0277 0.0415 0.0, -0.0284 0.0342 0.0
            ]
        }
        coordIndex [
            0,1,2,-1,3,4,5,-1,6,0,7,-1,7,0,8,-1,9,10,11,-1,12,13,14,-1,14,13,7,-1,14,7,15,-1,15,7,8,-1,15,8,16,-1,12,17,13,-1,13,17,18,-1,13,18,19,-1,19,20,13,-1,13,20,21,-1,13,21,22,-1,22,23,13,-1,13,23,24,-1,13,24,25,-1,26,27,28,-1,28,27,29,-1,25,30,13,-1,13,30,27,-1,13,27,31,-1,31,27,26,-1,32,33,34,-1,34,33,4,-1,34,4,35,-1,3,36,4,-1,4,36,37,-1,4,37,35,-1,11,38,33,-1,39,40,8,-1,8,40,41,-1,32,42,33,-1,33,42,43,-1,33,43,11,-1,11,43,44,-1,11,44,9,-1,41,45,8,-1,8,45,46,-1,8,46,16,-1,6,47,0,-1,0,47,48,-1,0,48,1,-1,48,49,1,-1,1,49,50,-1,1,50,3,-1,10,39,11,-1,11,39,8,-1,11,8,51,-1,51,8,52,-1,51,52,5,-1,5,52,53,-1,5,53,3,-1,3,53,54,-1,3,54,1,-1,55,56,57,-1,58,59,60,-1,2,61,0,-1,0,61,62,-1,0,62,63,-1,63,64,0,-1,0,64,65,-1,0,65,8,-1,8,65,66,-1,67,68,69,-1,69,68,70,-1,71,72,59,-1,59,72,73,-1,59,73,60,-1,57,58,55,-1,55,58,60,-1,55,60,66,-1,66,60,74,-1,66,74,8,-1,8,74,75,-1,76,77,78,-1,78,77,79,-1,78,79,80,-1,8,69,81,-1,81,69,82,-1,81,82,62,-1,62,82,83,-1,62,83,84,-1,75,85,8,-1,8,85,86,-1,8,86,69,-1,69,86,87,-1,69,87,67,-1,70,88,69,-1,69,88,89,-1,69,89,78,-1,78,89,90,-1,78,90,76,-1,91,92,84,-1,84,92,93,-1,84,93,62,-1,62,93,78,-1,80,94,78,-1,78,94,95,-1,78,95,62,-1,62,95,60,-1,62,60,63,-1,63,60,73,-1,
        ]
    }
}
Shape{
    appearance Appearance {
        material  Material 	{
            diffuseColor 0.25098039215686274 0.25098039215686274 0.25098039215686274
            specularColor 0.12549019607843137 0.12549019607843137 0.12549019607843137
            ambientIntensity 0.251
            transparency 0.0
            shininess 0.5
        }
    }
    geometry IndexedFaceSet {
        ccw TRUE
        solid FALSE
        coord DEF co Coordinate {
            point [
                0.1814 -0.3248 0.0039, 0.3937 -0.3937 0.0039, -0.1814 -0.3248 0.0039, -0.3937 -0.3937 0.0039, -0.2651 -0.1181 0.0039, -0.2714 -0.1263 0.0039, -0.2795 -0.1325 0.0039, -0.2612 0.1086 0.0039, -0.2651 0.1181 0.0039, -0.1814 0.2461 0.0039, -0.2651 0.2756 0.0039, -0.2612 0.2851 0.0039, -0.3937 0.3937 0.0039, 0.3937 0.3937 0.0039, -0.1026 0.3248 0.0039, 0.1814 0.3248 0.0039, -0.3937 -0.3346 0.0039, -0.2992 -0.3346 0.0039, -0.289 -0.3333 0.0039, -0.2795 -0.3294 0.0039, -0.2714 -0.3231 0.0039, -0.2651 -0.315 0.0039, -0.2612 -0.3055 0.0039, -0.2598 -0.2953 0.0039, -0.2795 -0.2612 0.0039, -0.289 -0.2572 0.0039, 0.2714 0.2674 0.0039, 0.2795 0.2612 0.0039, -0.2612 -0.2851 0.0039, -0.2651 -0.2756 0.0039, -0.2714 -0.2674 0.0039, 0.2612 -0.1086 0.0039, 0.2651 -0.1181 0.0039, 0.2714 -0.1263 0.0039, 0.2795 -0.1325 0.0039, 0.289 -0.3333 0.0039, 0.2992 -0.3346 0.0039, 0.3937 -0.3346 0.0039, -0.2598 0.2953 0.0039, -0.2612 0.3055 0.0039, -0.2651 0.315 0.0039, -0.2714 0.3231 0.0039, -0.2714 0.1263 0.0039, -0.2795 0.1325 0.0039, -0.289 0.1365 0.0039, -0.2714 0.2674 0.0039, -0.2795 0.3294 0.0039, -0.289 0.3333 0.0039, -0.2992 0.3347 0.0039, -0.3937 0.3347 0.0039, -0.2651 -0.0787 0.0039, -0.2714 -0.0706 0.0039, -0.2795 -0.0643 0.0039, -0.289 -0.0604 0.0039, 0.2598 0.2953 0.0039, 0.2612 0.2851 0.0039, 0.289 0.2573 0.0039, 0.2795 0.1325 0.0039, 0.2714 0.1263 0.0039, 0.2612 0.0882 0.0039, 0.2651 0.0787 0.0039, 0.2714 0.0706 0.0039, 0.2795 0.0643 0.0039, 0.289 -0.0604 0.0039, 0.2795 -0.0643 0.0039, 0.2714 -0.0706 0.0039, 0.2992 -0.1378 0.0039, 0.3937 -0.1378 0.0039, 0.3937 -0.2559 0.0039, -0.3937 -0.2559 0.0039, -0.3937 -0.1378 0.0039, -0.2992 -0.2559 0.0039, -0.2992 -0.1378 0.0039, -0.289 -0.1364 0.0039, -0.2612 -0.1086 0.0039, -0.2598 -0.0984 0.0039, -0.2612 -0.0882 0.0039, -0.2795 0.0643 0.0039, -0.2714 0.0706 0.0039, -0.2992 0.1378 0.0039, -0.3937 0.1378 0.0039, -0.3937 0.2559 0.0039, 0.2651 -0.0787 0.0039, 0.2612 -0.0882 0.0039, 0.2598 -0.0984 0.0039, 0.289 -0.1364 0.0039, 0.289 -0.2572 0.0039, 0.2992 -0.2559 0.0039, 0.2612 -0.2851 0.0039, 0.2598 -0.2953 0.0039, 0.2612 -0.3055 0.0039, 0.2651 -0.315 0.0039, 0.2714 -0.3231 0.0039, 0.2795 -0.3294 0.0039, -0.2992 0.2559 0.0039, -0.289 0.2573 0.0039, -0.2795 0.2612 0.0039, 0.3937 0.3347 0.0039, 0.2992 0.3347 0.0039, 0.289 0.3333 0.0039, 0.2795 0.3294 0.0039, 0.2714 0.3231 0.0039, 0.2651 0.2756 0.0039, 0.2651 0.1181 0.0039, 0.2612 0.1086 0.0039, 0.2598 0.0984 0.0039, -0.3937 -0.0591 0.0039, -0.3937 0.0591 0.0039, -0.2992 -0.0591 0.0039, -0.2992 0.0591 0.0039, -0.289 0.0604 0.0039, -0.2651 0.0787 0.0039, -0.2612 0.0882 0.0039, -0.2598 0.0984 0.0039, 0.2651 0.315 0.0039, 0.2612 0.3055 0.0039, 0.2992 0.0591 0.0039, 0.3937 0.0591 0.0039, 0.3937 -0.0591 0.0039, 0.2795 -0.2612 0.0039, 0.2714 -0.2674 0.0039, 0.2651 -0.2756 0.0039, 0.3937 0.2559 0.0039, 0.3937 0.1378 0.0039, 0.2992 0.2559 0.0039, 0.2992 0.1378 0.0039, 0.289 0.1365 0.0039, 0.289 0.0604 0.0039, 0.2992 -0.0591 0.0039, -0.3937 0.3347 0.0787, -0.3937 0.2559 0.0787, -0.3937 0.1378 0.0787, -0.3937 0.1717 0.3189, -0.3937 0.3937 0.3189, -0.3937 0.0591 0.0787, -0.3937 -0.0591 0.0787, -0.3937 -0.1378 0.0787, -0.3937 -0.3937 0.3189, -0.3937 -0.3163 0.3189, -0.3937 -0.1663 0.3189, -0.3937 -0.0673 0.3189, -0.3937 0.042 0.3189, -0.3937 0.1128 0.3189, -0.3937 -0.3346 0.0787, -0.3937 -0.2559 0.0787, 0.0455 -0.1441 0.3189, 0.0455 -0.1573 0.3189, 0.0461 -0.1663 0.3189, 0.0456 0.084 0.3189, 0.0461 0.0793 0.3189, 0.0461 0.1128 0.3189, -0.0338 0.1531 0.3189, -0.0385 0.1524 0.3189, -0.0337 0.1517 0.3189, 0.0455 0.1176 0.3189, 0.0455 0.1308 0.3189, 0.0461 0.1717 0.3189, -0.0536 0.1128 0.3189, -0.053 0.1452 0.3189, -0.0536 0.1717 0.3189, -0.053 0.1596 0.3189, -0.0098 0.1717 0.3189, -0.0292 0.1541 0.3189, -0.0289 0.1505 0.3189, 0.0331 0.1717 0.3189, 0.0455 0.1752 0.3189, 0.0455 0.1872 0.3189, -0.0335 0.2117 0.3189, -0.0385 0.2112 0.3189, -0.0335 0.2104 0.3189, 0.0287 0.1812 0.3189, 0.0287 0.1824 0.3189, 0.0235 0.1807 0.3189, 0.0236 0.183 0.3189, 0.0184 0.1796 0.3189, 0.0186 0.1842 0.3189, -0.053 0.204 0.3189, -0.053 0.2184 0.3189, -0.0285 0.2128 0.3189, -0.0285 0.209 0.3189, 0.0455 0.2328 0.3189, -0.0542 -0.0104 0.3189, -0.0536 -0.0047 0.3189, 0.3937 -0.0673 0.3189, 0.0461 -0.0175 0.3189, 0.0461 -0.0673 0.3189, 0.0454 -0.0239 0.3189, 0.0421 -0.0332 0.3189, -0.0365 -0.0479 0.3189, -0.0444 -0.0404 0.3189, -0.0536 -0.0673 0.3189, -0.0274 -0.0531 0.3189, 0.0363 -0.0417 0.3189, 0.0281 -0.049 0.3189, 0.0183 -0.0542 0.3189, -0.0495 -0.0324 0.3189, -0.0528 -0.0231 0.3189, -0.0536 -0.016 0.3189, 0.0073 -0.057 0.3189, -0.0026 -0.0577 0.3189, -0.0158 -0.0565 0.3189, 0.3937 0.042 0.3189, 0.0461 -0.005 0.3189, 0.0467 -0.012 0.3189, 0.0201 0.0312 0.3189, 0.0294 0.0258 0.3189, 0.0461 0.042 0.3189, 0.0083 0.0348 0.3189, 0.0374 0.0179 0.3189, 0.0428 0.0086 0.3189, 0.0458 -0.0013 0.3189, -0.0497 0.0109 0.3189, -0.0446 0.0189 0.3189, -0.0536 0.042 0.3189, -0.0373 0.026 0.3189, -0.0529 0.0017 0.3189, -0.0281 0.0315 0.3189, -0.0175 0.0348 0.3189, -0.0049 0.036 0.3189, 0.0111 -0.2337 0.3189, 0.0066 -0.2304 0.3189, -0.003 -0.2282 0.3189, 0.0023 -0.2256 0.3189, 0.0003 -0.2225 0.3189, 0.0434 -0.2229 0.3189, 0.0461 -0.3163 0.3189, 0.0458 -0.2163 0.3189, 0.0461 -0.2136 0.3189, 0.0401 -0.2278 0.3189, 0.0361 -0.2317 0.3189, 0.031 -0.2347 0.3189, 0.016 -0.2357 0.3189, -0.0078 -0.2329 0.3189, -0.0327 -0.238 0.3189, -0.0386 -0.2359 0.3189, -0.0536 -0.3163 0.3189, -0.044 -0.2322 0.3189, -0.0484 -0.2272 0.3189, -0.0515 -0.2213 0.3189, -0.0536 -0.2141 0.3189, -0.0536 -0.214 0.3189, -0.0542 -0.2071 0.3189, -0.0536 -0.2015 0.3189, 0.026 -0.2362 0.3189, 0.0217 -0.2365 0.3189, -0.0144 -0.2368 0.3189, -0.0206 -0.2385 0.3189, -0.0253 -0.2389 0.3189, 0.0464 -0.2039 0.3189, 0.3937 -0.1663 0.3189, 0.0461 -0.2025 0.3189, 0.3937 -0.3163 0.3189, 0.0467 -0.2083 0.3189, -0.0253 -0.1753 0.3189, -0.0187 -0.1762 0.3189, 0.0217 -0.1801 0.3189, 0.0282 -0.181 0.3189, 0.0333 -0.1831 0.3189, 0.038 -0.1866 0.3189, -0.0029 -0.1878 0.3189, 0.0003 -0.1943 0.3189, 0.0048 -0.188 0.3189, 0.0418 -0.1912 0.3189, 0.0446 -0.1968 0.3189, -0.0532 -0.1982 0.3189, -0.0506 -0.1909 0.3189, -0.0536 -0.1663 0.3189, -0.0466 -0.1848 0.3189, -0.0419 -0.1805 0.3189, -0.0132 -0.1784 0.3189, -0.0076 -0.1824 0.3189, -0.0361 -0.1773 0.3189, -0.0296 -0.1756 0.3189, 0.0096 -0.1839 0.3189, 0.0143 -0.1814 0.3189, 0.0188 -0.1803 0.3189, -0.0491 0.108 0.3189, -0.0346 0.108 0.3189, -0.0536 0.089 0.3189, -0.0528 0.0959 0.3189, -0.0506 0.1048 0.3189, -0.0007 0.096 0.3189, 0.004 0.1017 0.3189, 0.0085 0.105 0.3189, 0.0134 0.1071 0.3189, 0.0203 0.108 0.3189, 0.0271 0.1071 0.3189, 0.0318 0.1052 0.3189, 0.0361 0.1021 0.3189, -0.0077 0.0839 0.3189, -0.0391 0.1008 0.3189, -0.0153 0.0696 0.3189, -0.0427 0.0891 0.3189, -0.0154 0.0695 0.3189, 0.0397 0.0979 0.3189, 0.0429 0.0923 0.3189, -0.0433 0.0817 0.3189, -0.0428 0.0746 0.3189, -0.0414 0.0696 0.3189, -0.0395 0.0661 0.3189, -0.0376 0.064 0.3189, -0.0356 0.0627 0.3189, -0.0325 0.0616 0.3189, -0.0287 0.0612 0.3189, -0.019 0.0652 0.3189, -0.0251 0.0616 0.3189, -0.0223 0.0627 0.3189, -0.0536 0.0751 0.3189, -0.0542 0.0832 0.3189, 0.0461 0.0616 0.3189, 0.044 0.0516 0.3189, 0.0296 0.0516 0.3189, -0.0054 0.0615 0.3189, -0.0109 0.0548 0.3189, -0.0158 0.0511 0.3189, -0.0208 0.0489 0.3189, -0.0534 0.0729 0.3189, -0.0507 0.0632 0.3189, -0.0267 0.048 0.3189, -0.0276 0.048 0.3189, -0.0345 0.0487 0.3189, -0.0394 0.0505 0.3189, -0.0436 0.0533 0.3189, -0.0471 0.0571 0.3189, 0.0016 0.0739 0.3189, 0.0334 0.059 0.3189, 0.0064 0.083 0.3189, 0.0354 0.0674 0.3189, 0.0359 0.0742 0.3189, 0.0245 0.0945 0.3189, 0.0216 0.0948 0.3189, 0.0352 0.0811 0.3189, 0.0336 0.0863 0.3189, 0.0314 0.0899 0.3189, 0.0292 0.0922 0.3189, 0.0178 0.0943 0.3189, 0.0151 0.0933 0.3189, 0.0127 0.0916 0.3189, 0.01 0.0886 0.3189, 0.0272 0.0936 0.3189, 0.0462 0.0622 0.3189, 0.0467 0.0732 0.3189, 0.3937 0.1128 0.3189, 0.3937 -0.3937 0.3189, 0.0461 -0.3937 0.3189, -0.0536 -0.3937 0.3189, -0.053 -0.1573 0.3189, 0.0299 -0.0901 0.3189, 0.0299 -0.0897 0.3189, 0.0266 -0.0916 0.3189, 0.023 -0.09 0.3189, 0.0235 -0.0934 0.3189, -0.053 -0.1416 0.3189, 0.0161 -0.0901 0.3189, -0.053 -0.0901 0.3189, -0.053 -0.0769 0.3189, 0.0455 -0.0769 0.3189, 0.0455 -0.0937 0.3189, -0.0361 -0.1445 0.3189, -0.0361 -0.1447 0.3189, -0.0327 -0.1426 0.3189, -0.029 -0.1442 0.3189, -0.0294 -0.1405 0.3189, -0.0219 -0.1441 0.3189, -0.2258 0.2756 0.3189, -0.2275 0.2627 0.3189, -0.2325 0.2507 0.3189, -0.2404 0.2404 0.3189, -0.3005 0.2325 0.3189, -0.3108 0.2404 0.3189, -0.2507 0.2325 0.3189, -0.2627 0.2275 0.3189, -0.2756 0.2258 0.3189, -0.2885 0.2275 0.3189, -0.3187 0.3005 0.3189, -0.3108 0.3108 0.3189, -0.3005 0.3187 0.3189, -0.3254 0.2756 0.3189, -0.3237 0.2885 0.3189, -0.2507 0.3187 0.3189, -0.2404 0.3108 0.3189, -0.0536 0.3937 0.3189, -0.2325 0.3005 0.3189, -0.2275 0.2885 0.3189, -0.3187 0.2507 0.3189, -0.3237 0.2627 0.3189, -0.2885 0.3237 0.3189, -0.2756 0.3254 0.3189, -0.2627 0.3237 0.3189, 0.0455 0.2472 0.3189, 0.0461 0.3937 0.3189, 0.3937 0.1717 0.3189, 0.3937 0.3937 0.3189, 0.3937 0.3347 0.0787, 0.3937 0.2559 0.0787, 0.3937 -0.3346 0.0787, 0.3937 -0.2559 0.0787, 0.3937 -0.1378 0.0787, 0.3937 -0.0591 0.0787, 0.3937 0.0591 0.0787, 0.3937 0.1378 0.0787, -0.2258 0.2756 0.311, -0.2275 0.2885 0.311, -0.2325 0.3005 0.311, -0.2404 0.3108 0.311, -0.2507 0.3187 0.311, -0.2627 0.3237 0.311, -0.2756 0.3254 0.311, -0.2885 0.3237 0.311, -0.3005 0.3187 0.311, -0.3108 0.3108 0.311, -0.3187 0.3005 0.311, -0.3237 0.2885 0.311, -0.3254 0.2756 0.311, -0.3237 0.2627 0.311, -0.3187 0.2507 0.311, -0.3108 0.2404 0.311, -0.3005 0.2325 0.311, -0.2885 0.2275 0.311, -0.2756 0.2258 0.311, -0.2627 0.2275 0.311, -0.2507 0.2325 0.311, -0.2404 0.2404 0.311, -0.2325 0.2507 0.311, -0.2275 0.2627 0.311, -0.2756 0.2756 0.311
            ]
        }
        coordIndex [
            0,1,2,-1,2,1,3,-1,4,2,5,-1,5,2,6,-1,7,8,9,-1,9,10,11,-1,12,13,14,-1,14,13,15,-1,16,17,3,-1,3,17,18,-1,3,18,2,-1,2,18,19,-1,2,19,20,-1,20,21,2,-1,2,21,22,-1,2,22,23,-1,6,24,25,-1,26,27,0,-1,23,28,2,-1,2,28,29,-1,2,29,6,-1,6,29,30,-1,6,30,24,-1,31,32,0,-1,0,32,33,-1,0,33,34,-1,0,35,1,-1,1,35,36,-1,1,36,37,-1,11,38,9,-1,9,38,39,-1,9,39,14,-1,14,39,40,-1,14,40,41,-1,8,42,9,-1,9,42,43,-1,9,43,10,-1,10,43,44,-1,10,44,45,-1,41,46,14,-1,14,46,47,-1,14,47,12,-1,12,47,48,-1,12,48,49,-1,50,51,9,-1,9,51,52,-1,9,52,53,-1,54,55,15,-1,56,57,27,-1,27,57,58,-1,59,60,0,-1,0,60,61,-1,0,61,62,-1,63,64,62,-1,62,64,65,-1,66,67,68,-1,69,70,71,-1,71,70,72,-1,71,72,25,-1,25,72,73,-1,25,73,6,-1,4,74,2,-1,2,74,75,-1,2,75,9,-1,9,75,76,-1,9,76,50,-1,53,77,78,-1,79,80,81,-1,65,82,62,-1,62,82,83,-1,62,83,0,-1,0,83,84,-1,0,84,31,-1,34,85,86,-1,86,85,66,-1,86,66,87,-1,87,66,68,-1,88,89,0,-1,0,89,90,-1,0,90,91,-1,91,92,0,-1,0,92,93,-1,0,93,35,-1,81,94,79,-1,79,94,95,-1,79,95,44,-1,44,95,96,-1,44,96,45,-1,97,98,13,-1,13,98,99,-1,13,99,15,-1,15,99,100,-1,15,100,101,-1,15,55,0,-1,0,55,102,-1,0,102,26,-1,58,103,27,-1,27,103,104,-1,27,104,0,-1,0,104,105,-1,0,105,59,-1,106,107,108,-1,108,107,109,-1,108,109,53,-1,53,109,110,-1,53,110,77,-1,78,111,53,-1,53,111,112,-1,53,112,9,-1,9,112,113,-1,9,113,7,-1,101,114,15,-1,15,114,115,-1,15,115,54,-1,116,117,118,-1,86,119,34,-1,34,119,120,-1,34,120,0,-1,0,120,121,-1,0,121,88,-1,122,123,124,-1,124,123,125,-1,124,125,56,-1,56,125,126,-1,56,126,57,-1,62,127,63,-1,63,127,116,-1,63,116,128,-1,128,116,118,-1,12,49,129,-1,81,80,130,-1,130,80,131,-1,130,132,129,-1,129,132,133,-1,129,133,12,-1,107,106,134,-1,134,106,135,-1,136,137,138,-1,136,138,135,-1,135,138,139,-1,135,139,134,-1,134,139,140,-1,134,140,131,-1,131,140,141,-1,131,141,130,-1,130,141,142,-1,130,142,132,-1,16,3,143,-1,143,3,137,-1,143,137,144,-1,144,137,136,-1,144,136,69,-1,69,136,70,-1,145,146,147,-1,148,149,150,-1,151,152,153,-1,154,150,155,-1,155,150,156,-1,157,158,159,-1,159,158,160,-1,159,160,161,-1,151,153,162,-1,162,153,163,-1,162,163,164,-1,163,155,164,-1,164,155,156,-1,164,156,165,-1,165,156,166,-1,167,168,169,-1,170,171,172,-1,172,171,173,-1,172,173,174,-1,174,173,175,-1,174,175,161,-1,161,175,176,-1,161,176,159,-1,159,176,177,-1,167,169,178,-1,178,169,179,-1,178,179,180,-1,141,181,182,-1,183,184,185,-1,185,184,186,-1,185,186,187,-1,188,189,190,-1,188,190,191,-1,187,192,185,-1,185,192,193,-1,185,193,194,-1,189,195,190,-1,190,195,196,-1,190,196,197,-1,194,198,185,-1,185,198,199,-1,185,199,190,-1,190,199,200,-1,190,200,191,-1,201,202,183,-1,183,202,203,-1,183,203,184,-1,204,205,206,-1,204,206,207,-1,205,208,206,-1,206,208,209,-1,206,209,210,-1,211,212,213,-1,213,212,214,-1,141,182,213,-1,213,182,215,-1,213,215,211,-1,214,216,213,-1,213,216,217,-1,213,217,218,-1,219,220,221,-1,221,220,222,-1,221,222,223,-1,224,225,226,-1,226,225,227,-1,224,228,225,-1,225,228,229,-1,225,229,230,-1,219,221,231,-1,231,221,232,-1,231,232,225,-1,233,234,235,-1,235,234,236,-1,235,236,237,-1,237,238,235,-1,235,238,239,-1,235,239,138,-1,138,239,240,-1,138,240,139,-1,139,240,241,-1,139,241,242,-1,230,243,225,-1,225,243,244,-1,225,244,231,-1,232,245,225,-1,225,245,246,-1,225,246,235,-1,235,246,247,-1,235,247,233,-1,248,249,250,-1,250,249,147,-1,225,251,227,-1,227,251,249,-1,227,249,252,-1,252,249,248,-1,253,254,147,-1,255,256,147,-1,147,256,257,-1,147,257,258,-1,259,260,261,-1,258,262,147,-1,147,262,263,-1,147,263,250,-1,264,265,266,-1,266,265,267,-1,266,267,268,-1,254,269,147,-1,147,269,270,-1,147,270,259,-1,268,271,266,-1,266,271,272,-1,266,272,253,-1,261,273,259,-1,259,273,274,-1,259,274,147,-1,147,274,275,-1,147,275,255,-1,157,276,277,-1,278,279,157,-1,157,279,280,-1,157,280,276,-1,281,282,277,-1,277,282,283,-1,277,283,284,-1,284,285,277,-1,277,285,150,-1,277,150,157,-1,157,150,154,-1,157,154,158,-1,285,286,150,-1,150,286,287,-1,150,287,288,-1,281,277,289,-1,289,277,290,-1,289,290,291,-1,291,290,292,-1,291,292,293,-1,288,294,150,-1,150,294,295,-1,150,295,148,-1,292,296,293,-1,293,296,297,-1,293,297,298,-1,298,299,293,-1,293,299,300,-1,293,300,301,-1,301,302,293,-1,293,302,303,-1,293,303,304,-1,304,303,305,-1,304,305,306,-1,307,308,142,-1,142,308,278,-1,309,310,206,-1,206,310,311,-1,312,313,311,-1,311,313,314,-1,311,314,315,-1,142,141,307,-1,307,141,213,-1,307,213,316,-1,316,213,317,-1,318,319,213,-1,213,319,320,-1,213,320,321,-1,321,322,213,-1,213,322,323,-1,213,323,317,-1,312,311,324,-1,324,311,325,-1,324,325,326,-1,326,325,327,-1,326,327,328,-1,315,318,311,-1,311,318,213,-1,311,213,206,-1,206,213,218,-1,206,218,207,-1,329,330,331,-1,332,333,334,-1,331,330,328,-1,328,330,335,-1,328,335,336,-1,336,337,328,-1,328,337,338,-1,328,338,326,-1,332,334,331,-1,331,334,339,-1,331,339,329,-1,210,202,206,-1,206,202,201,-1,206,201,309,-1,309,201,340,-1,340,201,341,-1,341,201,342,-1,341,342,149,-1,343,251,344,-1,344,251,225,-1,344,225,345,-1,345,225,235,-1,345,235,137,-1,137,235,138,-1,181,141,197,-1,197,141,140,-1,197,140,190,-1,190,140,139,-1,190,139,266,-1,266,139,242,-1,266,242,264,-1,253,147,266,-1,266,147,146,-1,266,146,346,-1,347,348,349,-1,349,348,350,-1,349,350,351,-1,351,350,352,-1,352,350,353,-1,352,353,354,-1,346,352,266,-1,266,352,354,-1,266,354,190,-1,190,354,355,-1,190,355,185,-1,185,355,356,-1,185,356,357,-1,358,359,360,-1,360,359,361,-1,360,361,362,-1,362,361,357,-1,249,183,147,-1,147,183,185,-1,147,185,145,-1,145,185,357,-1,145,357,363,-1,363,357,361,-1,364,365,159,-1,159,365,366,-1,159,366,367,-1,368,369,132,-1,367,370,159,-1,159,370,371,-1,159,371,372,-1,368,132,373,-1,374,375,133,-1,133,375,376,-1,278,157,142,-1,142,157,159,-1,142,159,132,-1,132,159,372,-1,132,372,373,-1,132,377,133,-1,133,377,378,-1,133,378,374,-1,379,380,381,-1,381,380,382,-1,381,382,383,-1,369,384,132,-1,132,384,385,-1,132,385,377,-1,376,386,133,-1,133,386,387,-1,133,387,381,-1,381,387,388,-1,381,388,379,-1,179,166,180,-1,180,166,156,-1,180,156,389,-1,389,156,390,-1,389,390,177,-1,177,390,381,-1,177,381,159,-1,159,381,383,-1,159,383,364,-1,149,342,150,-1,150,342,391,-1,150,391,156,-1,156,391,392,-1,156,392,390,-1,97,13,393,-1,393,13,392,-1,393,392,394,-1,343,1,395,-1,395,1,37,-1,68,67,396,-1,396,67,397,-1,343,395,251,-1,251,395,396,-1,251,396,249,-1,118,117,398,-1,398,117,399,-1,400,123,122,-1,122,394,400,-1,400,394,392,-1,400,392,399,-1,399,392,391,-1,399,391,398,-1,398,391,342,-1,398,342,397,-1,397,342,201,-1,397,201,396,-1,396,201,183,-1,396,183,249,-1,12,133,381,-1,12,381,13,-1,13,381,390,-1,13,390,392,-1,1,343,344,-1,1,344,3,-1,3,344,345,-1,3,345,137,-1,401,364,402,-1,402,364,383,-1,402,383,403,-1,403,383,382,-1,403,382,404,-1,404,382,380,-1,404,380,405,-1,405,380,379,-1,405,379,406,-1,406,379,388,-1,406,388,407,-1,407,388,387,-1,407,387,408,-1,408,387,386,-1,408,386,409,-1,409,386,376,-1,409,376,410,-1,410,376,375,-1,410,375,411,-1,411,375,374,-1,411,374,412,-1,412,374,378,-1,412,378,413,-1,413,378,377,-1,413,377,414,-1,414,377,385,-1,414,385,415,-1,415,385,384,-1,415,384,416,-1,416,384,369,-1,416,369,417,-1,417,369,368,-1,417,368,418,-1,418,368,373,-1,418,373,419,-1,419,373,372,-1,419,372,420,-1,420,372,371,-1,420,371,421,-1,421,371,370,-1,421,370,422,-1,422,370,367,-1,422,367,423,-1,423,367,366,-1,423,366,424,-1,424,366,365,-1,424,365,401,-1,401,365,364,-1,423,424,425,-1,425,424,401,-1,425,401,402,-1,420,421,425,-1,425,421,422,-1,425,422,423,-1,417,418,425,-1,425,418,419,-1,425,419,420,-1,414,415,425,-1,425,415,416,-1,425,416,417,-1,411,412,425,-1,425,412,413,-1,425,413,414,-1,408,409,425,-1,425,409,410,-1,425,410,411,-1,405,406,425,-1,425,406,407,-1,425,407,408,-1,402,403,425,-1,425,403,404,-1,425,404,405,-1,
        ]
    }
}
Shape{
    appearance Appearance {
        material  Material 	{
            diffuseColor 0.6666666666666666 0.6666666666666666 0.6666666666666666
            specularColor 0.3333333333333333 0.3333333333333333 0.3333333333333333
            ambientIntensity 0.6667
            transparency 0.0
            shininess 0.5
        }
    }
    geometry IndexedFaceSet {
        ccw TRUE
        solid FALSE
        coord DEF co Coordinate {
            point [
                -0.0542 -0.2071 0.3189, -0.0542 -0.2071 0.315, -0.0536 -0.2015 0.3189, -0.0532 -0.1982 0.315, -0.0532 -0.1982 0.3189, -0.0506 -0.1909 0.315, -0.0506 -0.1909 0.3189, -0.0466 -0.1848 0.315, -0.0466 -0.1848 0.3189, -0.0419 -0.1805 0.315, -0.0419 -0.1805 0.3189, -0.0361 -0.1773 0.315, -0.0361 -0.1773 0.3189, -0.0296 -0.1756 0.315, -0.0296 -0.1756 0.3189, -0.0253 -0.1753 0.315, -0.0253 -0.1753 0.3189, 0.0003 -0.1943 0.315, 0.0003 -0.1943 0.3189, -0.0029 -0.1878 0.3189, -0.0029 -0.1878 0.315, -0.0076 -0.1824 0.3189, -0.0076 -0.1824 0.315, -0.0132 -0.1784 0.3189, -0.0132 -0.1784 0.315, -0.0187 -0.1762 0.3189, -0.0187 -0.1762 0.315, 0.0217 -0.1801 0.315, 0.0217 -0.1801 0.3189, 0.0188 -0.1803 0.3189, 0.0188 -0.1803 0.315, 0.0143 -0.1814 0.3189, 0.0143 -0.1814 0.315, 0.0096 -0.1839 0.3189, 0.0096 -0.1839 0.315, 0.0048 -0.188 0.3189, 0.0048 -0.188 0.315, 0.0467 -0.2083 0.315, 0.0467 -0.2083 0.3189, 0.0464 -0.2039 0.3189, 0.0464 -0.2039 0.315, 0.0461 -0.2025 0.3189, 0.0446 -0.1968 0.315, 0.0446 -0.1968 0.3189, 0.0418 -0.1912 0.3189, 0.0418 -0.1912 0.315, 0.038 -0.1866 0.3189, 0.038 -0.1866 0.315, 0.0333 -0.1831 0.3189, 0.0333 -0.1831 0.315, 0.0282 -0.181 0.3189, 0.0282 -0.181 0.315, 0.0461 -0.2136 0.3189, 0.0458 -0.2163 0.315, 0.0458 -0.2163 0.3189, 0.0434 -0.2229 0.315, 0.0434 -0.2229 0.3189, 0.0401 -0.2278 0.315, 0.0401 -0.2278 0.3189, 0.0361 -0.2317 0.315, 0.0361 -0.2317 0.3189, 0.031 -0.2347 0.315, 0.031 -0.2347 0.3189, 0.026 -0.2362 0.315, 0.026 -0.2362 0.3189, 0.0217 -0.2365 0.315, 0.0217 -0.2365 0.3189, 0.0003 -0.2225 0.315, 0.0003 -0.2225 0.3189, 0.0023 -0.2256 0.3189, 0.0023 -0.2256 0.315, 0.0066 -0.2304 0.3189, 0.0066 -0.2304 0.315, 0.0111 -0.2337 0.3189, 0.0111 -0.2337 0.315, 0.016 -0.2357 0.3189, 0.016 -0.2357 0.315, -0.0253 -0.2389 0.315, -0.0253 -0.2389 0.3189, -0.0206 -0.2385 0.3189, -0.0206 -0.2385 0.315, -0.0144 -0.2368 0.3189, -0.0144 -0.2368 0.315, -0.0078 -0.2329 0.3189, -0.0078 -0.2329 0.315, -0.003 -0.2282 0.3189, -0.003 -0.2282 0.315, -0.0536 -0.214 0.3189, -0.0536 -0.214 0.315, -0.0536 -0.2141 0.3189, -0.0515 -0.2213 0.315, -0.0515 -0.2213 0.3189, -0.0484 -0.2272 0.3189, -0.0484 -0.2272 0.315, -0.044 -0.2322 0.3189, -0.044 -0.2322 0.315, -0.0386 -0.2359 0.3189, -0.0386 -0.2359 0.315, -0.0327 -0.238 0.3189, -0.0327 -0.238 0.315, 0.0047 -0.2082 0.315, 0.0052 -0.2043 0.315, -0.0061 -0.207 0.315, -0.0166 -0.189 0.315, -0.0132 -0.1912 0.315, 0.0052 -0.2122 0.315, -0.0106 -0.1938 0.315, -0.0082 -0.1974 0.315, -0.0067 -0.2017 0.315, 0.0355 -0.2117 0.315, 0.0359 -0.2082 0.315, 0.0354 -0.2043 0.315, 0.0343 -0.2013 0.315, 0.0325 -0.1986 0.315, 0.0301 -0.1964 0.315, 0.0268 -0.1945 0.315, 0.0233 -0.1935 0.315, -0.0247 -0.2269 0.315, -0.0198 -0.2263 0.315, -0.0161 -0.2248 0.315, -0.0127 -0.2224 0.315, -0.0094 -0.2187 0.315, -0.0075 -0.2149 0.315, 0.0203 -0.1933 0.315, 0.0161 -0.1938 0.315, 0.0128 -0.1951 0.315, 0.0097 -0.1973 0.315, 0.0085 -0.1984 0.315, 0.0065 -0.2011 0.315, -0.0207 -0.1877 0.315, -0.0247 -0.1873 0.315, -0.0296 -0.1878 0.315, -0.0333 -0.1891 0.315, -0.0365 -0.191 0.315, -0.0394 -0.194 0.315, -0.0416 -0.1977 0.315, -0.043 -0.2025 0.315, -0.0433 -0.207 0.315, -0.0428 -0.2124 0.315, -0.0413 -0.2168 0.315, -0.039 -0.2204 0.315, -0.0364 -0.223 0.315, -0.0331 -0.2251 0.315, -0.0293 -0.2264 0.315, 0.0245 -0.2228 0.315, 0.0279 -0.2215 0.315, 0.0309 -0.2194 0.315, 0.0325 -0.2177 0.315, 0.0344 -0.215 0.315, -0.0064 -0.2104 0.315, 0.0065 -0.2152 0.315, 0.0086 -0.2181 0.315, 0.012 -0.221 0.315, 0.0152 -0.2225 0.315, 0.0185 -0.2232 0.315, 0.0203 -0.2233 0.315, -0.0247 -0.1873 0.3189, -0.0207 -0.1877 0.3189, -0.0166 -0.189 0.3189, -0.0132 -0.1912 0.3189, -0.0106 -0.1938 0.3189, -0.0082 -0.1974 0.3189, -0.0067 -0.2017 0.3189, -0.0061 -0.207 0.3189, -0.0064 -0.2104 0.3189, -0.0075 -0.2149 0.3189, -0.0094 -0.2187 0.3189, -0.0127 -0.2224 0.3189, -0.0161 -0.2248 0.3189, -0.0198 -0.2263 0.3189, -0.0247 -0.2269 0.3189, -0.0293 -0.2264 0.3189, -0.0331 -0.2251 0.3189, -0.0364 -0.223 0.3189, -0.039 -0.2204 0.3189, -0.0413 -0.2168 0.3189, -0.0428 -0.2124 0.3189, -0.0433 -0.207 0.3189, -0.043 -0.2025 0.3189, -0.0416 -0.1977 0.3189, -0.0394 -0.194 0.3189, -0.0365 -0.191 0.3189, -0.0333 -0.1891 0.3189, -0.0296 -0.1878 0.3189, 0.0203 -0.1933 0.3189, 0.0233 -0.1935 0.3189, 0.0268 -0.1945 0.3189, 0.0301 -0.1964 0.3189, 0.0325 -0.1986 0.3189, 0.0343 -0.2013 0.3189, 0.0354 -0.2043 0.3189, 0.0359 -0.2082 0.3189, 0.0355 -0.2117 0.3189, 0.0344 -0.215 0.3189, 0.0325 -0.2177 0.3189, 0.0309 -0.2194 0.3189, 0.0279 -0.2215 0.3189, 0.0245 -0.2228 0.3189, 0.0203 -0.2233 0.3189, 0.0185 -0.2232 0.3189, 0.0152 -0.2225 0.3189, 0.012 -0.221 0.3189, 0.0086 -0.2181 0.3189, 0.0065 -0.2152 0.3189, 0.0052 -0.2122 0.3189, 0.0047 -0.2082 0.3189, 0.0052 -0.2043 0.3189, 0.0065 -0.2011 0.3189, 0.0085 -0.1984 0.3189, 0.0097 -0.1973 0.3189, 0.0128 -0.1951 0.3189, 0.0161 -0.1938 0.3189
            ]
        }
        coordIndex [
            0,1,2,-1,2,1,3,-1,2,3,4,-1,4,3,5,-1,4,5,6,-1,6,5,7,-1,6,7,8,-1,8,7,9,-1,8,9,10,-1,10,9,11,-1,10,11,12,-1,12,11,13,-1,12,13,14,-1,14,13,15,-1,14,15,16,-1,17,18,19,-1,17,19,20,-1,20,19,21,-1,20,21,22,-1,22,21,23,-1,22,23,24,-1,24,23,25,-1,24,25,26,-1,26,25,16,-1,26,16,15,-1,27,28,29,-1,27,29,30,-1,30,29,31,-1,30,31,32,-1,32,31,33,-1,32,33,34,-1,34,33,35,-1,34,35,36,-1,36,35,18,-1,36,18,17,-1,37,38,39,-1,37,39,40,-1,40,39,41,-1,40,41,42,-1,41,43,42,-1,42,43,44,-1,42,44,45,-1,45,44,46,-1,45,46,47,-1,47,46,48,-1,47,48,49,-1,49,48,50,-1,49,50,51,-1,51,50,28,-1,51,28,27,-1,38,37,52,-1,52,37,53,-1,52,53,54,-1,54,53,55,-1,54,55,56,-1,56,55,57,-1,56,57,58,-1,58,57,59,-1,58,59,60,-1,60,59,61,-1,60,61,62,-1,62,61,63,-1,62,63,64,-1,64,63,65,-1,64,65,66,-1,67,68,69,-1,67,69,70,-1,70,69,71,-1,70,71,72,-1,72,71,73,-1,72,73,74,-1,74,73,75,-1,74,75,76,-1,76,75,66,-1,76,66,65,-1,77,78,79,-1,77,79,80,-1,80,79,81,-1,80,81,82,-1,82,81,83,-1,82,83,84,-1,84,83,85,-1,84,85,86,-1,86,85,68,-1,86,68,67,-1,1,0,87,-1,1,87,88,-1,88,87,89,-1,88,89,90,-1,89,91,90,-1,90,91,92,-1,90,92,93,-1,93,92,94,-1,93,94,95,-1,95,94,96,-1,95,96,97,-1,97,96,98,-1,97,98,99,-1,99,98,78,-1,99,78,77,-1,100,101,102,-1,103,104,17,-1,100,102,105,-1,104,106,17,-1,17,106,107,-1,17,107,101,-1,101,107,108,-1,101,108,102,-1,55,53,109,-1,109,53,110,-1,110,53,37,-1,110,37,111,-1,111,37,40,-1,111,40,112,-1,112,40,42,-1,112,42,113,-1,113,42,45,-1,113,45,114,-1,114,45,47,-1,114,47,115,-1,115,47,49,-1,115,49,116,-1,117,80,118,-1,118,80,82,-1,118,82,119,-1,119,82,84,-1,119,84,120,-1,120,84,86,-1,120,86,121,-1,121,86,67,-1,121,67,122,-1,49,51,116,-1,116,51,27,-1,116,27,123,-1,123,27,30,-1,123,30,124,-1,124,30,32,-1,124,32,125,-1,125,32,34,-1,125,34,126,-1,126,34,36,-1,126,36,127,-1,127,36,17,-1,127,17,128,-1,128,17,101,-1,22,24,129,-1,129,24,26,-1,129,26,130,-1,130,26,15,-1,130,15,131,-1,131,15,13,-1,131,13,132,-1,132,13,11,-1,132,11,133,-1,133,11,9,-1,133,9,134,-1,134,9,7,-1,134,7,135,-1,135,7,5,-1,135,5,136,-1,136,5,3,-1,136,3,137,-1,137,3,1,-1,137,1,138,-1,138,1,88,-1,138,88,139,-1,139,88,90,-1,139,90,140,-1,140,90,93,-1,140,93,141,-1,141,93,95,-1,141,95,142,-1,142,95,97,-1,142,97,143,-1,143,97,99,-1,143,99,117,-1,117,99,77,-1,117,77,80,-1,144,61,145,-1,145,61,59,-1,145,59,146,-1,146,59,57,-1,146,57,147,-1,147,57,55,-1,147,55,148,-1,148,55,109,-1,102,149,105,-1,105,149,122,-1,105,122,150,-1,150,122,67,-1,150,67,151,-1,151,67,70,-1,151,70,152,-1,152,70,72,-1,152,72,153,-1,153,72,74,-1,153,74,154,-1,154,74,76,-1,154,76,155,-1,155,76,65,-1,155,65,144,-1,144,65,63,-1,144,63,61,-1,103,17,129,-1,129,17,20,-1,129,20,22,-1,130,156,157,-1,130,157,129,-1,129,157,158,-1,129,158,103,-1,103,158,159,-1,103,159,104,-1,104,159,160,-1,104,160,106,-1,106,160,161,-1,106,161,107,-1,107,161,162,-1,107,162,108,-1,108,162,163,-1,108,163,102,-1,102,163,164,-1,102,164,149,-1,149,164,165,-1,149,165,122,-1,122,165,166,-1,122,166,121,-1,121,166,167,-1,121,167,120,-1,120,167,168,-1,120,168,119,-1,119,168,169,-1,119,169,118,-1,118,169,170,-1,118,170,117,-1,117,170,171,-1,117,171,143,-1,143,171,172,-1,143,172,142,-1,142,172,173,-1,142,173,141,-1,141,173,174,-1,141,174,140,-1,140,174,175,-1,140,175,139,-1,139,175,176,-1,139,176,138,-1,138,176,177,-1,138,177,137,-1,137,177,178,-1,137,178,136,-1,136,178,179,-1,136,179,135,-1,135,179,180,-1,135,180,134,-1,134,180,181,-1,134,181,133,-1,133,181,182,-1,133,182,132,-1,132,182,183,-1,132,183,131,-1,131,183,156,-1,131,156,130,-1,123,184,185,-1,123,185,116,-1,116,185,186,-1,116,186,115,-1,115,186,187,-1,115,187,114,-1,114,187,188,-1,114,188,113,-1,113,188,189,-1,113,189,112,-1,112,189,190,-1,112,190,111,-1,111,190,191,-1,111,191,110,-1,110,191,192,-1,110,192,109,-1,109,192,193,-1,109,193,148,-1,148,193,194,-1,148,194,147,-1,147,194,195,-1,147,195,146,-1,146,195,196,-1,146,196,145,-1,145,196,197,-1,145,197,144,-1,144,197,198,-1,144,198,155,-1,155,198,199,-1,155,199,154,-1,154,199,200,-1,154,200,153,-1,153,200,201,-1,153,201,152,-1,152,201,202,-1,152,202,151,-1,151,202,203,-1,151,203,150,-1,150,203,204,-1,150,204,105,-1,105,204,205,-1,105,205,100,-1,100,205,206,-1,100,206,101,-1,101,206,207,-1,101,207,128,-1,128,207,208,-1,128,208,127,-1,127,208,209,-1,127,209,126,-1,126,209,210,-1,126,210,125,-1,125,210,211,-1,125,211,124,-1,124,211,184,-1,124,184,123,-1,
        ]
    }
}
Shape{
    appearance Appearance {
        material  Material 	{
            diffuseColor 0.25098039215686274 0.25098039215686274 0.25098039215686274
            specularColor 0.12549019607843137 0.12549019607843137 0.12549019607843137
            ambientIntensity 0.251
            transparency 0.0
            shininess 0.5
        }
    }
    geometry IndexedFaceSet {
        ccw TRUE
        solid FALSE
        coord DEF co Coordinate {
            point [
                -0.0061 -0.207 0.3189, -0.0433 -0.207 0.3189, -0.0064 -0.2104 0.3189, -0.0428 -0.2124 0.3189, -0.0364 -0.223 0.3189, -0.0331 -0.2251 0.3189, -0.0293 -0.2264 0.3189, -0.0247 -0.2269 0.3189, -0.0296 -0.1878 0.3189, -0.0247 -0.1873 0.3189, -0.0067 -0.2017 0.3189, -0.0082 -0.1974 0.3189, -0.0106 -0.1938 0.3189, -0.0132 -0.1912 0.3189, -0.0207 -0.1877 0.3189, -0.0166 -0.189 0.3189, -0.0413 -0.2168 0.3189, -0.039 -0.2204 0.3189, -0.0333 -0.1891 0.3189, -0.0365 -0.191 0.3189, -0.0394 -0.194 0.3189, -0.0127 -0.2224 0.3189, -0.0161 -0.2248 0.3189, -0.0198 -0.2263 0.3189, -0.0094 -0.2187 0.3189, -0.0075 -0.2149 0.3189, -0.0416 -0.1977 0.3189, -0.043 -0.2025 0.3189
            ]
        }
        coordIndex [
            0,1,2,-1,2,1,3,-1,4,5,2,-1,2,5,6,-1,2,6,7,-1,8,0,9,-1,9,0,10,-1,9,10,11,-1,11,12,9,-1,9,12,13,-1,9,13,14,-1,14,13,15,-1,3,16,2,-1,2,16,17,-1,2,17,4,-1,8,18,0,-1,0,18,19,-1,0,19,20,-1,21,7,22,-1,22,7,23,-1,21,24,7,-1,7,24,25,-1,7,25,2,-1,20,26,0,-1,0,26,27,-1,0,27,1,-1,
        ]
    }
}
Shape{
    appearance Appearance {
        material  Material 	{
            diffuseColor 0.6666666666666666 0.6666666666666666 0.6666666666666666
            specularColor 0.3333333333333333 0.3333333333333333 0.3333333333333333
            ambientIntensity 0.6667
            transparency 0.0
            shininess 0.5
        }
    }
    geometry IndexedFaceSet {
        ccw TRUE
        solid FALSE
        coord DEF co Coordinate {
            point [
                0.0455 -0.1573 0.315, -0.053 -0.1573 0.315, 0.0455 -0.1573 0.3189, -0.053 -0.1573 0.3189, -0.053 -0.1416 0.315, -0.053 -0.1416 0.3189, 0.0235 -0.0934 0.315, 0.0235 -0.0934 0.3189, 0.0299 -0.0901 0.315, 0.0299 -0.0901 0.3189, 0.0266 -0.0916 0.3189, 0.0266 -0.0916 0.315, 0.0299 -0.0897 0.315, 0.0299 -0.0897 0.3189, 0.0161 -0.0901 0.315, 0.0161 -0.0901 0.3189, 0.023 -0.09 0.3189, 0.023 -0.09 0.315, -0.053 -0.0901 0.315, -0.053 -0.0901 0.3189, -0.053 -0.0769 0.315, -0.053 -0.0769 0.3189, 0.0455 -0.0769 0.315, 0.0455 -0.0769 0.3189, 0.0455 -0.0937 0.315, 0.0455 -0.0937 0.3189, -0.0294 -0.1405 0.315, -0.0294 -0.1405 0.3189, -0.0361 -0.1445 0.315, -0.0361 -0.1445 0.3189, -0.0327 -0.1426 0.3189, -0.0327 -0.1426 0.315, -0.0361 -0.1447 0.315, -0.0361 -0.1447 0.3189, -0.0219 -0.1441 0.315, -0.0219 -0.1441 0.3189, -0.029 -0.1442 0.3189, -0.029 -0.1442 0.315, 0.0455 -0.1441 0.315, 0.0455 -0.1441 0.3189, -0.0049 0.036 0.315, -0.0049 0.036 0.3189, -0.0175 0.0348 0.3189, -0.0175 0.0348 0.315, -0.0281 0.0315 0.3189, -0.0281 0.0315 0.315, -0.0373 0.026 0.3189, -0.0373 0.026 0.315, -0.0446 0.0189 0.3189, -0.0446 0.0189 0.315, -0.0497 0.0109 0.3189, -0.0497 0.0109 0.315, -0.0529 0.0017 0.3189, -0.0529 0.0017 0.315, -0.0542 -0.0104 0.315, -0.0536 -0.0047 0.3189, -0.0542 -0.0104 0.3189, 0.0467 -0.012 0.315, 0.0467 -0.012 0.3189, 0.0458 -0.0013 0.315, 0.0461 -0.005 0.3189, 0.0458 -0.0013 0.3189, 0.0428 0.0086 0.3189, 0.0428 0.0086 0.315, 0.0374 0.0179 0.3189, 0.0374 0.0179 0.315, 0.0294 0.0258 0.3189, 0.0294 0.0258 0.315, 0.0201 0.0312 0.3189, 0.0201 0.0312 0.315, 0.0083 0.0348 0.3189, 0.0083 0.0348 0.315, -0.0026 -0.0577 0.315, -0.0026 -0.0577 0.3189, 0.0073 -0.057 0.3189, 0.0073 -0.057 0.315, 0.0183 -0.0542 0.3189, 0.0183 -0.0542 0.315, 0.0281 -0.049 0.3189, 0.0281 -0.049 0.315, 0.0363 -0.0417 0.3189, 0.0363 -0.0417 0.315, 0.0421 -0.0332 0.3189, 0.0421 -0.0332 0.315, 0.0454 -0.0239 0.3189, 0.0454 -0.0239 0.315, 0.0461 -0.0175 0.3189, -0.0536 -0.016 0.3189, -0.0528 -0.0231 0.315, -0.0528 -0.0231 0.3189, -0.0495 -0.0324 0.3189, -0.0495 -0.0324 0.315, -0.0444 -0.0404 0.3189, -0.0444 -0.0404 0.315, -0.0365 -0.0479 0.3189, -0.0365 -0.0479 0.315, -0.0274 -0.0531 0.3189, -0.0274 -0.0531 0.315, -0.0158 -0.0565 0.3189, -0.0158 -0.0565 0.315, -0.0038 0.0228 0.315, -0.0152 0.0217 0.315, -0.0241 0.0189 0.315, -0.0311 0.0147 0.315, -0.0367 0.0094 0.315, -0.0404 0.0036 0.315, -0.0427 -0.0033 0.315, -0.0433 -0.0104 0.315, -0.0424 -0.0193 0.315, -0.0401 -0.0261 0.315, -0.0364 -0.0319 0.315, -0.0318 -0.0364 0.315, -0.0255 -0.0403 0.315, -0.0162 -0.0433 0.315, -0.004 -0.0445 0.315, 0.0076 -0.0435 0.315, 0.0166 -0.0409 0.315, 0.0239 -0.0369 0.315, 0.029 -0.0321 0.315, 0.0326 -0.0266 0.315, 0.0349 -0.0201 0.315, 0.0359 -0.0113 0.315, 0.0348 -0.0025 0.315, 0.0323 0.0041 0.315, 0.0283 0.01 0.315, 0.0218 0.0157 0.315, 0.0141 0.0197 0.315, 0.0034 0.0223 0.315, -0.0038 0.0228 0.3189, 0.0034 0.0223 0.3189, 0.0141 0.0197 0.3189, 0.0218 0.0157 0.3189, 0.0283 0.01 0.3189, 0.0323 0.0041 0.3189, 0.0348 -0.0025 0.3189, 0.0359 -0.0113 0.3189, 0.0349 -0.0201 0.3189, 0.0326 -0.0266 0.3189, 0.029 -0.0321 0.3189, 0.0239 -0.0369 0.3189, 0.0166 -0.0409 0.3189, 0.0076 -0.0435 0.3189, -0.004 -0.0445 0.3189, -0.0162 -0.0433 0.3189, -0.0255 -0.0403 0.3189, -0.0318 -0.0364 0.3189, -0.0364 -0.0319 0.3189, -0.0401 -0.0261 0.3189, -0.0424 -0.0193 0.3189, -0.0433 -0.0104 0.3189, -0.0427 -0.0033 0.3189, -0.0404 0.0036 0.3189, -0.0367 0.0094 0.3189, -0.0311 0.0147 0.3189, -0.0241 0.0189 0.3189, -0.0152 0.0217 0.3189, -0.0491 0.108 0.315, -0.0346 0.108 0.315, -0.0491 0.108 0.3189, -0.0346 0.108 0.3189, -0.0433 0.0817 0.315, -0.0433 0.0817 0.3189, -0.0427 0.0891 0.3189, -0.0427 0.0891 0.315, -0.0391 0.1008 0.3189, -0.0391 0.1008 0.315, -0.0287 0.0612 0.315, -0.0287 0.0612 0.3189, -0.0325 0.0616 0.3189, -0.0325 0.0616 0.315, -0.0356 0.0627 0.3189, -0.0356 0.0627 0.315, -0.0376 0.064 0.3189, -0.0376 0.064 0.315, -0.0395 0.0661 0.3189, -0.0395 0.0661 0.315, -0.0414 0.0696 0.3189, -0.0414 0.0696 0.315, -0.0428 0.0746 0.3189, -0.0428 0.0746 0.315, -0.0077 0.0839 0.315, -0.0077 0.0839 0.3189, -0.0153 0.0696 0.3189, -0.0153 0.0696 0.315, -0.0154 0.0695 0.3189, -0.0154 0.0695 0.315, -0.019 0.0652 0.3189, -0.019 0.0652 0.315, -0.0223 0.0627 0.3189, -0.0223 0.0627 0.315, -0.0251 0.0616 0.3189, -0.0251 0.0616 0.315, 0.0203 0.108 0.315, 0.0203 0.108 0.3189, 0.0134 0.1071 0.3189, 0.0134 0.1071 0.315, 0.0085 0.105 0.3189, 0.0085 0.105 0.315, 0.004 0.1017 0.3189, 0.004 0.1017 0.315, -0.0007 0.096 0.3189, -0.0007 0.096 0.315, 0.0467 0.0732 0.315, 0.0467 0.0732 0.3189, 0.0456 0.084 0.315, 0.0461 0.0793 0.3189, 0.0456 0.084 0.3189, 0.0429 0.0923 0.3189, 0.0429 0.0923 0.315, 0.0397 0.0979 0.3189, 0.0397 0.0979 0.315, 0.0361 0.1021 0.3189, 0.0361 0.1021 0.315, 0.0318 0.1052 0.3189, 0.0318 0.1052 0.315, 0.0271 0.1071 0.3189, 0.0271 0.1071 0.315, 0.0462 0.0622 0.315, 0.044 0.0516 0.315, 0.044 0.0516 0.3189, 0.0461 0.0616 0.3189, 0.0462 0.0622 0.3189, 0.0296 0.0516 0.315, 0.0296 0.0516 0.3189, 0.0359 0.0742 0.315, 0.0359 0.0742 0.3189, 0.0354 0.0674 0.3189, 0.0354 0.0674 0.315, 0.0334 0.059 0.3189, 0.0334 0.059 0.315, 0.0216 0.0948 0.315, 0.0216 0.0948 0.3189, 0.0245 0.0945 0.3189, 0.0245 0.0945 0.315, 0.0272 0.0936 0.3189, 0.0272 0.0936 0.315, 0.0292 0.0922 0.3189, 0.0292 0.0922 0.315, 0.0314 0.0899 0.3189, 0.0314 0.0899 0.315, 0.0336 0.0863 0.3189, 0.0336 0.0863 0.315, 0.0352 0.0811 0.3189, 0.0352 0.0811 0.315, 0.0016 0.0739 0.315, 0.0016 0.0739 0.3189, 0.0064 0.083 0.3189, 0.0064 0.083 0.315, 0.01 0.0886 0.3189, 0.01 0.0886 0.315, 0.0127 0.0916 0.3189, 0.0127 0.0916 0.315, 0.0151 0.0933 0.3189, 0.0151 0.0933 0.315, 0.0178 0.0943 0.3189, 0.0178 0.0943 0.315, -0.0276 0.048 0.315, -0.0276 0.048 0.3189, -0.0267 0.048 0.3189, -0.0267 0.048 0.315, -0.0208 0.0489 0.3189, -0.0208 0.0489 0.315, -0.0158 0.0511 0.3189, -0.0158 0.0511 0.315, -0.0109 0.0548 0.3189, -0.0109 0.0548 0.315, -0.0054 0.0615 0.3189, -0.0054 0.0615 0.315, -0.0542 0.0832 0.3189, -0.0536 0.0751 0.3189, -0.0542 0.0832 0.315, -0.0534 0.0729 0.315, -0.0534 0.0729 0.3189, -0.0507 0.0632 0.3189, -0.0507 0.0632 0.315, -0.0471 0.0571 0.3189, -0.0471 0.0571 0.315, -0.0436 0.0533 0.3189, -0.0436 0.0533 0.315, -0.0394 0.0505 0.3189, -0.0394 0.0505 0.315, -0.0345 0.0487 0.3189, -0.0345 0.0487 0.315, -0.0506 0.1048 0.3189, -0.0506 0.1048 0.315, -0.0528 0.0959 0.3189, -0.0528 0.0959 0.315, -0.0536 0.089 0.3189, 0.0455 0.1308 0.315, 0.0455 0.1176 0.315, 0.0455 0.1308 0.3189, 0.0455 0.1176 0.3189, -0.053 0.1452 0.315, -0.053 0.1452 0.3189, -0.053 0.1596 0.315, -0.053 0.1596 0.3189, -0.0098 0.1717 0.3189, 0.0184 0.1796 0.315, 0.0184 0.1796 0.3189, 0.0287 0.1812 0.315, 0.0287 0.1812 0.3189, 0.0235 0.1807 0.3189, 0.0235 0.1807 0.315, 0.0287 0.1824 0.315, 0.0287 0.1824 0.3189, 0.0186 0.1842 0.315, 0.0186 0.1842 0.3189, 0.0236 0.183 0.3189, 0.0236 0.183 0.315, -0.053 0.204 0.315, -0.053 0.204 0.3189, -0.053 0.2184 0.315, -0.053 0.2184 0.3189, 0.0455 0.2472 0.315, 0.0455 0.2472 0.3189, 0.0455 0.2328 0.315, 0.0455 0.2328 0.3189, -0.0285 0.2128 0.315, -0.0285 0.2128 0.3189, -0.0385 0.2112 0.315, -0.0385 0.2112 0.3189, -0.0335 0.2117 0.3189, -0.0335 0.2117 0.315, -0.0285 0.209 0.315, -0.0285 0.209 0.3189, -0.0335 0.2104 0.3189, -0.0335 0.2104 0.315, 0.0455 0.1872 0.315, 0.0455 0.1872 0.3189, 0.0455 0.1752 0.315, 0.0455 0.1752 0.3189, 0.0331 0.1717 0.3189, -0.0292 0.1541 0.315, -0.0292 0.1541 0.3189, -0.0385 0.1524 0.315, -0.0385 0.1524 0.3189, -0.0338 0.1531 0.3189, -0.0338 0.1531 0.315, -0.0289 0.1505 0.315, -0.0289 0.1505 0.3189, -0.0337 0.1517 0.3189, -0.0337 0.1517 0.315
            ]
        }
        coordIndex [
            0,1,2,-1,2,1,3,-1,1,4,3,-1,3,4,5,-1,4,6,5,-1,5,6,7,-1,8,9,10,-1,8,10,11,-1,11,10,7,-1,11,7,6,-1,8,12,9,-1,9,12,13,-1,14,15,16,-1,14,16,17,-1,17,16,13,-1,17,13,12,-1,14,18,15,-1,15,18,19,-1,18,20,19,-1,19,20,21,-1,20,22,21,-1,21,22,23,-1,22,24,23,-1,23,24,25,-1,24,26,25,-1,25,26,27,-1,28,29,30,-1,28,30,31,-1,31,30,27,-1,31,27,26,-1,28,32,29,-1,29,32,33,-1,34,35,36,-1,34,36,37,-1,37,36,33,-1,37,33,32,-1,34,38,35,-1,35,38,39,-1,38,0,39,-1,39,0,2,-1,0,38,1,-1,1,38,34,-1,20,18,22,-1,22,18,14,-1,14,17,22,-1,22,17,12,-1,22,12,24,-1,24,12,8,-1,34,37,1,-1,1,37,32,-1,1,32,4,-1,4,32,28,-1,28,31,4,-1,4,31,26,-1,4,26,6,-1,6,26,24,-1,6,24,11,-1,11,24,8,-1,40,41,42,-1,40,42,43,-1,43,42,44,-1,43,44,45,-1,45,44,46,-1,45,46,47,-1,47,46,48,-1,47,48,49,-1,49,48,50,-1,49,50,51,-1,51,50,52,-1,51,52,53,-1,53,52,54,-1,54,52,55,-1,54,55,56,-1,57,58,59,-1,59,58,60,-1,60,61,59,-1,59,61,62,-1,59,62,63,-1,63,62,64,-1,63,64,65,-1,65,64,66,-1,65,66,67,-1,67,66,68,-1,67,68,69,-1,69,68,70,-1,69,70,71,-1,71,70,41,-1,71,41,40,-1,72,73,74,-1,72,74,75,-1,75,74,76,-1,75,76,77,-1,77,76,78,-1,77,78,79,-1,79,78,80,-1,79,80,81,-1,81,80,82,-1,81,82,83,-1,83,82,84,-1,83,84,85,-1,85,84,57,-1,57,84,86,-1,57,86,58,-1,54,56,87,-1,54,87,88,-1,87,89,88,-1,88,89,90,-1,88,90,91,-1,91,90,92,-1,91,92,93,-1,93,92,94,-1,93,94,95,-1,95,94,96,-1,95,96,97,-1,97,96,98,-1,97,98,99,-1,99,98,73,-1,99,73,72,-1,100,40,101,-1,101,40,43,-1,101,43,102,-1,102,43,45,-1,102,45,103,-1,103,45,47,-1,103,47,104,-1,104,47,49,-1,104,49,105,-1,105,49,51,-1,105,51,106,-1,106,51,53,-1,106,53,107,-1,107,53,54,-1,107,54,108,-1,108,54,88,-1,108,88,109,-1,109,88,91,-1,109,91,110,-1,110,91,93,-1,110,93,111,-1,111,93,95,-1,111,95,112,-1,112,95,97,-1,112,97,113,-1,113,97,99,-1,113,99,114,-1,114,99,72,-1,114,72,115,-1,115,72,75,-1,115,75,116,-1,116,75,77,-1,116,77,117,-1,117,77,79,-1,117,79,118,-1,118,79,81,-1,118,81,119,-1,119,81,83,-1,119,83,120,-1,120,83,85,-1,120,85,121,-1,121,85,57,-1,121,57,122,-1,122,57,59,-1,122,59,123,-1,123,59,63,-1,123,63,124,-1,124,63,65,-1,124,65,125,-1,125,65,67,-1,125,67,126,-1,126,67,69,-1,126,69,127,-1,127,69,71,-1,127,71,100,-1,100,71,40,-1,100,128,129,-1,100,129,127,-1,127,129,130,-1,127,130,126,-1,126,130,131,-1,126,131,125,-1,125,131,132,-1,125,132,124,-1,124,132,133,-1,124,133,123,-1,123,133,134,-1,123,134,122,-1,122,134,135,-1,122,135,121,-1,121,135,136,-1,121,136,120,-1,120,136,137,-1,120,137,119,-1,119,137,138,-1,119,138,118,-1,118,138,139,-1,118,139,117,-1,117,139,140,-1,117,140,116,-1,116,140,141,-1,116,141,115,-1,115,141,142,-1,115,142,114,-1,114,142,143,-1,114,143,113,-1,113,143,144,-1,113,144,112,-1,112,144,145,-1,112,145,111,-1,111,145,146,-1,111,146,110,-1,110,146,147,-1,110,147,109,-1,109,147,148,-1,109,148,108,-1,108,148,149,-1,108,149,107,-1,107,149,150,-1,107,150,106,-1,106,150,151,-1,106,151,105,-1,105,151,152,-1,105,152,104,-1,104,152,153,-1,104,153,103,-1,103,153,154,-1,103,154,102,-1,102,154,155,-1,102,155,101,-1,101,155,128,-1,101,128,100,-1,156,157,158,-1,158,157,159,-1,160,161,162,-1,160,162,163,-1,163,162,164,-1,163,164,165,-1,165,164,159,-1,165,159,157,-1,166,167,168,-1,166,168,169,-1,169,168,170,-1,169,170,171,-1,171,170,172,-1,171,172,173,-1,173,172,174,-1,173,174,175,-1,175,174,176,-1,175,176,177,-1,177,176,178,-1,177,178,179,-1,179,178,161,-1,179,161,160,-1,180,181,182,-1,180,182,183,-1,183,182,184,-1,183,184,185,-1,185,184,186,-1,185,186,187,-1,187,186,188,-1,187,188,189,-1,189,188,190,-1,189,190,191,-1,191,190,167,-1,191,167,166,-1,192,193,194,-1,192,194,195,-1,195,194,196,-1,195,196,197,-1,197,196,198,-1,197,198,199,-1,199,198,200,-1,199,200,201,-1,201,200,181,-1,201,181,180,-1,202,203,204,-1,204,203,205,-1,205,206,204,-1,204,206,207,-1,204,207,208,-1,208,207,209,-1,208,209,210,-1,210,209,211,-1,210,211,212,-1,212,211,213,-1,212,213,214,-1,214,213,215,-1,214,215,216,-1,216,215,193,-1,216,193,192,-1,203,202,217,-1,218,219,220,-1,218,220,217,-1,217,220,221,-1,217,221,203,-1,218,222,219,-1,219,222,223,-1,224,225,226,-1,224,226,227,-1,227,226,228,-1,227,228,229,-1,229,228,223,-1,229,223,222,-1,230,231,232,-1,230,232,233,-1,233,232,234,-1,233,234,235,-1,235,234,236,-1,235,236,237,-1,237,236,238,-1,237,238,239,-1,239,238,240,-1,239,240,241,-1,241,240,242,-1,241,242,243,-1,243,242,225,-1,243,225,224,-1,244,245,246,-1,244,246,247,-1,247,246,248,-1,247,248,249,-1,249,248,250,-1,249,250,251,-1,251,250,252,-1,251,252,253,-1,253,252,254,-1,253,254,255,-1,255,254,231,-1,255,231,230,-1,256,257,258,-1,256,258,259,-1,259,258,260,-1,259,260,261,-1,261,260,262,-1,261,262,263,-1,263,262,264,-1,263,264,265,-1,265,264,266,-1,265,266,267,-1,267,266,245,-1,267,245,244,-1,268,269,270,-1,270,269,271,-1,269,272,271,-1,271,272,273,-1,271,273,274,-1,274,273,275,-1,274,275,276,-1,276,275,277,-1,276,277,278,-1,278,277,279,-1,278,279,280,-1,280,279,281,-1,280,281,282,-1,282,281,257,-1,282,257,256,-1,156,158,283,-1,156,283,284,-1,284,283,285,-1,284,285,286,-1,286,285,270,-1,270,285,287,-1,270,287,268,-1,157,156,165,-1,165,156,284,-1,165,284,163,-1,163,284,286,-1,163,286,160,-1,160,286,270,-1,160,270,179,-1,179,270,271,-1,179,271,177,-1,177,271,274,-1,177,274,175,-1,175,274,276,-1,175,276,173,-1,173,276,278,-1,173,278,171,-1,171,278,280,-1,171,280,169,-1,169,280,282,-1,169,282,166,-1,282,256,166,-1,166,256,259,-1,166,259,191,-1,191,259,261,-1,191,261,189,-1,189,261,263,-1,189,263,187,-1,187,263,265,-1,187,265,185,-1,185,265,267,-1,185,267,183,-1,183,267,244,-1,183,244,180,-1,180,244,247,-1,180,247,201,-1,201,247,249,-1,201,249,199,-1,199,249,251,-1,199,251,197,-1,197,251,253,-1,197,253,195,-1,195,253,255,-1,195,255,192,-1,192,255,230,-1,192,230,216,-1,216,230,233,-1,216,233,214,-1,214,233,235,-1,214,235,212,-1,212,235,237,-1,212,237,210,-1,210,237,239,-1,210,239,208,-1,208,239,241,-1,208,241,204,-1,204,241,243,-1,204,243,202,-1,202,243,224,-1,202,224,217,-1,217,224,227,-1,217,227,218,-1,218,227,229,-1,218,229,222,-1,288,289,290,-1,290,289,291,-1,289,292,291,-1,291,292,293,-1,292,294,293,-1,293,294,295,-1,295,294,296,-1,296,294,297,-1,296,297,298,-1,299,300,301,-1,299,301,302,-1,302,301,298,-1,302,298,297,-1,299,303,300,-1,300,303,304,-1,305,306,307,-1,305,307,308,-1,308,307,304,-1,308,304,303,-1,305,309,306,-1,306,309,310,-1,309,311,310,-1,310,311,312,-1,311,313,312,-1,312,313,314,-1,313,315,314,-1,314,315,316,-1,315,317,316,-1,316,317,318,-1,319,320,321,-1,319,321,322,-1,322,321,318,-1,322,318,317,-1,323,324,325,-1,323,325,326,-1,326,325,320,-1,326,320,319,-1,323,327,324,-1,324,327,328,-1,327,329,328,-1,328,329,330,-1,330,329,331,-1,331,329,332,-1,331,332,333,-1,334,335,336,-1,334,336,337,-1,337,336,333,-1,337,333,332,-1,338,339,340,-1,338,340,341,-1,341,340,335,-1,341,335,334,-1,338,288,339,-1,339,288,290,-1,315,313,317,-1,317,313,311,-1,317,311,322,-1,289,288,292,-1,292,288,338,-1,338,341,292,-1,292,341,334,-1,292,334,294,-1,322,311,319,-1,319,311,309,-1,319,309,326,-1,334,337,294,-1,294,337,332,-1,294,332,297,-1,297,332,329,-1,297,329,302,-1,305,327,309,-1,309,327,323,-1,309,323,326,-1,305,308,327,-1,327,308,303,-1,327,303,329,-1,329,303,299,-1,329,299,302,-1,
        ]
    }
}
Shape{
    appearance Appearance {
        material  Material 	{
            diffuseColor 0.25098039215686274 0.25098039215686274 0.25098039215686274
            specularColor 0.12549019607843137 0.12549019607843137 0.12549019607843137
            ambientIntensity 0.251
            transparency 0.0
            shininess 0.5
        }
    }
    geometry IndexedFaceSet {
        ccw TRUE
        solid FALSE
        coord DEF co Coordinate {
            point [
                0.0245 -0.2228 0.3189, 0.0279 -0.2215 0.3189, 0.0097 -0.1973 0.3189, 0.0309 -0.2194 0.3189, 0.0325 -0.2177 0.3189, 0.012 -0.221 0.3189, 0.0152 -0.2225 0.3189, 0.0085 -0.1984 0.3189, 0.0185 -0.2232 0.3189, 0.0203 -0.2233 0.3189, 0.0203 -0.1933 0.3189, 0.0233 -0.1935 0.3189, 0.0344 -0.215 0.3189, 0.0354 -0.2043 0.3189, 0.0343 -0.2013 0.3189, 0.0359 -0.2082 0.3189, 0.0325 -0.1986 0.3189, 0.0301 -0.1964 0.3189, 0.0161 -0.1938 0.3189, 0.0128 -0.1951 0.3189, 0.0355 -0.2117 0.3189, 0.0268 -0.1945 0.3189, 0.0065 -0.2011 0.3189, 0.0065 -0.2152 0.3189, 0.0086 -0.2181 0.3189, 0.0052 -0.2043 0.3189, 0.0047 -0.2082 0.3189, 0.0052 -0.2122 0.3189, 0.0076 -0.0435 0.3189, 0.0034 0.0223 0.3189, -0.004 -0.0445 0.3189, -0.0038 0.0228 0.3189, -0.0162 -0.0433 0.3189, -0.0255 -0.0403 0.3189, 0.0323 0.0041 0.3189, 0.0348 -0.0025 0.3189, 0.0359 -0.0113 0.3189, -0.0241 0.0189 0.3189, -0.0311 0.0147 0.3189, -0.0427 -0.0033 0.3189, -0.0367 0.0094 0.3189, -0.0404 0.0036 0.3189, -0.0401 -0.0261 0.3189, -0.0364 -0.0319 0.3189, -0.0318 -0.0364 0.3189, 0.0283 0.01 0.3189, 0.0218 0.0157 0.3189, 0.0141 0.0197 0.3189, -0.0152 0.0217 0.3189, -0.0433 -0.0104 0.3189, -0.0424 -0.0193 0.3189, 0.0166 -0.0409 0.3189, 0.0239 -0.0369 0.3189, 0.029 -0.0321 0.3189, 0.0326 -0.0266 0.3189, 0.0349 -0.0201 0.3189
            ]
        }
        coordIndex [
            0,1,2,-1,2,1,3,-1,2,3,4,-1,5,6,7,-1,7,6,8,-1,7,8,2,-1,2,8,9,-1,2,9,0,-1,10,4,11,-1,11,4,12,-1,13,14,15,-1,15,14,16,-1,15,16,17,-1,10,18,4,-1,4,18,19,-1,4,19,2,-1,12,20,11,-1,11,20,15,-1,11,15,21,-1,21,15,17,-1,22,23,7,-1,7,23,24,-1,7,24,5,-1,25,26,22,-1,22,26,27,-1,22,27,23,-1,28,29,30,-1,30,29,31,-1,30,31,32,-1,32,31,33,-1,34,29,35,-1,35,29,36,-1,37,38,39,-1,39,38,40,-1,39,40,41,-1,42,43,31,-1,31,43,44,-1,31,44,33,-1,34,45,29,-1,29,45,46,-1,29,46,47,-1,37,39,48,-1,48,39,49,-1,48,49,31,-1,31,49,50,-1,31,50,42,-1,28,51,29,-1,29,51,52,-1,29,52,53,-1,53,54,29,-1,29,54,55,-1,29,55,36,-1,
        ]
    }
}
Shape{
    appearance Appearance {
        material  Material 	{
            diffuseColor 1.0 1.0 1.0
            specularColor 0.8784313725490196 0.8784313725490196 0.8784313725490196
            ambientIntensity 1.0
            transparency 0.0
            shininess 0.5
        }
    }
    geometry IndexedFaceSet {
        ccw TRUE
        solid FALSE
        coord DEF co Coordinate {
            point [
                -0.3976 0.3347 0.0787, -0.3976 0.2559 0.0787, -0.3937 0.3347 0.0787, -0.3937 0.2559 0.0787, -0.3937 0.2559 0.0039, -0.3976 0.2559 0.0, -0.2992 0.2559 0.0039, -0.2992 0.2559 0.0, -0.2992 0.3347 0.0039, -0.2992 0.3347 0.0, -0.3937 0.3347 0.0039, -0.3976 0.3347 0.0, -0.289 0.2573 0.0, -0.289 0.2573 0.0039, -0.2795 0.2612 0.0, -0.2795 0.2612 0.0039, -0.2714 0.2674 0.0, -0.2714 0.2674 0.0039, -0.2651 0.2756 0.0, -0.2651 0.2756 0.0039, -0.2612 0.2851 0.0, -0.2612 0.2851 0.0039, -0.2598 0.2953 0.0, -0.2598 0.2953 0.0039, -0.2612 0.3055 0.0, -0.2612 0.3055 0.0039, -0.2651 0.315 0.0, -0.2651 0.315 0.0039, -0.2714 0.3231 0.0, -0.2714 0.3231 0.0039, -0.2795 0.3294 0.0, -0.2795 0.3294 0.0039, -0.289 0.3333 0.0, -0.289 0.3333 0.0039, -0.3976 0.1378 0.0787, -0.3976 0.0591 0.0787, -0.3937 0.1378 0.0787, -0.3937 0.0591 0.0787, -0.3937 0.0591 0.0039, -0.3976 0.0591 0.0, -0.2992 0.0591 0.0039, -0.2992 0.0591 0.0, -0.2992 0.1378 0.0039, -0.2992 0.1378 0.0, -0.3937 0.1378 0.0039, -0.3976 0.1378 0.0, -0.289 0.0604 0.0, -0.289 0.0604 0.0039, -0.2795 0.0643 0.0, -0.2795 0.0643 0.0039, -0.2714 0.0706 0.0, -0.2714 0.0706 0.0039, -0.2651 0.0787 0.0, -0.2651 0.0787 0.0039, -0.2612 0.0882 0.0, -0.2612 0.0882 0.0039, -0.2598 0.0984 0.0, -0.2598 0.0984 0.0039, -0.2612 0.1086 0.0, -0.2612 0.1086 0.0039, -0.2651 0.1181 0.0, -0.2651 0.1181 0.0039, -0.2714 0.1263 0.0, -0.2714 0.1263 0.0039, -0.2795 0.1325 0.0, -0.2795 0.1325 0.0039, -0.289 0.1365 0.0, -0.289 0.1365 0.0039, -0.3976 -0.0591 0.0787, -0.3976 -0.1378 0.0787, -0.3937 -0.0591 0.0787, -0.3937 -0.1378 0.0787, -0.3937 -0.1378 0.0039, -0.3976 -0.1378 0.0, -0.2992 -0.1378 0.0039, -0.2992 -0.1378 0.0, -0.2992 -0.0591 0.0039, -0.2992 -0.0591 0.0, -0.3937 -0.0591 0.0039, -0.3976 -0.0591 0.0, -0.289 -0.1364 0.0, -0.289 -0.1364 0.0039, -0.2795 -0.1325 0.0, -0.2795 -0.1325 0.0039, -0.2714 -0.1263 0.0, -0.2714 -0.1263 0.0039, -0.2651 -0.1181 0.0, -0.2651 -0.1181 0.0039, -0.2612 -0.1086 0.0, -0.2612 -0.1086 0.0039, -0.2598 -0.0984 0.0, -0.2598 -0.0984 0.0039, -0.2612 -0.0882 0.0, -0.2612 -0.0882 0.0039, -0.2651 -0.0787 0.0, -0.2651 -0.0787 0.0039, -0.2714 -0.0706 0.0, -0.2714 -0.0706 0.0039, -0.2795 -0.0643 0.0, -0.2795 -0.0643 0.0039, -0.289 -0.0604 0.0, -0.289 -0.0604 0.0039, -0.3976 -0.2559 0.0787, -0.3976 -0.3346 0.0787, -0.3937 -0.2559 0.0787, -0.3937 -0.3346 0.0787, -0.3937 -0.3346 0.0039, -0.3976 -0.3346 0.0, -0.2992 -0.3346 0.0039, -0.2992 -0.3346 0.0, -0.2992 -0.2559 0.0039, -0.2992 -0.2559 0.0, -0.3937 -0.2559 0.0039, -0.3976 -0.2559 0.0, -0.289 -0.3333 0.0, -0.289 -0.3333 0.0039, -0.2795 -0.3294 0.0, -0.2795 -0.3294 0.0039, -0.2714 -0.3231 0.0, -0.2714 -0.3231 0.0039, -0.2651 -0.315 0.0, -0.2651 -0.315 0.0039, -0.2612 -0.3055 0.0, -0.2612 -0.3055 0.0039, -0.2598 -0.2953 0.0, -0.2598 -0.2953 0.0039, -0.2612 -0.2851 0.0, -0.2612 -0.2851 0.0039, -0.2651 -0.2756 0.0, -0.2651 -0.2756 0.0039, -0.2714 -0.2674 0.0, -0.2714 -0.2674 0.0039, -0.2795 -0.2612 0.0, -0.2795 -0.2612 0.0039, -0.289 -0.2572 0.0, -0.289 -0.2572 0.0039, 0.3976 0.2559 0.0787, 0.3976 0.3347 0.0787, 0.3937 0.2559 0.0787, 0.3937 0.3347 0.0787, 0.3976 0.3347 0.0, 0.3976 0.2559 0.0, 0.3937 0.3347 0.0039, 0.2992 0.3347 0.0039, 0.2992 0.3347 0.0, 0.289 0.3333 0.0, 0.289 0.3333 0.0039, 0.2795 0.3294 0.0, 0.2795 0.3294 0.0039, 0.2714 0.3231 0.0, 0.2714 0.3231 0.0039, 0.2651 0.315 0.0, 0.2651 0.315 0.0039, 0.2612 0.3055 0.0, 0.2612 0.3055 0.0039, 0.2598 0.2953 0.0, 0.2598 0.2953 0.0039, 0.2612 0.2851 0.0, 0.2612 0.2851 0.0039, 0.2651 0.2756 0.0, 0.2651 0.2756 0.0039, 0.2714 0.2674 0.0, 0.2714 0.2674 0.0039, 0.2795 0.2612 0.0, 0.2795 0.2612 0.0039, 0.289 0.2573 0.0, 0.289 0.2573 0.0039, 0.2992 0.2559 0.0, 0.2992 0.2559 0.0039, 0.3937 0.2559 0.0039, 0.3976 0.0591 0.0787, 0.3976 0.1378 0.0787, 0.3937 0.0591 0.0787, 0.3937 0.1378 0.0787, 0.3976 0.1378 0.0, 0.3976 0.0591 0.0, 0.3937 0.1378 0.0039, 0.2992 0.1378 0.0039, 0.2992 0.1378 0.0, 0.289 0.1365 0.0, 0.289 0.1365 0.0039, 0.2795 0.1325 0.0, 0.2795 0.1325 0.0039, 0.2714 0.1263 0.0, 0.2714 0.1263 0.0039, 0.2651 0.1181 0.0, 0.2651 0.1181 0.0039, 0.2612 0.1086 0.0, 0.2612 0.1086 0.0039, 0.2598 0.0984 0.0, 0.2598 0.0984 0.0039, 0.2612 0.0882 0.0, 0.2612 0.0882 0.0039, 0.2651 0.0787 0.0, 0.2651 0.0787 0.0039, 0.2714 0.0706 0.0, 0.2714 0.0706 0.0039, 0.2795 0.0643 0.0, 0.2795 0.0643 0.0039, 0.289 0.0604 0.0, 0.289 0.0604 0.0039, 0.2992 0.0591 0.0, 0.2992 0.0591 0.0039, 0.3937 0.0591 0.0039, 0.3976 -0.1378 0.0787, 0.3976 -0.0591 0.0787, 0.3937 -0.1378 0.0787, 0.3937 -0.0591 0.0787, 0.3976 -0.0591 0.0, 0.3976 -0.1378 0.0, 0.3937 -0.0591 0.0039, 0.2992 -0.0591 0.0039, 0.2992 -0.0591 0.0, 0.289 -0.0604 0.0, 0.289 -0.0604 0.0039, 0.2795 -0.0643 0.0, 0.2795 -0.0643 0.0039, 0.2714 -0.0706 0.0, 0.2714 -0.0706 0.0039, 0.2651 -0.0787 0.0, 0.2651 -0.0787 0.0039, 0.2612 -0.0882 0.0, 0.2612 -0.0882 0.0039, 0.2598 -0.0984 0.0, 0.2598 -0.0984 0.0039, 0.2612 -0.1086 0.0, 0.2612 -0.1086 0.0039, 0.2651 -0.1181 0.0, 0.2651 -0.1181 0.0039, 0.2714 -0.1263 0.0, 0.2714 -0.1263 0.0039, 0.2795 -0.1325 0.0, 0.2795 -0.1325 0.0039, 0.289 -0.1364 0.0, 0.289 -0.1364 0.0039, 0.2992 -0.1378 0.0, 0.2992 -0.1378 0.0039, 0.3937 -0.1378 0.0039, 0.3976 -0.3346 0.0787, 0.3976 -0.2559 0.0787, 0.3937 -0.3346 0.0787, 0.3937 -0.2559 0.0787, 0.3976 -0.2559 0.0, 0.3976 -0.3346 0.0, 0.3937 -0.2559 0.0039, 0.2992 -0.2559 0.0039, 0.2992 -0.2559 0.0, 0.289 -0.2572 0.0, 0.289 -0.2572 0.0039, 0.2795 -0.2612 0.0, 0.2795 -0.2612 0.0039, 0.2714 -0.2674 0.0, 0.2714 -0.2674 0.0039, 0.2651 -0.2756 0.0, 0.2651 -0.2756 0.0039, 0.2612 -0.2851 0.0, 0.2612 -0.2851 0.0039, 0.2598 -0.2953 0.0, 0.2598 -0.2953 0.0039, 0.2612 -0.3055 0.0, 0.2612 -0.3055 0.0039, 0.2651 -0.315 0.0, 0.2651 -0.315 0.0039, 0.2714 -0.3231 0.0, 0.2714 -0.3231 0.0039, 0.2795 -0.3294 0.0, 0.2795 -0.3294 0.0039, 0.289 -0.3333 0.0, 0.289 -0.3333 0.0039, 0.2992 -0.3346 0.0, 0.2992 -0.3346 0.0039, 0.3937 -0.3346 0.0039, -0.1814 -0.3248 0.0, -0.1814 -0.3248 0.0039, -0.1814 -0.0308 0.0, -0.1814 0.2461 0.0039, -0.1814 0.2461 0.0, 0.1814 -0.3248 0.0, 0.1814 -0.3248 0.0039, -0.0287 -0.3248 0.0, 0.1814 0.3248 0.0, 0.1814 0.3248 0.0039, 0.1814 -0.0308 0.0, -0.1026 0.3248 0.0, -0.1026 0.3248 0.0039, -0.0287 0.3248 0.0
            ]
        }
        coordIndex [
            0,1,2,-1,2,1,3,-1,3,1,4,-1,4,1,5,-1,4,5,6,-1,6,5,7,-1,8,9,10,-1,10,9,11,-1,10,11,2,-1,2,11,0,-1,1,0,5,-1,5,0,11,-1,6,7,12,-1,6,12,13,-1,13,12,14,-1,13,14,15,-1,15,14,16,-1,15,16,17,-1,17,16,18,-1,17,18,19,-1,19,18,20,-1,19,20,21,-1,21,20,22,-1,21,22,23,-1,23,22,24,-1,23,24,25,-1,25,24,26,-1,25,26,27,-1,27,26,28,-1,27,28,29,-1,29,28,30,-1,29,30,31,-1,31,30,32,-1,31,32,33,-1,33,32,9,-1,33,9,8,-1,5,11,7,-1,7,11,9,-1,7,9,12,-1,12,9,32,-1,26,24,22,-1,28,18,16,-1,26,22,28,-1,28,22,20,-1,28,20,18,-1,32,30,12,-1,12,30,28,-1,12,28,14,-1,14,28,16,-1,34,35,36,-1,36,35,37,-1,37,35,38,-1,38,35,39,-1,38,39,40,-1,40,39,41,-1,42,43,44,-1,44,43,45,-1,44,45,36,-1,36,45,34,-1,35,34,39,-1,39,34,45,-1,40,41,46,-1,40,46,47,-1,47,46,48,-1,47,48,49,-1,49,48,50,-1,49,50,51,-1,51,50,52,-1,51,52,53,-1,53,52,54,-1,53,54,55,-1,55,54,56,-1,55,56,57,-1,57,56,58,-1,57,58,59,-1,59,58,60,-1,59,60,61,-1,61,60,62,-1,61,62,63,-1,63,62,64,-1,63,64,65,-1,65,64,66,-1,65,66,67,-1,67,66,43,-1,67,43,42,-1,39,45,41,-1,41,45,43,-1,41,43,66,-1,66,64,41,-1,41,64,62,-1,41,62,46,-1,46,62,48,-1,60,58,52,-1,52,58,56,-1,52,56,54,-1,60,52,62,-1,62,52,50,-1,62,50,48,-1,68,69,70,-1,70,69,71,-1,71,69,72,-1,72,69,73,-1,72,73,74,-1,74,73,75,-1,76,77,78,-1,78,77,79,-1,78,79,70,-1,70,79,68,-1,69,68,73,-1,73,68,79,-1,74,75,80,-1,74,80,81,-1,81,80,82,-1,81,82,83,-1,83,82,84,-1,83,84,85,-1,85,84,86,-1,85,86,87,-1,87,86,88,-1,87,88,89,-1,89,88,90,-1,89,90,91,-1,91,90,92,-1,91,92,93,-1,93,92,94,-1,93,94,95,-1,95,94,96,-1,95,96,97,-1,97,96,98,-1,97,98,99,-1,99,98,100,-1,99,100,101,-1,101,100,77,-1,101,77,76,-1,73,79,75,-1,75,79,77,-1,75,77,100,-1,100,98,75,-1,75,98,96,-1,75,96,80,-1,92,90,88,-1,86,84,96,-1,96,84,82,-1,96,82,80,-1,86,96,88,-1,88,96,94,-1,88,94,92,-1,102,103,104,-1,104,103,105,-1,105,103,106,-1,106,103,107,-1,106,107,108,-1,108,107,109,-1,110,111,112,-1,112,111,113,-1,112,113,104,-1,104,113,102,-1,103,102,107,-1,107,102,113,-1,108,109,114,-1,108,114,115,-1,115,114,116,-1,115,116,117,-1,117,116,118,-1,117,118,119,-1,119,118,120,-1,119,120,121,-1,121,120,122,-1,121,122,123,-1,123,122,124,-1,123,124,125,-1,125,124,126,-1,125,126,127,-1,127,126,128,-1,127,128,129,-1,129,128,130,-1,129,130,131,-1,131,130,132,-1,131,132,133,-1,133,132,134,-1,133,134,135,-1,135,134,111,-1,135,111,110,-1,107,113,109,-1,109,113,111,-1,109,111,114,-1,114,111,134,-1,128,126,124,-1,130,120,118,-1,128,124,130,-1,130,124,122,-1,130,122,120,-1,134,132,114,-1,114,132,130,-1,114,130,116,-1,116,130,118,-1,136,137,138,-1,138,137,139,-1,137,136,140,-1,140,136,141,-1,139,137,142,-1,142,137,140,-1,142,140,143,-1,143,140,144,-1,143,144,145,-1,143,145,146,-1,146,145,147,-1,146,147,148,-1,148,147,149,-1,148,149,150,-1,150,149,151,-1,150,151,152,-1,152,151,153,-1,152,153,154,-1,154,153,155,-1,154,155,156,-1,156,155,157,-1,156,157,158,-1,158,157,159,-1,158,159,160,-1,160,159,161,-1,160,161,162,-1,162,161,163,-1,162,163,164,-1,164,163,165,-1,164,165,166,-1,166,165,167,-1,166,167,168,-1,168,167,169,-1,169,167,141,-1,169,141,138,-1,138,141,136,-1,145,144,157,-1,157,144,159,-1,140,141,144,-1,144,141,167,-1,144,167,165,-1,165,163,144,-1,144,163,161,-1,144,161,159,-1,151,157,153,-1,153,157,155,-1,151,149,157,-1,157,149,147,-1,157,147,145,-1,170,171,172,-1,172,171,173,-1,171,170,174,-1,174,170,175,-1,173,171,176,-1,176,171,174,-1,176,174,177,-1,177,174,178,-1,177,178,179,-1,177,179,180,-1,180,179,181,-1,180,181,182,-1,182,181,183,-1,182,183,184,-1,184,183,185,-1,184,185,186,-1,186,185,187,-1,186,187,188,-1,188,187,189,-1,188,189,190,-1,190,189,191,-1,190,191,192,-1,192,191,193,-1,192,193,194,-1,194,193,195,-1,194,195,196,-1,196,195,197,-1,196,197,198,-1,198,197,199,-1,198,199,200,-1,200,199,201,-1,200,201,202,-1,202,201,203,-1,203,201,175,-1,203,175,172,-1,172,175,170,-1,178,174,175,-1,175,201,178,-1,178,201,199,-1,178,199,197,-1,197,195,178,-1,178,195,193,-1,178,193,179,-1,191,189,193,-1,193,189,187,-1,193,187,185,-1,185,183,193,-1,193,183,181,-1,193,181,179,-1,204,205,206,-1,206,205,207,-1,205,204,208,-1,208,204,209,-1,207,205,210,-1,210,205,208,-1,210,208,211,-1,211,208,212,-1,211,212,213,-1,211,213,214,-1,214,213,215,-1,214,215,216,-1,216,215,217,-1,216,217,218,-1,218,217,219,-1,218,219,220,-1,220,219,221,-1,220,221,222,-1,222,221,223,-1,222,223,224,-1,224,223,225,-1,224,225,226,-1,226,225,227,-1,226,227,228,-1,228,227,229,-1,228,229,230,-1,230,229,231,-1,230,231,232,-1,232,231,233,-1,232,233,234,-1,234,233,235,-1,234,235,236,-1,236,235,237,-1,237,235,209,-1,237,209,206,-1,206,209,204,-1,212,208,209,-1,209,235,212,-1,212,235,233,-1,212,233,231,-1,231,229,212,-1,212,229,227,-1,212,227,213,-1,225,223,227,-1,227,223,221,-1,227,221,219,-1,219,217,227,-1,227,217,215,-1,227,215,213,-1,238,239,240,-1,240,239,241,-1,239,238,242,-1,242,238,243,-1,241,239,244,-1,244,239,242,-1,244,242,245,-1,245,242,246,-1,245,246,247,-1,245,247,248,-1,248,247,249,-1,248,249,250,-1,250,249,251,-1,250,251,252,-1,252,251,253,-1,252,253,254,-1,254,253,255,-1,254,255,256,-1,256,255,257,-1,256,257,258,-1,258,257,259,-1,258,259,260,-1,260,259,261,-1,260,261,262,-1,262,261,263,-1,262,263,264,-1,264,263,265,-1,264,265,266,-1,266,265,267,-1,266,267,268,-1,268,267,269,-1,268,269,270,-1,270,269,271,-1,271,269,243,-1,271,243,240,-1,240,243,238,-1,247,246,259,-1,259,246,261,-1,242,243,246,-1,246,243,269,-1,246,269,267,-1,267,265,246,-1,246,265,263,-1,246,263,261,-1,253,259,255,-1,255,259,257,-1,253,251,259,-1,259,251,249,-1,259,249,247,-1,272,273,274,-1,274,273,275,-1,274,275,276,-1,277,278,279,-1,279,278,273,-1,279,273,272,-1,280,281,282,-1,282,281,278,-1,282,278,277,-1,283,284,285,-1,285,284,281,-1,285,281,280,-1,
        ]
    }
}
Shape{
    appearance Appearance {
        material  Material 	{
            diffuseColor 0.25098039215686274 0.25098039215686274 0.25098039215686274
            specularColor 0.12549019607843137 0.12549019607843137 0.12549019607843137
            ambientIntensity 0.251
            transparency 0.0
            shininess 0.5
        }
    }
    geometry IndexedFaceSet {
        ccw TRUE
        solid FALSE
        coord DEF co Coordinate {
            point [
                0.0307 0.1003 0.0039, -0.0284 0.1233 0.0039, 0.0307 0.1003 0.0, -0.0284 0.1233 0.0, -0.0284 0.1147 0.0039, -0.0284 0.1147 0.0, -0.0118 0.1087 0.0039, -0.0118 0.1087 0.0, -0.0118 0.0843 0.0039, -0.0118 0.0843 0.0, -0.0284 0.0787 0.0039, -0.0284 0.0787 0.0, -0.0284 0.07 0.0039, -0.0284 0.07 0.0, 0.0307 0.0924 0.0039, 0.0307 0.0924 0.0, -0.0053 0.0863 0.0039, 0.0193 0.0951 0.0039, 0.0214 0.0957 0.0039, 0.0235 0.0961 0.0039, 0.0235 0.0963 0.0039, 0.0214 0.0966 0.0039, -0.0053 0.1061 0.0039, 0.0193 0.0972 0.0039, -0.0053 0.0863 0.0, -0.0053 0.1061 0.0, 0.0193 0.0951 0.0, 0.0214 0.0957 0.0, 0.0235 0.0961 0.0, 0.0235 0.0963 0.0, 0.0214 0.0966 0.0, 0.0193 0.0972 0.0, -0.0284 0.0342 0.0039, -0.0284 0.0182 0.0039, -0.0284 0.0342 0.0, -0.0284 0.0182 0.0, 0.0307 0.0182 0.0039, 0.0307 0.0182 0.0, 0.0307 0.0348 0.0039, 0.0307 0.0348 0.0, 0.0019 0.0657 0.0039, 0.0019 0.0657 0.0, 0.0048 0.0656 0.0, 0.0048 0.0656 0.0039, 0.0109 0.0645 0.0, 0.0109 0.0645 0.0039, 0.0167 0.062 0.0, 0.0167 0.062 0.0039, 0.0214 0.0584 0.0, 0.0214 0.0584 0.0039, 0.0235 0.0561 0.0, 0.0235 0.0561 0.0039, 0.0273 0.0503 0.0, 0.0273 0.0503 0.0039, 0.0298 0.0434 0.0, 0.0298 0.0434 0.0039, -0.0277 0.0415 0.0, -0.0277 0.0415 0.0039, -0.0257 0.0483 0.0, -0.0257 0.0483 0.0039, -0.0221 0.0545 0.0, -0.0221 0.0545 0.0039, -0.0175 0.0594 0.0, -0.0175 0.0594 0.0039, -0.0122 0.0628 0.0, -0.0122 0.0628 0.0039, -0.006 0.0649 0.0, -0.006 0.0649 0.0039, 0.0017 0.0578 0.0039, 0.0076 0.0573 0.0039, 0.0123 0.0559 0.0039, 0.0159 0.0539 0.0039, 0.0189 0.051 0.0039, 0.0217 0.0467 0.0039, 0.0234 0.0418 0.0039, 0.0242 0.0348 0.0039, 0.0242 0.0261 0.0039, -0.0219 0.0261 0.0039, -0.0219 0.0345 0.0039, -0.0213 0.0407 0.0039, -0.0198 0.0457 0.0039, -0.0174 0.0497 0.0039, -0.0142 0.053 0.0039, -0.0101 0.0555 0.0039, -0.0054 0.057 0.0039, 0.0242 0.0348 0.0, 0.0242 0.0261 0.0, 0.0234 0.0418 0.0, 0.0217 0.0467 0.0, 0.0189 0.051 0.0, 0.0159 0.0539 0.0, 0.0123 0.0559 0.0, 0.0076 0.0573 0.0, 0.0017 0.0578 0.0, -0.0054 0.057 0.0, -0.0101 0.0555 0.0, -0.0142 0.053 0.0, -0.0174 0.0497 0.0, -0.0198 0.0457 0.0, -0.0213 0.0407 0.0, -0.0219 0.0345 0.0, -0.0219 0.0261 0.0, -0.0219 0.0067 0.0039, -0.0284 0.0067 0.0039, -0.0219 0.0067 0.0, -0.0284 0.0067 0.0, -0.0284 -0.025 0.0039, -0.0284 -0.025 0.0, 0.0307 -0.025 0.0039, 0.0307 -0.025 0.0, 0.0307 0.0052 0.0039, 0.0307 0.0052 0.0, 0.0242 0.0052 0.0039, 0.0242 0.0052 0.0, 0.0242 -0.0171 0.0039, 0.0242 -0.0171 0.0, 0.0047 -0.0171 0.0039, 0.0047 -0.0171 0.0, 0.0047 0.0038 0.0039, 0.0047 0.0038 0.0, -0.0017 0.0038 0.0039, -0.0017 0.0038 0.0, -0.0017 -0.0171 0.0039, -0.0017 -0.0171 0.0, -0.0219 -0.0171 0.0039, -0.0219 -0.0171 0.0, -0.0188 -0.0366 0.0039, -0.0253 -0.0366 0.0039, -0.0188 -0.0366 0.0, -0.0253 -0.0366 0.0, -0.0279 -0.0429 0.0039, -0.0291 -0.0528 0.0039, -0.0291 -0.0528 0.0, -0.0291 -0.0512 0.0, -0.0291 -0.0512 0.0039, -0.0287 -0.0488 0.0, -0.0279 -0.0429 0.0, 0.0 -0.0805 0.0039, 0.0 -0.0805 0.0, -0.0067 -0.0799 0.0, -0.0067 -0.0799 0.0039, -0.0129 -0.0782 0.0, -0.0129 -0.0782 0.0039, -0.0186 -0.0751 0.0, -0.0186 -0.0751 0.0039, -0.0233 -0.0706 0.0, -0.0233 -0.0706 0.0039, -0.0264 -0.0658 0.0, -0.0264 -0.0658 0.0039, -0.0283 -0.0601 0.0, -0.0283 -0.0601 0.0039, -0.0287 -0.0563 0.0, 0.0314 -0.0505 0.0039, 0.0314 -0.0505 0.0, 0.0308 -0.0568 0.0, 0.0308 -0.0568 0.0039, 0.0289 -0.0633 0.0, 0.0289 -0.0633 0.0039, 0.0256 -0.0688 0.0, 0.0256 -0.0688 0.0039, 0.0207 -0.0739 0.0, 0.0207 -0.0739 0.0039, 0.0151 -0.0774 0.0, 0.0151 -0.0774 0.0039, 0.0084 -0.0796 0.0, 0.0084 -0.0796 0.0039, 0.0291 -0.0366 0.0039, 0.0291 -0.0366 0.0, 0.0309 -0.0434 0.0, 0.0309 -0.0434 0.0039, 0.0211 -0.0366 0.0039, 0.0211 -0.0366 0.0, 0.0249 -0.0504 0.0039, 0.0249 -0.0504 0.0, 0.024 -0.0432 0.0, 0.024 -0.0432 0.0039, 0.0005 -0.0726 0.0039, 0.0005 -0.0726 0.0, 0.0049 -0.0723 0.0, 0.0049 -0.0723 0.0039, 0.0113 -0.0707 0.0, 0.0113 -0.0707 0.0039, 0.0159 -0.0683 0.0, 0.0159 -0.0683 0.0039, 0.0199 -0.0648 0.0, 0.0199 -0.0648 0.0039, 0.0227 -0.0606 0.0, 0.0227 -0.0606 0.0039, 0.0243 -0.0562 0.0, 0.0243 -0.0562 0.0039, -0.0226 -0.0517 0.0039, -0.0226 -0.0517 0.0, -0.022 -0.0572 0.0, -0.022 -0.0572 0.0039, -0.0204 -0.0615 0.0, -0.0204 -0.0615 0.0039, -0.018 -0.0652 0.0, -0.018 -0.0652 0.0039, -0.0151 -0.0679 0.0, -0.0151 -0.0679 0.0039, -0.011 -0.0704 0.0, -0.011 -0.0704 0.0039, -0.0059 -0.072 0.0, -0.0059 -0.072 0.0039, -0.0194 -0.0376 0.0, -0.0194 -0.0376 0.0039, -0.0217 -0.0439 0.0, -0.0217 -0.0439 0.0039, -0.0219 -0.0855 0.0039, -0.0284 -0.0855 0.0039, -0.0219 -0.0855 0.0, -0.0284 -0.0855 0.0, -0.0284 -0.1158 0.0039, -0.0284 -0.1158 0.0, 0.0307 -0.1158 0.0039, 0.0307 -0.1158 0.0, 0.0307 -0.1079 0.0039, 0.0307 -0.1079 0.0, -0.0219 -0.1079 0.0039, -0.0219 -0.1079 0.0
            ]
        }
        coordIndex [
            0,1,2,-1,2,1,3,-1,1,4,3,-1,3,4,5,-1,4,6,5,-1,5,6,7,-1,6,8,7,-1,7,8,9,-1,8,10,9,-1,9,10,11,-1,10,12,11,-1,11,12,13,-1,12,14,13,-1,13,14,15,-1,14,0,15,-1,15,0,2,-1,16,17,14,-1,12,10,8,-1,17,18,14,-1,14,18,19,-1,14,19,0,-1,0,19,20,-1,0,20,21,-1,14,12,16,-1,16,12,8,-1,16,8,22,-1,22,8,6,-1,21,23,0,-1,0,23,22,-1,0,22,1,-1,1,22,6,-1,1,6,4,-1,16,22,24,-1,24,22,25,-1,17,16,26,-1,26,16,24,-1,17,26,27,-1,17,27,18,-1,18,27,28,-1,18,28,19,-1,20,19,29,-1,29,19,28,-1,20,29,30,-1,20,30,21,-1,21,30,31,-1,21,31,23,-1,22,23,25,-1,25,23,31,-1,32,33,34,-1,34,33,35,-1,33,36,35,-1,35,36,37,-1,36,38,37,-1,37,38,39,-1,40,41,42,-1,40,42,43,-1,43,42,44,-1,43,44,45,-1,45,44,46,-1,45,46,47,-1,47,46,48,-1,47,48,49,-1,49,48,50,-1,49,50,51,-1,51,50,52,-1,51,52,53,-1,53,52,54,-1,53,54,55,-1,55,54,39,-1,55,39,38,-1,32,34,56,-1,32,56,57,-1,57,56,58,-1,57,58,59,-1,59,58,60,-1,59,60,61,-1,61,60,62,-1,61,62,63,-1,63,62,64,-1,63,64,65,-1,65,64,66,-1,65,66,67,-1,67,66,41,-1,67,41,40,-1,67,40,68,-1,68,40,43,-1,68,43,69,-1,69,43,45,-1,69,45,70,-1,70,45,47,-1,70,47,71,-1,71,47,49,-1,71,49,72,-1,72,49,51,-1,72,51,73,-1,73,51,53,-1,73,53,74,-1,74,53,55,-1,74,55,75,-1,75,55,38,-1,75,38,76,-1,76,38,36,-1,76,36,77,-1,77,36,33,-1,77,33,78,-1,78,33,32,-1,78,32,79,-1,79,32,57,-1,79,57,80,-1,80,57,59,-1,80,59,81,-1,81,59,61,-1,81,61,82,-1,82,61,63,-1,82,63,83,-1,83,63,65,-1,83,65,84,-1,84,65,67,-1,84,67,68,-1,75,76,85,-1,85,76,86,-1,75,85,87,-1,75,87,74,-1,74,87,88,-1,74,88,73,-1,73,88,89,-1,73,89,72,-1,72,89,90,-1,72,90,71,-1,71,90,91,-1,71,91,70,-1,70,91,92,-1,70,92,69,-1,69,92,93,-1,69,93,68,-1,68,93,94,-1,68,94,84,-1,84,94,95,-1,84,95,83,-1,83,95,96,-1,83,96,82,-1,82,96,97,-1,82,97,81,-1,81,97,98,-1,81,98,80,-1,80,98,99,-1,80,99,79,-1,79,99,100,-1,79,100,78,-1,77,78,101,-1,101,78,100,-1,76,77,86,-1,86,77,101,-1,102,103,104,-1,104,103,105,-1,103,106,105,-1,105,106,107,-1,106,108,107,-1,107,108,109,-1,108,110,109,-1,109,110,111,-1,110,112,111,-1,111,112,113,-1,112,114,113,-1,113,114,115,-1,114,116,115,-1,115,116,117,-1,116,118,117,-1,117,118,119,-1,118,120,119,-1,119,120,121,-1,120,122,121,-1,121,122,123,-1,122,124,123,-1,123,124,125,-1,124,102,125,-1,125,102,104,-1,106,103,102,-1,102,124,106,-1,106,124,122,-1,106,122,108,-1,112,110,114,-1,114,110,108,-1,114,108,116,-1,116,108,122,-1,116,122,118,-1,118,122,120,-1,126,127,128,-1,128,127,129,-1,129,127,130,-1,131,132,133,-1,131,133,134,-1,134,133,135,-1,134,135,130,-1,130,135,136,-1,130,136,129,-1,137,138,139,-1,137,139,140,-1,140,139,141,-1,140,141,142,-1,142,141,143,-1,142,143,144,-1,144,143,145,-1,144,145,146,-1,146,145,147,-1,146,147,148,-1,148,147,149,-1,148,149,150,-1,150,149,131,-1,131,149,151,-1,131,151,132,-1,152,153,154,-1,152,154,155,-1,155,154,156,-1,155,156,157,-1,157,156,158,-1,157,158,159,-1,159,158,160,-1,159,160,161,-1,161,160,162,-1,161,162,163,-1,163,162,164,-1,163,164,165,-1,165,164,138,-1,165,138,137,-1,166,167,168,-1,166,168,169,-1,169,168,153,-1,169,153,152,-1,166,170,167,-1,167,170,171,-1,172,173,174,-1,172,174,175,-1,175,174,171,-1,175,171,170,-1,176,177,178,-1,176,178,179,-1,179,178,180,-1,179,180,181,-1,181,180,182,-1,181,182,183,-1,183,182,184,-1,183,184,185,-1,185,184,186,-1,185,186,187,-1,187,186,188,-1,187,188,189,-1,189,188,173,-1,189,173,172,-1,190,191,192,-1,190,192,193,-1,193,192,194,-1,193,194,195,-1,195,194,196,-1,195,196,197,-1,197,196,198,-1,197,198,199,-1,199,198,200,-1,199,200,201,-1,201,200,202,-1,201,202,203,-1,203,202,177,-1,203,177,176,-1,126,128,204,-1,126,204,205,-1,205,204,206,-1,205,206,207,-1,207,206,191,-1,207,191,190,-1,193,131,190,-1,190,131,134,-1,190,134,207,-1,207,134,130,-1,207,130,205,-1,205,130,127,-1,205,127,126,-1,170,166,175,-1,175,166,169,-1,175,169,172,-1,172,169,152,-1,172,152,189,-1,189,152,155,-1,189,155,187,-1,187,155,157,-1,187,157,185,-1,185,157,159,-1,185,159,183,-1,183,159,161,-1,183,161,181,-1,181,161,163,-1,181,163,179,-1,179,163,165,-1,179,165,176,-1,176,165,137,-1,176,137,203,-1,203,137,140,-1,203,140,201,-1,201,140,142,-1,201,142,199,-1,199,142,144,-1,199,144,197,-1,197,144,146,-1,197,146,195,-1,195,146,148,-1,195,148,193,-1,193,148,150,-1,193,150,131,-1,208,209,210,-1,210,209,211,-1,209,212,211,-1,211,212,213,-1,212,214,213,-1,213,214,215,-1,214,216,215,-1,215,216,217,-1,216,218,217,-1,217,218,219,-1,218,208,219,-1,219,208,210,-1,216,214,218,-1,218,214,212,-1,218,212,208,-1,208,212,209,-1,
        ]
    }
}
Shape{
    appearance Appearance {
        material  Material 	{
            diffuseColor 1.0 1.0 1.0
            specularColor 0.8784313725490196 0.8784313725490196 0.8784313725490196
            ambientIntensity 1.0
            transparency 0.0
            shininess 0.5
        }
    }
    geometry IndexedFaceSet {
        ccw TRUE
        solid FALSE
        coord DEF co Coordinate {
            point [
                -0.0053 0.0863 0.0, -0.0053 0.1061 0.0, 0.0193 0.0951 0.0, 0.0193 0.0972 0.0, 0.0214 0.0957 0.0, 0.0214 0.0966 0.0, 0.0235 0.0961 0.0, 0.0235 0.0963 0.0, 0.0242 0.0348 0.0, 0.0242 0.0261 0.0, -0.0219 0.0261 0.0, -0.0054 0.057 0.0, 0.0017 0.0578 0.0, -0.0101 0.0555 0.0, 0.0076 0.0573 0.0, 0.0123 0.0559 0.0, 0.0234 0.0418 0.0, -0.0219 0.0345 0.0, -0.0213 0.0407 0.0, -0.0198 0.0457 0.0, 0.0159 0.0539 0.0, 0.0189 0.051 0.0, 0.0217 0.0467 0.0, -0.0174 0.0497 0.0, -0.0142 0.053 0.0, -0.1026 0.3248 0.0, -0.1814 0.2461 0.0, -0.1026 0.3248 0.0039, -0.1814 0.2461 0.0039
            ]
        }
        coordIndex [
            0,1,2,-1,2,1,3,-1,2,3,4,-1,4,3,5,-1,4,5,6,-1,6,5,7,-1,8,9,10,-1,11,12,8,-1,11,8,13,-1,12,14,8,-1,8,14,15,-1,8,15,16,-1,10,17,8,-1,8,17,18,-1,8,18,19,-1,20,21,15,-1,15,21,22,-1,15,22,16,-1,19,23,8,-1,8,23,24,-1,8,24,13,-1,25,26,27,-1,27,26,28,-1,
        ]
    }
}