%TF.GenerationSoftware,KiCad,Pcbnew,8.0.0*%
%TF.CreationDate,2024-03-16T23:45:48+01:00*%
%TF.ProjectId,tcs_controller,7463735f-636f-46e7-9472-6f6c6c65722e,1.0*%
%TF.SameCoordinates,Original*%
%TF.FileFunction,Soldermask,Top*%
%TF.FilePolarity,Negative*%
%FSLAX46Y46*%
G04 Gerber Fmt 4.6, Leading zero omitted, Abs format (unit mm)*
G04 Created by KiCad (PCBNEW 8.0.0) date 2024-03-16 23:45:48*
%MOMM*%
%LPD*%
G01*
G04 APERTURE LIST*
G04 Aperture macros list*
%AMRoundRect*
0 Rectangle with rounded corners*
0 $1 Rounding radius*
0 $2 $3 $4 $5 $6 $7 $8 $9 X,Y pos of 4 corners*
0 Add a 4 corners polygon primitive as box body*
4,1,4,$2,$3,$4,$5,$6,$7,$8,$9,$2,$3,0*
0 Add four circle primitives for the rounded corners*
1,1,$1+$1,$2,$3*
1,1,$1+$1,$4,$5*
1,1,$1+$1,$6,$7*
1,1,$1+$1,$8,$9*
0 Add four rect primitives between the rounded corners*
20,1,$1+$1,$2,$3,$4,$5,0*
20,1,$1+$1,$4,$5,$6,$7,0*
20,1,$1+$1,$6,$7,$8,$9,0*
20,1,$1+$1,$8,$9,$2,$3,0*%
G04 Aperture macros list end*
%ADD10RoundRect,0.200000X-0.200000X-0.275000X0.200000X-0.275000X0.200000X0.275000X-0.200000X0.275000X0*%
%ADD11RoundRect,0.200000X0.275000X-0.200000X0.275000X0.200000X-0.275000X0.200000X-0.275000X-0.200000X0*%
%ADD12RoundRect,0.200000X-0.275000X0.200000X-0.275000X-0.200000X0.275000X-0.200000X0.275000X0.200000X0*%
%ADD13C,1.000000*%
%ADD14R,1.700000X1.700000*%
%ADD15O,1.700000X1.700000*%
%ADD16RoundRect,0.218750X0.256250X-0.218750X0.256250X0.218750X-0.256250X0.218750X-0.256250X-0.218750X0*%
%ADD17RoundRect,0.218750X-0.256250X0.218750X-0.256250X-0.218750X0.256250X-0.218750X0.256250X0.218750X0*%
%ADD18R,1.900000X1.500000*%
%ADD19C,0.600000*%
%ADD20R,1.160000X0.600000*%
%ADD21R,1.160000X0.300000*%
%ADD22O,2.000000X0.900000*%
%ADD23O,1.700000X0.900000*%
%ADD24RoundRect,0.250000X0.312500X0.625000X-0.312500X0.625000X-0.312500X-0.625000X0.312500X-0.625000X0*%
%ADD25R,1.500000X2.500000*%
%ADD26O,1.500000X2.500000*%
%ADD27RoundRect,0.135000X-0.185000X0.135000X-0.185000X-0.135000X0.185000X-0.135000X0.185000X0.135000X0*%
%ADD28C,1.100000*%
%ADD29R,2.200000X2.200000*%
%ADD30C,2.200000*%
%ADD31RoundRect,0.200000X0.200000X0.275000X-0.200000X0.275000X-0.200000X-0.275000X0.200000X-0.275000X0*%
%ADD32R,1.500000X1.050000*%
%ADD33O,1.500000X1.050000*%
%ADD34RoundRect,0.225000X-0.225000X-0.250000X0.225000X-0.250000X0.225000X0.250000X-0.225000X0.250000X0*%
%ADD35RoundRect,0.250000X0.325000X0.650000X-0.325000X0.650000X-0.325000X-0.650000X0.325000X-0.650000X0*%
%ADD36RoundRect,0.250000X0.650000X-0.325000X0.650000X0.325000X-0.650000X0.325000X-0.650000X-0.325000X0*%
%ADD37C,0.800000*%
%ADD38R,1.700000X0.900000*%
%ADD39RoundRect,0.112500X0.112500X-0.187500X0.112500X0.187500X-0.112500X0.187500X-0.112500X-0.187500X0*%
%ADD40R,0.900000X1.500000*%
%ADD41R,1.500000X0.900000*%
%ADD42R,3.900000X3.900000*%
%ADD43RoundRect,0.225000X0.225000X0.250000X-0.225000X0.250000X-0.225000X-0.250000X0.225000X-0.250000X0*%
G04 APERTURE END LIST*
D10*
%TO.C,R11*%
X154100000Y-90200000D03*
X155750000Y-90200000D03*
%TD*%
D11*
%TO.C,R3*%
X138000000Y-91745000D03*
X138000000Y-90095000D03*
%TD*%
D12*
%TO.C,R2*%
X138000000Y-87100000D03*
X138000000Y-88750000D03*
%TD*%
D13*
%TO.C,J6*%
X140400000Y-95700000D03*
%TD*%
%TO.C,J4*%
X138300000Y-95700000D03*
%TD*%
D14*
%TO.C,J2*%
X142600000Y-88100000D03*
D15*
X142600000Y-90640000D03*
%TD*%
D14*
%TO.C,J1*%
X149650000Y-88120000D03*
D15*
X149650000Y-90660000D03*
%TD*%
D16*
%TO.C,D2*%
X136000000Y-90112500D03*
X136000000Y-91687500D03*
%TD*%
D17*
%TO.C,D1*%
X136000000Y-87125000D03*
X136000000Y-88700000D03*
%TD*%
D18*
%TO.C,L1*%
X156150000Y-117860000D03*
X152050000Y-117860000D03*
%TD*%
D19*
%TO.C,J5*%
X157885000Y-106197500D03*
X157885000Y-100417500D03*
D20*
X156825000Y-106507500D03*
X156825000Y-105707500D03*
D21*
X156825000Y-104557500D03*
X156825000Y-103557500D03*
X156825000Y-103057500D03*
X156825000Y-102057500D03*
D20*
X156825000Y-100907500D03*
X156825000Y-100107500D03*
X156825000Y-100107500D03*
X156825000Y-100907500D03*
D21*
X156825000Y-101557500D03*
X156825000Y-102557500D03*
X156825000Y-104057500D03*
X156825000Y-105057500D03*
D20*
X156825000Y-105707500D03*
X156825000Y-106507500D03*
D22*
X157405000Y-107627500D03*
D23*
X161575000Y-107627500D03*
D22*
X157405000Y-98987500D03*
D23*
X161575000Y-98987500D03*
%TD*%
D24*
%TO.C,R6*%
X162662500Y-94100000D03*
X159737500Y-94100000D03*
%TD*%
D25*
%TO.C,U2*%
X144880000Y-114717500D03*
D26*
X142340000Y-114717500D03*
X139800000Y-114717500D03*
%TD*%
D27*
%TO.C,R10*%
X154200000Y-101690000D03*
X154200000Y-102710000D03*
%TD*%
D28*
%TO.C,J3*%
X163372800Y-116052600D03*
X163372800Y-113512600D03*
X163372800Y-110972600D03*
D29*
X160832800Y-116052600D03*
D30*
X160832800Y-113512600D03*
X160832800Y-110972600D03*
%TD*%
D31*
%TO.C,R1*%
X135450000Y-117500000D03*
X133800000Y-117500000D03*
%TD*%
D24*
%TO.C,R12*%
X162662500Y-91800000D03*
X159737500Y-91800000D03*
%TD*%
%TO.C,R7*%
X162662500Y-88200000D03*
X159737500Y-88200000D03*
%TD*%
D32*
%TO.C,Q1*%
X156591000Y-96494600D03*
D33*
X156591000Y-95224600D03*
X156591000Y-93954600D03*
%TD*%
D27*
%TO.C,R9*%
X154200000Y-103962200D03*
X154200000Y-104982200D03*
%TD*%
D34*
%TO.C,C1*%
X133850000Y-119000000D03*
X135400000Y-119000000D03*
%TD*%
D35*
%TO.C,C4*%
X155676600Y-113411000D03*
X152726600Y-113411000D03*
%TD*%
D24*
%TO.C,R4*%
X162662500Y-96400000D03*
X159737500Y-96400000D03*
%TD*%
D36*
%TO.C,C5*%
X149631400Y-119358200D03*
X149631400Y-116408200D03*
%TD*%
D37*
%TO.C,SW2*%
X131250000Y-89300000D03*
D38*
X131250000Y-91000000D03*
X131250000Y-87600000D03*
%TD*%
D37*
%TO.C,SW1*%
X131250000Y-116500000D03*
D38*
X131250000Y-118200000D03*
X131250000Y-114800000D03*
%TD*%
D39*
%TO.C,D3*%
X155600000Y-111400000D03*
X155600000Y-109300000D03*
%TD*%
D40*
%TO.C,U1*%
X134840000Y-111150000D03*
X136110000Y-111150000D03*
X137380000Y-111150000D03*
X138650000Y-111150000D03*
X139920000Y-111150000D03*
X141190000Y-111150000D03*
X142460000Y-111150000D03*
X143730000Y-111150000D03*
X145000000Y-111150000D03*
X146270000Y-111150000D03*
X147540000Y-111150000D03*
X148810000Y-111150000D03*
X150080000Y-111150000D03*
X151350000Y-111150000D03*
D41*
X152600000Y-109385000D03*
X152600000Y-108115000D03*
X152600000Y-106845000D03*
X152600000Y-105575000D03*
X152600000Y-104305000D03*
X152600000Y-103035000D03*
X152600000Y-101765000D03*
X152600000Y-100495000D03*
X152600000Y-99225000D03*
X152600000Y-97955000D03*
X152600000Y-96685000D03*
X152600000Y-95415000D03*
D40*
X151350000Y-93650000D03*
X150080000Y-93650000D03*
X148810000Y-93650000D03*
X147540000Y-93650000D03*
X146270000Y-93650000D03*
X145000000Y-93650000D03*
X143730000Y-93650000D03*
X142460000Y-93650000D03*
X141190000Y-93650000D03*
X139920000Y-93650000D03*
X138650000Y-93650000D03*
X137380000Y-93650000D03*
X136110000Y-93650000D03*
X134840000Y-93650000D03*
D19*
X141860000Y-105300000D03*
X143260000Y-105300000D03*
X141160000Y-104600000D03*
X142560000Y-104600000D03*
X143960000Y-104600000D03*
X141860000Y-103900000D03*
D42*
X142560000Y-103900000D03*
D19*
X143260000Y-103900000D03*
X141160000Y-103200000D03*
X142560000Y-103200000D03*
X143960000Y-103200000D03*
X141860000Y-102500000D03*
X143260000Y-102500000D03*
%TD*%
D43*
%TO.C,C2*%
X135400000Y-115400000D03*
X133850000Y-115400000D03*
%TD*%
D10*
%TO.C,R5*%
X154100000Y-91700000D03*
X155750000Y-91700000D03*
%TD*%
D24*
%TO.C,R8*%
X157200000Y-88200000D03*
X154275000Y-88200000D03*
%TD*%
D34*
%TO.C,C3*%
X133850000Y-113900000D03*
X135400000Y-113900000D03*
%TD*%
D13*
%TO.C,J7*%
X134800000Y-107700000D03*
%TD*%
M02*
