M48
; DRILL file {KiCad 8.0.0} date 2024-03-16T23:45:44+0100
; FORMAT={-:-/ absolute / metric / decimal}
; #@! TF.CreationDate,2024-03-16T23:45:44+01:00
; #@! TF.GenerationSoftware,Kicad,Pcbnew,8.0.0
; #@! TF.FileFunction,MixedPlating,1,2
FMAT,2
METRIC
; #@! TA.AperFunction,Plated,PTH,ComponentDrill
T1C0.300
; #@! TA.AperFunction,Plated,PTH,ViaDrill
T2C0.400
; #@! TA.AperFunction,Plated,PTH,ViaDrill
T3C0.500
; #@! TA.AperFunction,Plated,PTH,ComponentDrill
T4C0.500
; #@! TA.AperFunction,Plated,PTH,ComponentDrill
T5C0.600
; #@! TA.AperFunction,Plated,PTH,ComponentDrill
T6C0.750
; #@! TA.AperFunction,Plated,PTH,ComponentDrill
T7C1.000
; #@! TA.AperFunction,Plated,PTH,ComponentDrill
T8C1.100
; #@! TA.AperFunction,NonPlated,NPTH,ComponentDrill
T9C0.600
; #@! TA.AperFunction,NonPlated,NPTH,ComponentDrill
T10C0.800
; #@! TA.AperFunction,NonPlated,NPTH,ComponentDrill
T11C1.100
%
G90
G05
T1
X141.16Y-103.2
X141.16Y-104.6
X141.86Y-102.5
X141.86Y-103.9
X141.86Y-105.3
X142.56Y-103.2
X142.56Y-104.6
X143.26Y-102.5
X143.26Y-103.9
X143.26Y-105.3
X143.96Y-103.2
X143.96Y-104.6
T2
X128.016Y-89.891
X129.819Y-119.482
X131.25Y-113.6
X132.6Y-119.0
X133.274Y-88.062
X134.8Y-95.0
X136.082Y-95.0
X137.4Y-99.7
X137.4Y-109.6
X139.25Y-87.075
X141.6Y-109.5
X145.339Y-89.383
X146.2Y-95.0
X149.085Y-99.8
X149.1Y-107.7
X150.5Y-114.2
X151.181Y-105.664
X151.2Y-99.802
X151.2Y-101.75
X151.2Y-103.8
X151.2Y-107.7
X151.2Y-109.777
X152.6Y-86.7
X154.1Y-111.0
X154.2Y-99.1
X154.2Y-107.9
X156.8Y-90.2
X156.8Y-91.7
X158.3Y-119.6
X158.5Y-86.9
X158.5Y-88.2
X158.57Y-103.047
X158.6Y-104.297
X159.7Y-90.0
X161.6Y-100.8
X161.6Y-105.8
X162.662Y-90.024
X162.805Y-112.291
T3
X155.35Y-100.8
X155.524Y-105.707
X159.6Y-108.8
T4
X134.8Y-107.7
X138.3Y-95.7
X140.4Y-95.7
T6
X156.591Y-93.955
X156.591Y-95.225
X156.591Y-96.495
T7
X139.8Y-114.718
X142.34Y-114.718
X142.6Y-88.1
X142.6Y-90.64
X144.88Y-114.718
X149.65Y-88.12
X149.65Y-90.66
T8
X160.833Y-110.973
X160.833Y-113.513
X160.833Y-116.053
T9
X157.885Y-100.417
X157.885Y-106.197
T10
X131.25Y-89.3
X131.25Y-116.5
T11
X163.373Y-110.973
X163.373Y-113.513
X163.373Y-116.053
T5
G00X157.955Y-98.987
M15
G01X156.855Y-98.987
M16
G05
G00X157.955Y-107.627
M15
G01X156.855Y-107.627
M16
G05
G00X161.975Y-98.987
M15
G01X161.175Y-98.987
M16
G05
G00X161.975Y-107.627
M15
G01X161.175Y-107.627
M16
G05
M30
