%TF.GenerationSoftware,KiCad,Pcbnew,8.0.0*%
%TF.CreationDate,2024-03-16T23:45:48+01:00*%
%TF.ProjectId,tcs_controller,7463735f-636f-46e7-9472-6f6c6c65722e,1.0*%
%TF.SameCoordinates,Original*%
%TF.FileFunction,Copper,L2,Bot*%
%TF.FilePolarity,Positive*%
%FSLAX46Y46*%
G04 Gerber Fmt 4.6, Leading zero omitted, Abs format (unit mm)*
G04 Created by KiCad (PCBNEW 8.0.0) date 2024-03-16 23:45:48*
%MOMM*%
%LPD*%
G01*
G04 APERTURE LIST*
%TA.AperFunction,ComponentPad*%
%ADD10C,1.000000*%
%TD*%
%TA.AperFunction,ComponentPad*%
%ADD11R,1.700000X1.700000*%
%TD*%
%TA.AperFunction,ComponentPad*%
%ADD12O,1.700000X1.700000*%
%TD*%
%TA.AperFunction,ComponentPad*%
%ADD13O,2.000000X0.900000*%
%TD*%
%TA.AperFunction,ComponentPad*%
%ADD14O,1.700000X0.900000*%
%TD*%
%TA.AperFunction,ComponentPad*%
%ADD15R,1.500000X2.500000*%
%TD*%
%TA.AperFunction,ComponentPad*%
%ADD16O,1.500000X2.500000*%
%TD*%
%TA.AperFunction,ComponentPad*%
%ADD17R,2.200000X2.200000*%
%TD*%
%TA.AperFunction,ComponentPad*%
%ADD18C,2.200000*%
%TD*%
%TA.AperFunction,ComponentPad*%
%ADD19R,1.500000X1.050000*%
%TD*%
%TA.AperFunction,ComponentPad*%
%ADD20O,1.500000X1.050000*%
%TD*%
%TA.AperFunction,HeatsinkPad*%
%ADD21C,0.600000*%
%TD*%
%TA.AperFunction,ViaPad*%
%ADD22C,0.800000*%
%TD*%
%TA.AperFunction,ViaPad*%
%ADD23C,0.900000*%
%TD*%
%TA.AperFunction,Conductor*%
%ADD24C,0.300000*%
%TD*%
%TA.AperFunction,Conductor*%
%ADD25C,0.600000*%
%TD*%
G04 APERTURE END LIST*
D10*
%TO.P,J6,1,1*%
%TO.N,RX*%
X140400000Y-95700000D03*
%TD*%
%TO.P,J4,1,1*%
%TO.N,TX*%
X138300000Y-95700000D03*
%TD*%
D11*
%TO.P,J2,1,Pin_1*%
%TO.N,IO10*%
X142600000Y-88100000D03*
D12*
%TO.P,J2,2,Pin_2*%
%TO.N,IO9*%
X142600000Y-90640000D03*
%TD*%
D11*
%TO.P,J1,1,Pin_1*%
%TO.N,Net-(J1-Pin_1)*%
X149650000Y-88120000D03*
D12*
%TO.P,J1,2,Pin_2*%
%TO.N,IO38*%
X149650000Y-90660000D03*
%TD*%
D13*
%TO.P,J5,S1,SHIELD*%
%TO.N,GND*%
X157405000Y-107627500D03*
D14*
X161575000Y-107627500D03*
D13*
X157405000Y-98987500D03*
D14*
X161575000Y-98987500D03*
%TD*%
D15*
%TO.P,U2,1,Vin*%
%TO.N,Net-(U2-Vin)*%
X144880000Y-114717500D03*
D16*
%TO.P,U2,2,GND*%
%TO.N,GND*%
X142340000Y-114717500D03*
%TO.P,U2,3,Vout*%
%TO.N,+3V3*%
X139800000Y-114717500D03*
%TD*%
D17*
%TO.P,J3,1,Pin_1*%
%TO.N,VCC*%
X160832800Y-116052600D03*
D18*
%TO.P,J3,2,Pin_2*%
%TO.N,GND*%
X160832800Y-113512600D03*
%TO.P,J3,3,Pin_3*%
%TO.N,+24V Bus*%
X160832800Y-110972600D03*
%TD*%
D19*
%TO.P,Q1,1,C*%
%TO.N,Net-(Q1-C)*%
X156591000Y-96494600D03*
D20*
%TO.P,Q1,2,B*%
%TO.N,Net-(Q1-B)*%
X156591000Y-95224600D03*
%TO.P,Q1,3,E*%
%TO.N,GND*%
X156591000Y-93954600D03*
%TD*%
D21*
%TO.P,U1,41,GND*%
%TO.N,GND*%
X141860000Y-105300000D03*
X143260000Y-105300000D03*
X141160000Y-104600000D03*
X142560000Y-104600000D03*
X143960000Y-104600000D03*
X141860000Y-103900000D03*
X143260000Y-103900000D03*
X141160000Y-103200000D03*
X142560000Y-103200000D03*
X143960000Y-103200000D03*
X141860000Y-102500000D03*
X143260000Y-102500000D03*
%TD*%
D10*
%TO.P,J7,1,1*%
%TO.N,GND*%
X134800000Y-107700000D03*
%TD*%
D22*
%TO.N,GND*%
X159700000Y-90000000D03*
X152600000Y-86700000D03*
%TO.N,/EN*%
X137400000Y-109600000D03*
X132600000Y-119000000D03*
%TO.N,GND*%
X158500000Y-86900000D03*
X141600000Y-109500000D03*
X134800000Y-95000000D03*
X133273800Y-88061800D03*
X137400000Y-99700000D03*
X145338800Y-89382600D03*
X150500000Y-114200000D03*
X158300000Y-119600000D03*
X161600000Y-100800000D03*
X161600000Y-105800000D03*
X162804518Y-112290793D03*
X129819400Y-119481600D03*
X128016000Y-89890600D03*
X154200000Y-107900000D03*
X146200000Y-95000000D03*
X149100000Y-107700000D03*
X149084600Y-99800000D03*
X131250000Y-113600000D03*
X154100000Y-111000000D03*
X156800000Y-90200000D03*
X154200000Y-99100000D03*
%TO.N,IO9*%
X151180800Y-105664000D03*
%TO.N,IO10*%
X151200000Y-103800000D03*
%TO.N,IO1*%
X139250000Y-87075000D03*
X136082052Y-95000000D03*
%TO.N,USB_D+*%
X151200000Y-109777365D03*
X158600000Y-104297500D03*
%TO.N,IO13*%
X158500000Y-88200000D03*
%TO.N,IO14*%
X151200000Y-99801803D03*
%TO.N,USB_D-*%
X158569669Y-103047163D03*
X151200000Y-107700000D03*
%TO.N,IO14*%
X156800000Y-91700000D03*
%TO.N,IO13*%
X151200000Y-101750000D03*
D23*
%TO.N,+5V*%
X155350000Y-100800000D03*
X155524500Y-105707500D03*
X159600000Y-108800000D03*
D22*
%TO.N,+24V Bus*%
X162662500Y-90024500D03*
%TD*%
D24*
%TO.N,IO9*%
X151180800Y-105664000D02*
X151130000Y-105664000D01*
X143500000Y-98034000D02*
X143500000Y-91438000D01*
X151130000Y-105664000D02*
X143500000Y-98034000D01*
X143500000Y-91438000D02*
X142643000Y-90581000D01*
%TO.N,USB_D-*%
X155929669Y-103047163D02*
X155929669Y-103461882D01*
X154245731Y-103047163D02*
X152600000Y-104692894D01*
X155689669Y-103701882D02*
X155569669Y-103701882D01*
X156529669Y-103047163D02*
X156529669Y-102432451D01*
X156529669Y-103461882D02*
X156529669Y-103047163D01*
X157129669Y-103047163D02*
X157129669Y-103461882D01*
X152600000Y-106499200D02*
X151200000Y-107899200D01*
X155089669Y-103047163D02*
X154969669Y-103047163D01*
X157489669Y-102192454D02*
X157369669Y-102192454D01*
X156289669Y-102192451D02*
X156169669Y-102192451D01*
X158329669Y-103287163D02*
X158329669Y-103311874D01*
X155929669Y-102432451D02*
X155929669Y-103047163D01*
X157729669Y-103287163D02*
X157729669Y-102432454D01*
X158089669Y-103551874D02*
X157969669Y-103551874D01*
X152600000Y-104692894D02*
X152600000Y-106249200D01*
X154969669Y-103047163D02*
X154245731Y-103047163D01*
X156889669Y-103701882D02*
X156769669Y-103701882D01*
X157129669Y-102432454D02*
X157129669Y-103047163D01*
X155329669Y-103461882D02*
X155329669Y-103287163D01*
X152600000Y-106249200D02*
X152600000Y-106499200D01*
X157729669Y-103311874D02*
X157729669Y-103287163D01*
X157969669Y-103551874D02*
G75*
G02*
X157729726Y-103311874I31J239974D01*
G01*
X158569669Y-103047163D02*
G75*
G03*
X158329663Y-103287163I31J-240037D01*
G01*
X156769669Y-103701882D02*
G75*
G02*
X156529718Y-103461882I31J239982D01*
G01*
X156169669Y-102192451D02*
G75*
G03*
X155929751Y-102432451I31J-239949D01*
G01*
X155929669Y-103461882D02*
G75*
G02*
X155689669Y-103701869I-239969J-18D01*
G01*
X158329669Y-103311874D02*
G75*
G02*
X158089669Y-103551869I-239969J-26D01*
G01*
X155329669Y-103287163D02*
G75*
G03*
X155089669Y-103047231I-239969J-37D01*
G01*
X155569669Y-103701882D02*
G75*
G02*
X155329718Y-103461882I31J239982D01*
G01*
X156529669Y-102432451D02*
G75*
G03*
X156289669Y-102192431I-239969J51D01*
G01*
X157369669Y-102192454D02*
G75*
G03*
X157129654Y-102432454I31J-240046D01*
G01*
X157129669Y-103461882D02*
G75*
G02*
X156889669Y-103701869I-239969J-18D01*
G01*
X157729669Y-102432454D02*
G75*
G03*
X157489669Y-102192531I-239969J-46D01*
G01*
D25*
%TO.N,+5V*%
X159015000Y-101415000D02*
X155965000Y-101415000D01*
X159600000Y-102000000D02*
X159015000Y-101415000D01*
X159600000Y-108800000D02*
X159600000Y-102000000D01*
X155965000Y-101415000D02*
X155350000Y-100800000D01*
D24*
%TO.N,IO13*%
X149834600Y-93865400D02*
X149834600Y-100384600D01*
X157400000Y-89300000D02*
X154400000Y-89300000D01*
X154400000Y-89300000D02*
X149834600Y-93865400D01*
X158500000Y-88200000D02*
X157400000Y-89300000D01*
X149834600Y-100384600D02*
X151200000Y-101750000D01*
%TO.N,IO14*%
X153900000Y-91700000D02*
X151200000Y-94400000D01*
X156800000Y-91700000D02*
X153900000Y-91700000D01*
X151200000Y-94400000D02*
X151200000Y-99801803D01*
%TO.N,IO13*%
X158500000Y-88200000D02*
X158400000Y-88300000D01*
D25*
%TO.N,+24V Bus*%
X163144200Y-108661200D02*
X160832800Y-110972600D01*
X163144200Y-90506200D02*
X163144200Y-108661200D01*
X162662500Y-90024500D02*
X163144200Y-90506200D01*
D24*
%TO.N,USB_D+*%
X154902500Y-104297500D02*
X158600000Y-104297500D01*
X151200000Y-109777365D02*
X151200000Y-109677363D01*
X151200000Y-109677363D02*
X153898600Y-106978763D01*
X153898600Y-106978763D02*
X153898600Y-105301400D01*
X153898600Y-105301400D02*
X154902500Y-104297500D01*
D25*
%TO.N,/EN*%
X132600000Y-118987000D02*
X137400000Y-114187000D01*
X132600000Y-119000000D02*
X132600000Y-118987000D01*
X137400000Y-114187000D02*
X137400000Y-109600000D01*
D24*
%TO.N,IO10*%
X144907000Y-90408200D02*
X142591400Y-88092600D01*
X144907000Y-97507000D02*
X144907000Y-90408200D01*
X151249998Y-103800000D02*
X151200000Y-103800000D01*
X151200000Y-103800000D02*
X144907000Y-97507000D01*
%TO.N,IO1*%
X136082052Y-95000000D02*
X136082052Y-90242948D01*
X136082052Y-90242948D02*
X139250000Y-87075000D01*
D25*
%TO.N,+5V*%
X156107500Y-105200000D02*
X159000000Y-105200000D01*
X159000000Y-105200000D02*
X159600000Y-105800000D01*
X155600000Y-105707500D02*
X156107500Y-105200000D01*
%TD*%
%TA.AperFunction,Conductor*%
%TO.N,GND*%
G36*
X162196756Y-86000000D02*
G01*
X162342274Y-85997046D01*
X162354608Y-85997567D01*
X162643171Y-86027884D01*
X162657057Y-86030354D01*
X162937509Y-86101212D01*
X162950915Y-86105637D01*
X163218424Y-86215683D01*
X163231065Y-86221973D01*
X163480188Y-86368969D01*
X163491806Y-86376995D01*
X163717468Y-86557944D01*
X163727828Y-86567542D01*
X163925453Y-86778774D01*
X163934321Y-86789724D01*
X164099879Y-87026942D01*
X164107111Y-87039065D01*
X164237212Y-87297404D01*
X164242649Y-87310440D01*
X164334661Y-87584663D01*
X164338188Y-87598341D01*
X164390398Y-87883745D01*
X164391859Y-87896022D01*
X164399845Y-88038563D01*
X164400000Y-88044101D01*
X164400000Y-118799983D01*
X164403023Y-118945493D01*
X164402502Y-118957891D01*
X164372195Y-119246428D01*
X164369721Y-119260335D01*
X164298870Y-119540788D01*
X164294442Y-119554201D01*
X164184401Y-119821711D01*
X164178110Y-119834357D01*
X164031110Y-120083498D01*
X164023082Y-120095121D01*
X163842131Y-120320793D01*
X163832531Y-120331155D01*
X163621300Y-120528783D01*
X163610323Y-120537673D01*
X163373117Y-120703227D01*
X163360987Y-120710464D01*
X163102633Y-120840575D01*
X163089596Y-120846012D01*
X162815363Y-120938028D01*
X162801685Y-120941555D01*
X162516310Y-120993761D01*
X162503949Y-120995227D01*
X162361393Y-121003093D01*
X162355929Y-121003243D01*
X129406325Y-121000003D01*
X129361974Y-120999999D01*
X129361973Y-120999999D01*
X129361964Y-120999999D01*
X129219366Y-121003061D01*
X129206966Y-121002549D01*
X128924138Y-120973036D01*
X128910223Y-120970570D01*
X128635317Y-120901298D01*
X128621895Y-120896876D01*
X128359654Y-120789170D01*
X128346998Y-120782881D01*
X128102755Y-120638927D01*
X128091129Y-120630905D01*
X127869867Y-120453640D01*
X127859513Y-120444053D01*
X127665748Y-120237096D01*
X127656852Y-120226119D01*
X127561510Y-120089594D01*
X127494528Y-119993679D01*
X127487287Y-119981547D01*
X127359720Y-119728380D01*
X127354277Y-119715338D01*
X127300183Y-119554201D01*
X127264048Y-119446561D01*
X127260523Y-119432893D01*
X127209331Y-119153190D01*
X127207865Y-119140827D01*
X127200151Y-119001136D01*
X127200120Y-119000000D01*
X131894355Y-119000000D01*
X131914860Y-119168872D01*
X131975182Y-119327930D01*
X132071817Y-119467929D01*
X132199148Y-119580734D01*
X132349775Y-119659790D01*
X132514944Y-119700500D01*
X132514947Y-119700500D01*
X132685053Y-119700500D01*
X132685056Y-119700500D01*
X132850225Y-119659790D01*
X133000852Y-119580734D01*
X133128183Y-119467929D01*
X133224818Y-119327930D01*
X133285140Y-119168872D01*
X133285140Y-119168871D01*
X133287264Y-119163271D01*
X133288962Y-119163915D01*
X133310467Y-119125766D01*
X137115267Y-115320967D01*
X138749500Y-115320967D01*
X138789869Y-115523918D01*
X138869058Y-115715097D01*
X138984020Y-115887151D01*
X138984023Y-115887155D01*
X139130345Y-116033477D01*
X139302402Y-116148441D01*
X139493580Y-116227630D01*
X139696535Y-116268000D01*
X139696536Y-116268000D01*
X139903464Y-116268000D01*
X139903465Y-116268000D01*
X140106420Y-116227630D01*
X140297598Y-116148441D01*
X140469655Y-116033477D01*
X140615977Y-115887155D01*
X140730941Y-115715098D01*
X140810130Y-115523920D01*
X140850500Y-115320965D01*
X140850500Y-115316510D01*
X141082000Y-115316510D01*
X141112974Y-115512077D01*
X141174166Y-115700404D01*
X141264060Y-115876834D01*
X141380450Y-116037030D01*
X141520469Y-116177049D01*
X141680665Y-116293439D01*
X141857095Y-116383333D01*
X142045424Y-116444525D01*
X142045420Y-116444525D01*
X142085999Y-116450951D01*
X142086000Y-116450950D01*
X142086000Y-115148202D01*
X142147007Y-115183425D01*
X142274174Y-115217500D01*
X142405826Y-115217500D01*
X142532993Y-115183425D01*
X142594000Y-115148202D01*
X142594000Y-116450951D01*
X142634577Y-116444525D01*
X142822904Y-116383333D01*
X142999334Y-116293439D01*
X143159530Y-116177049D01*
X143299549Y-116037030D01*
X143317473Y-116012360D01*
X143829500Y-116012360D01*
X143829501Y-116012363D01*
X143832414Y-116037490D01*
X143853538Y-116085331D01*
X143877794Y-116140265D01*
X143957235Y-116219706D01*
X144060009Y-116265085D01*
X144085135Y-116268000D01*
X145674864Y-116267999D01*
X145699991Y-116265085D01*
X145802765Y-116219706D01*
X145882206Y-116140265D01*
X145927585Y-116037491D01*
X145930500Y-116012365D01*
X145930499Y-113422636D01*
X145927585Y-113397509D01*
X145882206Y-113294735D01*
X145802765Y-113215294D01*
X145699991Y-113169915D01*
X145699990Y-113169914D01*
X145699988Y-113169914D01*
X145674868Y-113167000D01*
X144085139Y-113167000D01*
X144085136Y-113167001D01*
X144060009Y-113169914D01*
X143957235Y-113215294D01*
X143877794Y-113294735D01*
X143832414Y-113397511D01*
X143829500Y-113422630D01*
X143829500Y-116012360D01*
X143317473Y-116012360D01*
X143415939Y-115876834D01*
X143505833Y-115700404D01*
X143567025Y-115512077D01*
X143598000Y-115316510D01*
X143598000Y-114971501D01*
X143597999Y-114971500D01*
X142770703Y-114971500D01*
X142805925Y-114910493D01*
X142840000Y-114783326D01*
X142840000Y-114651674D01*
X142805925Y-114524507D01*
X142770703Y-114463500D01*
X143597999Y-114463500D01*
X143598000Y-114463499D01*
X143598000Y-114118489D01*
X143567025Y-113922922D01*
X143505833Y-113734595D01*
X143415939Y-113558165D01*
X143299549Y-113397969D01*
X143159530Y-113257950D01*
X142999334Y-113141560D01*
X142822904Y-113051666D01*
X142634579Y-112990476D01*
X142594000Y-112984048D01*
X142594000Y-114286797D01*
X142532993Y-114251575D01*
X142405826Y-114217500D01*
X142274174Y-114217500D01*
X142147007Y-114251575D01*
X142086000Y-114286797D01*
X142086000Y-112984048D01*
X142085999Y-112984048D01*
X142045420Y-112990476D01*
X141857095Y-113051666D01*
X141680665Y-113141560D01*
X141520469Y-113257950D01*
X141380450Y-113397969D01*
X141264060Y-113558165D01*
X141174166Y-113734595D01*
X141112974Y-113922922D01*
X141082000Y-114118489D01*
X141082000Y-114463499D01*
X141082001Y-114463500D01*
X141909297Y-114463500D01*
X141874075Y-114524507D01*
X141840000Y-114651674D01*
X141840000Y-114783326D01*
X141874075Y-114910493D01*
X141909297Y-114971500D01*
X141082001Y-114971500D01*
X141082000Y-114971501D01*
X141082000Y-115316510D01*
X140850500Y-115316510D01*
X140850500Y-114114035D01*
X140810130Y-113911080D01*
X140730941Y-113719902D01*
X140615977Y-113547845D01*
X140469655Y-113401523D01*
X140469651Y-113401520D01*
X140297597Y-113286558D01*
X140106418Y-113207369D01*
X139903467Y-113167000D01*
X139903465Y-113167000D01*
X139696535Y-113167000D01*
X139696532Y-113167000D01*
X139493581Y-113207369D01*
X139302402Y-113286558D01*
X139130348Y-113401520D01*
X138984020Y-113547848D01*
X138869058Y-113719902D01*
X138789869Y-113911081D01*
X138749500Y-114114032D01*
X138749500Y-115320967D01*
X137115267Y-115320967D01*
X137768713Y-114667521D01*
X137768716Y-114667520D01*
X137880520Y-114555716D01*
X137930639Y-114468904D01*
X137959577Y-114418785D01*
X138000500Y-114266057D01*
X138000500Y-114107943D01*
X138000500Y-109994010D01*
X138018026Y-109937769D01*
X138024818Y-109927930D01*
X138081919Y-109777366D01*
X150494355Y-109777366D01*
X150496634Y-109796132D01*
X150514860Y-109946237D01*
X150575182Y-110105295D01*
X150642529Y-110202863D01*
X150671816Y-110245292D01*
X150671818Y-110245295D01*
X150692039Y-110263209D01*
X150799148Y-110358099D01*
X150949775Y-110437155D01*
X151114944Y-110477865D01*
X151114947Y-110477865D01*
X151285053Y-110477865D01*
X151285056Y-110477865D01*
X151450225Y-110437155D01*
X151600852Y-110358099D01*
X151728183Y-110245294D01*
X151824818Y-110105295D01*
X151885140Y-109946237D01*
X151905645Y-109777365D01*
X151904613Y-109768870D01*
X151903777Y-109761983D01*
X151893205Y-109674920D01*
X151904960Y-109614878D01*
X151921475Y-109592989D01*
X154259090Y-107255377D01*
X154318399Y-107152650D01*
X154327344Y-107119266D01*
X154349100Y-107038072D01*
X154349100Y-105529011D01*
X154368007Y-105470820D01*
X154378096Y-105459007D01*
X155060107Y-104776996D01*
X155114624Y-104749219D01*
X155130111Y-104748000D01*
X155471256Y-104748000D01*
X155529447Y-104766907D01*
X155565411Y-104816407D01*
X155565411Y-104877593D01*
X155541257Y-104917006D01*
X155528157Y-104930105D01*
X155473639Y-104957881D01*
X155469241Y-104958476D01*
X155356441Y-104971186D01*
X155356439Y-104971186D01*
X155196809Y-105027044D01*
X155196808Y-105027044D01*
X155053613Y-105117020D01*
X154934020Y-105236613D01*
X154844044Y-105379808D01*
X154844044Y-105379809D01*
X154788188Y-105539434D01*
X154788185Y-105539446D01*
X154769251Y-105707495D01*
X154769251Y-105707504D01*
X154788185Y-105875553D01*
X154788188Y-105875565D01*
X154844044Y-106035190D01*
X154844044Y-106035191D01*
X154900491Y-106125025D01*
X154934023Y-106178390D01*
X155053610Y-106297977D01*
X155053612Y-106297978D01*
X155053613Y-106297979D01*
X155159478Y-106364499D01*
X155196810Y-106387956D01*
X155259766Y-106409985D01*
X155356434Y-106443811D01*
X155356438Y-106443812D01*
X155356441Y-106443813D01*
X155356442Y-106443813D01*
X155356446Y-106443814D01*
X155524496Y-106462749D01*
X155524500Y-106462749D01*
X155524504Y-106462749D01*
X155692553Y-106443814D01*
X155692555Y-106443813D01*
X155692559Y-106443813D01*
X155852190Y-106387956D01*
X155995390Y-106297977D01*
X156114977Y-106178390D01*
X156204956Y-106035190D01*
X156242390Y-105928205D01*
X156265829Y-105890905D01*
X156327240Y-105829495D01*
X156381757Y-105801719D01*
X156397242Y-105800500D01*
X157307073Y-105800500D01*
X157365264Y-105819407D01*
X157401228Y-105868907D01*
X157401228Y-105930093D01*
X157392809Y-105949001D01*
X157372017Y-105985012D01*
X157372016Y-105985014D01*
X157372016Y-105985015D01*
X157358571Y-106035191D01*
X157334500Y-106125025D01*
X157334500Y-106269974D01*
X157372017Y-106409989D01*
X157444487Y-106535510D01*
X157444489Y-106535512D01*
X157444491Y-106535515D01*
X157546985Y-106638009D01*
X157609500Y-106674102D01*
X157650441Y-106719570D01*
X157659000Y-106759838D01*
X157659000Y-107327500D01*
X157151000Y-107327500D01*
X157151000Y-106669501D01*
X157150999Y-106669500D01*
X156760642Y-106669500D01*
X156575562Y-106706316D01*
X156575560Y-106706316D01*
X156401218Y-106778531D01*
X156244312Y-106883372D01*
X156110872Y-107016812D01*
X156006031Y-107173718D01*
X155933816Y-107348060D01*
X155933816Y-107348062D01*
X155928755Y-107373500D01*
X156694940Y-107373500D01*
X156670795Y-107387440D01*
X156614940Y-107443295D01*
X156575444Y-107511704D01*
X156555000Y-107588004D01*
X156555000Y-107666996D01*
X156575444Y-107743296D01*
X156614940Y-107811705D01*
X156670795Y-107867560D01*
X156694940Y-107881500D01*
X155928756Y-107881500D01*
X155933816Y-107906937D01*
X155933816Y-107906939D01*
X156006031Y-108081281D01*
X156110872Y-108238187D01*
X156244312Y-108371627D01*
X156401218Y-108476468D01*
X156575561Y-108548683D01*
X156760642Y-108585499D01*
X156760646Y-108585500D01*
X157150999Y-108585500D01*
X157151000Y-108585499D01*
X157151000Y-107927500D01*
X157659000Y-107927500D01*
X157659000Y-108585499D01*
X157659001Y-108585500D01*
X158049354Y-108585500D01*
X158049357Y-108585499D01*
X158234437Y-108548683D01*
X158234439Y-108548683D01*
X158408781Y-108476468D01*
X158565687Y-108371627D01*
X158699127Y-108238187D01*
X158803967Y-108081284D01*
X158809035Y-108069049D01*
X158848771Y-108022523D01*
X158908266Y-108008238D01*
X158964794Y-108031652D01*
X158996764Y-108083820D01*
X158999500Y-108106933D01*
X158999500Y-108316539D01*
X158984326Y-108369210D01*
X158919544Y-108472308D01*
X158919544Y-108472309D01*
X158863688Y-108631934D01*
X158863685Y-108631946D01*
X158844751Y-108799995D01*
X158844751Y-108800004D01*
X158863685Y-108968053D01*
X158863688Y-108968065D01*
X158919544Y-109127690D01*
X158919544Y-109127691D01*
X158962863Y-109196632D01*
X159009523Y-109270890D01*
X159129110Y-109390477D01*
X159129112Y-109390478D01*
X159129113Y-109390479D01*
X159222940Y-109449435D01*
X159272310Y-109480456D01*
X159336232Y-109502823D01*
X159431934Y-109536311D01*
X159431938Y-109536312D01*
X159431941Y-109536313D01*
X159431942Y-109536313D01*
X159431946Y-109536314D01*
X159599996Y-109555249D01*
X159600000Y-109555249D01*
X159600004Y-109555249D01*
X159768053Y-109536314D01*
X159768055Y-109536313D01*
X159768059Y-109536313D01*
X159927690Y-109480456D01*
X160070890Y-109390477D01*
X160190477Y-109270890D01*
X160280456Y-109127690D01*
X160336313Y-108968059D01*
X160355249Y-108800000D01*
X160355249Y-108799995D01*
X160336314Y-108631946D01*
X160336311Y-108631934D01*
X160307180Y-108548683D01*
X160280456Y-108472310D01*
X160215674Y-108369210D01*
X160200500Y-108316539D01*
X160200500Y-108219770D01*
X160219407Y-108161579D01*
X160268907Y-108125615D01*
X160330093Y-108125615D01*
X160379593Y-108161579D01*
X160381815Y-108164768D01*
X160430872Y-108238187D01*
X160564312Y-108371627D01*
X160721218Y-108476468D01*
X160895561Y-108548683D01*
X161080642Y-108585499D01*
X161080646Y-108585500D01*
X161320999Y-108585500D01*
X161321000Y-108585499D01*
X161321000Y-107927500D01*
X161829000Y-107927500D01*
X161829000Y-108585499D01*
X161829001Y-108585500D01*
X162069354Y-108585500D01*
X162069365Y-108585498D01*
X162125390Y-108574354D01*
X162186151Y-108581544D01*
X162231081Y-108623076D01*
X162243019Y-108683086D01*
X162217404Y-108738651D01*
X162214709Y-108741455D01*
X161346605Y-109609558D01*
X161292088Y-109637335D01*
X161244457Y-109633190D01*
X161177785Y-109610302D01*
X160948849Y-109572100D01*
X160716751Y-109572100D01*
X160487822Y-109610301D01*
X160268293Y-109685665D01*
X160064173Y-109796130D01*
X160064170Y-109796132D01*
X159881019Y-109938684D01*
X159881016Y-109938686D01*
X159881016Y-109938687D01*
X159723821Y-110109447D01*
X159596876Y-110303751D01*
X159514772Y-110490930D01*
X159503643Y-110516301D01*
X159446665Y-110741296D01*
X159427500Y-110972600D01*
X159446665Y-111203903D01*
X159447221Y-111206097D01*
X159503643Y-111428900D01*
X159596876Y-111641449D01*
X159682887Y-111773099D01*
X159723820Y-111835752D01*
X159879480Y-112004845D01*
X159881016Y-112006513D01*
X159902751Y-112023430D01*
X159914413Y-112032507D01*
X159948721Y-112083170D01*
X159946697Y-112144321D01*
X159909116Y-112192605D01*
X159905334Y-112195043D01*
X159886187Y-112206776D01*
X160667027Y-112987616D01*
X160620508Y-113000082D01*
X160495092Y-113072490D01*
X160392690Y-113174892D01*
X160320282Y-113300308D01*
X160307816Y-113346827D01*
X159526976Y-112565987D01*
X159395630Y-112780326D01*
X159395629Y-112780328D01*
X159298772Y-113014162D01*
X159239685Y-113260277D01*
X159219828Y-113512600D01*
X159239685Y-113764922D01*
X159298772Y-114011037D01*
X159395629Y-114244871D01*
X159395632Y-114244877D01*
X159527876Y-114460678D01*
X159527882Y-114460686D01*
X159598974Y-114543924D01*
X159622389Y-114600451D01*
X159608105Y-114659946D01*
X159563684Y-114698782D01*
X159562774Y-114699184D01*
X159560036Y-114700393D01*
X159480594Y-114779835D01*
X159435214Y-114882611D01*
X159432300Y-114907730D01*
X159432300Y-117197460D01*
X159432301Y-117197463D01*
X159435214Y-117222590D01*
X159460556Y-117279985D01*
X159480594Y-117325365D01*
X159560035Y-117404806D01*
X159662809Y-117450185D01*
X159687935Y-117453100D01*
X161977664Y-117453099D01*
X162002791Y-117450185D01*
X162105565Y-117404806D01*
X162185006Y-117325365D01*
X162230385Y-117222591D01*
X162233300Y-117197465D01*
X162233300Y-116131444D01*
X162572300Y-116131444D01*
X162584321Y-116191874D01*
X162598883Y-116265085D01*
X162603063Y-116286096D01*
X162603063Y-116286098D01*
X162663403Y-116431774D01*
X162663409Y-116431785D01*
X162676216Y-116450951D01*
X162751011Y-116562889D01*
X162862511Y-116674389D01*
X162940676Y-116726617D01*
X162993614Y-116761990D01*
X162993625Y-116761996D01*
X163047438Y-116784285D01*
X163139303Y-116822337D01*
X163293958Y-116853100D01*
X163293959Y-116853100D01*
X163451641Y-116853100D01*
X163451642Y-116853100D01*
X163606297Y-116822337D01*
X163751979Y-116761994D01*
X163883089Y-116674389D01*
X163994589Y-116562889D01*
X164082194Y-116431779D01*
X164142537Y-116286097D01*
X164173300Y-116131442D01*
X164173300Y-115973758D01*
X164142537Y-115819103D01*
X164082194Y-115673421D01*
X164082193Y-115673419D01*
X164082190Y-115673414D01*
X164046817Y-115620476D01*
X163994589Y-115542311D01*
X163883089Y-115430811D01*
X163830859Y-115395912D01*
X163751985Y-115343209D01*
X163751974Y-115343203D01*
X163606297Y-115282863D01*
X163451644Y-115252100D01*
X163451642Y-115252100D01*
X163293958Y-115252100D01*
X163293955Y-115252100D01*
X163139303Y-115282863D01*
X163139301Y-115282863D01*
X162993625Y-115343203D01*
X162993614Y-115343209D01*
X162862511Y-115430811D01*
X162862507Y-115430814D01*
X162751014Y-115542307D01*
X162751011Y-115542311D01*
X162663409Y-115673414D01*
X162663403Y-115673425D01*
X162603063Y-115819101D01*
X162603063Y-115819103D01*
X162572300Y-115973755D01*
X162572300Y-116131444D01*
X162233300Y-116131444D01*
X162233299Y-114907736D01*
X162230385Y-114882609D01*
X162185006Y-114779835D01*
X162105565Y-114700394D01*
X162101917Y-114698783D01*
X162056322Y-114657984D01*
X162043416Y-114598175D01*
X162066625Y-114543923D01*
X162137722Y-114460679D01*
X162137723Y-114460678D01*
X162269967Y-114244877D01*
X162269970Y-114244871D01*
X162366827Y-114011038D01*
X162422647Y-113778528D01*
X162454616Y-113726359D01*
X162511144Y-113702944D01*
X162570639Y-113717227D01*
X162610376Y-113763753D01*
X162663405Y-113891777D01*
X162663409Y-113891785D01*
X162713841Y-113967260D01*
X162751011Y-114022889D01*
X162862511Y-114134389D01*
X162940676Y-114186617D01*
X162993614Y-114221990D01*
X162993625Y-114221996D01*
X163047438Y-114244285D01*
X163139303Y-114282337D01*
X163293958Y-114313100D01*
X163293959Y-114313100D01*
X163451641Y-114313100D01*
X163451642Y-114313100D01*
X163606297Y-114282337D01*
X163751979Y-114221994D01*
X163883089Y-114134389D01*
X163994589Y-114022889D01*
X164082194Y-113891779D01*
X164142537Y-113746097D01*
X164173300Y-113591442D01*
X164173300Y-113433758D01*
X164142537Y-113279103D01*
X164116107Y-113215294D01*
X164082196Y-113133425D01*
X164082190Y-113133414D01*
X164027567Y-113051666D01*
X163994589Y-113002311D01*
X163883089Y-112890811D01*
X163830859Y-112855912D01*
X163751985Y-112803209D01*
X163751974Y-112803203D01*
X163606297Y-112742863D01*
X163451644Y-112712100D01*
X163451642Y-112712100D01*
X163293958Y-112712100D01*
X163293955Y-112712100D01*
X163139303Y-112742863D01*
X163139301Y-112742863D01*
X162993625Y-112803203D01*
X162993614Y-112803209D01*
X162862511Y-112890811D01*
X162862507Y-112890814D01*
X162751014Y-113002307D01*
X162751011Y-113002311D01*
X162663409Y-113133414D01*
X162663405Y-113133422D01*
X162610376Y-113261446D01*
X162570639Y-113307971D01*
X162511144Y-113322255D01*
X162454617Y-113298840D01*
X162422647Y-113246671D01*
X162366827Y-113014161D01*
X162269970Y-112780328D01*
X162269964Y-112780316D01*
X162138622Y-112565987D01*
X161357782Y-113346826D01*
X161345318Y-113300308D01*
X161272910Y-113174892D01*
X161170508Y-113072490D01*
X161045092Y-113000082D01*
X160998570Y-112987616D01*
X161779411Y-112206776D01*
X161760265Y-112195044D01*
X161720528Y-112148518D01*
X161715727Y-112087521D01*
X161747696Y-112035352D01*
X161751164Y-112032524D01*
X161784584Y-112006513D01*
X161941779Y-111835753D01*
X162068724Y-111641449D01*
X162161957Y-111428900D01*
X162218934Y-111203905D01*
X162231567Y-111051444D01*
X162572300Y-111051444D01*
X162603063Y-111206096D01*
X162603063Y-111206098D01*
X162663403Y-111351774D01*
X162663409Y-111351785D01*
X162714935Y-111428898D01*
X162751011Y-111482889D01*
X162862511Y-111594389D01*
X162932937Y-111641446D01*
X162993614Y-111681990D01*
X162993625Y-111681996D01*
X163047438Y-111704285D01*
X163139303Y-111742337D01*
X163293958Y-111773100D01*
X163293959Y-111773100D01*
X163451641Y-111773100D01*
X163451642Y-111773100D01*
X163606297Y-111742337D01*
X163751979Y-111681994D01*
X163883089Y-111594389D01*
X163994589Y-111482889D01*
X164082194Y-111351779D01*
X164142537Y-111206097D01*
X164173300Y-111051442D01*
X164173300Y-110893758D01*
X164142537Y-110739103D01*
X164082194Y-110593421D01*
X164082193Y-110593419D01*
X164082190Y-110593414D01*
X164030663Y-110516300D01*
X163994589Y-110462311D01*
X163883089Y-110350811D01*
X163812659Y-110303751D01*
X163751985Y-110263209D01*
X163751974Y-110263203D01*
X163606297Y-110202863D01*
X163451644Y-110172100D01*
X163451642Y-110172100D01*
X163293958Y-110172100D01*
X163293955Y-110172100D01*
X163139303Y-110202863D01*
X163139301Y-110202863D01*
X162993625Y-110263203D01*
X162993614Y-110263209D01*
X162862511Y-110350811D01*
X162862507Y-110350814D01*
X162751014Y-110462307D01*
X162751011Y-110462311D01*
X162663409Y-110593414D01*
X162663403Y-110593425D01*
X162603063Y-110739101D01*
X162603063Y-110739103D01*
X162572300Y-110893755D01*
X162572300Y-111051444D01*
X162231567Y-111051444D01*
X162238100Y-110972600D01*
X162218934Y-110741295D01*
X162170993Y-110551982D01*
X162175036Y-110490930D01*
X162196957Y-110457676D01*
X163512913Y-109141721D01*
X163512916Y-109141720D01*
X163624720Y-109029916D01*
X163676511Y-108940210D01*
X163703777Y-108892985D01*
X163744700Y-108740258D01*
X163744700Y-108582143D01*
X163744700Y-90593245D01*
X163744701Y-90593232D01*
X163744701Y-90427142D01*
X163744700Y-90427140D01*
X163737576Y-90400555D01*
X163703777Y-90274416D01*
X163624720Y-90137484D01*
X163511734Y-90024498D01*
X163365583Y-89878346D01*
X163343021Y-89843450D01*
X163287318Y-89696570D01*
X163190683Y-89556571D01*
X163063352Y-89443766D01*
X162912725Y-89364710D01*
X162912724Y-89364709D01*
X162912723Y-89364709D01*
X162747558Y-89324000D01*
X162747556Y-89324000D01*
X162577444Y-89324000D01*
X162577441Y-89324000D01*
X162412276Y-89364709D01*
X162261646Y-89443767D01*
X162134318Y-89556569D01*
X162134316Y-89556572D01*
X162086599Y-89625702D01*
X162037682Y-89696570D01*
X161981980Y-89843448D01*
X161977360Y-89855629D01*
X161956855Y-90024498D01*
X161956855Y-90024501D01*
X161960163Y-90051743D01*
X161977360Y-90193372D01*
X162037682Y-90352430D01*
X162134317Y-90492429D01*
X162261648Y-90605234D01*
X162412275Y-90684290D01*
X162466138Y-90697565D01*
X162512449Y-90723684D01*
X162514704Y-90725939D01*
X162542481Y-90780456D01*
X162543700Y-90795943D01*
X162543700Y-98037968D01*
X162524793Y-98096159D01*
X162475293Y-98132123D01*
X162414107Y-98132123D01*
X162406815Y-98129432D01*
X162254438Y-98066316D01*
X162069357Y-98029500D01*
X161829001Y-98029500D01*
X161829000Y-98029501D01*
X161829000Y-98687500D01*
X161321000Y-98687500D01*
X161321000Y-98029501D01*
X161320999Y-98029500D01*
X161080642Y-98029500D01*
X160895562Y-98066316D01*
X160895560Y-98066316D01*
X160721218Y-98138531D01*
X160564312Y-98243372D01*
X160430872Y-98376812D01*
X160326031Y-98533718D01*
X160253816Y-98708060D01*
X160253816Y-98708062D01*
X160248755Y-98733500D01*
X161014940Y-98733500D01*
X160990795Y-98747440D01*
X160934940Y-98803295D01*
X160895444Y-98871704D01*
X160875000Y-98948004D01*
X160875000Y-99026996D01*
X160895444Y-99103296D01*
X160934940Y-99171705D01*
X160990795Y-99227560D01*
X161014940Y-99241500D01*
X160248756Y-99241500D01*
X160253816Y-99266937D01*
X160253816Y-99266939D01*
X160326031Y-99441281D01*
X160430872Y-99598187D01*
X160564312Y-99731627D01*
X160721218Y-99836468D01*
X160895561Y-99908683D01*
X161080642Y-99945499D01*
X161080646Y-99945500D01*
X161320999Y-99945500D01*
X161321000Y-99945499D01*
X161321000Y-99287500D01*
X161829000Y-99287500D01*
X161829000Y-99945499D01*
X161829001Y-99945500D01*
X162069354Y-99945500D01*
X162069357Y-99945499D01*
X162254436Y-99908684D01*
X162406814Y-99845567D01*
X162467811Y-99840766D01*
X162519980Y-99872736D01*
X162543395Y-99929263D01*
X162543700Y-99937031D01*
X162543700Y-106677968D01*
X162524793Y-106736159D01*
X162475293Y-106772123D01*
X162414107Y-106772123D01*
X162406815Y-106769432D01*
X162254438Y-106706316D01*
X162069357Y-106669500D01*
X161829001Y-106669500D01*
X161829000Y-106669501D01*
X161829000Y-107327500D01*
X161321000Y-107327500D01*
X161321000Y-106669501D01*
X161320999Y-106669500D01*
X161080642Y-106669500D01*
X160895562Y-106706316D01*
X160895560Y-106706316D01*
X160721218Y-106778531D01*
X160564312Y-106883372D01*
X160430872Y-107016812D01*
X160381815Y-107090231D01*
X160333765Y-107128110D01*
X160272627Y-107130512D01*
X160221753Y-107096519D01*
X160200576Y-107039115D01*
X160200500Y-107035229D01*
X160200500Y-102087044D01*
X160200501Y-102087031D01*
X160200501Y-101920945D01*
X160200501Y-101920943D01*
X160159577Y-101768215D01*
X160159112Y-101767410D01*
X160138747Y-101732137D01*
X160089469Y-101646785D01*
X160080520Y-101631284D01*
X159968716Y-101519480D01*
X159968713Y-101519478D01*
X159495521Y-101046286D01*
X159495520Y-101046284D01*
X159383716Y-100934480D01*
X159383713Y-100934478D01*
X159287721Y-100879057D01*
X159287718Y-100879056D01*
X159246788Y-100855424D01*
X159246785Y-100855423D01*
X159094057Y-100814499D01*
X158935943Y-100814499D01*
X158929880Y-100814499D01*
X158929864Y-100814500D01*
X158462927Y-100814500D01*
X158404736Y-100795593D01*
X158368772Y-100746093D01*
X158368772Y-100684907D01*
X158377191Y-100665999D01*
X158379956Y-100661210D01*
X158397984Y-100629985D01*
X158435500Y-100489975D01*
X158435500Y-100345025D01*
X158397984Y-100205015D01*
X158397982Y-100205012D01*
X158397982Y-100205010D01*
X158325512Y-100079489D01*
X158325510Y-100079487D01*
X158325509Y-100079485D01*
X158282825Y-100036801D01*
X158255050Y-99982287D01*
X158264621Y-99921855D01*
X158307886Y-99878590D01*
X158314946Y-99875336D01*
X158408782Y-99836468D01*
X158565687Y-99731627D01*
X158699127Y-99598187D01*
X158803968Y-99441281D01*
X158876183Y-99266939D01*
X158876183Y-99266937D01*
X158881244Y-99241500D01*
X158115060Y-99241500D01*
X158139205Y-99227560D01*
X158195060Y-99171705D01*
X158234556Y-99103296D01*
X158255000Y-99026996D01*
X158255000Y-98948004D01*
X158234556Y-98871704D01*
X158195060Y-98803295D01*
X158139205Y-98747440D01*
X158115060Y-98733500D01*
X158881244Y-98733500D01*
X158876183Y-98708062D01*
X158876183Y-98708060D01*
X158803968Y-98533718D01*
X158699127Y-98376812D01*
X158565687Y-98243372D01*
X158408781Y-98138531D01*
X158234438Y-98066316D01*
X158049357Y-98029500D01*
X157659001Y-98029500D01*
X157659000Y-98029501D01*
X157659000Y-98687500D01*
X157151000Y-98687500D01*
X157151000Y-98029501D01*
X157150999Y-98029500D01*
X156760642Y-98029500D01*
X156575562Y-98066316D01*
X156575560Y-98066316D01*
X156401218Y-98138531D01*
X156244312Y-98243372D01*
X156110872Y-98376812D01*
X156006031Y-98533718D01*
X155933816Y-98708060D01*
X155933816Y-98708062D01*
X155928755Y-98733500D01*
X156694940Y-98733500D01*
X156670795Y-98747440D01*
X156614940Y-98803295D01*
X156575444Y-98871704D01*
X156555000Y-98948004D01*
X156555000Y-99026996D01*
X156575444Y-99103296D01*
X156614940Y-99171705D01*
X156670795Y-99227560D01*
X156694940Y-99241500D01*
X155928756Y-99241500D01*
X155933816Y-99266937D01*
X155933816Y-99266939D01*
X156006031Y-99441281D01*
X156110872Y-99598187D01*
X156244312Y-99731627D01*
X156401218Y-99836468D01*
X156575561Y-99908683D01*
X156760642Y-99945499D01*
X156760646Y-99945500D01*
X157150999Y-99945500D01*
X157151000Y-99945499D01*
X157151000Y-99287500D01*
X157659000Y-99287500D01*
X157659000Y-99855160D01*
X157640093Y-99913351D01*
X157609501Y-99940896D01*
X157546987Y-99976989D01*
X157444487Y-100079489D01*
X157372017Y-100205010D01*
X157338764Y-100329110D01*
X157334500Y-100345025D01*
X157334500Y-100489975D01*
X157352859Y-100558492D01*
X157372017Y-100629987D01*
X157373145Y-100631941D01*
X157389145Y-100659654D01*
X157392809Y-100665999D01*
X157405531Y-100725847D01*
X157380645Y-100781743D01*
X157327657Y-100812336D01*
X157307073Y-100814500D01*
X156254743Y-100814500D01*
X156196552Y-100795593D01*
X156184739Y-100785504D01*
X156117809Y-100718574D01*
X156090032Y-100664057D01*
X156089435Y-100659654D01*
X156086313Y-100631941D01*
X156085629Y-100629987D01*
X156040951Y-100502303D01*
X156030456Y-100472310D01*
X156012610Y-100443909D01*
X155940479Y-100329113D01*
X155940478Y-100329112D01*
X155940477Y-100329110D01*
X155820890Y-100209523D01*
X155820887Y-100209521D01*
X155820886Y-100209520D01*
X155677691Y-100119544D01*
X155518065Y-100063688D01*
X155518053Y-100063685D01*
X155350004Y-100044751D01*
X155349996Y-100044751D01*
X155181946Y-100063685D01*
X155181934Y-100063688D01*
X155022309Y-100119544D01*
X155022308Y-100119544D01*
X154879113Y-100209520D01*
X154759520Y-100329113D01*
X154669544Y-100472308D01*
X154669544Y-100472309D01*
X154613688Y-100631934D01*
X154613685Y-100631946D01*
X154594751Y-100799995D01*
X154594751Y-100800004D01*
X154613685Y-100968053D01*
X154613688Y-100968065D01*
X154669544Y-101127690D01*
X154669544Y-101127691D01*
X154759520Y-101270886D01*
X154759523Y-101270890D01*
X154879110Y-101390477D01*
X154879112Y-101390478D01*
X154879113Y-101390479D01*
X154929389Y-101422070D01*
X155022310Y-101480456D01*
X155086232Y-101502823D01*
X155181934Y-101536311D01*
X155181938Y-101536312D01*
X155181941Y-101536313D01*
X155209655Y-101539435D01*
X155265362Y-101564739D01*
X155268574Y-101567809D01*
X155484478Y-101783713D01*
X155484480Y-101783716D01*
X155596284Y-101895520D01*
X155596286Y-101895521D01*
X155599767Y-101899002D01*
X155627544Y-101953519D01*
X155617973Y-102013951D01*
X155612089Y-102023992D01*
X155557698Y-102105425D01*
X155505666Y-102231107D01*
X155479155Y-102364529D01*
X155479155Y-102364532D01*
X155479169Y-102432355D01*
X155479169Y-102552929D01*
X155460262Y-102611120D01*
X155410762Y-102647084D01*
X155349576Y-102647084D01*
X155342296Y-102644398D01*
X155291035Y-102623173D01*
X155157624Y-102596654D01*
X155157614Y-102596653D01*
X155089620Y-102596662D01*
X155089611Y-102596663D01*
X155028978Y-102596663D01*
X154186422Y-102596663D01*
X154141239Y-102608769D01*
X154096056Y-102620876D01*
X154096055Y-102620875D01*
X154071843Y-102627364D01*
X154071840Y-102627365D01*
X153969121Y-102686670D01*
X152239507Y-104416284D01*
X152180200Y-104519006D01*
X152180200Y-104519007D01*
X152180201Y-104519008D01*
X152150505Y-104629837D01*
X152149500Y-104633586D01*
X152149500Y-106271588D01*
X152130593Y-106329779D01*
X152120504Y-106341592D01*
X151466971Y-106995124D01*
X151412454Y-107022901D01*
X151373277Y-107021244D01*
X151285056Y-106999500D01*
X151114944Y-106999500D01*
X151114941Y-106999500D01*
X150949776Y-107040209D01*
X150799146Y-107119267D01*
X150671818Y-107232069D01*
X150671816Y-107232072D01*
X150591835Y-107347944D01*
X150575182Y-107372070D01*
X150522227Y-107511704D01*
X150514860Y-107531129D01*
X150494356Y-107699995D01*
X150494355Y-107700000D01*
X150514860Y-107868872D01*
X150575182Y-108027930D01*
X150671817Y-108167929D01*
X150799148Y-108280734D01*
X150949775Y-108359790D01*
X151114944Y-108400500D01*
X151114947Y-108400500D01*
X151285053Y-108400500D01*
X151285056Y-108400500D01*
X151450225Y-108359790D01*
X151600852Y-108280734D01*
X151728183Y-108167929D01*
X151824818Y-108027930D01*
X151885140Y-107868872D01*
X151885140Y-107868870D01*
X151887263Y-107863273D01*
X151888982Y-107863925D01*
X151910444Y-107825857D01*
X152960489Y-106775814D01*
X153019799Y-106673087D01*
X153036786Y-106609689D01*
X153050500Y-106558509D01*
X153050500Y-106189891D01*
X153050500Y-104920505D01*
X153069407Y-104862314D01*
X153079496Y-104850501D01*
X154403338Y-103526659D01*
X154457855Y-103498882D01*
X154473342Y-103497663D01*
X154791559Y-103497663D01*
X154849750Y-103516570D01*
X154885714Y-103566070D01*
X154888658Y-103577357D01*
X154905734Y-103663242D01*
X154905735Y-103663248D01*
X154925303Y-103710500D01*
X154930097Y-103771497D01*
X154898123Y-103823663D01*
X154846763Y-103846529D01*
X154843196Y-103846998D01*
X154752825Y-103871213D01*
X154752824Y-103871212D01*
X154728612Y-103877701D01*
X154728609Y-103877702D01*
X154625890Y-103937007D01*
X153538107Y-105024790D01*
X153478800Y-105127512D01*
X153478800Y-105127513D01*
X153478801Y-105127514D01*
X153455351Y-105215032D01*
X153448100Y-105242092D01*
X153448100Y-106751151D01*
X153429193Y-106809342D01*
X153419104Y-106821155D01*
X151192391Y-109047869D01*
X151137874Y-109075646D01*
X151122387Y-109076865D01*
X151114941Y-109076865D01*
X150949776Y-109117574D01*
X150799146Y-109196632D01*
X150671818Y-109309434D01*
X150671817Y-109309436D01*
X150575182Y-109449435D01*
X150514860Y-109608493D01*
X150514640Y-109610302D01*
X150494355Y-109777363D01*
X150494355Y-109777366D01*
X138081919Y-109777366D01*
X138085140Y-109768872D01*
X138105645Y-109600000D01*
X138085140Y-109431128D01*
X138024818Y-109272070D01*
X137928183Y-109132071D01*
X137911820Y-109117575D01*
X137800853Y-109019267D01*
X137800852Y-109019266D01*
X137650225Y-108940210D01*
X137650224Y-108940209D01*
X137650223Y-108940209D01*
X137485058Y-108899500D01*
X137485056Y-108899500D01*
X137314944Y-108899500D01*
X137314941Y-108899500D01*
X137149776Y-108940209D01*
X136999146Y-109019267D01*
X136871818Y-109132069D01*
X136871816Y-109132072D01*
X136775182Y-109272070D01*
X136714860Y-109431129D01*
X136694355Y-109599998D01*
X136694355Y-109600001D01*
X136697642Y-109627070D01*
X136714860Y-109768872D01*
X136760612Y-109889514D01*
X136775181Y-109927928D01*
X136775183Y-109927931D01*
X136781974Y-109937769D01*
X136799500Y-109994010D01*
X136799500Y-113897256D01*
X136780593Y-113955447D01*
X136770504Y-113967260D01*
X132432697Y-118305066D01*
X132386388Y-118331185D01*
X132349772Y-118340210D01*
X132199146Y-118419267D01*
X132071818Y-118532069D01*
X132071817Y-118532071D01*
X131975182Y-118672070D01*
X131914860Y-118831128D01*
X131894355Y-119000000D01*
X127200120Y-119000000D01*
X127200000Y-118995677D01*
X127200000Y-116564069D01*
X130599500Y-116564069D01*
X130621444Y-116674388D01*
X130624499Y-116689742D01*
X130624500Y-116689747D01*
X130673534Y-116808125D01*
X130673538Y-116808133D01*
X130703584Y-116853099D01*
X130744724Y-116914669D01*
X130835331Y-117005276D01*
X130898848Y-117047717D01*
X130941866Y-117076461D01*
X130941870Y-117076463D01*
X130941873Y-117076465D01*
X131060256Y-117125501D01*
X131185931Y-117150500D01*
X131185932Y-117150500D01*
X131314068Y-117150500D01*
X131314069Y-117150500D01*
X131439744Y-117125501D01*
X131558127Y-117076465D01*
X131664669Y-117005276D01*
X131755276Y-116914669D01*
X131826465Y-116808127D01*
X131875501Y-116689744D01*
X131900500Y-116564069D01*
X131900500Y-116435931D01*
X131875501Y-116310256D01*
X131826465Y-116191873D01*
X131826463Y-116191870D01*
X131826461Y-116191866D01*
X131791981Y-116140264D01*
X131755276Y-116085331D01*
X131664669Y-115994724D01*
X131622226Y-115966365D01*
X131558133Y-115923538D01*
X131558125Y-115923534D01*
X131439747Y-115874500D01*
X131439745Y-115874499D01*
X131439744Y-115874499D01*
X131314069Y-115849500D01*
X131185931Y-115849500D01*
X131185930Y-115849500D01*
X131123093Y-115861999D01*
X131060256Y-115874499D01*
X131060255Y-115874499D01*
X131060252Y-115874500D01*
X130941874Y-115923534D01*
X130941866Y-115923538D01*
X130835331Y-115994724D01*
X130835327Y-115994727D01*
X130744727Y-116085327D01*
X130744724Y-116085331D01*
X130673538Y-116191866D01*
X130673534Y-116191874D01*
X130624500Y-116310252D01*
X130624499Y-116310255D01*
X130624499Y-116310256D01*
X130599500Y-116435931D01*
X130599500Y-116564069D01*
X127200000Y-116564069D01*
X127200000Y-112099000D01*
X127218907Y-112040809D01*
X127268407Y-112004845D01*
X127299000Y-112000000D01*
X133224999Y-112000000D01*
X133225000Y-112000000D01*
X133225000Y-111499000D01*
X133243907Y-111440809D01*
X133293407Y-111404845D01*
X133324000Y-111400000D01*
X133349999Y-111400000D01*
X133350000Y-111400000D01*
X133350000Y-108569957D01*
X134289252Y-108569957D01*
X134412384Y-108635773D01*
X134412392Y-108635776D01*
X134602399Y-108693415D01*
X134602402Y-108693416D01*
X134799996Y-108712877D01*
X134800004Y-108712877D01*
X134997597Y-108693416D01*
X134997600Y-108693415D01*
X135187613Y-108635774D01*
X135310746Y-108569957D01*
X134799999Y-108059210D01*
X134289252Y-108569957D01*
X133350000Y-108569957D01*
X133350000Y-107700004D01*
X133787123Y-107700004D01*
X133806583Y-107897597D01*
X133806584Y-107897600D01*
X133864223Y-108087607D01*
X133864226Y-108087615D01*
X133930041Y-108210746D01*
X134391059Y-107749728D01*
X134550000Y-107749728D01*
X134588060Y-107841614D01*
X134658386Y-107911940D01*
X134750272Y-107950000D01*
X134849728Y-107950000D01*
X134941614Y-107911940D01*
X135011940Y-107841614D01*
X135050000Y-107749728D01*
X135050000Y-107699999D01*
X135159210Y-107699999D01*
X135669957Y-108210746D01*
X135735774Y-108087613D01*
X135793415Y-107897600D01*
X135793416Y-107897597D01*
X135812877Y-107700004D01*
X135812877Y-107699995D01*
X135793416Y-107502402D01*
X135793415Y-107502399D01*
X135735776Y-107312392D01*
X135735773Y-107312384D01*
X135669957Y-107189252D01*
X135159210Y-107699999D01*
X135050000Y-107699999D01*
X135050000Y-107650272D01*
X135011940Y-107558386D01*
X134941614Y-107488060D01*
X134849728Y-107450000D01*
X134750272Y-107450000D01*
X134658386Y-107488060D01*
X134588060Y-107558386D01*
X134550000Y-107650272D01*
X134550000Y-107749728D01*
X134391059Y-107749728D01*
X134440788Y-107699999D01*
X133930041Y-107189252D01*
X133864228Y-107312380D01*
X133864223Y-107312392D01*
X133806584Y-107502399D01*
X133806583Y-107502402D01*
X133787123Y-107699995D01*
X133787123Y-107700004D01*
X133350000Y-107700004D01*
X133350000Y-106830041D01*
X134289252Y-106830041D01*
X134799999Y-107340788D01*
X135310746Y-106830041D01*
X135187615Y-106764226D01*
X135187607Y-106764223D01*
X134997600Y-106706584D01*
X134997597Y-106706583D01*
X134800004Y-106687123D01*
X134799996Y-106687123D01*
X134602402Y-106706583D01*
X134602399Y-106706584D01*
X134412392Y-106764223D01*
X134412380Y-106764228D01*
X134289252Y-106830041D01*
X133350000Y-106830041D01*
X133350000Y-106024646D01*
X141494563Y-106024646D01*
X141507200Y-106032587D01*
X141507208Y-106032591D01*
X141679058Y-106092725D01*
X141679062Y-106092726D01*
X141860000Y-106113112D01*
X142040937Y-106092726D01*
X142040941Y-106092725D01*
X142212795Y-106032589D01*
X142225435Y-106024646D01*
X142894563Y-106024646D01*
X142907200Y-106032587D01*
X142907208Y-106032591D01*
X143079058Y-106092725D01*
X143079062Y-106092726D01*
X143260000Y-106113112D01*
X143440937Y-106092726D01*
X143440941Y-106092725D01*
X143612795Y-106032589D01*
X143625435Y-106024646D01*
X143259999Y-105659210D01*
X142894563Y-106024645D01*
X142894563Y-106024646D01*
X142225435Y-106024646D01*
X141859999Y-105659210D01*
X141494563Y-106024645D01*
X141494563Y-106024646D01*
X133350000Y-106024646D01*
X133350000Y-105324646D01*
X140794563Y-105324646D01*
X140807200Y-105332587D01*
X140807208Y-105332591D01*
X140979058Y-105392725D01*
X140979062Y-105392726D01*
X140979886Y-105392819D01*
X140980307Y-105393010D01*
X140984482Y-105393963D01*
X140984286Y-105394817D01*
X141035594Y-105418123D01*
X141065790Y-105471338D01*
X141067178Y-105480101D01*
X141067271Y-105480930D01*
X141067272Y-105480936D01*
X141127408Y-105652792D01*
X141127414Y-105652802D01*
X141135351Y-105665435D01*
X141135353Y-105665435D01*
X141470952Y-105329837D01*
X141710000Y-105329837D01*
X141732836Y-105384968D01*
X141775032Y-105427164D01*
X141830163Y-105450000D01*
X141889837Y-105450000D01*
X141944968Y-105427164D01*
X141987164Y-105384968D01*
X142010000Y-105329837D01*
X142010000Y-105300000D01*
X142219211Y-105300000D01*
X142560000Y-105640789D01*
X142870952Y-105329837D01*
X143110000Y-105329837D01*
X143132836Y-105384968D01*
X143175032Y-105427164D01*
X143230163Y-105450000D01*
X143289837Y-105450000D01*
X143344968Y-105427164D01*
X143387164Y-105384968D01*
X143410000Y-105329837D01*
X143410000Y-105300000D01*
X143619211Y-105300000D01*
X143984646Y-105665435D01*
X143992589Y-105652795D01*
X144052725Y-105480941D01*
X144052726Y-105480936D01*
X144052819Y-105480115D01*
X144053009Y-105479694D01*
X144053963Y-105475518D01*
X144054818Y-105475713D01*
X144078122Y-105424406D01*
X144131337Y-105394210D01*
X144140115Y-105392819D01*
X144140936Y-105392726D01*
X144140941Y-105392725D01*
X144312795Y-105332589D01*
X144325435Y-105324646D01*
X143960000Y-104959211D01*
X143619211Y-105300000D01*
X143410000Y-105300000D01*
X143410000Y-105270163D01*
X143387164Y-105215032D01*
X143344968Y-105172836D01*
X143289837Y-105150000D01*
X143230163Y-105150000D01*
X143175032Y-105172836D01*
X143132836Y-105215032D01*
X143110000Y-105270163D01*
X143110000Y-105329837D01*
X142870952Y-105329837D01*
X142900789Y-105300000D01*
X142560000Y-104959211D01*
X142219211Y-105300000D01*
X142010000Y-105300000D01*
X142010000Y-105270163D01*
X141987164Y-105215032D01*
X141944968Y-105172836D01*
X141889837Y-105150000D01*
X141830163Y-105150000D01*
X141775032Y-105172836D01*
X141732836Y-105215032D01*
X141710000Y-105270163D01*
X141710000Y-105329837D01*
X141470952Y-105329837D01*
X141500789Y-105300000D01*
X141159999Y-104959210D01*
X140794563Y-105324645D01*
X140794563Y-105324646D01*
X133350000Y-105324646D01*
X133350000Y-104600000D01*
X140346887Y-104600000D01*
X140367273Y-104780937D01*
X140367274Y-104780941D01*
X140427408Y-104952792D01*
X140427414Y-104952802D01*
X140435351Y-104965435D01*
X140435353Y-104965435D01*
X140770952Y-104629837D01*
X141010000Y-104629837D01*
X141032836Y-104684968D01*
X141075032Y-104727164D01*
X141130163Y-104750000D01*
X141189837Y-104750000D01*
X141244968Y-104727164D01*
X141287164Y-104684968D01*
X141310000Y-104629837D01*
X141310000Y-104600000D01*
X141519211Y-104600000D01*
X141860000Y-104940789D01*
X142170952Y-104629837D01*
X142410000Y-104629837D01*
X142432836Y-104684968D01*
X142475032Y-104727164D01*
X142530163Y-104750000D01*
X142589837Y-104750000D01*
X142644968Y-104727164D01*
X142687164Y-104684968D01*
X142710000Y-104629837D01*
X142710000Y-104600000D01*
X142919211Y-104600000D01*
X143260000Y-104940789D01*
X143570952Y-104629837D01*
X143810000Y-104629837D01*
X143832836Y-104684968D01*
X143875032Y-104727164D01*
X143930163Y-104750000D01*
X143989837Y-104750000D01*
X144044968Y-104727164D01*
X144087164Y-104684968D01*
X144110000Y-104629837D01*
X144110000Y-104599999D01*
X144319210Y-104599999D01*
X144684646Y-104965435D01*
X144692589Y-104952795D01*
X144752725Y-104780941D01*
X144752726Y-104780937D01*
X144773112Y-104600000D01*
X144752726Y-104419062D01*
X144752725Y-104419058D01*
X144692591Y-104247208D01*
X144692587Y-104247200D01*
X144684646Y-104234563D01*
X144684645Y-104234563D01*
X144319210Y-104599999D01*
X144110000Y-104599999D01*
X144110000Y-104570163D01*
X144087164Y-104515032D01*
X144044968Y-104472836D01*
X143989837Y-104450000D01*
X143930163Y-104450000D01*
X143875032Y-104472836D01*
X143832836Y-104515032D01*
X143810000Y-104570163D01*
X143810000Y-104629837D01*
X143570952Y-104629837D01*
X143600789Y-104600000D01*
X143260000Y-104259211D01*
X142919211Y-104600000D01*
X142710000Y-104600000D01*
X142710000Y-104570163D01*
X142687164Y-104515032D01*
X142644968Y-104472836D01*
X142589837Y-104450000D01*
X142530163Y-104450000D01*
X142475032Y-104472836D01*
X142432836Y-104515032D01*
X142410000Y-104570163D01*
X142410000Y-104629837D01*
X142170952Y-104629837D01*
X142200789Y-104600000D01*
X141860000Y-104259211D01*
X141519211Y-104600000D01*
X141310000Y-104600000D01*
X141310000Y-104570163D01*
X141287164Y-104515032D01*
X141244968Y-104472836D01*
X141189837Y-104450000D01*
X141130163Y-104450000D01*
X141075032Y-104472836D01*
X141032836Y-104515032D01*
X141010000Y-104570163D01*
X141010000Y-104629837D01*
X140770952Y-104629837D01*
X140800789Y-104600000D01*
X140435352Y-104234563D01*
X140427410Y-104247204D01*
X140367274Y-104419058D01*
X140367273Y-104419062D01*
X140346887Y-104600000D01*
X133350000Y-104600000D01*
X133350000Y-103900000D01*
X140819211Y-103900000D01*
X141160000Y-104240789D01*
X141470952Y-103929837D01*
X141710000Y-103929837D01*
X141732836Y-103984968D01*
X141775032Y-104027164D01*
X141830163Y-104050000D01*
X141889837Y-104050000D01*
X141944968Y-104027164D01*
X141987164Y-103984968D01*
X142010000Y-103929837D01*
X142010000Y-103900000D01*
X142219211Y-103900000D01*
X142560000Y-104240789D01*
X142870952Y-103929837D01*
X143110000Y-103929837D01*
X143132836Y-103984968D01*
X143175032Y-104027164D01*
X143230163Y-104050000D01*
X143289837Y-104050000D01*
X143344968Y-104027164D01*
X143387164Y-103984968D01*
X143410000Y-103929837D01*
X143410000Y-103900000D01*
X143619211Y-103900000D01*
X143960000Y-104240789D01*
X144300789Y-103900000D01*
X143960000Y-103559211D01*
X143619211Y-103900000D01*
X143410000Y-103900000D01*
X143410000Y-103870163D01*
X143387164Y-103815032D01*
X143344968Y-103772836D01*
X143289837Y-103750000D01*
X143230163Y-103750000D01*
X143175032Y-103772836D01*
X143132836Y-103815032D01*
X143110000Y-103870163D01*
X143110000Y-103929837D01*
X142870952Y-103929837D01*
X142900789Y-103900000D01*
X142560000Y-103559211D01*
X142219211Y-103900000D01*
X142010000Y-103900000D01*
X142010000Y-103870163D01*
X141987164Y-103815032D01*
X141944968Y-103772836D01*
X141889837Y-103750000D01*
X141830163Y-103750000D01*
X141775032Y-103772836D01*
X141732836Y-103815032D01*
X141710000Y-103870163D01*
X141710000Y-103929837D01*
X141470952Y-103929837D01*
X141500789Y-103900000D01*
X141160000Y-103559211D01*
X140819211Y-103900000D01*
X133350000Y-103900000D01*
X133350000Y-103200000D01*
X140346887Y-103200000D01*
X140367273Y-103380937D01*
X140367274Y-103380941D01*
X140427408Y-103552792D01*
X140427414Y-103552802D01*
X140435351Y-103565435D01*
X140435353Y-103565435D01*
X140770952Y-103229837D01*
X141010000Y-103229837D01*
X141032836Y-103284968D01*
X141075032Y-103327164D01*
X141130163Y-103350000D01*
X141189837Y-103350000D01*
X141244968Y-103327164D01*
X141287164Y-103284968D01*
X141310000Y-103229837D01*
X141310000Y-103200000D01*
X141519211Y-103200000D01*
X141860000Y-103540789D01*
X142170952Y-103229837D01*
X142410000Y-103229837D01*
X142432836Y-103284968D01*
X142475032Y-103327164D01*
X142530163Y-103350000D01*
X142589837Y-103350000D01*
X142644968Y-103327164D01*
X142687164Y-103284968D01*
X142710000Y-103229837D01*
X142710000Y-103200000D01*
X142919211Y-103200000D01*
X143260000Y-103540789D01*
X143570952Y-103229837D01*
X143810000Y-103229837D01*
X143832836Y-103284968D01*
X143875032Y-103327164D01*
X143930163Y-103350000D01*
X143989837Y-103350000D01*
X144044968Y-103327164D01*
X144087164Y-103284968D01*
X144110000Y-103229837D01*
X144110000Y-103199999D01*
X144319210Y-103199999D01*
X144684646Y-103565435D01*
X144692589Y-103552795D01*
X144752725Y-103380941D01*
X144752726Y-103380937D01*
X144773112Y-103200000D01*
X144752726Y-103019062D01*
X144752725Y-103019058D01*
X144692591Y-102847208D01*
X144692587Y-102847200D01*
X144684646Y-102834563D01*
X144684645Y-102834563D01*
X144319210Y-103199999D01*
X144110000Y-103199999D01*
X144110000Y-103170163D01*
X144087164Y-103115032D01*
X144044968Y-103072836D01*
X143989837Y-103050000D01*
X143930163Y-103050000D01*
X143875032Y-103072836D01*
X143832836Y-103115032D01*
X143810000Y-103170163D01*
X143810000Y-103229837D01*
X143570952Y-103229837D01*
X143600789Y-103200000D01*
X143260000Y-102859211D01*
X142919211Y-103200000D01*
X142710000Y-103200000D01*
X142710000Y-103170163D01*
X142687164Y-103115032D01*
X142644968Y-103072836D01*
X142589837Y-103050000D01*
X142530163Y-103050000D01*
X142475032Y-103072836D01*
X142432836Y-103115032D01*
X142410000Y-103170163D01*
X142410000Y-103229837D01*
X142170952Y-103229837D01*
X142200789Y-103200000D01*
X141860000Y-102859211D01*
X141519211Y-103200000D01*
X141310000Y-103200000D01*
X141310000Y-103170163D01*
X141287164Y-103115032D01*
X141244968Y-103072836D01*
X141189837Y-103050000D01*
X141130163Y-103050000D01*
X141075032Y-103072836D01*
X141032836Y-103115032D01*
X141010000Y-103170163D01*
X141010000Y-103229837D01*
X140770952Y-103229837D01*
X140800789Y-103200000D01*
X140435352Y-102834563D01*
X140427410Y-102847204D01*
X140367274Y-103019058D01*
X140367273Y-103019062D01*
X140346887Y-103200000D01*
X133350000Y-103200000D01*
X133350000Y-102475352D01*
X140794563Y-102475352D01*
X141160000Y-102840789D01*
X141470952Y-102529837D01*
X141710000Y-102529837D01*
X141732836Y-102584968D01*
X141775032Y-102627164D01*
X141830163Y-102650000D01*
X141889837Y-102650000D01*
X141944968Y-102627164D01*
X141987164Y-102584968D01*
X142010000Y-102529837D01*
X142010000Y-102500000D01*
X142219211Y-102500000D01*
X142560000Y-102840789D01*
X142870952Y-102529837D01*
X143110000Y-102529837D01*
X143132836Y-102584968D01*
X143175032Y-102627164D01*
X143230163Y-102650000D01*
X143289837Y-102650000D01*
X143344968Y-102627164D01*
X143387164Y-102584968D01*
X143410000Y-102529837D01*
X143410000Y-102499999D01*
X143619210Y-102499999D01*
X143960000Y-102840789D01*
X144325435Y-102475353D01*
X144325435Y-102475351D01*
X144312802Y-102467414D01*
X144312792Y-102467408D01*
X144140936Y-102407272D01*
X144140930Y-102407271D01*
X144140101Y-102407178D01*
X144139677Y-102406985D01*
X144135517Y-102406036D01*
X144135711Y-102405183D01*
X144084396Y-102381868D01*
X144054207Y-102328649D01*
X144052819Y-102319886D01*
X144052726Y-102319062D01*
X144052725Y-102319058D01*
X143992591Y-102147208D01*
X143992587Y-102147200D01*
X143984646Y-102134563D01*
X143984645Y-102134563D01*
X143619210Y-102499999D01*
X143410000Y-102499999D01*
X143410000Y-102470163D01*
X143387164Y-102415032D01*
X143344968Y-102372836D01*
X143289837Y-102350000D01*
X143230163Y-102350000D01*
X143175032Y-102372836D01*
X143132836Y-102415032D01*
X143110000Y-102470163D01*
X143110000Y-102529837D01*
X142870952Y-102529837D01*
X142900789Y-102500000D01*
X142560000Y-102159211D01*
X142219211Y-102500000D01*
X142010000Y-102500000D01*
X142010000Y-102470163D01*
X141987164Y-102415032D01*
X141944968Y-102372836D01*
X141889837Y-102350000D01*
X141830163Y-102350000D01*
X141775032Y-102372836D01*
X141732836Y-102415032D01*
X141710000Y-102470163D01*
X141710000Y-102529837D01*
X141470952Y-102529837D01*
X141500789Y-102500000D01*
X141135352Y-102134563D01*
X141127410Y-102147204D01*
X141067272Y-102319063D01*
X141067271Y-102319068D01*
X141067178Y-102319900D01*
X141066985Y-102320324D01*
X141066036Y-102324483D01*
X141065183Y-102324288D01*
X141041867Y-102375604D01*
X140988647Y-102405793D01*
X140979900Y-102407178D01*
X140979068Y-102407271D01*
X140979063Y-102407272D01*
X140807204Y-102467410D01*
X140794563Y-102475352D01*
X133350000Y-102475352D01*
X133350000Y-101775352D01*
X141494563Y-101775352D01*
X141860000Y-102140789D01*
X142225435Y-101775353D01*
X142225435Y-101775352D01*
X142894563Y-101775352D01*
X143260000Y-102140789D01*
X143625435Y-101775353D01*
X143625435Y-101775351D01*
X143612802Y-101767414D01*
X143612792Y-101767408D01*
X143440941Y-101707274D01*
X143440937Y-101707273D01*
X143260000Y-101686887D01*
X143079062Y-101707273D01*
X143079058Y-101707274D01*
X142907204Y-101767410D01*
X142894563Y-101775352D01*
X142225435Y-101775352D01*
X142225435Y-101775351D01*
X142212802Y-101767414D01*
X142212792Y-101767408D01*
X142040941Y-101707274D01*
X142040937Y-101707273D01*
X141860000Y-101686887D01*
X141679062Y-101707273D01*
X141679058Y-101707274D01*
X141507204Y-101767410D01*
X141494563Y-101775352D01*
X133350000Y-101775352D01*
X133350000Y-95000000D01*
X135376407Y-95000000D01*
X135396912Y-95168872D01*
X135457234Y-95327930D01*
X135553869Y-95467929D01*
X135681200Y-95580734D01*
X135831827Y-95659790D01*
X135996996Y-95700500D01*
X135996999Y-95700500D01*
X136167105Y-95700500D01*
X136167108Y-95700500D01*
X136169137Y-95700000D01*
X137494435Y-95700000D01*
X137514632Y-95879257D01*
X137514633Y-95879261D01*
X137574211Y-96049522D01*
X137574211Y-96049523D01*
X137670181Y-96202258D01*
X137670184Y-96202262D01*
X137797738Y-96329816D01*
X137950478Y-96425789D01*
X138018657Y-96449646D01*
X138120738Y-96485366D01*
X138120742Y-96485367D01*
X138120745Y-96485368D01*
X138300000Y-96505565D01*
X138479255Y-96485368D01*
X138649522Y-96425789D01*
X138802262Y-96329816D01*
X138929816Y-96202262D01*
X139025789Y-96049522D01*
X139085368Y-95879255D01*
X139105565Y-95700000D01*
X139594435Y-95700000D01*
X139614632Y-95879257D01*
X139614633Y-95879261D01*
X139674211Y-96049522D01*
X139674211Y-96049523D01*
X139770181Y-96202258D01*
X139770184Y-96202262D01*
X139897738Y-96329816D01*
X140050478Y-96425789D01*
X140118657Y-96449646D01*
X140220738Y-96485366D01*
X140220742Y-96485367D01*
X140220745Y-96485368D01*
X140400000Y-96505565D01*
X140579255Y-96485368D01*
X140749522Y-96425789D01*
X140902262Y-96329816D01*
X141029816Y-96202262D01*
X141125789Y-96049522D01*
X141185368Y-95879255D01*
X141205565Y-95700000D01*
X141185368Y-95520745D01*
X141165998Y-95465390D01*
X141161014Y-95451145D01*
X141125789Y-95350478D01*
X141029816Y-95197738D01*
X140902262Y-95070184D01*
X140902259Y-95070182D01*
X140902258Y-95070181D01*
X140749523Y-94974211D01*
X140579261Y-94914633D01*
X140579257Y-94914632D01*
X140400000Y-94894435D01*
X140220742Y-94914632D01*
X140220738Y-94914633D01*
X140050477Y-94974211D01*
X140050476Y-94974211D01*
X139897741Y-95070181D01*
X139770181Y-95197741D01*
X139674211Y-95350476D01*
X139674211Y-95350477D01*
X139614633Y-95520738D01*
X139614632Y-95520742D01*
X139594435Y-95700000D01*
X139105565Y-95700000D01*
X139085368Y-95520745D01*
X139065998Y-95465390D01*
X139061014Y-95451145D01*
X139025789Y-95350478D01*
X138929816Y-95197738D01*
X138802262Y-95070184D01*
X138802259Y-95070182D01*
X138802258Y-95070181D01*
X138649523Y-94974211D01*
X138479261Y-94914633D01*
X138479257Y-94914632D01*
X138300000Y-94894435D01*
X138120742Y-94914632D01*
X138120738Y-94914633D01*
X137950477Y-94974211D01*
X137950476Y-94974211D01*
X137797741Y-95070181D01*
X137670181Y-95197741D01*
X137574211Y-95350476D01*
X137574211Y-95350477D01*
X137514633Y-95520738D01*
X137514632Y-95520742D01*
X137494435Y-95700000D01*
X136169137Y-95700000D01*
X136332277Y-95659790D01*
X136482904Y-95580734D01*
X136610235Y-95467929D01*
X136706870Y-95327930D01*
X136767192Y-95168872D01*
X136787697Y-95000000D01*
X136767192Y-94831128D01*
X136706870Y-94672070D01*
X136610235Y-94532071D01*
X136566192Y-94493052D01*
X136565902Y-94492795D01*
X136534884Y-94440055D01*
X136532552Y-94418693D01*
X136532552Y-90640000D01*
X141444571Y-90640000D01*
X141464244Y-90852311D01*
X141469935Y-90872311D01*
X141522595Y-91057389D01*
X141617634Y-91248255D01*
X141746128Y-91418407D01*
X141816734Y-91482773D01*
X141903692Y-91562047D01*
X141903699Y-91562053D01*
X142007389Y-91626255D01*
X142084981Y-91674298D01*
X142283802Y-91751321D01*
X142493390Y-91790500D01*
X142706610Y-91790500D01*
X142916198Y-91751321D01*
X142916202Y-91751319D01*
X142920603Y-91750068D01*
X142921022Y-91751541D01*
X142975812Y-91748491D01*
X143027234Y-91781648D01*
X143049347Y-91838698D01*
X143049500Y-91844201D01*
X143049500Y-98093309D01*
X143073713Y-98183673D01*
X143073712Y-98183673D01*
X143080200Y-98207886D01*
X143080202Y-98207890D01*
X143139507Y-98310609D01*
X143139508Y-98310610D01*
X143139509Y-98310611D01*
X143139511Y-98310614D01*
X146821204Y-101992307D01*
X150448546Y-105619649D01*
X150476323Y-105674166D01*
X150476820Y-105677719D01*
X150480437Y-105707504D01*
X150495660Y-105832872D01*
X150555982Y-105991930D01*
X150652617Y-106131929D01*
X150779948Y-106244734D01*
X150930575Y-106323790D01*
X151095744Y-106364500D01*
X151095747Y-106364500D01*
X151265853Y-106364500D01*
X151265856Y-106364500D01*
X151431025Y-106323790D01*
X151581652Y-106244734D01*
X151708983Y-106131929D01*
X151805618Y-105991930D01*
X151865940Y-105832872D01*
X151886445Y-105664000D01*
X151885863Y-105659210D01*
X151881060Y-105619649D01*
X151865940Y-105495128D01*
X151805618Y-105336070D01*
X151708983Y-105196071D01*
X151581652Y-105083266D01*
X151431025Y-105004210D01*
X151431024Y-105004209D01*
X151431023Y-105004209D01*
X151265858Y-104963500D01*
X151265856Y-104963500D01*
X151107611Y-104963500D01*
X151049420Y-104944593D01*
X151037607Y-104934504D01*
X143979496Y-97876393D01*
X143951719Y-97821876D01*
X143950500Y-97806389D01*
X143950500Y-91378692D01*
X143924109Y-91280201D01*
X143919799Y-91264114D01*
X143919799Y-91264113D01*
X143919799Y-91264112D01*
X143860492Y-91161390D01*
X143860488Y-91161385D01*
X143736061Y-91036957D01*
X143708284Y-90982441D01*
X143710845Y-90939860D01*
X143735754Y-90852317D01*
X143735755Y-90852312D01*
X143735756Y-90852310D01*
X143755429Y-90640000D01*
X143735756Y-90427690D01*
X143677405Y-90222611D01*
X143582366Y-90031745D01*
X143553625Y-89993687D01*
X143482418Y-89899393D01*
X143462438Y-89841562D01*
X143480266Y-89783032D01*
X143529093Y-89746159D01*
X143590268Y-89745028D01*
X143631425Y-89769728D01*
X144427504Y-90565807D01*
X144455281Y-90620324D01*
X144456500Y-90635811D01*
X144456500Y-97566309D01*
X144461106Y-97583497D01*
X144461107Y-97583501D01*
X144487202Y-97680891D01*
X144546507Y-97783609D01*
X144546508Y-97783610D01*
X144546509Y-97783611D01*
X144546511Y-97783614D01*
X147508990Y-100746093D01*
X150467691Y-103704794D01*
X150495468Y-103759311D01*
X150495966Y-103786726D01*
X150495701Y-103788910D01*
X150494355Y-103800000D01*
X150514860Y-103968872D01*
X150575182Y-104127930D01*
X150671817Y-104267929D01*
X150799148Y-104380734D01*
X150949775Y-104459790D01*
X151114944Y-104500500D01*
X151114947Y-104500500D01*
X151285053Y-104500500D01*
X151285056Y-104500500D01*
X151450225Y-104459790D01*
X151600852Y-104380734D01*
X151728183Y-104267929D01*
X151824818Y-104127930D01*
X151885140Y-103968872D01*
X151905645Y-103800000D01*
X151904298Y-103788910D01*
X151895452Y-103716056D01*
X151885140Y-103631128D01*
X151824818Y-103472070D01*
X151728183Y-103332071D01*
X151600852Y-103219266D01*
X151450225Y-103140210D01*
X151450224Y-103140209D01*
X151450223Y-103140209D01*
X151285058Y-103099500D01*
X151285056Y-103099500D01*
X151177611Y-103099500D01*
X151119420Y-103080593D01*
X151107607Y-103070504D01*
X148481011Y-100443908D01*
X149384100Y-100443908D01*
X149399745Y-100502299D01*
X149399746Y-100502301D01*
X149399747Y-100502303D01*
X149414801Y-100558487D01*
X149414802Y-100558489D01*
X149414803Y-100558492D01*
X149474107Y-100661209D01*
X149474108Y-100661210D01*
X149474109Y-100661211D01*
X149474111Y-100661214D01*
X149982163Y-101169266D01*
X150467691Y-101654794D01*
X150495468Y-101709311D01*
X150495966Y-101736726D01*
X150494355Y-101749999D01*
X150494355Y-101750002D01*
X150498449Y-101783716D01*
X150514860Y-101918872D01*
X150575182Y-102077930D01*
X150671817Y-102217929D01*
X150799148Y-102330734D01*
X150949775Y-102409790D01*
X151114944Y-102450500D01*
X151114947Y-102450500D01*
X151285053Y-102450500D01*
X151285056Y-102450500D01*
X151450225Y-102409790D01*
X151600852Y-102330734D01*
X151728183Y-102217929D01*
X151824818Y-102077930D01*
X151885140Y-101918872D01*
X151905645Y-101750000D01*
X151885140Y-101581128D01*
X151824818Y-101422070D01*
X151728183Y-101282071D01*
X151600852Y-101169266D01*
X151450225Y-101090210D01*
X151450224Y-101090209D01*
X151450223Y-101090209D01*
X151285058Y-101049500D01*
X151285056Y-101049500D01*
X151177611Y-101049500D01*
X151119420Y-101030593D01*
X151107607Y-101020504D01*
X150314096Y-100226993D01*
X150286319Y-100172476D01*
X150285100Y-100156989D01*
X150285100Y-99801803D01*
X150494355Y-99801803D01*
X150514860Y-99970675D01*
X150575182Y-100129733D01*
X150671817Y-100269732D01*
X150799148Y-100382537D01*
X150949775Y-100461593D01*
X151114944Y-100502303D01*
X151114947Y-100502303D01*
X151285053Y-100502303D01*
X151285056Y-100502303D01*
X151450225Y-100461593D01*
X151600852Y-100382537D01*
X151728183Y-100269732D01*
X151824818Y-100129733D01*
X151885140Y-99970675D01*
X151905645Y-99801803D01*
X151885140Y-99632931D01*
X151824818Y-99473873D01*
X151728183Y-99333874D01*
X151728180Y-99333871D01*
X151683850Y-99294598D01*
X151652832Y-99241858D01*
X151650500Y-99220496D01*
X151650500Y-94627611D01*
X151669407Y-94569420D01*
X151679496Y-94557607D01*
X152028503Y-94208600D01*
X155363286Y-94208600D01*
X155372698Y-94255915D01*
X155450565Y-94443906D01*
X155450565Y-94443907D01*
X155563616Y-94613098D01*
X155636940Y-94686422D01*
X155664717Y-94740939D01*
X155655146Y-94801371D01*
X155649254Y-94811424D01*
X155634451Y-94833580D01*
X155572224Y-94983809D01*
X155540500Y-95143294D01*
X155540500Y-95305905D01*
X155572224Y-95465390D01*
X155634451Y-95615620D01*
X155643608Y-95629324D01*
X155660218Y-95688212D01*
X155639042Y-95745616D01*
X155631298Y-95754330D01*
X155588795Y-95796833D01*
X155543414Y-95899611D01*
X155540500Y-95924730D01*
X155540500Y-97064460D01*
X155540501Y-97064463D01*
X155543414Y-97089590D01*
X155568756Y-97146985D01*
X155588794Y-97192365D01*
X155668235Y-97271806D01*
X155771009Y-97317185D01*
X155796135Y-97320100D01*
X157385864Y-97320099D01*
X157410991Y-97317185D01*
X157513765Y-97271806D01*
X157593206Y-97192365D01*
X157638585Y-97089591D01*
X157641500Y-97064465D01*
X157641499Y-95924736D01*
X157638585Y-95899609D01*
X157593206Y-95796835D01*
X157550699Y-95754328D01*
X157522924Y-95699814D01*
X157532495Y-95639382D01*
X157538383Y-95629336D01*
X157547548Y-95615621D01*
X157609776Y-95465389D01*
X157641500Y-95305905D01*
X157641500Y-95143295D01*
X157609776Y-94983811D01*
X157547549Y-94833581D01*
X157547549Y-94833580D01*
X157532747Y-94811428D01*
X157516138Y-94752539D01*
X157537316Y-94695136D01*
X157545059Y-94686422D01*
X157618383Y-94613098D01*
X157731434Y-94443907D01*
X157731434Y-94443906D01*
X157809301Y-94255915D01*
X157818714Y-94208600D01*
X156867330Y-94208600D01*
X156891075Y-94184855D01*
X156940444Y-94099345D01*
X156966000Y-94003970D01*
X156966000Y-93905230D01*
X156940444Y-93809855D01*
X156891075Y-93724345D01*
X156867330Y-93700600D01*
X157818714Y-93700600D01*
X157809301Y-93653284D01*
X157731434Y-93465293D01*
X157731434Y-93465292D01*
X157618383Y-93296101D01*
X157474498Y-93152216D01*
X157305306Y-93039165D01*
X157117315Y-92961298D01*
X156917744Y-92921600D01*
X156845001Y-92921600D01*
X156845000Y-92921601D01*
X156845000Y-93678270D01*
X156821255Y-93654525D01*
X156735745Y-93605156D01*
X156640370Y-93579600D01*
X156541630Y-93579600D01*
X156446255Y-93605156D01*
X156360745Y-93654525D01*
X156337000Y-93678270D01*
X156337000Y-92921601D01*
X156336999Y-92921600D01*
X156264255Y-92921600D01*
X156064685Y-92961298D01*
X156064683Y-92961298D01*
X155876693Y-93039165D01*
X155876692Y-93039165D01*
X155707501Y-93152216D01*
X155563616Y-93296101D01*
X155450565Y-93465292D01*
X155450565Y-93465293D01*
X155372698Y-93653284D01*
X155363286Y-93700600D01*
X156314670Y-93700600D01*
X156290925Y-93724345D01*
X156241556Y-93809855D01*
X156216000Y-93905230D01*
X156216000Y-94003970D01*
X156241556Y-94099345D01*
X156290925Y-94184855D01*
X156314670Y-94208600D01*
X155363286Y-94208600D01*
X152028503Y-94208600D01*
X154057608Y-92179496D01*
X154112125Y-92151719D01*
X154127612Y-92150500D01*
X156214598Y-92150500D01*
X156272789Y-92169407D01*
X156280243Y-92175394D01*
X156399148Y-92280734D01*
X156549775Y-92359790D01*
X156714944Y-92400500D01*
X156714947Y-92400500D01*
X156885053Y-92400500D01*
X156885056Y-92400500D01*
X157050225Y-92359790D01*
X157200852Y-92280734D01*
X157328183Y-92167929D01*
X157424818Y-92027930D01*
X157485140Y-91868872D01*
X157505645Y-91700000D01*
X157485140Y-91531128D01*
X157424818Y-91372070D01*
X157328183Y-91232071D01*
X157319753Y-91224603D01*
X157200853Y-91119267D01*
X157200852Y-91119266D01*
X157050225Y-91040210D01*
X157050224Y-91040209D01*
X157050223Y-91040209D01*
X156885058Y-90999500D01*
X156885056Y-90999500D01*
X156714944Y-90999500D01*
X156714941Y-90999500D01*
X156549776Y-91040209D01*
X156399146Y-91119267D01*
X156280247Y-91224603D01*
X156224153Y-91249038D01*
X156214598Y-91249500D01*
X153840691Y-91249500D01*
X153726114Y-91280201D01*
X153623386Y-91339510D01*
X150839508Y-94123389D01*
X150839507Y-94123390D01*
X150780200Y-94226112D01*
X150780200Y-94226113D01*
X150780201Y-94226114D01*
X150749500Y-94340692D01*
X150749500Y-99220496D01*
X150730593Y-99278687D01*
X150716150Y-99294598D01*
X150671819Y-99333871D01*
X150671817Y-99333874D01*
X150575182Y-99473873D01*
X150514860Y-99632931D01*
X150494355Y-99801803D01*
X150285100Y-99801803D01*
X150285100Y-94093011D01*
X150304007Y-94034820D01*
X150314096Y-94023007D01*
X154557608Y-89779496D01*
X154612125Y-89751719D01*
X154627612Y-89750500D01*
X157459309Y-89750500D01*
X157549669Y-89726287D01*
X157549672Y-89726287D01*
X157562903Y-89722741D01*
X157573887Y-89719799D01*
X157676614Y-89660489D01*
X158407607Y-88929496D01*
X158462124Y-88901719D01*
X158477611Y-88900500D01*
X158585053Y-88900500D01*
X158585056Y-88900500D01*
X158750225Y-88859790D01*
X158900852Y-88780734D01*
X159028183Y-88667929D01*
X159124818Y-88527930D01*
X159185140Y-88368872D01*
X159205645Y-88200000D01*
X159185140Y-88031128D01*
X159124818Y-87872070D01*
X159028183Y-87732071D01*
X158900852Y-87619266D01*
X158750225Y-87540210D01*
X158750224Y-87540209D01*
X158750223Y-87540209D01*
X158585058Y-87499500D01*
X158585056Y-87499500D01*
X158414944Y-87499500D01*
X158414941Y-87499500D01*
X158249776Y-87540209D01*
X158099146Y-87619267D01*
X157971818Y-87732069D01*
X157971816Y-87732072D01*
X157875182Y-87872070D01*
X157814860Y-88031129D01*
X157794355Y-88199997D01*
X157794355Y-88199998D01*
X157795966Y-88213271D01*
X157784208Y-88273316D01*
X157767691Y-88295203D01*
X157242393Y-88820503D01*
X157187876Y-88848281D01*
X157172389Y-88849500D01*
X154340691Y-88849500D01*
X154226114Y-88880201D01*
X154123386Y-88939510D01*
X149474108Y-93588789D01*
X149474107Y-93588790D01*
X149414800Y-93691512D01*
X149414800Y-93691513D01*
X149414801Y-93691514D01*
X149384100Y-93806092D01*
X149384100Y-100443908D01*
X148481011Y-100443908D01*
X145386496Y-97349393D01*
X145358719Y-97294876D01*
X145357500Y-97279389D01*
X145357500Y-90660000D01*
X148494571Y-90660000D01*
X148514244Y-90872310D01*
X148572595Y-91077389D01*
X148667634Y-91268255D01*
X148796128Y-91438407D01*
X148796135Y-91438413D01*
X148953692Y-91582047D01*
X148953699Y-91582053D01*
X149057389Y-91646255D01*
X149134981Y-91694298D01*
X149333802Y-91771321D01*
X149543390Y-91810500D01*
X149756610Y-91810500D01*
X149966198Y-91771321D01*
X150165019Y-91694298D01*
X150346302Y-91582052D01*
X150503872Y-91438407D01*
X150632366Y-91268255D01*
X150727405Y-91077389D01*
X150785756Y-90872310D01*
X150805429Y-90660000D01*
X150785756Y-90447690D01*
X150727405Y-90242611D01*
X150632366Y-90051745D01*
X150503872Y-89881593D01*
X150420156Y-89805275D01*
X150346307Y-89737952D01*
X150346300Y-89737946D01*
X150165024Y-89625705D01*
X150165019Y-89625702D01*
X150113400Y-89605705D01*
X149966198Y-89548679D01*
X149966197Y-89548678D01*
X149966195Y-89548678D01*
X149756610Y-89509500D01*
X149543390Y-89509500D01*
X149333804Y-89548678D01*
X149134980Y-89625702D01*
X149134975Y-89625705D01*
X148953699Y-89737946D01*
X148953692Y-89737952D01*
X148796135Y-89881586D01*
X148796131Y-89881589D01*
X148796128Y-89881593D01*
X148796125Y-89881597D01*
X148667635Y-90051743D01*
X148667630Y-90051752D01*
X148572596Y-90242608D01*
X148514244Y-90447688D01*
X148510098Y-90492429D01*
X148494571Y-90660000D01*
X145357500Y-90660000D01*
X145357500Y-90348892D01*
X145326799Y-90234314D01*
X145326799Y-90234312D01*
X145267492Y-90131590D01*
X145267491Y-90131589D01*
X145267490Y-90131588D01*
X145267489Y-90131586D01*
X144150763Y-89014860D01*
X148499500Y-89014860D01*
X148499501Y-89014863D01*
X148502414Y-89039990D01*
X148527756Y-89097385D01*
X148547794Y-89142765D01*
X148627235Y-89222206D01*
X148730009Y-89267585D01*
X148755135Y-89270500D01*
X150544864Y-89270499D01*
X150569991Y-89267585D01*
X150672765Y-89222206D01*
X150752206Y-89142765D01*
X150797585Y-89039991D01*
X150800500Y-89014865D01*
X150800499Y-87225136D01*
X150797585Y-87200009D01*
X150752206Y-87097235D01*
X150672765Y-87017794D01*
X150569991Y-86972415D01*
X150569990Y-86972414D01*
X150569988Y-86972414D01*
X150544868Y-86969500D01*
X148755139Y-86969500D01*
X148755136Y-86969501D01*
X148730009Y-86972414D01*
X148627235Y-87017794D01*
X148547794Y-87097235D01*
X148502414Y-87200011D01*
X148499500Y-87225130D01*
X148499500Y-89014860D01*
X144150763Y-89014860D01*
X143779495Y-88643592D01*
X143751718Y-88589075D01*
X143750499Y-88573588D01*
X143750499Y-87205139D01*
X143750499Y-87205136D01*
X143747585Y-87180009D01*
X143702206Y-87077235D01*
X143622765Y-86997794D01*
X143519991Y-86952415D01*
X143519990Y-86952414D01*
X143519988Y-86952414D01*
X143494868Y-86949500D01*
X141705139Y-86949500D01*
X141705136Y-86949501D01*
X141680009Y-86952414D01*
X141577235Y-86997794D01*
X141497794Y-87077235D01*
X141452414Y-87180011D01*
X141449500Y-87205130D01*
X141449500Y-88994860D01*
X141449501Y-88994863D01*
X141452414Y-89019990D01*
X141477756Y-89077385D01*
X141497794Y-89122765D01*
X141577235Y-89202206D01*
X141680009Y-89247585D01*
X141705135Y-89250500D01*
X143071188Y-89250499D01*
X143129379Y-89269406D01*
X143141192Y-89279495D01*
X143472350Y-89610653D01*
X143500127Y-89665170D01*
X143490556Y-89725602D01*
X143447291Y-89768867D01*
X143386859Y-89778438D01*
X143335650Y-89753818D01*
X143296307Y-89717952D01*
X143296300Y-89717946D01*
X143115024Y-89605705D01*
X143115019Y-89605702D01*
X142916198Y-89528679D01*
X142916197Y-89528678D01*
X142916195Y-89528678D01*
X142706610Y-89489500D01*
X142493390Y-89489500D01*
X142283804Y-89528678D01*
X142084980Y-89605702D01*
X142084975Y-89605705D01*
X141903699Y-89717946D01*
X141903692Y-89717952D01*
X141746135Y-89861586D01*
X141746131Y-89861589D01*
X141746128Y-89861593D01*
X141746125Y-89861597D01*
X141617635Y-90031743D01*
X141617630Y-90031752D01*
X141542000Y-90183640D01*
X141522595Y-90222611D01*
X141519265Y-90234314D01*
X141464244Y-90427688D01*
X141444571Y-90640000D01*
X136532552Y-90640000D01*
X136532552Y-90470559D01*
X136551459Y-90412368D01*
X136561548Y-90400555D01*
X139157607Y-87804496D01*
X139212124Y-87776719D01*
X139227611Y-87775500D01*
X139335053Y-87775500D01*
X139335056Y-87775500D01*
X139500225Y-87734790D01*
X139650852Y-87655734D01*
X139778183Y-87542929D01*
X139874818Y-87402930D01*
X139935140Y-87243872D01*
X139955645Y-87075000D01*
X139935140Y-86906128D01*
X139874818Y-86747070D01*
X139778183Y-86607071D01*
X139650852Y-86494266D01*
X139500225Y-86415210D01*
X139500224Y-86415209D01*
X139500223Y-86415209D01*
X139335058Y-86374500D01*
X139335056Y-86374500D01*
X139164944Y-86374500D01*
X139164941Y-86374500D01*
X138999776Y-86415209D01*
X138849146Y-86494267D01*
X138721818Y-86607069D01*
X138721817Y-86607071D01*
X138625182Y-86747070D01*
X138564860Y-86906128D01*
X138559733Y-86948346D01*
X138553730Y-86997794D01*
X138544355Y-87075000D01*
X138545045Y-87080689D01*
X138545966Y-87088271D01*
X138534208Y-87148316D01*
X138517691Y-87170204D01*
X135721560Y-89966337D01*
X135721559Y-89966338D01*
X135662252Y-90069060D01*
X135662252Y-90069061D01*
X135662253Y-90069062D01*
X135631552Y-90183640D01*
X135631552Y-94418693D01*
X135612645Y-94476884D01*
X135598202Y-94492795D01*
X135553871Y-94532068D01*
X135553868Y-94532072D01*
X135518444Y-94583392D01*
X135457234Y-94672070D01*
X135396912Y-94831128D01*
X135396614Y-94833580D01*
X135386773Y-94914633D01*
X135376407Y-95000000D01*
X133350000Y-95000000D01*
X133350000Y-93400000D01*
X133324000Y-93400000D01*
X133265809Y-93381093D01*
X133229845Y-93331593D01*
X133225000Y-93301000D01*
X133225000Y-92600001D01*
X133225000Y-92600000D01*
X133224999Y-92600000D01*
X127299000Y-92600000D01*
X127240809Y-92581093D01*
X127204845Y-92531593D01*
X127200000Y-92501000D01*
X127200000Y-89364069D01*
X130599500Y-89364069D01*
X130624450Y-89489500D01*
X130624499Y-89489742D01*
X130624500Y-89489747D01*
X130673534Y-89608125D01*
X130673538Y-89608133D01*
X130708522Y-89660489D01*
X130744724Y-89714669D01*
X130835331Y-89805276D01*
X130889637Y-89841562D01*
X130941866Y-89876461D01*
X130941870Y-89876463D01*
X130941873Y-89876465D01*
X131060256Y-89925501D01*
X131185931Y-89950500D01*
X131185932Y-89950500D01*
X131314068Y-89950500D01*
X131314069Y-89950500D01*
X131439744Y-89925501D01*
X131558127Y-89876465D01*
X131664669Y-89805276D01*
X131755276Y-89714669D01*
X131826465Y-89608127D01*
X131875501Y-89489744D01*
X131900500Y-89364069D01*
X131900500Y-89235931D01*
X131875501Y-89110256D01*
X131826465Y-88991873D01*
X131826463Y-88991870D01*
X131826461Y-88991866D01*
X131784786Y-88929496D01*
X131755276Y-88885331D01*
X131664669Y-88794724D01*
X131622226Y-88766365D01*
X131558133Y-88723538D01*
X131558125Y-88723534D01*
X131439747Y-88674500D01*
X131439745Y-88674499D01*
X131439744Y-88674499D01*
X131314069Y-88649500D01*
X131185931Y-88649500D01*
X131185930Y-88649500D01*
X131123093Y-88661999D01*
X131060256Y-88674499D01*
X131060255Y-88674499D01*
X131060252Y-88674500D01*
X130941874Y-88723534D01*
X130941866Y-88723538D01*
X130835331Y-88794724D01*
X130835327Y-88794727D01*
X130744727Y-88885327D01*
X130744724Y-88885331D01*
X130673538Y-88991866D01*
X130673534Y-88991874D01*
X130624500Y-89110252D01*
X130624499Y-89110257D01*
X130606209Y-89202206D01*
X130599500Y-89235931D01*
X130599500Y-89364069D01*
X127200000Y-89364069D01*
X127200000Y-88200017D01*
X127196976Y-88054507D01*
X127197497Y-88042108D01*
X127198650Y-88031129D01*
X127227805Y-87753565D01*
X127230276Y-87739671D01*
X127301132Y-87459198D01*
X127305553Y-87445809D01*
X127415603Y-87178276D01*
X127421889Y-87165642D01*
X127432112Y-87148316D01*
X127568894Y-86916493D01*
X127576907Y-86904891D01*
X127757874Y-86679198D01*
X127767461Y-86668850D01*
X127978706Y-86471209D01*
X127989668Y-86462331D01*
X128226893Y-86296764D01*
X128238999Y-86289542D01*
X128497375Y-86159419D01*
X128510392Y-86153991D01*
X128784642Y-86061969D01*
X128798308Y-86058445D01*
X129083696Y-86006237D01*
X129096042Y-86004772D01*
X129238617Y-85996905D01*
X129244060Y-85996756D01*
X162196756Y-86000000D01*
G37*
%TD.AperFunction*%
%TD*%
M02*
