%TF.GenerationSoftware,KiCad,Pcbnew,8.0.0*%
%TF.CreationDate,2024-03-16T23:45:48+01:00*%
%TF.ProjectId,tcs_controller,7463735f-636f-46e7-9472-6f6c6c65722e,1.0*%
%TF.SameCoordinates,Original*%
%TF.FileFunction,Legend,Top*%
%TF.FilePolarity,Positive*%
%FSLAX46Y46*%
G04 Gerber Fmt 4.6, Leading zero omitted, Abs format (unit mm)*
G04 Created by KiCad (PCBNEW 8.0.0) date 2024-03-16 23:45:48*
%MOMM*%
%LPD*%
G01*
G04 APERTURE LIST*
%ADD10C,0.100000*%
%ADD11C,0.150000*%
%ADD12C,0.120000*%
G04 APERTURE END LIST*
D10*
X147806400Y-86278000D02*
X153005800Y-86278000D01*
X153005800Y-92528000D01*
X147806400Y-92528000D01*
X147806400Y-86278000D01*
X140741400Y-86257600D02*
X145845400Y-86257600D01*
X145845400Y-92507600D01*
X140741400Y-92507600D01*
X140741400Y-86257600D01*
D11*
X151542238Y-88981011D02*
X151494619Y-89076249D01*
X151494619Y-89076249D02*
X151494619Y-89219106D01*
X151494619Y-89219106D02*
X151542238Y-89361963D01*
X151542238Y-89361963D02*
X151637476Y-89457201D01*
X151637476Y-89457201D02*
X151732714Y-89504820D01*
X151732714Y-89504820D02*
X151923190Y-89552439D01*
X151923190Y-89552439D02*
X152066047Y-89552439D01*
X152066047Y-89552439D02*
X152256523Y-89504820D01*
X152256523Y-89504820D02*
X152351761Y-89457201D01*
X152351761Y-89457201D02*
X152447000Y-89361963D01*
X152447000Y-89361963D02*
X152494619Y-89219106D01*
X152494619Y-89219106D02*
X152494619Y-89123868D01*
X152494619Y-89123868D02*
X152447000Y-88981011D01*
X152447000Y-88981011D02*
X152399380Y-88933392D01*
X152399380Y-88933392D02*
X152066047Y-88933392D01*
X152066047Y-88933392D02*
X152066047Y-89123868D01*
X152494619Y-88504820D02*
X151494619Y-88504820D01*
X151494619Y-88504820D02*
X152494619Y-87933392D01*
X152494619Y-87933392D02*
X151494619Y-87933392D01*
X152494619Y-87457201D02*
X151494619Y-87457201D01*
X151494619Y-87457201D02*
X151494619Y-87219106D01*
X151494619Y-87219106D02*
X151542238Y-87076249D01*
X151542238Y-87076249D02*
X151637476Y-86981011D01*
X151637476Y-86981011D02*
X151732714Y-86933392D01*
X151732714Y-86933392D02*
X151923190Y-86885773D01*
X151923190Y-86885773D02*
X152066047Y-86885773D01*
X152066047Y-86885773D02*
X152256523Y-86933392D01*
X152256523Y-86933392D02*
X152351761Y-86981011D01*
X152351761Y-86981011D02*
X152447000Y-87076249D01*
X152447000Y-87076249D02*
X152494619Y-87219106D01*
X152494619Y-87219106D02*
X152494619Y-87457201D01*
X129369819Y-118091792D02*
X128893628Y-118425125D01*
X129369819Y-118663220D02*
X128369819Y-118663220D01*
X128369819Y-118663220D02*
X128369819Y-118282268D01*
X128369819Y-118282268D02*
X128417438Y-118187030D01*
X128417438Y-118187030D02*
X128465057Y-118139411D01*
X128465057Y-118139411D02*
X128560295Y-118091792D01*
X128560295Y-118091792D02*
X128703152Y-118091792D01*
X128703152Y-118091792D02*
X128798390Y-118139411D01*
X128798390Y-118139411D02*
X128846009Y-118187030D01*
X128846009Y-118187030D02*
X128893628Y-118282268D01*
X128893628Y-118282268D02*
X128893628Y-118663220D01*
X128846009Y-117663220D02*
X128846009Y-117329887D01*
X129369819Y-117187030D02*
X129369819Y-117663220D01*
X129369819Y-117663220D02*
X128369819Y-117663220D01*
X128369819Y-117663220D02*
X128369819Y-117187030D01*
X129322200Y-116806077D02*
X129369819Y-116663220D01*
X129369819Y-116663220D02*
X129369819Y-116425125D01*
X129369819Y-116425125D02*
X129322200Y-116329887D01*
X129322200Y-116329887D02*
X129274580Y-116282268D01*
X129274580Y-116282268D02*
X129179342Y-116234649D01*
X129179342Y-116234649D02*
X129084104Y-116234649D01*
X129084104Y-116234649D02*
X128988866Y-116282268D01*
X128988866Y-116282268D02*
X128941247Y-116329887D01*
X128941247Y-116329887D02*
X128893628Y-116425125D01*
X128893628Y-116425125D02*
X128846009Y-116615601D01*
X128846009Y-116615601D02*
X128798390Y-116710839D01*
X128798390Y-116710839D02*
X128750771Y-116758458D01*
X128750771Y-116758458D02*
X128655533Y-116806077D01*
X128655533Y-116806077D02*
X128560295Y-116806077D01*
X128560295Y-116806077D02*
X128465057Y-116758458D01*
X128465057Y-116758458D02*
X128417438Y-116710839D01*
X128417438Y-116710839D02*
X128369819Y-116615601D01*
X128369819Y-116615601D02*
X128369819Y-116377506D01*
X128369819Y-116377506D02*
X128417438Y-116234649D01*
X128846009Y-115806077D02*
X128846009Y-115472744D01*
X129369819Y-115329887D02*
X129369819Y-115806077D01*
X129369819Y-115806077D02*
X128369819Y-115806077D01*
X128369819Y-115806077D02*
X128369819Y-115329887D01*
X128369819Y-115044172D02*
X128369819Y-114472744D01*
X129369819Y-114758458D02*
X128369819Y-114758458D01*
X128846009Y-90929887D02*
X128846009Y-91263220D01*
X129369819Y-91263220D02*
X128369819Y-91263220D01*
X128369819Y-91263220D02*
X128369819Y-90787030D01*
X129369819Y-89929887D02*
X129369819Y-90406077D01*
X129369819Y-90406077D02*
X128369819Y-90406077D01*
X129084104Y-89644172D02*
X129084104Y-89167982D01*
X129369819Y-89739410D02*
X128369819Y-89406077D01*
X128369819Y-89406077D02*
X129369819Y-89072744D01*
X129322200Y-88787029D02*
X129369819Y-88644172D01*
X129369819Y-88644172D02*
X129369819Y-88406077D01*
X129369819Y-88406077D02*
X129322200Y-88310839D01*
X129322200Y-88310839D02*
X129274580Y-88263220D01*
X129274580Y-88263220D02*
X129179342Y-88215601D01*
X129179342Y-88215601D02*
X129084104Y-88215601D01*
X129084104Y-88215601D02*
X128988866Y-88263220D01*
X128988866Y-88263220D02*
X128941247Y-88310839D01*
X128941247Y-88310839D02*
X128893628Y-88406077D01*
X128893628Y-88406077D02*
X128846009Y-88596553D01*
X128846009Y-88596553D02*
X128798390Y-88691791D01*
X128798390Y-88691791D02*
X128750771Y-88739410D01*
X128750771Y-88739410D02*
X128655533Y-88787029D01*
X128655533Y-88787029D02*
X128560295Y-88787029D01*
X128560295Y-88787029D02*
X128465057Y-88739410D01*
X128465057Y-88739410D02*
X128417438Y-88691791D01*
X128417438Y-88691791D02*
X128369819Y-88596553D01*
X128369819Y-88596553D02*
X128369819Y-88358458D01*
X128369819Y-88358458D02*
X128417438Y-88215601D01*
X129369819Y-87787029D02*
X128369819Y-87787029D01*
X128846009Y-87787029D02*
X128846009Y-87215601D01*
X129369819Y-87215601D02*
X128369819Y-87215601D01*
X146789209Y-91245487D02*
X146836828Y-91102630D01*
X146836828Y-91102630D02*
X146884447Y-91055011D01*
X146884447Y-91055011D02*
X146979685Y-91007392D01*
X146979685Y-91007392D02*
X147122542Y-91007392D01*
X147122542Y-91007392D02*
X147217780Y-91055011D01*
X147217780Y-91055011D02*
X147265400Y-91102630D01*
X147265400Y-91102630D02*
X147313019Y-91197868D01*
X147313019Y-91197868D02*
X147313019Y-91578820D01*
X147313019Y-91578820D02*
X146313019Y-91578820D01*
X146313019Y-91578820D02*
X146313019Y-91245487D01*
X146313019Y-91245487D02*
X146360638Y-91150249D01*
X146360638Y-91150249D02*
X146408257Y-91102630D01*
X146408257Y-91102630D02*
X146503495Y-91055011D01*
X146503495Y-91055011D02*
X146598733Y-91055011D01*
X146598733Y-91055011D02*
X146693971Y-91102630D01*
X146693971Y-91102630D02*
X146741590Y-91150249D01*
X146741590Y-91150249D02*
X146789209Y-91245487D01*
X146789209Y-91245487D02*
X146789209Y-91578820D01*
X146646352Y-90150249D02*
X147313019Y-90150249D01*
X146646352Y-90578820D02*
X147170161Y-90578820D01*
X147170161Y-90578820D02*
X147265400Y-90531201D01*
X147265400Y-90531201D02*
X147313019Y-90435963D01*
X147313019Y-90435963D02*
X147313019Y-90293106D01*
X147313019Y-90293106D02*
X147265400Y-90197868D01*
X147265400Y-90197868D02*
X147217780Y-90150249D01*
X146646352Y-89816915D02*
X146646352Y-89435963D01*
X146313019Y-89674058D02*
X147170161Y-89674058D01*
X147170161Y-89674058D02*
X147265400Y-89626439D01*
X147265400Y-89626439D02*
X147313019Y-89531201D01*
X147313019Y-89531201D02*
X147313019Y-89435963D01*
X146646352Y-89245486D02*
X146646352Y-88864534D01*
X146313019Y-89102629D02*
X147170161Y-89102629D01*
X147170161Y-89102629D02*
X147265400Y-89055010D01*
X147265400Y-89055010D02*
X147313019Y-88959772D01*
X147313019Y-88959772D02*
X147313019Y-88864534D01*
X147313019Y-88388343D02*
X147265400Y-88483581D01*
X147265400Y-88483581D02*
X147217780Y-88531200D01*
X147217780Y-88531200D02*
X147122542Y-88578819D01*
X147122542Y-88578819D02*
X146836828Y-88578819D01*
X146836828Y-88578819D02*
X146741590Y-88531200D01*
X146741590Y-88531200D02*
X146693971Y-88483581D01*
X146693971Y-88483581D02*
X146646352Y-88388343D01*
X146646352Y-88388343D02*
X146646352Y-88245486D01*
X146646352Y-88245486D02*
X146693971Y-88150248D01*
X146693971Y-88150248D02*
X146741590Y-88102629D01*
X146741590Y-88102629D02*
X146836828Y-88055010D01*
X146836828Y-88055010D02*
X147122542Y-88055010D01*
X147122542Y-88055010D02*
X147217780Y-88102629D01*
X147217780Y-88102629D02*
X147265400Y-88150248D01*
X147265400Y-88150248D02*
X147313019Y-88245486D01*
X147313019Y-88245486D02*
X147313019Y-88388343D01*
X146646352Y-87626438D02*
X147313019Y-87626438D01*
X146741590Y-87626438D02*
X146693971Y-87578819D01*
X146693971Y-87578819D02*
X146646352Y-87483581D01*
X146646352Y-87483581D02*
X146646352Y-87340724D01*
X146646352Y-87340724D02*
X146693971Y-87245486D01*
X146693971Y-87245486D02*
X146789209Y-87197867D01*
X146789209Y-87197867D02*
X147313019Y-87197867D01*
X145347619Y-88197011D02*
X145347619Y-88768439D01*
X145347619Y-88482725D02*
X144347619Y-88482725D01*
X144347619Y-88482725D02*
X144490476Y-88577963D01*
X144490476Y-88577963D02*
X144585714Y-88673201D01*
X144585714Y-88673201D02*
X144633333Y-88768439D01*
X144347619Y-87577963D02*
X144347619Y-87482725D01*
X144347619Y-87482725D02*
X144395238Y-87387487D01*
X144395238Y-87387487D02*
X144442857Y-87339868D01*
X144442857Y-87339868D02*
X144538095Y-87292249D01*
X144538095Y-87292249D02*
X144728571Y-87244630D01*
X144728571Y-87244630D02*
X144966666Y-87244630D01*
X144966666Y-87244630D02*
X145157142Y-87292249D01*
X145157142Y-87292249D02*
X145252380Y-87339868D01*
X145252380Y-87339868D02*
X145300000Y-87387487D01*
X145300000Y-87387487D02*
X145347619Y-87482725D01*
X145347619Y-87482725D02*
X145347619Y-87577963D01*
X145347619Y-87577963D02*
X145300000Y-87673201D01*
X145300000Y-87673201D02*
X145252380Y-87720820D01*
X145252380Y-87720820D02*
X145157142Y-87768439D01*
X145157142Y-87768439D02*
X144966666Y-87816058D01*
X144966666Y-87816058D02*
X144728571Y-87816058D01*
X144728571Y-87816058D02*
X144538095Y-87768439D01*
X144538095Y-87768439D02*
X144442857Y-87720820D01*
X144442857Y-87720820D02*
X144395238Y-87673201D01*
X144395238Y-87673201D02*
X144347619Y-87577963D01*
X151494619Y-91858458D02*
X151494619Y-91239411D01*
X151494619Y-91239411D02*
X151875571Y-91572744D01*
X151875571Y-91572744D02*
X151875571Y-91429887D01*
X151875571Y-91429887D02*
X151923190Y-91334649D01*
X151923190Y-91334649D02*
X151970809Y-91287030D01*
X151970809Y-91287030D02*
X152066047Y-91239411D01*
X152066047Y-91239411D02*
X152304142Y-91239411D01*
X152304142Y-91239411D02*
X152399380Y-91287030D01*
X152399380Y-91287030D02*
X152447000Y-91334649D01*
X152447000Y-91334649D02*
X152494619Y-91429887D01*
X152494619Y-91429887D02*
X152494619Y-91715601D01*
X152494619Y-91715601D02*
X152447000Y-91810839D01*
X152447000Y-91810839D02*
X152399380Y-91858458D01*
X151923190Y-90667982D02*
X151875571Y-90763220D01*
X151875571Y-90763220D02*
X151827952Y-90810839D01*
X151827952Y-90810839D02*
X151732714Y-90858458D01*
X151732714Y-90858458D02*
X151685095Y-90858458D01*
X151685095Y-90858458D02*
X151589857Y-90810839D01*
X151589857Y-90810839D02*
X151542238Y-90763220D01*
X151542238Y-90763220D02*
X151494619Y-90667982D01*
X151494619Y-90667982D02*
X151494619Y-90477506D01*
X151494619Y-90477506D02*
X151542238Y-90382268D01*
X151542238Y-90382268D02*
X151589857Y-90334649D01*
X151589857Y-90334649D02*
X151685095Y-90287030D01*
X151685095Y-90287030D02*
X151732714Y-90287030D01*
X151732714Y-90287030D02*
X151827952Y-90334649D01*
X151827952Y-90334649D02*
X151875571Y-90382268D01*
X151875571Y-90382268D02*
X151923190Y-90477506D01*
X151923190Y-90477506D02*
X151923190Y-90667982D01*
X151923190Y-90667982D02*
X151970809Y-90763220D01*
X151970809Y-90763220D02*
X152018428Y-90810839D01*
X152018428Y-90810839D02*
X152113666Y-90858458D01*
X152113666Y-90858458D02*
X152304142Y-90858458D01*
X152304142Y-90858458D02*
X152399380Y-90810839D01*
X152399380Y-90810839D02*
X152447000Y-90763220D01*
X152447000Y-90763220D02*
X152494619Y-90667982D01*
X152494619Y-90667982D02*
X152494619Y-90477506D01*
X152494619Y-90477506D02*
X152447000Y-90382268D01*
X152447000Y-90382268D02*
X152399380Y-90334649D01*
X152399380Y-90334649D02*
X152304142Y-90287030D01*
X152304142Y-90287030D02*
X152113666Y-90287030D01*
X152113666Y-90287030D02*
X152018428Y-90334649D01*
X152018428Y-90334649D02*
X151970809Y-90382268D01*
X151970809Y-90382268D02*
X151923190Y-90477506D01*
X144347619Y-91230344D02*
X144347619Y-91135106D01*
X144347619Y-91135106D02*
X144395238Y-91039868D01*
X144395238Y-91039868D02*
X144442857Y-90992249D01*
X144442857Y-90992249D02*
X144538095Y-90944630D01*
X144538095Y-90944630D02*
X144728571Y-90897011D01*
X144728571Y-90897011D02*
X144966666Y-90897011D01*
X144966666Y-90897011D02*
X145157142Y-90944630D01*
X145157142Y-90944630D02*
X145252380Y-90992249D01*
X145252380Y-90992249D02*
X145300000Y-91039868D01*
X145300000Y-91039868D02*
X145347619Y-91135106D01*
X145347619Y-91135106D02*
X145347619Y-91230344D01*
X145347619Y-91230344D02*
X145300000Y-91325582D01*
X145300000Y-91325582D02*
X145252380Y-91373201D01*
X145252380Y-91373201D02*
X145157142Y-91420820D01*
X145157142Y-91420820D02*
X144966666Y-91468439D01*
X144966666Y-91468439D02*
X144728571Y-91468439D01*
X144728571Y-91468439D02*
X144538095Y-91420820D01*
X144538095Y-91420820D02*
X144442857Y-91373201D01*
X144442857Y-91373201D02*
X144395238Y-91325582D01*
X144395238Y-91325582D02*
X144347619Y-91230344D01*
X145347619Y-90420820D02*
X145347619Y-90230344D01*
X145347619Y-90230344D02*
X145300000Y-90135106D01*
X145300000Y-90135106D02*
X145252380Y-90087487D01*
X145252380Y-90087487D02*
X145109523Y-89992249D01*
X145109523Y-89992249D02*
X144919047Y-89944630D01*
X144919047Y-89944630D02*
X144538095Y-89944630D01*
X144538095Y-89944630D02*
X144442857Y-89992249D01*
X144442857Y-89992249D02*
X144395238Y-90039868D01*
X144395238Y-90039868D02*
X144347619Y-90135106D01*
X144347619Y-90135106D02*
X144347619Y-90325582D01*
X144347619Y-90325582D02*
X144395238Y-90420820D01*
X144395238Y-90420820D02*
X144442857Y-90468439D01*
X144442857Y-90468439D02*
X144538095Y-90516058D01*
X144538095Y-90516058D02*
X144776190Y-90516058D01*
X144776190Y-90516058D02*
X144871428Y-90468439D01*
X144871428Y-90468439D02*
X144919047Y-90420820D01*
X144919047Y-90420820D02*
X144966666Y-90325582D01*
X144966666Y-90325582D02*
X144966666Y-90135106D01*
X144966666Y-90135106D02*
X144919047Y-90039868D01*
X144919047Y-90039868D02*
X144871428Y-89992249D01*
X144871428Y-89992249D02*
X144776190Y-89944630D01*
X134622200Y-91710839D02*
X134669819Y-91567982D01*
X134669819Y-91567982D02*
X134669819Y-91329887D01*
X134669819Y-91329887D02*
X134622200Y-91234649D01*
X134622200Y-91234649D02*
X134574580Y-91187030D01*
X134574580Y-91187030D02*
X134479342Y-91139411D01*
X134479342Y-91139411D02*
X134384104Y-91139411D01*
X134384104Y-91139411D02*
X134288866Y-91187030D01*
X134288866Y-91187030D02*
X134241247Y-91234649D01*
X134241247Y-91234649D02*
X134193628Y-91329887D01*
X134193628Y-91329887D02*
X134146009Y-91520363D01*
X134146009Y-91520363D02*
X134098390Y-91615601D01*
X134098390Y-91615601D02*
X134050771Y-91663220D01*
X134050771Y-91663220D02*
X133955533Y-91710839D01*
X133955533Y-91710839D02*
X133860295Y-91710839D01*
X133860295Y-91710839D02*
X133765057Y-91663220D01*
X133765057Y-91663220D02*
X133717438Y-91615601D01*
X133717438Y-91615601D02*
X133669819Y-91520363D01*
X133669819Y-91520363D02*
X133669819Y-91282268D01*
X133669819Y-91282268D02*
X133717438Y-91139411D01*
X133669819Y-90853696D02*
X133669819Y-90282268D01*
X134669819Y-90567982D02*
X133669819Y-90567982D01*
X134384104Y-89996553D02*
X134384104Y-89520363D01*
X134669819Y-90091791D02*
X133669819Y-89758458D01*
X133669819Y-89758458D02*
X134669819Y-89425125D01*
X133669819Y-89234648D02*
X133669819Y-88663220D01*
X134669819Y-88948934D02*
X133669819Y-88948934D01*
X133669819Y-88329886D02*
X134479342Y-88329886D01*
X134479342Y-88329886D02*
X134574580Y-88282267D01*
X134574580Y-88282267D02*
X134622200Y-88234648D01*
X134622200Y-88234648D02*
X134669819Y-88139410D01*
X134669819Y-88139410D02*
X134669819Y-87948934D01*
X134669819Y-87948934D02*
X134622200Y-87853696D01*
X134622200Y-87853696D02*
X134574580Y-87806077D01*
X134574580Y-87806077D02*
X134479342Y-87758458D01*
X134479342Y-87758458D02*
X133669819Y-87758458D01*
X134622200Y-87329886D02*
X134669819Y-87187029D01*
X134669819Y-87187029D02*
X134669819Y-86948934D01*
X134669819Y-86948934D02*
X134622200Y-86853696D01*
X134622200Y-86853696D02*
X134574580Y-86806077D01*
X134574580Y-86806077D02*
X134479342Y-86758458D01*
X134479342Y-86758458D02*
X134384104Y-86758458D01*
X134384104Y-86758458D02*
X134288866Y-86806077D01*
X134288866Y-86806077D02*
X134241247Y-86853696D01*
X134241247Y-86853696D02*
X134193628Y-86948934D01*
X134193628Y-86948934D02*
X134146009Y-87139410D01*
X134146009Y-87139410D02*
X134098390Y-87234648D01*
X134098390Y-87234648D02*
X134050771Y-87282267D01*
X134050771Y-87282267D02*
X133955533Y-87329886D01*
X133955533Y-87329886D02*
X133860295Y-87329886D01*
X133860295Y-87329886D02*
X133765057Y-87282267D01*
X133765057Y-87282267D02*
X133717438Y-87234648D01*
X133717438Y-87234648D02*
X133669819Y-87139410D01*
X133669819Y-87139410D02*
X133669819Y-86901315D01*
X133669819Y-86901315D02*
X133717438Y-86758458D01*
X159393922Y-118669819D02*
X159727255Y-119669819D01*
X159727255Y-119669819D02*
X160060588Y-118669819D01*
X160917731Y-119669819D02*
X160346303Y-119669819D01*
X160632017Y-119669819D02*
X160632017Y-118669819D01*
X160632017Y-118669819D02*
X160536779Y-118812676D01*
X160536779Y-118812676D02*
X160441541Y-118907914D01*
X160441541Y-118907914D02*
X160346303Y-118955533D01*
X161346303Y-119574580D02*
X161393922Y-119622200D01*
X161393922Y-119622200D02*
X161346303Y-119669819D01*
X161346303Y-119669819D02*
X161298684Y-119622200D01*
X161298684Y-119622200D02*
X161346303Y-119574580D01*
X161346303Y-119574580D02*
X161346303Y-119669819D01*
X162012969Y-118669819D02*
X162108207Y-118669819D01*
X162108207Y-118669819D02*
X162203445Y-118717438D01*
X162203445Y-118717438D02*
X162251064Y-118765057D01*
X162251064Y-118765057D02*
X162298683Y-118860295D01*
X162298683Y-118860295D02*
X162346302Y-119050771D01*
X162346302Y-119050771D02*
X162346302Y-119288866D01*
X162346302Y-119288866D02*
X162298683Y-119479342D01*
X162298683Y-119479342D02*
X162251064Y-119574580D01*
X162251064Y-119574580D02*
X162203445Y-119622200D01*
X162203445Y-119622200D02*
X162108207Y-119669819D01*
X162108207Y-119669819D02*
X162012969Y-119669819D01*
X162012969Y-119669819D02*
X161917731Y-119622200D01*
X161917731Y-119622200D02*
X161870112Y-119574580D01*
X161870112Y-119574580D02*
X161822493Y-119479342D01*
X161822493Y-119479342D02*
X161774874Y-119288866D01*
X161774874Y-119288866D02*
X161774874Y-119050771D01*
X161774874Y-119050771D02*
X161822493Y-118860295D01*
X161822493Y-118860295D02*
X161870112Y-118765057D01*
X161870112Y-118765057D02*
X161917731Y-118717438D01*
X161917731Y-118717438D02*
X162012969Y-118669819D01*
X134667465Y-106406485D02*
X134667465Y-106073152D01*
X135191275Y-105930295D02*
X135191275Y-106406485D01*
X135191275Y-106406485D02*
X134191275Y-106406485D01*
X134191275Y-106406485D02*
X134191275Y-105930295D01*
X135143656Y-105549342D02*
X135191275Y-105406485D01*
X135191275Y-105406485D02*
X135191275Y-105168390D01*
X135191275Y-105168390D02*
X135143656Y-105073152D01*
X135143656Y-105073152D02*
X135096036Y-105025533D01*
X135096036Y-105025533D02*
X135000798Y-104977914D01*
X135000798Y-104977914D02*
X134905560Y-104977914D01*
X134905560Y-104977914D02*
X134810322Y-105025533D01*
X134810322Y-105025533D02*
X134762703Y-105073152D01*
X134762703Y-105073152D02*
X134715084Y-105168390D01*
X134715084Y-105168390D02*
X134667465Y-105358866D01*
X134667465Y-105358866D02*
X134619846Y-105454104D01*
X134619846Y-105454104D02*
X134572227Y-105501723D01*
X134572227Y-105501723D02*
X134476989Y-105549342D01*
X134476989Y-105549342D02*
X134381751Y-105549342D01*
X134381751Y-105549342D02*
X134286513Y-105501723D01*
X134286513Y-105501723D02*
X134238894Y-105454104D01*
X134238894Y-105454104D02*
X134191275Y-105358866D01*
X134191275Y-105358866D02*
X134191275Y-105120771D01*
X134191275Y-105120771D02*
X134238894Y-104977914D01*
X135191275Y-104549342D02*
X134191275Y-104549342D01*
X134191275Y-104549342D02*
X134191275Y-104168390D01*
X134191275Y-104168390D02*
X134238894Y-104073152D01*
X134238894Y-104073152D02*
X134286513Y-104025533D01*
X134286513Y-104025533D02*
X134381751Y-103977914D01*
X134381751Y-103977914D02*
X134524608Y-103977914D01*
X134524608Y-103977914D02*
X134619846Y-104025533D01*
X134619846Y-104025533D02*
X134667465Y-104073152D01*
X134667465Y-104073152D02*
X134715084Y-104168390D01*
X134715084Y-104168390D02*
X134715084Y-104549342D01*
X134191275Y-103644580D02*
X134191275Y-103025533D01*
X134191275Y-103025533D02*
X134572227Y-103358866D01*
X134572227Y-103358866D02*
X134572227Y-103216009D01*
X134572227Y-103216009D02*
X134619846Y-103120771D01*
X134619846Y-103120771D02*
X134667465Y-103073152D01*
X134667465Y-103073152D02*
X134762703Y-103025533D01*
X134762703Y-103025533D02*
X135000798Y-103025533D01*
X135000798Y-103025533D02*
X135096036Y-103073152D01*
X135096036Y-103073152D02*
X135143656Y-103120771D01*
X135143656Y-103120771D02*
X135191275Y-103216009D01*
X135191275Y-103216009D02*
X135191275Y-103501723D01*
X135191275Y-103501723D02*
X135143656Y-103596961D01*
X135143656Y-103596961D02*
X135096036Y-103644580D01*
X134286513Y-102644580D02*
X134238894Y-102596961D01*
X134238894Y-102596961D02*
X134191275Y-102501723D01*
X134191275Y-102501723D02*
X134191275Y-102263628D01*
X134191275Y-102263628D02*
X134238894Y-102168390D01*
X134238894Y-102168390D02*
X134286513Y-102120771D01*
X134286513Y-102120771D02*
X134381751Y-102073152D01*
X134381751Y-102073152D02*
X134476989Y-102073152D01*
X134476989Y-102073152D02*
X134619846Y-102120771D01*
X134619846Y-102120771D02*
X135191275Y-102692199D01*
X135191275Y-102692199D02*
X135191275Y-102073152D01*
X134810322Y-101644580D02*
X134810322Y-100882676D01*
X135143656Y-100454104D02*
X135191275Y-100311247D01*
X135191275Y-100311247D02*
X135191275Y-100073152D01*
X135191275Y-100073152D02*
X135143656Y-99977914D01*
X135143656Y-99977914D02*
X135096036Y-99930295D01*
X135096036Y-99930295D02*
X135000798Y-99882676D01*
X135000798Y-99882676D02*
X134905560Y-99882676D01*
X134905560Y-99882676D02*
X134810322Y-99930295D01*
X134810322Y-99930295D02*
X134762703Y-99977914D01*
X134762703Y-99977914D02*
X134715084Y-100073152D01*
X134715084Y-100073152D02*
X134667465Y-100263628D01*
X134667465Y-100263628D02*
X134619846Y-100358866D01*
X134619846Y-100358866D02*
X134572227Y-100406485D01*
X134572227Y-100406485D02*
X134476989Y-100454104D01*
X134476989Y-100454104D02*
X134381751Y-100454104D01*
X134381751Y-100454104D02*
X134286513Y-100406485D01*
X134286513Y-100406485D02*
X134238894Y-100358866D01*
X134238894Y-100358866D02*
X134191275Y-100263628D01*
X134191275Y-100263628D02*
X134191275Y-100025533D01*
X134191275Y-100025533D02*
X134238894Y-99882676D01*
X134191275Y-99549342D02*
X134191275Y-98930295D01*
X134191275Y-98930295D02*
X134572227Y-99263628D01*
X134572227Y-99263628D02*
X134572227Y-99120771D01*
X134572227Y-99120771D02*
X134619846Y-99025533D01*
X134619846Y-99025533D02*
X134667465Y-98977914D01*
X134667465Y-98977914D02*
X134762703Y-98930295D01*
X134762703Y-98930295D02*
X135000798Y-98930295D01*
X135000798Y-98930295D02*
X135096036Y-98977914D01*
X135096036Y-98977914D02*
X135143656Y-99025533D01*
X135143656Y-99025533D02*
X135191275Y-99120771D01*
X135191275Y-99120771D02*
X135191275Y-99406485D01*
X135191275Y-99406485D02*
X135143656Y-99501723D01*
X135143656Y-99501723D02*
X135096036Y-99549342D01*
X135801219Y-106335056D02*
X136801219Y-106096961D01*
X136801219Y-106096961D02*
X136086933Y-105906485D01*
X136086933Y-105906485D02*
X136801219Y-105716009D01*
X136801219Y-105716009D02*
X135801219Y-105477914D01*
X136801219Y-104525533D02*
X136325028Y-104858866D01*
X136801219Y-105096961D02*
X135801219Y-105096961D01*
X135801219Y-105096961D02*
X135801219Y-104716009D01*
X135801219Y-104716009D02*
X135848838Y-104620771D01*
X135848838Y-104620771D02*
X135896457Y-104573152D01*
X135896457Y-104573152D02*
X135991695Y-104525533D01*
X135991695Y-104525533D02*
X136134552Y-104525533D01*
X136134552Y-104525533D02*
X136229790Y-104573152D01*
X136229790Y-104573152D02*
X136277409Y-104620771D01*
X136277409Y-104620771D02*
X136325028Y-104716009D01*
X136325028Y-104716009D02*
X136325028Y-105096961D01*
X135801219Y-103906485D02*
X135801219Y-103716009D01*
X135801219Y-103716009D02*
X135848838Y-103620771D01*
X135848838Y-103620771D02*
X135944076Y-103525533D01*
X135944076Y-103525533D02*
X136134552Y-103477914D01*
X136134552Y-103477914D02*
X136467885Y-103477914D01*
X136467885Y-103477914D02*
X136658361Y-103525533D01*
X136658361Y-103525533D02*
X136753600Y-103620771D01*
X136753600Y-103620771D02*
X136801219Y-103716009D01*
X136801219Y-103716009D02*
X136801219Y-103906485D01*
X136801219Y-103906485D02*
X136753600Y-104001723D01*
X136753600Y-104001723D02*
X136658361Y-104096961D01*
X136658361Y-104096961D02*
X136467885Y-104144580D01*
X136467885Y-104144580D02*
X136134552Y-104144580D01*
X136134552Y-104144580D02*
X135944076Y-104096961D01*
X135944076Y-104096961D02*
X135848838Y-104001723D01*
X135848838Y-104001723D02*
X135801219Y-103906485D01*
X135801219Y-102858866D02*
X135801219Y-102668390D01*
X135801219Y-102668390D02*
X135848838Y-102573152D01*
X135848838Y-102573152D02*
X135944076Y-102477914D01*
X135944076Y-102477914D02*
X136134552Y-102430295D01*
X136134552Y-102430295D02*
X136467885Y-102430295D01*
X136467885Y-102430295D02*
X136658361Y-102477914D01*
X136658361Y-102477914D02*
X136753600Y-102573152D01*
X136753600Y-102573152D02*
X136801219Y-102668390D01*
X136801219Y-102668390D02*
X136801219Y-102858866D01*
X136801219Y-102858866D02*
X136753600Y-102954104D01*
X136753600Y-102954104D02*
X136658361Y-103049342D01*
X136658361Y-103049342D02*
X136467885Y-103096961D01*
X136467885Y-103096961D02*
X136134552Y-103096961D01*
X136134552Y-103096961D02*
X135944076Y-103049342D01*
X135944076Y-103049342D02*
X135848838Y-102954104D01*
X135848838Y-102954104D02*
X135801219Y-102858866D01*
X136801219Y-102001723D02*
X135801219Y-102001723D01*
X135801219Y-102001723D02*
X136515504Y-101668390D01*
X136515504Y-101668390D02*
X135801219Y-101335057D01*
X135801219Y-101335057D02*
X136801219Y-101335057D01*
X136420266Y-100858866D02*
X136420266Y-100096962D01*
X136801219Y-99096962D02*
X136801219Y-99668390D01*
X136801219Y-99382676D02*
X135801219Y-99382676D01*
X135801219Y-99382676D02*
X135944076Y-99477914D01*
X135944076Y-99477914D02*
X136039314Y-99573152D01*
X136039314Y-99573152D02*
X136086933Y-99668390D01*
X139264438Y-90402411D02*
X139216819Y-90497649D01*
X139216819Y-90497649D02*
X139216819Y-90640506D01*
X139216819Y-90640506D02*
X139264438Y-90783363D01*
X139264438Y-90783363D02*
X139359676Y-90878601D01*
X139359676Y-90878601D02*
X139454914Y-90926220D01*
X139454914Y-90926220D02*
X139645390Y-90973839D01*
X139645390Y-90973839D02*
X139788247Y-90973839D01*
X139788247Y-90973839D02*
X139978723Y-90926220D01*
X139978723Y-90926220D02*
X140073961Y-90878601D01*
X140073961Y-90878601D02*
X140169200Y-90783363D01*
X140169200Y-90783363D02*
X140216819Y-90640506D01*
X140216819Y-90640506D02*
X140216819Y-90545268D01*
X140216819Y-90545268D02*
X140169200Y-90402411D01*
X140169200Y-90402411D02*
X140121580Y-90354792D01*
X140121580Y-90354792D02*
X139788247Y-90354792D01*
X139788247Y-90354792D02*
X139788247Y-90545268D01*
X140216819Y-89926220D02*
X139216819Y-89926220D01*
X139216819Y-89926220D02*
X139216819Y-89545268D01*
X139216819Y-89545268D02*
X139264438Y-89450030D01*
X139264438Y-89450030D02*
X139312057Y-89402411D01*
X139312057Y-89402411D02*
X139407295Y-89354792D01*
X139407295Y-89354792D02*
X139550152Y-89354792D01*
X139550152Y-89354792D02*
X139645390Y-89402411D01*
X139645390Y-89402411D02*
X139693009Y-89450030D01*
X139693009Y-89450030D02*
X139740628Y-89545268D01*
X139740628Y-89545268D02*
X139740628Y-89926220D01*
X140216819Y-88926220D02*
X139216819Y-88926220D01*
X139216819Y-88259554D02*
X139216819Y-88069078D01*
X139216819Y-88069078D02*
X139264438Y-87973840D01*
X139264438Y-87973840D02*
X139359676Y-87878602D01*
X139359676Y-87878602D02*
X139550152Y-87830983D01*
X139550152Y-87830983D02*
X139883485Y-87830983D01*
X139883485Y-87830983D02*
X140073961Y-87878602D01*
X140073961Y-87878602D02*
X140169200Y-87973840D01*
X140169200Y-87973840D02*
X140216819Y-88069078D01*
X140216819Y-88069078D02*
X140216819Y-88259554D01*
X140216819Y-88259554D02*
X140169200Y-88354792D01*
X140169200Y-88354792D02*
X140073961Y-88450030D01*
X140073961Y-88450030D02*
X139883485Y-88497649D01*
X139883485Y-88497649D02*
X139550152Y-88497649D01*
X139550152Y-88497649D02*
X139359676Y-88450030D01*
X139359676Y-88450030D02*
X139264438Y-88354792D01*
X139264438Y-88354792D02*
X139216819Y-88259554D01*
X154554819Y-118026666D02*
X154554819Y-118502856D01*
X154554819Y-118502856D02*
X153554819Y-118502856D01*
X154554819Y-117169523D02*
X154554819Y-117740951D01*
X154554819Y-117455237D02*
X153554819Y-117455237D01*
X153554819Y-117455237D02*
X153697676Y-117550475D01*
X153697676Y-117550475D02*
X153792914Y-117645713D01*
X153792914Y-117645713D02*
X153840533Y-117740951D01*
X137737143Y-118672319D02*
X138308571Y-118672319D01*
X138022857Y-119672319D02*
X138022857Y-118672319D01*
X138594286Y-119624700D02*
X138737143Y-119672319D01*
X138737143Y-119672319D02*
X138975238Y-119672319D01*
X138975238Y-119672319D02*
X139070476Y-119624700D01*
X139070476Y-119624700D02*
X139118095Y-119577080D01*
X139118095Y-119577080D02*
X139165714Y-119481842D01*
X139165714Y-119481842D02*
X139165714Y-119386604D01*
X139165714Y-119386604D02*
X139118095Y-119291366D01*
X139118095Y-119291366D02*
X139070476Y-119243747D01*
X139070476Y-119243747D02*
X138975238Y-119196128D01*
X138975238Y-119196128D02*
X138784762Y-119148509D01*
X138784762Y-119148509D02*
X138689524Y-119100890D01*
X138689524Y-119100890D02*
X138641905Y-119053271D01*
X138641905Y-119053271D02*
X138594286Y-118958033D01*
X138594286Y-118958033D02*
X138594286Y-118862795D01*
X138594286Y-118862795D02*
X138641905Y-118767557D01*
X138641905Y-118767557D02*
X138689524Y-118719938D01*
X138689524Y-118719938D02*
X138784762Y-118672319D01*
X138784762Y-118672319D02*
X139022857Y-118672319D01*
X139022857Y-118672319D02*
X139165714Y-118719938D01*
X140165714Y-119672319D02*
X139832381Y-119196128D01*
X139594286Y-119672319D02*
X139594286Y-118672319D01*
X139594286Y-118672319D02*
X139975238Y-118672319D01*
X139975238Y-118672319D02*
X140070476Y-118719938D01*
X140070476Y-118719938D02*
X140118095Y-118767557D01*
X140118095Y-118767557D02*
X140165714Y-118862795D01*
X140165714Y-118862795D02*
X140165714Y-119005652D01*
X140165714Y-119005652D02*
X140118095Y-119100890D01*
X140118095Y-119100890D02*
X140070476Y-119148509D01*
X140070476Y-119148509D02*
X139975238Y-119196128D01*
X139975238Y-119196128D02*
X139594286Y-119196128D01*
X140356191Y-119767557D02*
X141118095Y-119767557D01*
X141880000Y-119672319D02*
X141308572Y-119672319D01*
X141594286Y-119672319D02*
X141594286Y-118672319D01*
X141594286Y-118672319D02*
X141499048Y-118815176D01*
X141499048Y-118815176D02*
X141403810Y-118910414D01*
X141403810Y-118910414D02*
X141308572Y-118958033D01*
X142308572Y-119291366D02*
X143070477Y-119291366D01*
X143499048Y-118767557D02*
X143546667Y-118719938D01*
X143546667Y-118719938D02*
X143641905Y-118672319D01*
X143641905Y-118672319D02*
X143880000Y-118672319D01*
X143880000Y-118672319D02*
X143975238Y-118719938D01*
X143975238Y-118719938D02*
X144022857Y-118767557D01*
X144022857Y-118767557D02*
X144070476Y-118862795D01*
X144070476Y-118862795D02*
X144070476Y-118958033D01*
X144070476Y-118958033D02*
X144022857Y-119100890D01*
X144022857Y-119100890D02*
X143451429Y-119672319D01*
X143451429Y-119672319D02*
X144070476Y-119672319D01*
X144927619Y-119005652D02*
X144927619Y-119672319D01*
X144689524Y-118624700D02*
X144451429Y-119338985D01*
X144451429Y-119338985D02*
X145070476Y-119338985D01*
X145356191Y-118672319D02*
X145975238Y-118672319D01*
X145975238Y-118672319D02*
X145641905Y-119053271D01*
X145641905Y-119053271D02*
X145784762Y-119053271D01*
X145784762Y-119053271D02*
X145880000Y-119100890D01*
X145880000Y-119100890D02*
X145927619Y-119148509D01*
X145927619Y-119148509D02*
X145975238Y-119243747D01*
X145975238Y-119243747D02*
X145975238Y-119481842D01*
X145975238Y-119481842D02*
X145927619Y-119577080D01*
X145927619Y-119577080D02*
X145880000Y-119624700D01*
X145880000Y-119624700D02*
X145784762Y-119672319D01*
X145784762Y-119672319D02*
X145499048Y-119672319D01*
X145499048Y-119672319D02*
X145403810Y-119624700D01*
X145403810Y-119624700D02*
X145356191Y-119577080D01*
X146308572Y-118672319D02*
X146927619Y-118672319D01*
X146927619Y-118672319D02*
X146594286Y-119053271D01*
X146594286Y-119053271D02*
X146737143Y-119053271D01*
X146737143Y-119053271D02*
X146832381Y-119100890D01*
X146832381Y-119100890D02*
X146880000Y-119148509D01*
X146880000Y-119148509D02*
X146927619Y-119243747D01*
X146927619Y-119243747D02*
X146927619Y-119481842D01*
X146927619Y-119481842D02*
X146880000Y-119577080D01*
X146880000Y-119577080D02*
X146832381Y-119624700D01*
X146832381Y-119624700D02*
X146737143Y-119672319D01*
X146737143Y-119672319D02*
X146451429Y-119672319D01*
X146451429Y-119672319D02*
X146356191Y-119624700D01*
X146356191Y-119624700D02*
X146308572Y-119577080D01*
D12*
%TO.C,R11*%
X154687742Y-89677500D02*
X155162258Y-89677500D01*
X154687742Y-90722500D02*
X155162258Y-90722500D01*
%TO.C,R3*%
X137477500Y-91157258D02*
X137477500Y-90682742D01*
X138522500Y-91157258D02*
X138522500Y-90682742D01*
%TO.C,R2*%
X138522500Y-87687742D02*
X138522500Y-88162258D01*
X137477500Y-87687742D02*
X137477500Y-88162258D01*
%TO.C,J2*%
X141270000Y-86770000D02*
X142600000Y-86770000D01*
X141270000Y-88100000D02*
X141270000Y-86770000D01*
X141270000Y-89370000D02*
X141270000Y-91970000D01*
X141270000Y-89370000D02*
X143930000Y-89370000D01*
X141270000Y-91970000D02*
X143930000Y-91970000D01*
X143930000Y-89370000D02*
X143930000Y-91970000D01*
%TO.C,J1*%
X148320000Y-86790000D02*
X149650000Y-86790000D01*
X148320000Y-88120000D02*
X148320000Y-86790000D01*
X148320000Y-89390000D02*
X148320000Y-91990000D01*
X148320000Y-89390000D02*
X150980000Y-89390000D01*
X148320000Y-91990000D02*
X150980000Y-91990000D01*
X150980000Y-89390000D02*
X150980000Y-91990000D01*
%TO.C,D2*%
X135265000Y-90100000D02*
X135265000Y-92385000D01*
X136735000Y-92385000D02*
X136735000Y-90100000D01*
X135265000Y-92385000D02*
X136735000Y-92385000D01*
%TO.C,D1*%
X136735000Y-86427500D02*
X135265000Y-86427500D01*
X135265000Y-86427500D02*
X135265000Y-88712500D01*
X136735000Y-88712500D02*
X136735000Y-86427500D01*
%TO.C,L1*%
X151900000Y-115660000D02*
X156300000Y-115660000D01*
X151900000Y-116860000D02*
X151900000Y-115660000D01*
X151900000Y-120060000D02*
X151900000Y-118860000D01*
X156300000Y-115660000D02*
X156300000Y-116860000D01*
X156300000Y-118960000D02*
X156300000Y-120060000D01*
X156300000Y-120060000D02*
X151900000Y-120060000D01*
%TO.C,J5*%
X158665000Y-98837500D02*
X160465000Y-98837500D01*
X158665000Y-107777500D02*
X160465000Y-107777500D01*
X164175000Y-98837500D02*
X162715000Y-98837500D01*
X164175000Y-98837500D02*
X164175000Y-107777500D01*
X164175000Y-107777500D02*
X162715000Y-107777500D01*
%TO.C,R6*%
X161927064Y-93190000D02*
X160472936Y-93190000D01*
X161927064Y-95010000D02*
X160472936Y-95010000D01*
%TO.C,U2*%
X136360000Y-112597500D02*
X148300000Y-112597500D01*
X136360000Y-120447500D02*
X136360000Y-112597500D01*
X148300000Y-112597500D02*
X148300000Y-120447500D01*
X148300000Y-120447500D02*
X136360000Y-120447500D01*
X148630000Y-112267500D02*
X146300000Y-112267500D01*
X148630000Y-114717500D02*
X148630000Y-112267500D01*
%TO.C,R10*%
X153820000Y-102046359D02*
X153820000Y-102353641D01*
X154580000Y-102046359D02*
X154580000Y-102353641D01*
%TO.C,J3*%
X157672800Y-109412600D02*
X163992800Y-109412600D01*
X157672800Y-117612600D02*
X157672800Y-109412600D01*
X157672800Y-117612600D02*
X163992800Y-117612600D01*
X158132800Y-117612600D02*
X158132800Y-109412600D01*
X163432800Y-110182600D02*
X163432800Y-109412600D01*
X163432800Y-112722600D02*
X163432800Y-111762600D01*
X163432800Y-115262600D02*
X163432800Y-114302600D01*
X163432800Y-117612600D02*
X163432800Y-116842600D01*
X163492800Y-117852600D02*
X164232800Y-117852600D01*
X163992800Y-110182600D02*
X163992800Y-109412600D01*
X163992800Y-112722600D02*
X163992800Y-111762600D01*
X163992800Y-115262600D02*
X163992800Y-114302600D01*
X163992800Y-117612600D02*
X163992800Y-116842600D01*
X164232800Y-117852600D02*
X164232800Y-117352600D01*
%TO.C,R1*%
X134862258Y-116977500D02*
X134387742Y-116977500D01*
X134862258Y-118022500D02*
X134387742Y-118022500D01*
%TO.C,R12*%
X161927064Y-90890000D02*
X160472936Y-90890000D01*
X161927064Y-92710000D02*
X160472936Y-92710000D01*
%TO.C,R7*%
X161927064Y-87290000D02*
X160472936Y-87290000D01*
X161927064Y-89110000D02*
X160472936Y-89110000D01*
%TO.C,Q1*%
X158441000Y-97024600D02*
X158441000Y-93424600D01*
X153991000Y-95224600D02*
G75*
G02*
X158429478Y-93386122I2600000J0D01*
G01*
X158429478Y-97063078D02*
G75*
G02*
X153991000Y-95224600I-1838478J1838478D01*
G01*
%TO.C,R9*%
X153820000Y-104318559D02*
X153820000Y-104625841D01*
X154580000Y-104318559D02*
X154580000Y-104625841D01*
%TO.C,C1*%
X134484420Y-118490000D02*
X134765580Y-118490000D01*
X134484420Y-119510000D02*
X134765580Y-119510000D01*
%TO.C,C4*%
X154912852Y-112501000D02*
X153490348Y-112501000D01*
X154912852Y-114321000D02*
X153490348Y-114321000D01*
%TO.C,R4*%
X161927064Y-95490000D02*
X160472936Y-95490000D01*
X161927064Y-97310000D02*
X160472936Y-97310000D01*
%TO.C,C5*%
X148721400Y-118594452D02*
X148721400Y-117171948D01*
X150541400Y-118594452D02*
X150541400Y-117171948D01*
%TO.C,SW2*%
X129850000Y-87650000D02*
X130150000Y-87650000D01*
X129850000Y-90950000D02*
X129850000Y-87650000D01*
X130150000Y-90950000D02*
X129850000Y-90950000D01*
X132350000Y-90950000D02*
X132650000Y-90950000D01*
X132650000Y-87650000D02*
X132350000Y-87650000D01*
X132650000Y-90950000D02*
X132650000Y-87650000D01*
%TO.C,SW1*%
X129850000Y-114850000D02*
X130150000Y-114850000D01*
X129850000Y-118150000D02*
X129850000Y-114850000D01*
X130150000Y-118150000D02*
X129850000Y-118150000D01*
X132350000Y-118150000D02*
X132650000Y-118150000D01*
X132650000Y-114850000D02*
X132350000Y-114850000D01*
X132650000Y-118150000D02*
X132650000Y-114850000D01*
%TO.C,D3*%
X154750000Y-111960000D02*
X154750000Y-109300000D01*
X154750000Y-111960000D02*
X156450000Y-111960000D01*
X156450000Y-111960000D02*
X156450000Y-109300000D01*
%TO.C,U1*%
X152050000Y-111600000D02*
X153050000Y-111600000D01*
X153050000Y-93200000D02*
X152050000Y-93200000D01*
X153050000Y-93200000D02*
X153050000Y-94700000D01*
X153050000Y-111600000D02*
X153050000Y-110100000D01*
X134075000Y-112100000D02*
X133575000Y-111600000D01*
X134075000Y-111600000D01*
X134075000Y-112100000D01*
G36*
X134075000Y-112100000D02*
G01*
X133575000Y-111600000D01*
X134075000Y-111600000D01*
X134075000Y-112100000D01*
G37*
%TO.C,C2*%
X134765580Y-114890000D02*
X134484420Y-114890000D01*
X134765580Y-115910000D02*
X134484420Y-115910000D01*
%TO.C,R5*%
X154687742Y-91177500D02*
X155162258Y-91177500D01*
X154687742Y-92222500D02*
X155162258Y-92222500D01*
%TO.C,R8*%
X156464564Y-87290000D02*
X155010436Y-87290000D01*
X156464564Y-89110000D02*
X155010436Y-89110000D01*
%TO.C,C3*%
X134484420Y-113390000D02*
X134765580Y-113390000D01*
X134484420Y-114410000D02*
X134765580Y-114410000D01*
%TD*%
M02*
