#VRML V2.0 utf8
# 3D model generated by easyeda2kicad.py (https://github.com/uPesy/easyeda2kicad.py)

Shape{
    appearance Appearance {
        material  Material 	{
            diffuseColor 0.6666666666666666 0.6980392156862745 0.7686274509803922
            specularColor 0.3333333333333333 0.34901960784313724 0.3843137254901961
            ambientIntensity 0.2
            transparency 0
            shininess 0.5
        }
    }
    geometry IndexedFaceSet {
        ccw TRUE
        solid FALSE
        coord DEF co Coordinate {
            point [
                0.6299 -0.0328 -0.2402, 0.6299 -0.1312 -0.2402, 0.5512 -0.0328 -0.2402, 0.3937 -0.1312 -0.2402, 0.5512 0.105 -0.2402, 0.3937 0.105 -0.2402, 0.3937 0.1837 -0.1614, 0.5512 0.1837 -0.1614, 0.5512 0.1825 -0.1751, 0.3937 0.1825 -0.1751, 0.5512 0.179 -0.1883, 0.3937 0.179 -0.1883, 0.5512 0.1732 -0.2008, 0.3937 0.1732 -0.2008, 0.5512 0.1653 -0.212, 0.3937 0.1653 -0.212, 0.5512 0.1556 -0.2217, 0.3937 0.1556 -0.2217, 0.5512 0.1444 -0.2296, 0.3937 0.1444 -0.2296, 0.5512 0.1319 -0.2354, 0.3937 0.1319 -0.2354, 0.5512 0.1187 -0.239, 0.3937 0.1187 -0.239, 0.3937 0.1837 -0.1232, 0.5512 0.1837 -0.1232, 0.3937 0.1444 -0.1232, 0.5512 0.1444 -0.1232, 0.3937 0.1444 -0.1614, 0.5512 0.1444 -0.1614, 0.3937 0.105 -0.2008, 0.5512 0.105 -0.2008, 0.3937 0.1137 -0.1998, 0.5512 0.1137 -0.1998, 0.3937 0.1221 -0.1969, 0.5512 0.1221 -0.1969, 0.3937 0.1295 -0.1922, 0.5512 0.1295 -0.1922, 0.3937 0.1358 -0.186, 0.5512 0.1358 -0.186, 0.3937 0.1405 -0.1785, 0.5512 0.1405 -0.1785, 0.3937 0.1434 -0.1702, 0.5512 0.1434 -0.1702, 0.5512 -0.0328 -0.2008, 0.3937 -0.1312 -0.2008, 0.6299 -0.0328 -0.2008, 0.6299 -0.1312 -0.2008, 0.689 -0.1312 0.0702, 0.6496 -0.1312 0.0702, 0.689 -0.1312 -0.1811, 0.6496 -0.1312 -0.1811, 0.6878 -0.1312 -0.1926, 0.6491 -0.1312 -0.1855, 0.6845 -0.1312 -0.2037, 0.6477 -0.1312 -0.1896, 0.679 -0.1312 -0.2139, 0.6453 -0.1312 -0.1934, 0.6717 -0.1312 -0.2229, 0.6422 -0.1312 -0.1965, 0.6343 -0.1312 -0.2003, 0.6414 -0.1312 -0.239, 0.6385 -0.1312 -0.1988, 0.6525 -0.1312 -0.2357, 0.6627 -0.1312 -0.2302, 0.6453 -0.0328 -0.1934, 0.6717 -0.0328 -0.2229, 0.6422 -0.0328 -0.1965, 0.6627 -0.0328 -0.2302, 0.6385 -0.0328 -0.1988, 0.6525 -0.0328 -0.2357, 0.6343 -0.0328 -0.2003, 0.6414 -0.0328 -0.239, 0.6496 -0.0328 0.0702, 0.689 -0.0328 0.0702, 0.6496 -0.0328 -0.1811, 0.689 -0.0328 -0.1811, 0.6491 -0.0328 -0.1855, 0.6878 -0.0328 -0.1926, 0.6477 -0.0328 -0.1896, 0.6845 -0.0328 -0.2037, 0.679 -0.0328 -0.2139, -0.5512 0.105 -0.2402, -0.3937 0.105 -0.2402, -0.5512 -0.0328 -0.2402, -0.3937 -0.1312 -0.2402, -0.6299 -0.0328 -0.2402, -0.6299 -0.1312 -0.2402, -0.5512 0.1187 -0.239, -0.3937 0.1187 -0.239, -0.5512 0.1319 -0.2354, -0.3937 0.1319 -0.2354, -0.5512 0.1444 -0.2296, -0.3937 0.1444 -0.2296, -0.5512 0.1556 -0.2217, -0.3937 0.1556 -0.2217, -0.5512 0.1653 -0.212, -0.3937 0.1653 -0.212, -0.5512 0.1732 -0.2008, -0.3937 0.1732 -0.2008, -0.5512 0.179 -0.1883, -0.3937 0.179 -0.1883, -0.5512 0.1825 -0.1751, -0.3937 0.1825 -0.1751, -0.5512 0.1837 -0.1614, -0.3937 0.1837 -0.1614, -0.3937 0.1837 -0.1232, -0.5512 0.1837 -0.1232, -0.5512 0.1444 -0.1232, -0.3937 0.1444 -0.1232, -0.5512 0.1444 -0.1614, -0.3937 0.1444 -0.1614, -0.3937 0.1434 -0.1702, -0.5512 0.1434 -0.1702, -0.3937 0.1405 -0.1785, -0.5512 0.1405 -0.1785, -0.3937 0.1358 -0.186, -0.5512 0.1358 -0.186, -0.3937 0.1295 -0.1922, -0.5512 0.1295 -0.1922, -0.3937 0.1221 -0.1969, -0.5512 0.1221 -0.1969, -0.3937 0.1137 -0.1998, -0.5512 0.1137 -0.1998, -0.3937 0.105 -0.2008, -0.5512 0.105 -0.2008, -0.6299 -0.0328 -0.2008, -0.6299 -0.1312 -0.2008, -0.5512 -0.0328 -0.2008, -0.3937 -0.1312 -0.2008, -0.6453 -0.1312 -0.1934, -0.6717 -0.1312 -0.2229, -0.6422 -0.1312 -0.1965, -0.6627 -0.1312 -0.2302, -0.6385 -0.1312 -0.1988, -0.6525 -0.1312 -0.2357, -0.6343 -0.1312 -0.2003, -0.6414 -0.1312 -0.239, -0.6496 -0.1312 0.0702, -0.689 -0.1312 0.0702, -0.6496 -0.1312 -0.1811, -0.689 -0.1312 -0.1811, -0.6491 -0.1312 -0.1855, -0.6878 -0.1312 -0.1926, -0.6477 -0.1312 -0.1896, -0.6845 -0.1312 -0.2037, -0.679 -0.1312 -0.2139, -0.689 -0.0328 0.0702, -0.6496 -0.0328 0.0702, -0.689 -0.0328 -0.1811, -0.6496 -0.0328 -0.1811, -0.6878 -0.0328 -0.1926, -0.6491 -0.0328 -0.1855, -0.6845 -0.0328 -0.2037, -0.6477 -0.0328 -0.1896, -0.679 -0.0328 -0.2139, -0.6453 -0.0328 -0.1934, -0.6717 -0.0328 -0.2229, -0.6422 -0.0328 -0.1965, -0.6343 -0.0328 -0.2003, -0.6414 -0.0328 -0.239, -0.6385 -0.0328 -0.1988, -0.6525 -0.0328 -0.2357, -0.6627 -0.0328 -0.2302, -0.6627 -0.0328 -0.2302
            ]
        }
        coordIndex [
            0,1,2,-1,2,1,3,-1,2,3,4,-1,4,3,5,-1,6,7,8,-1,6,8,9,-1,9,8,10,-1,9,10,11,-1,11,10,12,-1,11,12,13,-1,13,12,14,-1,13,14,15,-1,15,14,16,-1,15,16,17,-1,17,16,18,-1,17,18,19,-1,19,18,20,-1,19,20,21,-1,21,20,22,-1,21,22,23,-1,23,22,4,-1,23,4,5,-1,6,24,7,-1,7,24,25,-1,26,27,24,-1,24,27,25,-1,28,29,26,-1,26,29,27,-1,30,31,32,-1,32,31,33,-1,32,33,34,-1,34,33,35,-1,34,35,36,-1,36,35,37,-1,36,37,38,-1,38,37,39,-1,38,39,40,-1,40,39,41,-1,40,41,42,-1,42,41,43,-1,42,43,28,-1,28,43,29,-1,31,30,44,-1,44,30,45,-1,44,45,46,-1,46,45,47,-1,48,49,50,-1,50,49,51,-1,50,51,52,-1,52,51,53,-1,52,53,54,-1,54,53,55,-1,54,55,56,-1,56,55,57,-1,56,57,58,-1,58,57,59,-1,45,3,47,-1,47,3,1,-1,47,1,60,-1,60,1,61,-1,60,61,62,-1,62,61,63,-1,62,63,59,-1,59,63,64,-1,59,64,58,-1,3,45,5,-1,5,45,30,-1,5,30,23,-1,23,30,32,-1,23,32,21,-1,21,32,34,-1,42,11,40,-1,40,11,13,-1,40,13,38,-1,38,13,15,-1,38,15,36,-1,36,15,17,-1,36,17,34,-1,34,17,19,-1,34,19,21,-1,26,24,28,-1,28,24,6,-1,28,6,42,-1,42,6,9,-1,42,9,11,-1,65,66,67,-1,67,66,68,-1,67,68,69,-1,69,68,70,-1,69,70,71,-1,71,70,72,-1,71,72,46,-1,46,72,0,-1,46,0,44,-1,44,0,2,-1,73,74,75,-1,75,74,76,-1,75,76,77,-1,77,76,78,-1,77,78,79,-1,79,78,80,-1,79,80,65,-1,65,80,81,-1,65,81,66,-1,44,2,31,-1,31,2,4,-1,31,4,33,-1,25,27,7,-1,7,27,29,-1,7,29,8,-1,8,29,43,-1,8,43,10,-1,10,43,41,-1,4,22,33,-1,33,22,20,-1,33,20,35,-1,35,20,18,-1,35,18,37,-1,37,18,16,-1,37,16,39,-1,39,16,14,-1,39,14,41,-1,41,14,12,-1,41,12,10,-1,73,75,49,-1,49,75,51,-1,46,47,71,-1,71,47,60,-1,71,60,69,-1,69,60,62,-1,69,62,67,-1,67,62,59,-1,67,59,65,-1,65,59,57,-1,65,57,79,-1,79,57,55,-1,79,55,77,-1,77,55,53,-1,77,53,75,-1,75,53,51,-1,76,50,52,-1,76,52,78,-1,78,52,54,-1,78,54,80,-1,80,54,56,-1,80,56,81,-1,81,56,58,-1,81,58,66,-1,66,58,64,-1,66,64,68,-1,68,64,63,-1,68,63,70,-1,70,63,61,-1,70,61,72,-1,72,61,1,-1,72,1,0,-1,76,74,50,-1,50,74,48,-1,74,73,48,-1,48,73,49,-1,82,83,84,-1,84,83,85,-1,84,85,86,-1,86,85,87,-1,83,82,88,-1,83,88,89,-1,89,88,90,-1,89,90,91,-1,91,90,92,-1,91,92,93,-1,93,92,94,-1,93,94,95,-1,95,94,96,-1,95,96,97,-1,97,96,98,-1,97,98,99,-1,99,98,100,-1,99,100,101,-1,101,100,102,-1,101,102,103,-1,103,102,104,-1,103,104,105,-1,106,105,107,-1,107,105,104,-1,108,109,107,-1,107,109,106,-1,110,111,108,-1,108,111,109,-1,111,110,112,-1,112,110,113,-1,112,113,114,-1,114,113,115,-1,114,115,116,-1,116,115,117,-1,116,117,118,-1,118,117,119,-1,118,119,120,-1,120,119,121,-1,120,121,122,-1,122,121,123,-1,122,123,124,-1,124,123,125,-1,126,127,128,-1,128,127,129,-1,128,129,125,-1,125,129,124,-1,130,131,132,-1,132,131,133,-1,132,133,134,-1,134,133,135,-1,134,135,136,-1,136,135,137,-1,136,137,127,-1,127,137,87,-1,127,87,129,-1,129,87,85,-1,138,139,140,-1,140,139,141,-1,140,141,142,-1,142,141,143,-1,142,143,144,-1,144,143,145,-1,144,145,130,-1,130,145,146,-1,130,146,131,-1,129,85,124,-1,124,85,83,-1,124,83,122,-1,83,89,122,-1,122,89,91,-1,122,91,120,-1,120,91,93,-1,120,93,118,-1,118,93,95,-1,118,95,116,-1,116,95,97,-1,116,97,114,-1,106,109,105,-1,105,109,111,-1,105,111,103,-1,103,111,112,-1,103,112,101,-1,101,112,114,-1,101,114,99,-1,99,114,97,-1,147,148,149,-1,149,148,150,-1,149,150,151,-1,151,150,152,-1,151,152,153,-1,153,152,154,-1,153,154,155,-1,155,154,156,-1,155,156,157,-1,157,156,158,-1,128,84,126,-1,126,84,86,-1,126,86,159,-1,159,86,160,-1,159,160,161,-1,161,160,162,-1,161,162,158,-1,158,162,163,-1,158,163,157,-1,84,128,82,-1,82,128,125,-1,82,125,88,-1,88,125,123,-1,88,123,90,-1,90,123,121,-1,113,100,115,-1,115,100,98,-1,115,98,117,-1,117,98,96,-1,117,96,119,-1,119,96,94,-1,119,94,121,-1,121,94,92,-1,121,92,90,-1,108,107,110,-1,110,107,104,-1,110,104,113,-1,113,104,102,-1,113,102,100,-1,150,148,140,-1,140,148,138,-1,150,140,152,-1,152,140,142,-1,152,142,154,-1,154,142,144,-1,154,144,156,-1,156,144,130,-1,156,130,158,-1,158,130,132,-1,158,132,161,-1,161,132,134,-1,161,134,159,-1,159,134,136,-1,159,136,126,-1,126,136,127,-1,86,87,137,-1,86,137,160,-1,160,137,135,-1,160,135,162,-1,162,135,133,-1,162,133,163,-1,163,133,131,-1,163,131,157,-1,157,131,146,-1,157,146,155,-1,155,146,145,-1,155,145,153,-1,153,145,143,-1,153,143,151,-1,151,143,141,-1,151,141,149,-1,147,149,139,-1,139,149,141,-1,148,147,138,-1,138,147,139,-1,
        ]
    }
}
Shape{
    appearance Appearance {
        material  Material 	{
            diffuseColor 1.0 1.0 1.0
            specularColor 0.5019607843137255 0.5019607843137255 0.5019607843137255
            ambientIntensity 0.2
            transparency 0
            shininess 0.5
        }
    }
    geometry IndexedFaceSet {
        ccw TRUE
        solid FALSE
        coord DEF co Coordinate {
            point [
                0.2362 0.3215 -0.2276, 0.2238 0.3215 -0.2276, 0.2238 0.3215 -0.1363, 0.008 0.3215 -0.0255, 0.008 0.3215 -0.0583, -0.0067 0.3215 -0.0583, -0.0898 0.3215 -0.0843, -0.1016 0.3215 -0.0843, -0.1016 0.3215 -0.0737, -0.0502 0.3215 -0.1215, -0.0492 0.3215 -0.1216, -0.0582 0.3215 -0.1216, -0.1307 0.3215 -0.0625, -0.1269 0.3215 -0.0524, -0.1133 0.3215 -0.0524, 0.0953 0.3215 -0.0213, 0.0896 0.3215 -0.0251, 0.028 0.3215 -0.0251, 0.0835 0.3215 -0.0292, 0.0749 0.3215 -0.0392, 0.0693 0.3215 -0.05, 0.0672 0.3215 -0.0508, 0.0594 0.3215 -0.0548, 0.1446 0.3215 -0.0218, 0.1324 0.3215 -0.0171, 0.2238 0.3215 0.1061, 0.028 0.3215 0.1061, 0.1194 0.3215 -0.0155, 0.1085 0.3215 -0.0166, 0.2238 0.3215 -0.0251, 0.1791 0.3215 -0.0381, 0.1686 0.3215 -0.0369, 0.2113 0.3215 -0.0771, 0.2107 0.3215 -0.0737, 0.2238 0.3215 -0.0737, 0.2095 0.3215 -0.0672, 0.2053 0.3215 -0.0577, 0.1989 0.3215 -0.0495, 0.1499 0.3215 -0.0251, 0.151 0.3215 -0.0258, 0.1572 0.3215 -0.0311, 0.1656 0.3215 -0.037, 0.1626 0.3215 -0.0374, 0.1972 0.3215 -0.0478, 0.1888 0.3215 -0.0419, 0.1792 0.3215 -0.1209, 0.1826 0.3215 -0.1199, 0.2238 0.3215 -0.1216, 0.1921 0.3215 -0.1153, 0.2003 0.3215 -0.1083, 0.2062 0.3215 -0.0998, 0.21 0.3215 -0.09, 0.2113 0.3215 -0.0795, 0.1675 0.3215 -0.1353, 0.1726 0.3215 -0.1314, 0.1766 0.3215 -0.1266, 0.1789 0.3215 -0.1216, 0.028 0.3215 -0.1363, 0.1432 0.3215 -0.1363, 0.028 0.3215 -0.2276, 0.1478 0.3215 -0.1381, 0.1541 0.3215 -0.1388, 0.1552 0.3215 -0.1388, 0.1614 0.3215 -0.1379, 0.165 0.3215 -0.1363, 0.028 0.3215 -0.1216, 0.1294 0.3215 -0.1216, 0.1295 0.3215 -0.1217, 0.1326 0.3215 -0.1276, 0.1367 0.3215 -0.1322, 0.1419 0.3215 -0.1358, 0.1344 0.3215 -0.0948, 0.0991 0.3215 -0.0764, 0.139 0.3215 -0.0907, 0.1446 0.3215 -0.0876, 0.0524 0.3215 -0.061, 0.0472 0.3215 -0.0686, 0.028 0.3215 -0.0737, 0.0453 0.3215 -0.0737, 0.0442 0.3215 -0.0767, 0.0934 0.3215 -0.1213, 0.0952 0.3215 -0.1208, 0.097 0.3215 -0.1197, 0.0981 0.3215 -0.1185, 0.0597 0.3215 -0.0826, 0.0609 0.3215 -0.0775, 0.0629 0.3215 -0.0737, 0.1941 0.3215 -0.0737, 0.0972 0.3215 -0.1071, 0.0956 0.3215 -0.106, 0.0909 0.3215 -0.0904, 0.0938 0.3215 -0.1053, 0.0482 0.3215 -0.1031, 0.0529 0.3215 -0.1096, 0.0539 0.3215 -0.1106, 0.0609 0.3215 -0.1162, 0.1926 0.3215 -0.0895, 0.1894 0.3215 -0.0949, 0.176 0.3215 -0.0976, 0.1846 0.3215 -0.0997, 0.1789 0.3215 -0.1033, 0.1662 0.3215 -0.0889, 0.1716 0.3215 -0.0926, 0.1947 0.3215 -0.079, 0.1944 0.3215 -0.083, 0.0432 0.3215 -0.0846, 0.0432 0.3215 -0.0863, 0.0446 0.3215 -0.0949, 0.069 0.3215 -0.1199, 0.0769 0.3215 -0.1215, 0.0925 0.3215 -0.1215, 0.1001 0.3215 -0.1133, 0.1001 0.3215 -0.1125, 0.1278 0.3215 -0.1099, 0.0996 0.3215 -0.1104, 0.0986 0.3215 -0.1086, 0.1604 0.3215 -0.0866, 0.1541 0.3215 -0.0859, 0.1509 0.3215 -0.0861, 0.0993 0.3215 -0.1169, 0.0999 0.3215 -0.1151, 0.1279 0.3215 -0.1152, 0.1278 0.3215 -0.1125, 0.0919 0.3215 -0.1051, 0.0917 0.3215 -0.1051, 0.0909 0.3215 -0.1053, 0.0649 0.3215 -0.0988, 0.062 0.3215 -0.0946, 0.0602 0.3215 -0.0899, 0.0595 0.3215 -0.0848, 0.0904 0.3215 -0.1054, 0.0785 0.3215 -0.1054, 0.0738 0.3215 -0.1045, 0.0692 0.3215 -0.1023, 0.0653 0.3215 -0.0992, 0.1544 0.3215 -0.0566, 0.1564 0.3215 -0.0556, 0.1623 0.3215 -0.0534, 0.151 0.3215 -0.0492, 0.0822 0.3215 -0.0643, 0.0801 0.3215 -0.0643, 0.0633 0.3215 -0.0729, 0.0664 0.3215 -0.0695, 0.0705 0.3215 -0.0666, 0.0751 0.3215 -0.0649, 0.0863 0.3215 -0.0511, 0.0917 0.3215 -0.0435, 0.083 0.3215 -0.0599, 0.0952 0.3215 -0.0401, 0.1028 0.3215 -0.0351, 0.1111 0.3215 -0.0322, 0.1191 0.3215 -0.0313, 0.1207 0.3215 -0.0314, 0.1295 0.3215 -0.0328, 0.1776 0.3215 -0.0543, 0.1835 0.3215 -0.0574, 0.1711 0.3215 -0.0528, 0.188 0.3215 -0.0615, 0.1917 0.3215 -0.0668, 0.138 0.3215 -0.0364, 0.1453 0.3215 -0.042, 0.1684 0.3215 -0.0527, 0.194 0.3215 -0.0727, -0.1359 0.3215 -0.0625, -0.1133 0.3215 -0.0737, -0.2362 0.3215 -0.0737, -0.2362 0.3215 -0.0251, -0.1218 0.3215 -0.0255, -0.1133 0.3215 -0.0251, -0.1167 0.3215 -0.0255, -0.1133 0.3215 -0.0345, -0.1079 0.3215 -0.0625, -0.1026 0.3215 -0.0625, -0.1114 0.3215 -0.0524, -0.0633 0.3215 -0.0583, -0.0633 0.3215 -0.0625, -0.0668 0.3215 -0.0737, -0.0625 0.3215 -0.0297, -0.0668 0.3215 -0.0251, -0.0625 0.3215 -0.0255, -0.0582 0.3215 -0.0251, -0.0582 0.3215 -0.0255, -0.0482 0.3215 -0.0458, -0.0482 0.3215 -0.0583, -0.0582 0.3215 -0.0458, -0.0582 0.3215 -0.0583, -0.0615 0.3215 -0.0458, -0.0615 0.3215 -0.0416, -0.0482 0.3215 -0.0297, -0.0482 0.3215 -0.0416, -0.0582 0.3215 -0.0297, -0.0582 0.3215 -0.0416, -0.0582 0.3215 -0.0737, -0.0582 0.3215 -0.0625, -0.0413 0.3215 -0.0737, -0.0434 0.3215 -0.0255, -0.0413 0.3215 -0.0251, -0.0434 0.3215 -0.0625, -0.036 0.3215 -0.0263, -0.0321 0.3215 -0.0252, -0.0311 0.3215 -0.0251, -0.036 0.3215 -0.0313, -0.0235 0.3215 -0.063, -0.0195 0.3215 -0.0622, -0.0099 0.3215 -0.0737, -0.0354 0.3215 -0.0613, -0.0314 0.3215 -0.0626, -0.0151 0.3215 -0.0525, -0.0169 0.3215 -0.055, -0.0176 0.3215 -0.0557, -0.02 0.3215 -0.0574, -0.0282 0.3215 -0.0588, -0.0324 0.3215 -0.058, -0.036 0.3215 -0.0564, -0.036 0.3215 -0.061, -0.0257 0.3215 -0.0631, -0.016 0.3215 -0.0606, -0.013 0.3215 -0.0581, -0.0124 0.3215 -0.0574, -0.0227 0.3215 -0.0584, -0.0264 0.3215 -0.0589, -0.0318 0.3215 -0.0297, -0.0167 0.3215 -0.0338, -0.0356 0.3215 -0.0311, -0.015 0.3215 -0.0364, -0.0138 0.3215 -0.0397, -0.0273 0.3215 -0.0291, -0.0258 0.3215 -0.0292, -0.0172 0.3215 -0.0333, -0.0226 0.3215 -0.0298, -0.0197 0.3215 -0.0312, -0.0133 0.3215 -0.0444, -0.0133 0.3215 -0.0458, -0.0139 0.3215 -0.0495, -0.0273 0.3215 -0.0248, -0.0413 0.3215 0.1061, -0.0272 0.3215 -0.0248, -0.0099 0.3215 0.1061, -0.0247 0.3215 -0.0251, -0.0099 0.3215 -0.0251, -0.0109 0.3215 -0.0338, -0.0136 0.3215 -0.0303, -0.0145 0.3215 -0.0294, -0.0179 0.3215 -0.027, -0.0218 0.3215 -0.0255, -0.0103 0.3215 -0.0542, -0.0099 0.3215 -0.0531, -0.0077 0.3215 -0.0737, -0.0077 0.3215 -0.0251, -0.0091 0.3215 -0.0379, -0.0099 0.3215 -0.0362, -0.0088 0.3215 -0.0502, -0.0082 0.3215 -0.0447, -0.0083 0.3215 -0.0428, -0.1004 0.3215 -0.0459, -0.0995 0.3215 -0.0502, -0.0977 0.3215 -0.054, -0.0949 0.3215 -0.0573, -0.0873 0.3215 -0.0251, -0.0873 0.3215 -0.0263, -0.1016 0.3215 -0.0251, -0.0911 0.3215 -0.0277, -0.0985 0.3215 -0.0348, -0.0999 0.3215 -0.0383, -0.1005 0.3215 -0.0435, -0.0949 0.3215 -0.0304, -0.0962 0.3215 -0.0316, -0.0911 0.3215 -0.0601, -0.0873 0.3215 -0.0616, -0.0873 0.3215 -0.0737, -0.0869 0.3215 -0.0617, -0.0805 0.3215 -0.0625, -0.0703 0.3215 -0.0625, -0.0703 0.3215 -0.0255, -0.0809 0.3215 -0.0255, -0.0866 0.3215 -0.0261, -0.0125 0.3215 -0.11, -0.0134 0.3215 -0.1087, -0.0141 0.3215 -0.1012, -0.0241 0.3215 -0.1211, -0.0224 0.3215 -0.1216, -0.0282 0.3215 -0.1213, -0.0258 0.3215 -0.12, -0.0099 0.3215 -0.1216, -0.0173 0.3215 -0.1216, -0.017 0.3215 -0.1216, -0.0148 0.3215 -0.1075, -0.0168 0.3215 -0.1065, -0.0174 0.3215 -0.0992, -0.0203 0.3215 -0.1056, -0.0244 0.3215 -0.0982, -0.0228 0.3215 -0.098, -0.0203 0.3215 -0.0983, -0.0153 0.3215 -0.1209, -0.0138 0.3215 -0.1199, -0.0132 0.3215 -0.1192, -0.0123 0.3215 -0.1179, -0.0118 0.3215 -0.1163, -0.0116 0.3215 -0.1142, -0.0282 0.3215 -0.1172, -0.0281 0.3215 -0.1172, -0.0272 0.3215 -0.1184, -0.0116 0.3215 -0.1137, -0.0119 0.3215 -0.1117, -0.0399 0.3215 -0.0989, -0.0308 0.3215 -0.0971, -0.0393 0.3215 -0.1004, -0.0317 0.3215 -0.0986, -0.0325 0.3215 -0.1007, -0.0185 0.3215 -0.0948, -0.0233 0.3215 -0.0942, -0.026 0.3215 -0.0945, -0.028 0.3215 -0.0951, -0.0282 0.3215 -0.1045, -0.028 0.3215 -0.1025, -0.0276 0.3215 -0.1008, -0.027 0.3215 -0.0999, -0.0141 0.3215 -0.0967, -0.0151 0.3215 -0.0962, -0.0412 0.3215 -0.107, -0.0391 0.3215 -0.1156, -0.0413 0.3215 -0.107, -0.0408 0.3215 -0.1166, -0.0413 0.3215 -0.1168, -0.0407 0.3215 -0.0976, -0.0295 0.3215 -0.096, -0.0263 0.3215 -0.0991, -0.0255 0.3215 -0.0986, -0.0405 0.3215 -0.1062, -0.0399 0.3215 -0.1053, -0.0328 0.3215 -0.1043, -0.0394 0.3215 -0.1039, -0.0391 0.3215 -0.102, -0.0221 0.3215 -0.1217, -0.0413 0.3215 -0.1363, -0.0099 0.3215 -0.1363, -0.0199 0.3215 -0.122, -0.0192 0.3215 -0.1219, -0.0391 0.3215 -0.1204, -0.0328 0.3215 -0.1213, -0.0413 0.3215 -0.1212, -0.0413 0.3215 -0.1216, -0.0424 0.3215 -0.1215, -0.0433 0.3215 -0.1216, -0.0463 0.3215 -0.122, -0.0557 0.3215 -0.0954, -0.0557 0.3215 -0.0999, -0.0568 0.3215 -0.1159, -0.0562 0.3215 -0.1174, -0.0554 0.3215 -0.1186, -0.0413 0.3215 -0.0971, -0.0421 0.3215 -0.0963, -0.0432 0.3215 -0.0957, -0.0457 0.3215 -0.0947, -0.0495 0.3215 -0.0942, -0.0527 0.3215 -0.0945, -0.0554 0.3215 -0.1097, -0.0563 0.3215 -0.1109, -0.0568 0.3215 -0.1123, -0.057 0.3215 -0.1141, -0.054 0.3215 -0.1198, -0.0527 0.3215 -0.1206, -0.049 0.3215 -0.098, -0.0476 0.3215 -0.0981, -0.0439 0.3215 -0.1016, -0.0464 0.3215 -0.0984, -0.0453 0.3215 -0.099, -0.044 0.3215 -0.1022, -0.0442 0.3215 -0.1029, -0.0445 0.3215 -0.1035, -0.0449 0.3215 -0.104, -0.0466 0.3215 -0.1051, -0.0523 0.3215 -0.0984, -0.0495 0.3215 -0.1063, -0.0549 0.3215 -0.0994, -0.0513 0.3215 -0.107, -0.0543 0.3215 -0.1088, -0.0446 0.3215 -0.0996, -0.0442 0.3215 -0.1002, -0.044 0.3215 -0.1008, -0.0437 0.3215 -0.1178, -0.0462 0.3215 -0.1097, -0.0434 0.3215 -0.1084, -0.0468 0.3215 -0.1182, -0.047 0.3215 -0.1182, -0.0492 0.3215 -0.111, -0.0493 0.3215 -0.1179, -0.0522 0.3215 -0.1146, -0.0522 0.3215 -0.114, -0.0505 0.3215 -0.1175, -0.051 0.3215 -0.1172, -0.0515 0.3215 -0.1167, -0.0519 0.3215 -0.1161, -0.0521 0.3215 -0.1155, -0.052 0.3215 -0.1133, -0.0516 0.3215 -0.1127, -0.051 0.3215 -0.1121, -0.08 0.3215 -0.0948, -0.0848 0.3215 -0.0948, -0.0873 0.3215 -0.1216, -0.0715 0.3215 -0.1147, -0.0721 0.3215 -0.1169, -0.0722 0.3215 -0.1169, -0.0668 0.3215 -0.1013, -0.0728 0.3215 -0.1148, -0.0724 0.3215 -0.116, -0.0668 0.3215 -0.1216, -0.0668 0.3215 -0.1138, -0.0594 0.3215 -0.0948, -0.0646 0.3215 -0.0948, -0.0698 0.3215 -0.1213, -0.0696 0.3215 -0.1216, -0.0678 0.3215 -0.1261, -0.0582 0.3215 -0.1363, -0.0604 0.3215 -0.1334, -0.0604 0.3215 -0.1293, -0.0613 0.3215 -0.1296, -0.063 0.3215 -0.1298, -0.0633 0.3215 -0.1298, -0.0644 0.3215 -0.1296, -0.0654 0.3215 -0.1292, -0.0659 0.3215 -0.1288, -0.0668 0.3215 -0.1279, -0.0668 0.3215 -0.1277, -0.0668 0.3215 -0.133, -0.0652 0.3215 -0.1336, -0.0668 0.3215 -0.1363, -0.0634 0.3215 -0.1338, -0.0623 0.3215 -0.1338, -0.0728 0.3215 -0.1253, -0.0707 0.3215 -0.1294, -0.0873 0.3215 -0.1363, -0.0743 0.3215 -0.1216, -0.069 0.3215 -0.1315, -0.0687 0.3215 -0.1317, -0.0671 0.3215 -0.1329, -0.1089 0.3215 -0.0843, -0.1089 0.3215 -0.0885, -0.1098 0.3215 -0.1171, -0.1133 0.3215 -0.1216, -0.1098 0.3215 -0.1213, -0.1016 0.3215 -0.1216, -0.0946 0.3215 -0.1046, -0.0946 0.3215 -0.1171, -0.1016 0.3215 -0.1046, -0.1016 0.3215 -0.1171, -0.1079 0.3215 -0.1046, -0.1079 0.3215 -0.1004, -0.1016 0.3215 -0.1004, -0.1016 0.3215 -0.0885, -0.0946 0.3215 -0.1004, -0.0946 0.3215 -0.0885, -0.1016 0.3215 -0.1213, -0.0898 0.3215 -0.1213, -0.1733 0.3215 -0.1112, -0.1579 0.3215 -0.1112, -0.1771 0.3215 -0.1213, -0.1543 0.3215 -0.1213, -0.2362 0.3215 -0.1216, -0.149 0.3215 -0.1213, -0.1682 0.3215 -0.0843, -0.1824 0.3215 -0.1213, -0.1459 0.3215 -0.109, -0.1468 0.3215 -0.1047, -0.1631 0.3215 -0.0843, -0.1469 0.3215 -0.1023, -0.1463 0.3215 -0.0972, -0.1441 0.3215 -0.1128, -0.1414 0.3215 -0.1161, -0.1375 0.3215 -0.1189, -0.1168 0.3215 -0.0843, -0.1168 0.3215 -0.1213, -0.127 0.3215 -0.1213, -0.1333 0.3215 -0.1205, -0.1414 0.3215 -0.0892, -0.1426 0.3215 -0.0904, -0.1449 0.3215 -0.0936, -0.1273 0.3215 -0.0843, -0.133 0.3215 -0.0849, -0.1375 0.3215 -0.0865, -0.2362 0.3215 -0.1363, -0.1133 0.3215 -0.1363, -0.1016 0.3215 -0.1363, -0.2362 0.3215 0.1061, -0.1133 0.3215 0.1061, -0.1016 0.3215 0.1061, -0.0873 0.3215 0.1061, -0.0668 0.3215 0.1061, -0.0582 0.3215 0.1061, -0.2362 0.3215 -0.2276, -0.1133 0.3215 -0.2276, -0.1016 0.3215 -0.2276, -0.0873 0.3215 -0.2276, -0.0668 0.3215 -0.2276, -0.0582 0.3215 -0.2276, -0.0413 0.3215 -0.2276, -0.0099 0.3215 -0.2276, -0.0077 0.3215 -0.2276, -0.0077 0.3215 -0.1363, -0.0077 0.3215 -0.1216, -0.0071 0.3215 -0.1171, -0.0071 0.3215 -0.1213, 0.0128 0.3215 -0.1213, -0.0063 0.3215 -0.0885, 0.0128 0.3215 -0.0843, -0.0063 0.3215 -0.0843, 0.008 0.3215 -0.1046, 0.008 0.3215 -0.1171, -0.0052 0.3215 -0.1046, -0.0052 0.3215 -0.1004, 0.008 0.3215 -0.1004, 0.008 0.3215 -0.0885, 0.0128 0.3215 -0.0625, 0.0128 0.3215 -0.0255, -0.0067 0.3215 -0.0625, -0.0077 0.3215 0.1061, 0.2362 0.3215 -0.1363, 0.2362 0.3215 -0.1216, 0.2362 0.3215 -0.0737, 0.2362 0.3215 -0.0251, 0.2362 0.3215 0.1061, -0.2362 0.3215 0.2276, -0.1133 0.3215 0.2276, -0.1016 0.3215 0.2276, -0.0873 0.3215 0.2276, -0.0668 0.3215 0.2276, -0.0582 0.3215 0.2276, -0.0413 0.3215 0.2276, -0.0099 0.3215 0.2276, -0.0077 0.3215 0.2276, 0.028 0.3215 0.2276, 0.2238 0.3215 0.2276, 0.2362 0.3215 0.2276, -0.6496 -0.1312 0.1969, -0.6496 0.0262 0.1969, -0.6496 -0.1312 0.1478, -0.6496 0.0262 -0.1575, -0.6496 -0.1706 0.1478, -0.6496 -0.1706 -0.1575, 0.6102 0.2231 0.2362, -0.5598 -0.1312 0.2362, 0.6102 0.0262 0.2362, -0.5598 -0.1706 0.2362, 0.6102 -0.1706 0.2362, -0.6102 -0.1312 0.2362, -0.6102 0.0262 0.2362, -0.6102 0.2231 0.2362, -0.2953 0.3806 0.2224, -0.5838 0.3806 0.2224, 0.5838 0.3806 0.2224, 0.2953 0.3806 0.2224, 0.6102 0.3078 0.2288, -0.6102 0.3078 0.2288, -0.3937 -0.1706 -0.1575, -0.6102 0.0262 -0.1575, -0.3937 0.3806 -0.1575, -0.6102 0.3078 -0.1575, -0.5838 0.3806 -0.1575, -0.3287 0.3806 -0.2224, -0.2953 0.3806 -0.2224, 0.5118 -0.1706 0.1772, 0.5118 -0.1706 -0.0856, 0.6496 -0.1706 -0.1575, 0.5108 -0.1706 -0.0946, -0.4966 -0.1706 -0.1099, -0.503 -0.1706 -0.1036, -0.5078 -0.1706 -0.0961, 0.5077 -0.1706 -0.1031, 0.5028 -0.1706 -0.1107, 0.4963 -0.1706 -0.1169, -0.5108 -0.1706 0.1859, -0.5079 -0.1706 0.1942, -0.5032 -0.1706 0.2017, -0.5108 -0.1706 -0.0876, -0.5118 -0.1706 -0.0787, -0.5118 -0.1706 0.1772, -0.497 -0.1706 0.2079, -0.4895 -0.1706 0.2126, -0.4812 -0.1706 0.2155, 0.4885 -0.1706 -0.1215, 0.4799 -0.1706 -0.1243, 0.3937 -0.1706 -0.1575, 0.0077 -0.1706 -0.2151, 0.315 -0.1706 -0.2362, 0.0 -0.1706 -0.2158, -0.315 -0.1706 -0.2362, -0.0077 -0.1706 -0.2149, -0.4804 -0.1706 -0.1173, -0.4889 -0.1706 -0.1145, -0.4724 -0.1706 0.2165, 0.4724 -0.1706 0.2165, 0.4812 -0.1706 0.2155, 0.4895 -0.1706 0.2126, 0.497 -0.1706 0.2079, 0.5032 -0.1706 0.2017, 0.5079 -0.1706 0.1942, 0.6204 -0.1706 0.2349, 0.5108 -0.1706 0.1859, 0.6299 -0.1706 0.2309, 0.6381 -0.1706 0.2247, 0.6496 -0.1706 0.1969, 0.6483 -0.1706 0.207, 0.6443 -0.1706 0.2165, 0.6496 0.0262 0.1969, 0.6496 0.0262 -0.1575, 0.3287 0.3806 -0.2224, 0.2953 0.3806 -0.2224, 0.3937 0.3806 -0.1575, 0.5838 0.3806 -0.1575, -0.315 0.2231 -0.2362, 0.315 0.2231 -0.2362, 0.6102 0.0262 -0.1575, 0.6102 0.3078 -0.1575, 0.6102 0.3078 -0.1575
            ]
        }
        coordIndex [
            0,1,2,-1,3,4,5,-1,6,7,8,-1,9,10,11,-1,12,13,14,-1,15,16,17,-1,17,16,18,-1,17,18,19,-1,19,20,17,-1,17,20,21,-1,17,21,22,-1,23,24,25,-1,25,24,26,-1,26,24,27,-1,26,27,28,-1,29,30,31,-1,32,33,34,-1,34,33,35,-1,34,35,29,-1,29,35,36,-1,29,36,37,-1,23,25,38,-1,38,25,29,-1,38,29,39,-1,39,29,31,-1,39,31,40,-1,40,31,41,-1,40,41,42,-1,37,43,29,-1,29,43,44,-1,29,44,30,-1,45,46,47,-1,47,46,48,-1,47,48,49,-1,49,50,47,-1,47,50,51,-1,47,51,34,-1,34,51,52,-1,34,52,32,-1,53,54,2,-1,2,54,55,-1,2,55,47,-1,47,55,56,-1,47,56,45,-1,57,58,59,-1,59,58,60,-1,59,60,1,-1,1,60,61,-1,61,62,1,-1,1,62,63,-1,1,63,2,-1,2,63,64,-1,2,64,53,-1,65,66,57,-1,57,66,67,-1,57,67,68,-1,68,69,57,-1,57,69,70,-1,57,70,58,-1,71,72,73,-1,73,72,74,-1,22,75,17,-1,17,75,76,-1,17,76,77,-1,77,76,78,-1,77,78,79,-1,80,81,66,-1,66,81,82,-1,66,82,83,-1,84,85,72,-1,72,85,86,-1,72,86,87,-1,88,89,90,-1,90,89,91,-1,92,93,65,-1,65,93,94,-1,65,94,95,-1,96,97,98,-1,98,97,99,-1,98,99,100,-1,101,87,102,-1,102,87,103,-1,102,103,98,-1,98,103,104,-1,98,104,96,-1,79,105,77,-1,77,105,106,-1,77,106,65,-1,65,106,107,-1,65,107,92,-1,95,108,65,-1,65,108,109,-1,65,109,66,-1,66,109,110,-1,66,110,80,-1,111,112,113,-1,113,112,114,-1,113,114,90,-1,90,114,115,-1,90,115,88,-1,101,116,87,-1,87,116,117,-1,87,117,72,-1,72,117,118,-1,72,118,74,-1,83,119,66,-1,66,119,120,-1,66,120,121,-1,121,120,111,-1,121,111,122,-1,122,111,113,-1,91,123,90,-1,90,123,124,-1,90,124,125,-1,126,127,90,-1,90,127,128,-1,90,128,72,-1,72,128,129,-1,72,129,84,-1,125,130,90,-1,90,130,131,-1,90,131,132,-1,132,133,90,-1,90,133,134,-1,90,134,126,-1,86,135,87,-1,87,135,136,-1,87,136,137,-1,138,135,139,-1,139,135,86,-1,139,86,140,-1,140,86,141,-1,141,142,140,-1,140,142,143,-1,140,143,144,-1,145,146,147,-1,147,146,148,-1,147,148,139,-1,139,148,149,-1,139,149,150,-1,150,151,139,-1,139,151,152,-1,139,152,153,-1,154,155,156,-1,156,155,157,-1,156,157,158,-1,153,159,139,-1,139,159,160,-1,139,160,138,-1,137,161,87,-1,87,161,156,-1,87,156,162,-1,162,156,158,-1,163,12,164,-1,165,166,167,-1,167,166,168,-1,167,168,169,-1,169,168,170,-1,171,172,8,-1,12,14,164,-1,164,14,173,-1,164,173,171,-1,174,175,176,-1,177,178,179,-1,179,178,180,-1,179,180,181,-1,182,183,184,-1,184,183,185,-1,184,185,186,-1,186,185,174,-1,186,174,187,-1,188,189,190,-1,190,189,191,-1,190,191,177,-1,176,175,192,-1,192,175,193,-1,192,193,194,-1,181,180,195,-1,195,180,196,-1,195,196,197,-1,198,196,199,-1,199,196,200,-1,193,197,194,-1,194,197,196,-1,194,196,201,-1,201,196,198,-1,202,203,204,-1,205,206,194,-1,207,208,201,-1,201,208,209,-1,201,209,210,-1,211,212,201,-1,201,212,213,-1,201,213,194,-1,194,213,214,-1,194,214,205,-1,202,204,215,-1,203,216,204,-1,204,216,217,-1,204,217,218,-1,210,219,201,-1,201,219,220,-1,201,220,211,-1,221,222,223,-1,223,222,224,-1,223,224,225,-1,221,226,222,-1,222,226,227,-1,222,227,228,-1,228,227,229,-1,228,229,230,-1,225,231,223,-1,223,231,232,-1,223,232,201,-1,201,232,233,-1,201,233,207,-1,234,235,236,-1,236,235,237,-1,236,237,238,-1,239,240,241,-1,241,242,239,-1,239,242,243,-1,239,243,244,-1,218,245,204,-1,204,245,246,-1,204,246,247,-1,248,249,239,-1,239,249,250,-1,239,250,240,-1,246,251,247,-1,247,251,252,-1,247,252,248,-1,248,252,253,-1,248,253,249,-1,254,255,8,-1,8,255,256,-1,8,256,257,-1,258,259,260,-1,260,259,261,-1,262,263,260,-1,260,263,264,-1,261,265,260,-1,260,265,266,-1,260,266,262,-1,170,168,172,-1,172,168,260,-1,172,260,8,-1,8,260,264,-1,8,264,254,-1,267,268,269,-1,269,268,270,-1,271,272,176,-1,176,272,178,-1,176,178,174,-1,174,178,177,-1,174,177,187,-1,187,177,191,-1,272,273,178,-1,178,273,274,-1,178,274,258,-1,258,274,275,-1,258,275,259,-1,276,277,278,-1,279,280,281,-1,279,281,282,-1,283,284,285,-1,277,286,278,-1,278,286,287,-1,278,287,288,-1,288,287,289,-1,290,291,289,-1,289,291,292,-1,289,292,288,-1,285,293,283,-1,283,293,294,-1,283,294,295,-1,295,296,283,-1,283,296,297,-1,283,297,298,-1,299,300,281,-1,281,300,301,-1,281,301,282,-1,204,302,303,-1,304,305,306,-1,306,305,307,-1,306,307,308,-1,309,310,204,-1,204,310,311,-1,204,311,312,-1,313,314,289,-1,289,314,315,-1,289,315,316,-1,276,278,303,-1,303,278,317,-1,303,317,204,-1,204,317,318,-1,204,318,309,-1,319,320,321,-1,321,320,322,-1,321,322,323,-1,206,215,194,-1,194,215,204,-1,194,204,324,-1,324,204,312,-1,324,312,304,-1,304,312,325,-1,304,325,305,-1,316,326,289,-1,289,326,327,-1,289,327,290,-1,328,329,330,-1,330,329,331,-1,330,331,308,-1,308,331,332,-1,308,332,306,-1,280,333,334,-1,334,333,335,-1,335,333,336,-1,335,336,337,-1,319,328,320,-1,320,328,330,-1,320,330,338,-1,338,330,339,-1,338,339,340,-1,340,339,341,-1,340,341,342,-1,342,341,343,-1,344,343,334,-1,334,343,341,-1,334,341,280,-1,280,341,339,-1,280,339,281,-1,345,346,11,-1,347,348,11,-1,11,348,349,-1,324,350,194,-1,194,350,351,-1,194,351,352,-1,352,353,194,-1,194,353,354,-1,194,354,192,-1,192,354,355,-1,192,355,345,-1,356,357,346,-1,346,357,358,-1,346,358,11,-1,11,358,359,-1,11,359,347,-1,349,360,11,-1,11,360,361,-1,11,361,9,-1,362,363,364,-1,364,363,365,-1,364,365,366,-1,364,367,362,-1,362,367,368,-1,362,368,369,-1,369,370,362,-1,362,370,371,-1,362,371,372,-1,372,371,373,-1,372,373,374,-1,374,373,375,-1,374,375,346,-1,346,375,376,-1,346,376,356,-1,377,378,366,-1,366,378,379,-1,366,379,364,-1,380,381,323,-1,323,381,382,-1,323,382,321,-1,380,383,381,-1,381,383,384,-1,381,384,385,-1,385,384,386,-1,385,387,388,-1,386,389,385,-1,385,389,390,-1,385,390,391,-1,391,392,385,-1,385,392,393,-1,385,393,387,-1,388,394,385,-1,385,394,395,-1,385,395,396,-1,397,398,269,-1,269,398,399,-1,400,401,402,-1,270,271,269,-1,269,271,176,-1,269,176,397,-1,397,176,403,-1,397,403,404,-1,404,403,400,-1,404,400,405,-1,405,400,402,-1,406,407,11,-1,11,407,408,-1,345,11,192,-1,192,11,408,-1,192,408,176,-1,176,408,409,-1,176,409,403,-1,410,407,411,-1,411,407,406,-1,411,406,412,-1,413,414,415,-1,416,417,11,-1,344,334,10,-1,10,334,413,-1,10,413,11,-1,11,413,415,-1,11,415,416,-1,417,418,11,-1,11,418,419,-1,11,419,420,-1,420,421,11,-1,11,421,422,-1,11,422,406,-1,406,422,423,-1,406,423,412,-1,424,425,426,-1,426,425,427,-1,426,427,413,-1,413,427,428,-1,413,428,414,-1,429,430,431,-1,429,431,432,-1,430,433,431,-1,431,433,434,-1,431,434,426,-1,426,434,435,-1,426,435,424,-1,171,8,164,-1,164,8,7,-1,164,7,436,-1,436,437,164,-1,164,437,438,-1,164,438,439,-1,439,438,440,-1,439,440,441,-1,442,443,444,-1,444,443,445,-1,444,445,446,-1,446,445,438,-1,446,438,447,-1,447,438,437,-1,447,437,448,-1,448,437,449,-1,448,449,450,-1,450,449,451,-1,440,452,441,-1,441,452,453,-1,441,453,399,-1,399,453,6,-1,399,6,269,-1,269,6,8,-1,269,8,267,-1,267,8,257,-1,454,455,456,-1,456,455,457,-1,458,456,439,-1,439,456,457,-1,439,457,459,-1,165,460,458,-1,458,460,461,-1,458,461,456,-1,462,459,463,-1,463,459,464,-1,463,464,465,-1,465,464,466,-1,462,467,459,-1,459,467,468,-1,459,468,469,-1,470,164,471,-1,471,164,439,-1,471,439,472,-1,472,439,459,-1,472,459,473,-1,473,459,469,-1,167,163,165,-1,165,163,164,-1,165,164,460,-1,460,164,464,-1,474,475,464,-1,464,475,476,-1,464,476,466,-1,470,477,164,-1,164,477,478,-1,164,478,464,-1,464,478,479,-1,464,479,474,-1,480,458,481,-1,481,458,439,-1,481,439,482,-1,482,439,441,-1,482,441,431,-1,431,441,399,-1,431,399,432,-1,432,399,398,-1,166,483,168,-1,168,483,484,-1,168,484,260,-1,260,484,485,-1,260,485,258,-1,258,485,486,-1,258,486,178,-1,178,486,487,-1,178,487,180,-1,180,487,488,-1,180,488,196,-1,196,488,235,-1,196,235,200,-1,200,235,234,-1,489,480,490,-1,490,480,481,-1,490,481,491,-1,491,481,482,-1,491,482,492,-1,492,482,431,-1,492,431,493,-1,493,431,426,-1,493,426,494,-1,494,426,413,-1,494,413,495,-1,495,413,334,-1,495,334,496,-1,496,334,335,-1,496,335,497,-1,497,335,498,-1,497,498,59,-1,337,284,335,-1,335,284,283,-1,335,283,498,-1,498,283,499,-1,500,501,499,-1,499,501,502,-1,298,302,283,-1,283,302,204,-1,283,204,499,-1,499,204,247,-1,499,247,500,-1,500,247,503,-1,59,498,57,-1,57,498,499,-1,57,499,65,-1,65,499,502,-1,65,502,77,-1,77,502,504,-1,77,504,247,-1,247,504,505,-1,247,505,503,-1,506,507,508,-1,508,507,500,-1,508,500,509,-1,509,500,503,-1,509,503,510,-1,510,503,511,-1,512,513,17,-1,17,513,3,-1,17,3,248,-1,248,3,5,-1,248,5,247,-1,247,5,514,-1,247,514,77,-1,77,514,512,-1,77,512,17,-1,244,238,239,-1,239,238,237,-1,239,237,248,-1,248,237,515,-1,248,515,17,-1,17,515,26,-1,17,26,15,-1,15,26,28,-1,0,2,516,-1,516,2,47,-1,516,47,517,-1,517,47,34,-1,517,34,518,-1,518,34,29,-1,518,29,519,-1,519,29,25,-1,519,25,520,-1,483,521,484,-1,484,521,522,-1,484,522,485,-1,485,522,523,-1,485,523,486,-1,486,523,524,-1,486,524,487,-1,487,524,525,-1,487,525,488,-1,488,525,526,-1,488,526,235,-1,235,526,527,-1,235,527,237,-1,237,527,528,-1,237,528,515,-1,515,528,529,-1,515,529,26,-1,26,529,530,-1,26,530,25,-1,25,530,531,-1,25,531,520,-1,520,531,532,-1,533,534,535,-1,535,534,536,-1,535,536,537,-1,537,536,538,-1,539,540,541,-1,541,540,542,-1,541,542,543,-1,544,540,545,-1,545,540,539,-1,545,539,546,-1,521,547,548,-1,549,550,551,-1,551,550,532,-1,551,532,539,-1,539,532,531,-1,548,552,521,-1,521,552,546,-1,521,546,522,-1,522,546,523,-1,531,530,539,-1,539,530,529,-1,539,529,546,-1,529,528,546,-1,546,528,527,-1,546,527,526,-1,526,525,546,-1,546,525,524,-1,546,524,523,-1,538,536,553,-1,553,536,554,-1,553,554,555,-1,555,554,556,-1,555,556,557,-1,557,548,555,-1,555,548,547,-1,555,547,558,-1,558,547,559,-1,560,561,562,-1,562,561,563,-1,564,565,538,-1,538,565,566,-1,563,567,562,-1,562,567,568,-1,562,568,569,-1,537,570,542,-1,542,570,571,-1,542,571,572,-1,566,573,538,-1,538,573,574,-1,538,574,537,-1,537,574,575,-1,537,575,570,-1,572,576,542,-1,542,576,577,-1,542,577,578,-1,569,579,562,-1,562,579,580,-1,562,580,581,-1,581,580,582,-1,581,582,583,-1,583,582,584,-1,583,584,585,-1,585,584,586,-1,585,586,553,-1,553,586,587,-1,553,587,538,-1,538,587,588,-1,538,588,564,-1,578,589,542,-1,542,589,590,-1,542,590,543,-1,590,591,543,-1,543,591,592,-1,543,592,593,-1,593,594,543,-1,543,594,595,-1,543,595,596,-1,596,595,597,-1,596,597,598,-1,598,597,599,-1,562,600,560,-1,560,600,601,-1,560,601,597,-1,597,601,602,-1,597,602,599,-1,600,562,603,-1,603,562,604,-1,605,606,607,-1,607,606,550,-1,607,550,608,-1,608,550,549,-1,609,610,585,-1,585,610,583,-1,558,559,609,-1,609,559,489,-1,606,605,0,-1,0,605,610,-1,0,610,1,-1,489,490,609,-1,609,490,491,-1,609,491,492,-1,495,496,609,-1,609,496,497,-1,609,497,610,-1,610,497,59,-1,610,59,1,-1,492,493,609,-1,609,493,494,-1,609,494,495,-1,547,521,483,-1,547,483,559,-1,559,483,166,-1,559,166,165,-1,165,458,559,-1,559,458,480,-1,559,480,489,-1,0,516,606,-1,606,516,517,-1,517,518,606,-1,606,518,519,-1,606,519,550,-1,550,519,520,-1,550,520,532,-1,581,583,607,-1,607,583,610,-1,607,610,605,-1,604,562,611,-1,611,562,581,-1,611,581,612,-1,612,581,607,-1,612,607,608,-1,585,553,609,-1,609,553,555,-1,609,555,558,-1,
        ]
    }
}
Shape{
    appearance Appearance {
        material  Material 	{
            diffuseColor 1.0 1.0 0.5019607843137255
            specularColor 0.5019607843137255 0.5019607843137255 0.25098039215686274
            ambientIntensity 0.2
            transparency 0
            shininess 0.5
        }
    }
    geometry IndexedFaceSet {
        ccw TRUE
        solid FALSE
        coord DEF co Coordinate {
            point [
                0.5118 -0.1706 -0.0856, 0.5118 -0.1667 -0.0856, 0.5108 -0.1706 -0.0946, 0.5108 -0.1667 -0.0946, 0.5077 -0.1706 -0.1031, 0.5077 -0.1667 -0.1031, 0.5028 -0.1706 -0.1107, 0.5028 -0.1667 -0.1107, 0.4963 -0.1706 -0.1169, 0.4963 -0.1667 -0.1169, 0.4885 -0.1706 -0.1215, 0.4885 -0.1667 -0.1215, 0.4799 -0.1706 -0.1243, 0.4799 -0.1667 -0.1243, 0.5118 -0.1706 0.1772, 0.5118 -0.1667 0.1772, 0.4724 -0.1706 0.2165, 0.4724 -0.1667 0.2165, 0.4812 -0.1706 0.2155, 0.4812 -0.1667 0.2155, 0.4895 -0.1706 0.2126, 0.4895 -0.1667 0.2126, 0.497 -0.1706 0.2079, 0.497 -0.1667 0.2079, 0.5032 -0.1706 0.2017, 0.5032 -0.1667 0.2017, 0.5079 -0.1706 0.1942, 0.5079 -0.1667 0.1942, 0.5108 -0.1706 0.1859, 0.5108 -0.1667 0.1859, -0.4724 -0.1706 0.2165, -0.4724 -0.1667 0.2165, -0.5118 -0.1706 0.1772, -0.5118 -0.1667 0.1772, -0.5108 -0.1706 0.1859, -0.5108 -0.1667 0.1859, -0.5079 -0.1706 0.1942, -0.5079 -0.1667 0.1942, -0.5032 -0.1706 0.2017, -0.5032 -0.1667 0.2017, -0.497 -0.1706 0.2079, -0.497 -0.1667 0.2079, -0.4895 -0.1706 0.2126, -0.4895 -0.1667 0.2126, -0.4812 -0.1706 0.2155, -0.4812 -0.1667 0.2155, -0.5118 -0.1706 -0.0787, -0.5118 -0.1667 -0.0787, -0.4804 -0.1706 -0.1173, -0.4804 -0.1667 -0.1173, -0.4889 -0.1706 -0.1145, -0.4889 -0.1667 -0.1145, -0.4966 -0.1706 -0.1099, -0.4966 -0.1667 -0.1099, -0.503 -0.1706 -0.1036, -0.503 -0.1667 -0.1036, -0.5078 -0.1706 -0.0961, -0.5078 -0.1667 -0.0961, -0.5108 -0.1706 -0.0876, -0.5108 -0.1667 -0.0876, -0.0077 -0.1706 -0.2149, -0.0077 -0.1667 -0.2149, 0.0077 -0.1706 -0.2151, 0.0077 -0.1667 -0.2151, 0.0 -0.1706 -0.2158, 0.0 -0.1667 -0.2158, 0.0 -0.1667 -0.2158
            ]
        }
        coordIndex [
            0,1,2,-1,2,1,3,-1,2,3,4,-1,4,3,5,-1,4,5,6,-1,6,5,7,-1,6,7,8,-1,8,7,9,-1,8,9,10,-1,10,9,11,-1,10,11,12,-1,12,11,13,-1,14,15,0,-1,0,15,1,-1,16,17,18,-1,18,17,19,-1,18,19,20,-1,20,19,21,-1,20,21,22,-1,22,21,23,-1,22,23,24,-1,24,23,25,-1,24,25,26,-1,26,25,27,-1,26,27,28,-1,28,27,29,-1,28,29,14,-1,14,29,15,-1,30,31,16,-1,16,31,17,-1,32,33,34,-1,34,33,35,-1,34,35,36,-1,36,35,37,-1,36,37,38,-1,38,37,39,-1,38,39,40,-1,40,39,41,-1,40,41,42,-1,42,41,43,-1,42,43,44,-1,44,43,45,-1,44,45,30,-1,30,45,31,-1,46,47,32,-1,32,47,33,-1,48,49,50,-1,50,49,51,-1,50,51,52,-1,52,51,53,-1,52,53,54,-1,54,53,55,-1,54,55,56,-1,56,55,57,-1,56,57,58,-1,58,57,59,-1,58,59,46,-1,46,59,47,-1,60,61,48,-1,48,61,49,-1,62,63,64,-1,64,63,65,-1,64,65,60,-1,60,65,61,-1,62,12,63,-1,63,12,13,-1,61,17,49,-1,49,17,31,-1,37,31,45,-1,45,43,37,-1,37,43,41,-1,37,41,39,-1,37,35,31,-1,31,35,33,-1,31,33,49,-1,49,33,47,-1,49,47,59,-1,15,29,63,-1,63,29,27,-1,61,65,17,-1,17,65,63,-1,17,63,19,-1,19,63,21,-1,53,51,55,-1,55,51,49,-1,55,49,57,-1,57,49,59,-1,11,9,1,-1,1,9,7,-1,1,7,3,-1,3,7,5,-1,27,25,63,-1,63,25,23,-1,63,23,21,-1,15,63,1,-1,1,63,13,-1,1,13,11,-1,
        ]
    }
}
Shape{
    appearance Appearance {
        material  Material 	{
            diffuseColor 1.0 1.0 1.0
            specularColor 0.5019607843137255 0.5019607843137255 0.5019607843137255
            ambientIntensity 0.2
            transparency 0
            shininess 0.5
        }
    }
    geometry IndexedFaceSet {
        ccw TRUE
        solid FALSE
        coord DEF co Coordinate {
            point [
                0.6496 0.0262 -0.1575, 0.6102 0.0262 -0.1575, 0.6496 0.0262 0.1969, 0.6102 0.0262 0.2362, 0.6299 0.0262 0.2309, 0.6381 0.0262 0.2247, 0.6443 0.0262 0.2165, 0.6204 0.0262 0.2349, 0.6483 0.0262 0.207, 0.6102 0.2231 0.2362, 0.6102 0.3078 -0.1575, 0.6102 0.3078 0.2288, -0.6102 0.3078 0.2288, -0.6102 0.3078 -0.1575, -0.6102 0.2231 0.2362, -0.6102 0.0262 -0.1575, -0.6102 0.0262 0.2362, -0.6496 0.0262 -0.1575, -0.6496 0.0262 0.1969, -0.6204 0.0262 0.2349, -0.6443 0.0262 0.2165, -0.6381 0.0262 0.2247, -0.6299 0.0262 0.2309, -0.6483 0.0262 0.207, -0.6483 0.0262 0.207
            ]
        }
        coordIndex [
            0,1,2,-1,2,1,3,-1,4,5,6,-1,3,7,2,-1,2,7,4,-1,2,4,8,-1,8,4,6,-1,3,1,9,-1,9,1,10,-1,9,10,11,-1,12,13,14,-1,14,13,15,-1,14,15,16,-1,15,17,16,-1,16,17,18,-1,16,18,19,-1,20,21,22,-1,19,18,22,-1,22,18,23,-1,22,23,20,-1,
        ]
    }
}
Shape{
    appearance Appearance {
        material  Material 	{
            diffuseColor 0.0 0.0 0.0
            specularColor 0.0 0.0 0.0
            ambientIntensity 0.2
            transparency 0
            shininess 0.5
        }
    }
    geometry IndexedFaceSet {
        ccw TRUE
        solid FALSE
        coord DEF co Coordinate {
            point [
                -0.0067 0.3255 -0.0583, -0.0067 0.3255 -0.0625, -0.0067 0.3215 -0.0583, -0.0067 0.3215 -0.0625, 0.008 0.3255 -0.0583, 0.008 0.3215 -0.0583, 0.008 0.3255 -0.0255, 0.008 0.3215 -0.0255, 0.0128 0.3255 -0.0255, 0.0128 0.3215 -0.0255, 0.0128 0.3255 -0.0625, 0.0128 0.3215 -0.0625, -0.0257 0.3255 -0.0631, -0.0257 0.3215 -0.0631, -0.0314 0.3215 -0.0626, -0.0314 0.3255 -0.0626, -0.0354 0.3215 -0.0613, -0.0354 0.3255 -0.0613, -0.036 0.3215 -0.061, -0.036 0.3255 -0.061, -0.036 0.3255 -0.0564, -0.036 0.3215 -0.0564, -0.0324 0.3215 -0.058, -0.0324 0.3255 -0.058, -0.0282 0.3215 -0.0588, -0.0282 0.3255 -0.0588, -0.0264 0.3215 -0.0589, -0.0264 0.3255 -0.0589, -0.0227 0.3215 -0.0584, -0.0227 0.3255 -0.0584, -0.02 0.3215 -0.0574, -0.02 0.3255 -0.0574, -0.0176 0.3215 -0.0557, -0.0176 0.3255 -0.0557, -0.0169 0.3215 -0.055, -0.0169 0.3255 -0.055, -0.0151 0.3215 -0.0525, -0.0151 0.3255 -0.0525, -0.0139 0.3215 -0.0495, -0.0139 0.3255 -0.0495, -0.0133 0.3215 -0.0458, -0.0133 0.3255 -0.0458, -0.0133 0.3215 -0.0444, -0.0133 0.3255 -0.0444, -0.0138 0.3215 -0.0397, -0.0138 0.3255 -0.0397, -0.015 0.3215 -0.0364, -0.015 0.3255 -0.0364, -0.0167 0.3215 -0.0338, -0.0167 0.3255 -0.0338, -0.0172 0.3215 -0.0333, -0.0172 0.3255 -0.0333, -0.0197 0.3215 -0.0312, -0.0197 0.3255 -0.0312, -0.0226 0.3215 -0.0298, -0.0226 0.3255 -0.0298, -0.0258 0.3215 -0.0292, -0.0258 0.3255 -0.0292, -0.0273 0.3215 -0.0291, -0.0273 0.3255 -0.0291, -0.0318 0.3215 -0.0297, -0.0318 0.3255 -0.0297, -0.0356 0.3215 -0.0311, -0.0356 0.3255 -0.0311, -0.036 0.3215 -0.0313, -0.036 0.3255 -0.0313, -0.036 0.3255 -0.0263, -0.036 0.3215 -0.0263, -0.0272 0.3215 -0.0248, -0.0272 0.3255 -0.0248, -0.0273 0.3255 -0.0248, -0.0321 0.3215 -0.0252, -0.0321 0.3255 -0.0252, -0.0311 0.3215 -0.0251, -0.0273 0.3215 -0.0248, -0.0247 0.3215 -0.0251, -0.0218 0.3255 -0.0255, -0.0218 0.3215 -0.0255, -0.0179 0.3215 -0.027, -0.0179 0.3255 -0.027, -0.0145 0.3215 -0.0294, -0.0145 0.3255 -0.0294, -0.0136 0.3215 -0.0303, -0.0136 0.3255 -0.0303, -0.0109 0.3215 -0.0338, -0.0109 0.3255 -0.0338, -0.0099 0.3215 -0.0362, -0.0091 0.3255 -0.0379, -0.0091 0.3215 -0.0379, -0.0083 0.3215 -0.0428, -0.0083 0.3255 -0.0428, -0.0082 0.3215 -0.0447, -0.0082 0.3255 -0.0447, -0.0088 0.3215 -0.0502, -0.0088 0.3255 -0.0502, -0.0099 0.3215 -0.0531, -0.0103 0.3255 -0.0542, -0.0103 0.3215 -0.0542, -0.0124 0.3215 -0.0574, -0.0124 0.3255 -0.0574, -0.013 0.3215 -0.0581, -0.013 0.3255 -0.0581, -0.016 0.3215 -0.0606, -0.016 0.3255 -0.0606, -0.0195 0.3215 -0.0622, -0.0195 0.3255 -0.0622, -0.0235 0.3215 -0.063, -0.0235 0.3255 -0.063, -0.0633 0.3255 -0.0583, -0.0633 0.3255 -0.0625, -0.0633 0.3215 -0.0583, -0.0633 0.3215 -0.0625, -0.0482 0.3215 -0.0583, -0.0482 0.3255 -0.0583, -0.0582 0.3215 -0.0583, -0.0482 0.3255 -0.0458, -0.0482 0.3215 -0.0458, -0.0615 0.3255 -0.0458, -0.0582 0.3215 -0.0458, -0.0615 0.3215 -0.0458, -0.0615 0.3255 -0.0416, -0.0615 0.3215 -0.0416, -0.0482 0.3215 -0.0416, -0.0482 0.3255 -0.0416, -0.0582 0.3215 -0.0416, -0.0482 0.3255 -0.0297, -0.0482 0.3215 -0.0297, -0.0625 0.3255 -0.0297, -0.0582 0.3215 -0.0297, -0.0625 0.3215 -0.0297, -0.0625 0.3255 -0.0255, -0.0625 0.3215 -0.0255, -0.0434 0.3215 -0.0255, -0.0434 0.3255 -0.0255, -0.0582 0.3215 -0.0255, -0.0434 0.3255 -0.0625, -0.0434 0.3215 -0.0625, -0.0582 0.3215 -0.0625, -0.0934 0.3255 -0.0521, -0.0915 0.3255 -0.0544, -0.0949 0.3255 -0.0573, -0.0909 0.3255 -0.055, -0.0911 0.3255 -0.0601, -0.0884 0.3255 -0.0567, -0.0869 0.3255 -0.0617, -0.0852 0.3255 -0.0578, -0.0805 0.3255 -0.0625, -0.0805 0.3255 -0.0583, -0.0703 0.3255 -0.0625, -0.0751 0.3255 -0.0583, -0.0703 0.3255 -0.0255, -0.0751 0.3255 -0.0297, -0.0809 0.3255 -0.0255, -0.0807 0.3255 -0.0297, -0.0866 0.3255 -0.0261, -0.0855 0.3255 -0.0302, -0.0911 0.3255 -0.0277, -0.0887 0.3255 -0.0314, -0.0949 0.3255 -0.0304, -0.0914 0.3255 -0.0332, -0.0962 0.3255 -0.0316, -0.0927 0.3255 -0.0344, -0.0985 0.3255 -0.0348, -0.094 0.3255 -0.0366, -0.0999 0.3255 -0.0383, -0.095 0.3255 -0.0394, -0.1005 0.3255 -0.0435, -0.0955 0.3255 -0.0436, -0.1004 0.3255 -0.0459, -0.0954 0.3255 -0.046, -0.0995 0.3255 -0.0502, -0.0947 0.3255 -0.0494, -0.0977 0.3255 -0.054, -0.0805 0.3215 -0.0625, -0.0703 0.3215 -0.0625, -0.0949 0.3215 -0.0573, -0.0869 0.3215 -0.0617, -0.0873 0.3215 -0.0616, -0.0911 0.3215 -0.0601, -0.0977 0.3215 -0.054, -0.0995 0.3215 -0.0502, -0.1004 0.3215 -0.0459, -0.1005 0.3215 -0.0435, -0.0999 0.3215 -0.0383, -0.0985 0.3215 -0.0348, -0.0962 0.3215 -0.0316, -0.0949 0.3215 -0.0304, -0.0809 0.3215 -0.0255, -0.0911 0.3215 -0.0277, -0.0873 0.3215 -0.0263, -0.0866 0.3215 -0.0261, -0.0703 0.3215 -0.0255, -0.0807 0.3215 -0.0297, -0.0751 0.3215 -0.0297, -0.0751 0.3215 -0.0583, -0.0805 0.3215 -0.0583, -0.0915 0.3215 -0.0544, -0.0909 0.3215 -0.055, -0.0884 0.3215 -0.0567, -0.0852 0.3215 -0.0578, -0.0955 0.3215 -0.0436, -0.0954 0.3215 -0.046, -0.0947 0.3215 -0.0494, -0.0934 0.3215 -0.0521, -0.0914 0.3215 -0.0332, -0.0927 0.3215 -0.0344, -0.094 0.3215 -0.0366, -0.095 0.3215 -0.0394, -0.0855 0.3215 -0.0302, -0.0887 0.3215 -0.0314, -0.0887 0.3215 -0.0314
            ]
        }
        coordIndex [
            0,1,2,-1,2,1,3,-1,4,0,5,-1,5,0,2,-1,6,4,7,-1,7,4,5,-1,8,6,9,-1,9,6,7,-1,10,8,11,-1,11,8,9,-1,1,10,3,-1,3,10,11,-1,6,8,4,-1,4,8,10,-1,4,10,0,-1,0,10,1,-1,12,13,14,-1,12,14,15,-1,15,14,16,-1,15,16,17,-1,17,16,18,-1,17,18,19,-1,20,19,21,-1,21,19,18,-1,20,21,22,-1,20,22,23,-1,23,22,24,-1,23,24,25,-1,25,24,26,-1,25,26,27,-1,27,26,28,-1,27,28,29,-1,29,28,30,-1,29,30,31,-1,31,30,32,-1,31,32,33,-1,33,32,34,-1,33,34,35,-1,35,34,36,-1,35,36,37,-1,37,36,38,-1,37,38,39,-1,39,38,40,-1,39,40,41,-1,41,40,42,-1,41,42,43,-1,43,42,44,-1,43,44,45,-1,45,44,46,-1,45,46,47,-1,47,46,48,-1,47,48,49,-1,49,48,50,-1,49,50,51,-1,51,50,52,-1,51,52,53,-1,53,52,54,-1,53,54,55,-1,55,54,56,-1,55,56,57,-1,57,56,58,-1,57,58,59,-1,59,58,60,-1,59,60,61,-1,61,60,62,-1,61,62,63,-1,63,62,64,-1,63,64,65,-1,66,65,67,-1,67,65,64,-1,68,69,70,-1,66,67,71,-1,66,71,72,-1,72,71,73,-1,72,73,70,-1,70,73,74,-1,70,74,68,-1,69,68,75,-1,69,75,76,-1,75,77,76,-1,76,77,78,-1,76,78,79,-1,79,78,80,-1,79,80,81,-1,81,80,82,-1,81,82,83,-1,83,82,84,-1,83,84,85,-1,85,84,86,-1,85,86,87,-1,86,88,87,-1,87,88,89,-1,87,89,90,-1,90,89,91,-1,90,91,92,-1,92,91,93,-1,92,93,94,-1,94,93,95,-1,94,95,96,-1,95,97,96,-1,96,97,98,-1,96,98,99,-1,99,98,100,-1,99,100,101,-1,101,100,102,-1,101,102,103,-1,103,102,104,-1,103,104,105,-1,105,104,106,-1,105,106,107,-1,107,106,13,-1,107,13,12,-1,63,65,66,-1,45,47,85,-1,63,66,61,-1,61,66,72,-1,61,72,59,-1,59,72,70,-1,59,70,57,-1,57,70,69,-1,57,69,55,-1,55,69,76,-1,55,76,53,-1,19,20,17,-1,17,20,23,-1,17,23,15,-1,15,23,25,-1,15,25,12,-1,12,25,27,-1,12,27,107,-1,107,27,29,-1,107,29,105,-1,105,29,31,-1,105,31,103,-1,103,31,33,-1,103,33,101,-1,101,33,35,-1,101,35,99,-1,99,35,37,-1,99,37,96,-1,85,47,83,-1,76,79,53,-1,53,79,81,-1,53,81,51,-1,51,81,83,-1,51,83,49,-1,49,83,47,-1,92,43,90,-1,90,43,45,-1,90,45,87,-1,87,45,85,-1,96,37,94,-1,94,37,39,-1,94,39,92,-1,92,39,41,-1,92,41,43,-1,108,109,110,-1,110,109,111,-1,112,113,114,-1,114,113,108,-1,114,108,110,-1,115,113,116,-1,116,113,112,-1,115,116,117,-1,117,116,118,-1,117,118,119,-1,120,117,121,-1,121,117,119,-1,122,123,124,-1,124,123,120,-1,124,120,121,-1,125,123,126,-1,126,123,122,-1,125,126,127,-1,127,126,128,-1,127,128,129,-1,130,127,131,-1,131,127,129,-1,132,133,134,-1,134,133,130,-1,134,130,131,-1,135,133,136,-1,136,133,132,-1,135,136,109,-1,109,136,137,-1,109,137,111,-1,135,109,108,-1,108,113,135,-1,135,113,115,-1,135,115,133,-1,127,130,125,-1,125,130,133,-1,125,133,123,-1,123,133,115,-1,123,115,120,-1,120,115,117,-1,138,139,140,-1,140,139,141,-1,140,141,142,-1,142,141,143,-1,142,143,144,-1,144,143,145,-1,144,145,146,-1,146,145,147,-1,146,147,148,-1,148,147,149,-1,148,149,150,-1,150,149,151,-1,150,151,152,-1,152,151,153,-1,152,153,154,-1,154,153,155,-1,154,155,156,-1,156,155,157,-1,156,157,158,-1,158,157,159,-1,158,159,160,-1,160,159,161,-1,160,161,162,-1,162,161,163,-1,162,163,164,-1,164,163,165,-1,164,165,166,-1,166,165,167,-1,166,167,168,-1,168,167,169,-1,168,169,170,-1,170,169,171,-1,170,171,172,-1,172,171,138,-1,172,138,140,-1,146,148,173,-1,173,148,174,-1,175,140,142,-1,146,173,176,-1,146,176,144,-1,144,176,177,-1,144,177,142,-1,142,177,178,-1,142,178,175,-1,140,175,179,-1,140,179,172,-1,172,179,180,-1,172,180,170,-1,170,180,181,-1,170,181,168,-1,168,181,182,-1,168,182,166,-1,166,182,183,-1,166,183,164,-1,164,183,184,-1,164,184,162,-1,162,184,185,-1,162,185,160,-1,160,185,186,-1,160,186,158,-1,187,152,154,-1,158,186,188,-1,158,188,156,-1,156,188,189,-1,156,189,154,-1,154,189,190,-1,154,190,187,-1,150,152,191,-1,191,152,187,-1,148,150,174,-1,174,150,191,-1,153,151,192,-1,192,151,193,-1,151,149,193,-1,193,149,194,-1,149,147,194,-1,194,147,195,-1,139,196,197,-1,139,197,141,-1,141,197,198,-1,141,198,143,-1,143,198,199,-1,143,199,145,-1,145,199,195,-1,145,195,147,-1,167,200,201,-1,167,201,169,-1,169,201,202,-1,169,202,171,-1,171,202,203,-1,171,203,138,-1,138,203,196,-1,138,196,139,-1,159,204,205,-1,159,205,161,-1,161,205,206,-1,161,206,163,-1,163,206,207,-1,163,207,165,-1,165,207,200,-1,165,200,167,-1,153,192,208,-1,153,208,155,-1,155,208,209,-1,155,209,157,-1,157,209,204,-1,157,204,159,-1,
        ]
    }
}
Shape{
    appearance Appearance {
        material  Material 	{
            diffuseColor 1.0 1.0 1.0
            specularColor 0.5019607843137255 0.5019607843137255 0.5019607843137255
            ambientIntensity 0.2
            transparency 0
            shininess 0.5
        }
    }
    geometry IndexedFaceSet {
        ccw TRUE
        solid FALSE
        coord DEF co Coordinate {
            point [
                -0.0751 0.3215 -0.0297, -0.0751 0.3215 -0.0583, -0.0807 0.3215 -0.0297, -0.0805 0.3215 -0.0583, -0.0852 0.3215 -0.0578, -0.0884 0.3215 -0.0567, -0.0909 0.3215 -0.055, -0.0915 0.3215 -0.0544, -0.0934 0.3215 -0.0521, -0.0947 0.3215 -0.0494, -0.0954 0.3215 -0.046, -0.0955 0.3215 -0.0436, -0.095 0.3215 -0.0394, -0.094 0.3215 -0.0366, -0.0927 0.3215 -0.0344, -0.0914 0.3215 -0.0332, -0.0855 0.3215 -0.0302, -0.0887 0.3215 -0.0314, -0.0887 0.3215 -0.0314
            ]
        }
        coordIndex [
            0,1,2,-1,2,1,3,-1,2,3,4,-1,4,5,2,-1,2,5,6,-1,2,6,7,-1,7,8,2,-1,2,8,9,-1,2,9,10,-1,10,11,2,-1,2,11,12,-1,2,12,13,-1,13,14,2,-1,2,14,15,-1,2,15,16,-1,16,15,17,-1,
        ]
    }
}
Shape{
    appearance Appearance {
        material  Material 	{
            diffuseColor 0.0 0.0 0.0
            specularColor 0.0 0.0 0.0
            ambientIntensity 0.2
            transparency 0
            shininess 0.5
        }
    }
    geometry IndexedFaceSet {
        ccw TRUE
        solid FALSE
        coord DEF co Coordinate {
            point [
                -0.113 0.3255 -0.0482, -0.1114 0.3255 -0.0524, -0.1254 0.3255 -0.0482, -0.1269 0.3255 -0.0524, -0.1185 0.3255 -0.0328, -0.1167 0.3255 -0.0255, -0.1026 0.3255 -0.0625, -0.1079 0.3255 -0.0625, -0.1188 0.3255 -0.0317, -0.1191 0.3255 -0.0302, -0.1218 0.3255 -0.0255, -0.1192 0.3255 -0.0302, -0.1195 0.3255 -0.0318, -0.1198 0.3255 -0.0328, -0.1359 0.3255 -0.0625, -0.1307 0.3255 -0.0625, -0.1218 0.3215 -0.0255, -0.1359 0.3215 -0.0625, -0.1167 0.3215 -0.0255, -0.1026 0.3215 -0.0625, -0.1133 0.3215 -0.0345, -0.1079 0.3215 -0.0625, -0.1114 0.3215 -0.0524, -0.1269 0.3215 -0.0524, -0.1133 0.3215 -0.0524, -0.1307 0.3215 -0.0625, -0.113 0.3215 -0.0482, -0.1254 0.3215 -0.0482, -0.1198 0.3215 -0.0328, -0.1192 0.3215 -0.0302, -0.1195 0.3215 -0.0318, -0.1191 0.3215 -0.0302, -0.1185 0.3215 -0.0328, -0.1188 0.3215 -0.0317, -0.1188 0.3215 -0.0317
            ]
        }
        coordIndex [
            0,1,2,-1,2,1,3,-1,4,5,0,-1,0,5,6,-1,0,6,1,-1,1,6,7,-1,4,8,5,-1,5,8,9,-1,5,9,10,-1,10,9,11,-1,10,11,12,-1,12,13,10,-1,10,13,2,-1,10,2,14,-1,14,2,3,-1,14,3,15,-1,10,14,16,-1,16,14,17,-1,5,10,18,-1,18,10,16,-1,19,6,20,-1,20,6,5,-1,20,5,18,-1,7,6,21,-1,21,6,19,-1,1,7,22,-1,22,7,21,-1,23,3,24,-1,24,3,1,-1,24,1,22,-1,15,3,25,-1,25,3,23,-1,14,15,17,-1,17,15,25,-1,0,2,26,-1,26,2,27,-1,2,13,27,-1,27,13,28,-1,11,29,30,-1,11,30,12,-1,12,30,28,-1,12,28,13,-1,11,9,29,-1,29,9,31,-1,4,32,33,-1,4,33,8,-1,8,33,31,-1,8,31,9,-1,4,0,32,-1,32,0,26,-1,
        ]
    }
}
Shape{
    appearance Appearance {
        material  Material 	{
            diffuseColor 1.0 1.0 1.0
            specularColor 0.5019607843137255 0.5019607843137255 0.5019607843137255
            ambientIntensity 0.2
            transparency 0
            shininess 0.5
        }
    }
    geometry IndexedFaceSet {
        ccw TRUE
        solid FALSE
        coord DEF co Coordinate {
            point [
                -0.1192 0.3215 -0.0302, -0.1191 0.3215 -0.0302, -0.1195 0.3215 -0.0318, -0.1188 0.3215 -0.0317, -0.1198 0.3215 -0.0328, -0.1185 0.3215 -0.0328, -0.1254 0.3215 -0.0482, -0.113 0.3215 -0.0482, -0.113 0.3215 -0.0482
            ]
        }
        coordIndex [
            0,1,2,-1,2,1,3,-1,2,3,4,-1,4,3,5,-1,4,5,6,-1,6,5,7,-1,
        ]
    }
}
Shape{
    appearance Appearance {
        material  Material 	{
            diffuseColor 0.0 0.0 0.0
            specularColor 0.0 0.0 0.0
            ambientIntensity 0.2
            transparency 0
            shininess 0.5
        }
    }
    geometry IndexedFaceSet {
        ccw TRUE
        solid FALSE
        coord DEF co Coordinate {
            point [
                -0.0071 0.3255 -0.1171, -0.0071 0.3255 -0.1213, -0.0071 0.3215 -0.1171, -0.0071 0.3215 -0.1213, 0.008 0.3255 -0.1171, 0.008 0.3215 -0.1171, 0.008 0.3255 -0.1046, 0.008 0.3215 -0.1046, -0.0052 0.3255 -0.1046, -0.0052 0.3215 -0.1046, -0.0052 0.3255 -0.1004, -0.0052 0.3215 -0.1004, 0.008 0.3255 -0.1004, 0.008 0.3215 -0.1004, 0.008 0.3255 -0.0885, 0.008 0.3215 -0.0885, -0.0063 0.3255 -0.0885, -0.0063 0.3215 -0.0885, -0.0063 0.3255 -0.0843, -0.0063 0.3215 -0.0843, 0.0128 0.3255 -0.0843, 0.0128 0.3215 -0.0843, 0.0128 0.3255 -0.1213, 0.0128 0.3215 -0.1213, -0.022 0.3255 -0.1089, -0.0282 0.3255 -0.108, -0.0328 0.3255 -0.1043, -0.0282 0.3255 -0.1213, -0.0328 0.3255 -0.1213, -0.0282 0.3255 -0.1172, -0.0282 0.3255 -0.1045, -0.0181 0.3255 -0.11, -0.0192 0.3255 -0.1095, -0.0281 0.3255 -0.1172, -0.0257 0.3255 -0.1165, -0.0272 0.3255 -0.1184, -0.0244 0.3255 -0.1174, -0.0282 0.3255 -0.1106, -0.0279 0.3255 -0.1129, -0.0272 0.3255 -0.1145, -0.0262 0.3255 -0.116, -0.0167 0.3255 -0.1158, -0.0132 0.3255 -0.1192, -0.0172 0.3255 -0.1166, -0.0138 0.3255 -0.1199, -0.0176 0.3255 -0.1169, -0.0153 0.3255 -0.1209, -0.0185 0.3255 -0.1176, -0.017 0.3255 -0.1216, -0.0196 0.3255 -0.118, -0.0192 0.3255 -0.1219, -0.0199 0.3255 -0.122, -0.0212 0.3255 -0.1181, -0.0221 0.3255 -0.1217, -0.023 0.3255 -0.1179, -0.0241 0.3255 -0.1211, -0.0258 0.3255 -0.12, -0.028 0.3255 -0.1025, -0.0325 0.3255 -0.1007, -0.0276 0.3255 -0.1008, -0.0317 0.3255 -0.0986, -0.027 0.3255 -0.0999, -0.0308 0.3255 -0.0971, -0.0263 0.3255 -0.0991, -0.0295 0.3255 -0.096, -0.0255 0.3255 -0.0986, -0.028 0.3255 -0.0951, -0.0244 0.3255 -0.0982, -0.026 0.3255 -0.0945, -0.0228 0.3255 -0.098, -0.0233 0.3255 -0.0942, -0.0203 0.3255 -0.0983, -0.0185 0.3255 -0.0948, -0.0174 0.3255 -0.0992, -0.0151 0.3255 -0.0962, -0.0141 0.3255 -0.1012, -0.0141 0.3255 -0.0967, -0.0163 0.3255 -0.1131, -0.0116 0.3255 -0.1137, -0.0163 0.3255 -0.1139, -0.0116 0.3255 -0.1142, -0.0164 0.3255 -0.1149, -0.0118 0.3255 -0.1163, -0.0123 0.3255 -0.1179, -0.0203 0.3255 -0.1056, -0.0168 0.3255 -0.1065, -0.0175 0.3255 -0.1105, -0.0148 0.3255 -0.1075, -0.0169 0.3255 -0.1112, -0.0134 0.3255 -0.1087, -0.0165 0.3255 -0.1121, -0.0125 0.3255 -0.11, -0.0119 0.3255 -0.1117, -0.0233 0.3215 -0.0942, -0.0185 0.3215 -0.0948, -0.0151 0.3215 -0.0962, -0.0141 0.3215 -0.0967, -0.0141 0.3215 -0.1012, -0.0174 0.3215 -0.0992, -0.0203 0.3215 -0.0983, -0.0228 0.3215 -0.098, -0.0244 0.3215 -0.0982, -0.0255 0.3215 -0.0986, -0.0263 0.3215 -0.0991, -0.027 0.3215 -0.0999, -0.0276 0.3215 -0.1008, -0.028 0.3215 -0.1025, -0.0282 0.3215 -0.1045, -0.0203 0.3215 -0.1056, -0.0168 0.3215 -0.1065, -0.0148 0.3215 -0.1075, -0.0134 0.3215 -0.1087, -0.0125 0.3215 -0.11, -0.0119 0.3215 -0.1117, -0.0116 0.3215 -0.1137, -0.0116 0.3215 -0.1142, -0.0118 0.3215 -0.1163, -0.0123 0.3215 -0.1179, -0.0132 0.3215 -0.1192, -0.0138 0.3215 -0.1199, -0.0199 0.3215 -0.122, -0.0153 0.3215 -0.1209, -0.017 0.3215 -0.1216, -0.0173 0.3215 -0.1216, -0.0192 0.3215 -0.1219, -0.0221 0.3215 -0.1217, -0.0224 0.3215 -0.1216, -0.0241 0.3215 -0.1211, -0.0258 0.3215 -0.12, -0.0272 0.3215 -0.1184, -0.0281 0.3215 -0.1172, -0.0282 0.3215 -0.1172, -0.0282 0.3215 -0.1213, -0.0328 0.3215 -0.1213, -0.0328 0.3215 -0.1043, -0.0325 0.3215 -0.1007, -0.0317 0.3215 -0.0986, -0.0308 0.3215 -0.0971, -0.0295 0.3215 -0.096, -0.028 0.3215 -0.0951, -0.026 0.3215 -0.0945, -0.0175 0.3215 -0.1105, -0.0181 0.3215 -0.11, -0.0192 0.3215 -0.1095, -0.022 0.3215 -0.1089, -0.0163 0.3215 -0.1139, -0.0163 0.3215 -0.1131, -0.0165 0.3215 -0.1121, -0.0169 0.3215 -0.1112, -0.0176 0.3215 -0.1169, -0.0172 0.3215 -0.1166, -0.0167 0.3215 -0.1158, -0.0164 0.3215 -0.1149, -0.0212 0.3215 -0.1181, -0.0196 0.3215 -0.118, -0.0185 0.3215 -0.1176, -0.0262 0.3215 -0.116, -0.0257 0.3215 -0.1165, -0.0244 0.3215 -0.1174, -0.023 0.3215 -0.1179, -0.0282 0.3215 -0.1106, -0.0279 0.3215 -0.1129, -0.0272 0.3215 -0.1145, -0.0282 0.3215 -0.108, -0.0282 0.3215 -0.108
            ]
        }
        coordIndex [
            0,1,2,-1,2,1,3,-1,4,0,5,-1,5,0,2,-1,6,4,7,-1,7,4,5,-1,8,6,9,-1,9,6,7,-1,10,8,11,-1,11,8,9,-1,12,10,13,-1,13,10,11,-1,14,12,15,-1,15,12,13,-1,16,14,17,-1,17,14,15,-1,18,16,19,-1,19,16,17,-1,20,18,21,-1,21,18,19,-1,22,20,23,-1,23,20,21,-1,1,22,3,-1,3,22,23,-1,22,1,0,-1,0,4,22,-1,22,4,6,-1,22,6,20,-1,16,18,14,-1,14,18,20,-1,14,20,12,-1,12,20,6,-1,12,6,10,-1,10,6,8,-1,24,25,26,-1,27,28,29,-1,29,28,26,-1,30,31,32,-1,33,34,35,-1,35,34,36,-1,25,37,26,-1,26,37,38,-1,26,38,29,-1,29,38,39,-1,29,39,33,-1,33,39,40,-1,33,40,34,-1,41,42,43,-1,43,42,44,-1,43,44,45,-1,45,44,46,-1,45,46,47,-1,47,46,48,-1,47,48,49,-1,48,50,49,-1,49,50,51,-1,49,51,52,-1,52,51,53,-1,52,53,54,-1,54,53,55,-1,54,55,36,-1,36,55,56,-1,36,56,35,-1,32,24,30,-1,30,24,26,-1,30,26,57,-1,57,26,58,-1,57,58,59,-1,59,58,60,-1,59,60,61,-1,61,60,62,-1,61,62,63,-1,63,62,64,-1,63,64,65,-1,65,64,66,-1,65,66,67,-1,67,66,68,-1,67,68,69,-1,69,68,70,-1,69,70,71,-1,71,70,72,-1,71,72,73,-1,73,72,74,-1,73,74,75,-1,75,74,76,-1,77,78,79,-1,79,78,80,-1,79,80,81,-1,81,80,82,-1,81,82,41,-1,41,82,83,-1,41,83,42,-1,30,84,31,-1,31,84,85,-1,31,85,86,-1,86,85,87,-1,86,87,88,-1,88,87,89,-1,88,89,90,-1,90,89,91,-1,90,91,77,-1,77,91,92,-1,77,92,78,-1,70,93,94,-1,70,94,72,-1,72,94,95,-1,72,95,74,-1,74,95,96,-1,74,96,76,-1,75,76,97,-1,97,76,96,-1,75,97,98,-1,75,98,73,-1,73,98,99,-1,73,99,71,-1,71,99,100,-1,71,100,69,-1,69,100,101,-1,69,101,67,-1,67,101,102,-1,67,102,65,-1,65,102,103,-1,65,103,63,-1,63,103,104,-1,63,104,61,-1,61,104,105,-1,61,105,59,-1,59,105,106,-1,59,106,57,-1,57,106,107,-1,57,107,30,-1,84,30,108,-1,108,30,107,-1,84,108,109,-1,84,109,85,-1,85,109,110,-1,85,110,87,-1,87,110,111,-1,87,111,89,-1,89,111,112,-1,89,112,91,-1,91,112,113,-1,91,113,92,-1,92,113,114,-1,92,114,78,-1,78,114,115,-1,78,115,80,-1,80,115,116,-1,80,116,82,-1,82,116,117,-1,82,117,83,-1,83,117,118,-1,83,118,42,-1,42,118,119,-1,42,119,44,-1,120,51,50,-1,44,119,121,-1,44,121,46,-1,46,121,122,-1,46,122,48,-1,48,122,123,-1,48,123,50,-1,50,123,124,-1,50,124,120,-1,51,120,125,-1,51,125,53,-1,53,125,126,-1,53,126,55,-1,126,127,55,-1,55,127,128,-1,55,128,56,-1,56,128,129,-1,56,129,35,-1,35,129,130,-1,35,130,33,-1,29,33,131,-1,131,33,130,-1,27,29,132,-1,132,29,131,-1,28,27,133,-1,133,27,132,-1,26,28,134,-1,134,28,133,-1,26,134,135,-1,26,135,58,-1,58,135,136,-1,58,136,60,-1,60,136,137,-1,60,137,62,-1,62,137,138,-1,62,138,64,-1,64,138,139,-1,64,139,66,-1,66,139,140,-1,66,140,68,-1,68,140,93,-1,68,93,70,-1,86,141,142,-1,86,142,31,-1,31,142,143,-1,31,143,32,-1,32,143,144,-1,32,144,24,-1,79,145,146,-1,79,146,77,-1,77,146,147,-1,77,147,90,-1,90,147,148,-1,90,148,88,-1,88,148,141,-1,88,141,86,-1,45,149,150,-1,45,150,43,-1,43,150,151,-1,43,151,41,-1,41,151,152,-1,41,152,81,-1,81,152,145,-1,81,145,79,-1,52,153,154,-1,52,154,49,-1,49,154,155,-1,49,155,47,-1,47,155,149,-1,47,149,45,-1,40,156,157,-1,40,157,34,-1,34,157,158,-1,34,158,36,-1,36,158,159,-1,36,159,54,-1,54,159,153,-1,54,153,52,-1,37,160,161,-1,37,161,38,-1,38,161,162,-1,38,162,39,-1,39,162,156,-1,39,156,40,-1,37,25,160,-1,160,25,163,-1,25,24,163,-1,163,24,144,-1,
        ]
    }
}
Shape{
    appearance Appearance {
        material  Material 	{
            diffuseColor 1.0 1.0 1.0
            specularColor 0.5019607843137255 0.5019607843137255 0.5019607843137255
            ambientIntensity 0.2
            transparency 0
            shininess 0.5
        }
    }
    geometry IndexedFaceSet {
        ccw TRUE
        solid FALSE
        coord DEF co Coordinate {
            point [
                -0.0257 0.3215 -0.1165, -0.0262 0.3215 -0.116, -0.022 0.3215 -0.1089, -0.0272 0.3215 -0.1145, -0.023 0.3215 -0.1179, -0.0192 0.3215 -0.1095, -0.0181 0.3215 -0.11, -0.0244 0.3215 -0.1174, -0.0279 0.3215 -0.1129, -0.0282 0.3215 -0.1106, -0.0282 0.3215 -0.108, -0.0165 0.3215 -0.1121, -0.0163 0.3215 -0.1131, -0.0163 0.3215 -0.1139, -0.0164 0.3215 -0.1149, -0.0185 0.3215 -0.1176, -0.0196 0.3215 -0.118, -0.0176 0.3215 -0.1169, -0.0212 0.3215 -0.1181, -0.0175 0.3215 -0.1105, -0.0169 0.3215 -0.1112, -0.0167 0.3215 -0.1158, -0.0172 0.3215 -0.1166, -0.0172 0.3215 -0.1166
            ]
        }
        coordIndex [
            0,1,2,-1,2,1,3,-1,4,5,6,-1,5,4,2,-1,2,4,7,-1,2,7,0,-1,3,8,2,-1,2,8,9,-1,2,9,10,-1,11,12,4,-1,4,12,13,-1,4,13,14,-1,15,16,17,-1,17,16,18,-1,17,18,4,-1,6,19,4,-1,4,19,20,-1,4,20,11,-1,14,21,4,-1,4,21,22,-1,4,22,17,-1,
        ]
    }
}
Shape{
    appearance Appearance {
        material  Material 	{
            diffuseColor 0.0 0.0 0.0
            specularColor 0.0 0.0 0.0
            ambientIntensity 0.2
            transparency 0
            shininess 0.5
        }
    }
    geometry IndexedFaceSet {
        ccw TRUE
        solid FALSE
        coord DEF co Coordinate {
            point [
                -0.0391 0.3215 -0.1156, -0.0391 0.3255 -0.1156, -0.0408 0.3255 -0.1166, -0.0468 0.3255 -0.1182, -0.0468 0.3215 -0.1182, -0.0437 0.3215 -0.1178, -0.0437 0.3255 -0.1178, -0.0413 0.3215 -0.1168, -0.0408 0.3215 -0.1166, -0.0391 0.3255 -0.1204, -0.0391 0.3215 -0.1204, -0.0413 0.3215 -0.1212, -0.0424 0.3255 -0.1215, -0.0463 0.3215 -0.122, -0.0463 0.3255 -0.122, -0.0433 0.3215 -0.1216, -0.0424 0.3215 -0.1215, -0.0492 0.3215 -0.1216, -0.0502 0.3255 -0.1215, -0.0502 0.3215 -0.1215, -0.0527 0.3215 -0.1206, -0.0527 0.3255 -0.1206, -0.054 0.3215 -0.1198, -0.054 0.3255 -0.1198, -0.0554 0.3215 -0.1186, -0.0554 0.3255 -0.1186, -0.0562 0.3215 -0.1174, -0.0562 0.3255 -0.1174, -0.0568 0.3215 -0.1159, -0.0568 0.3255 -0.1159, -0.057 0.3215 -0.1141, -0.057 0.3255 -0.1141, -0.0568 0.3215 -0.1123, -0.0568 0.3255 -0.1123, -0.0563 0.3215 -0.1109, -0.0563 0.3255 -0.1109, -0.0554 0.3215 -0.1097, -0.0554 0.3255 -0.1097, -0.0543 0.3215 -0.1088, -0.0543 0.3255 -0.1088, -0.0513 0.3215 -0.107, -0.0513 0.3255 -0.107, -0.0495 0.3215 -0.1063, -0.0495 0.3255 -0.1063, -0.0466 0.3215 -0.1051, -0.0466 0.3255 -0.1051, -0.0449 0.3215 -0.104, -0.0449 0.3255 -0.104, -0.0445 0.3215 -0.1035, -0.0445 0.3255 -0.1035, -0.0442 0.3215 -0.1029, -0.0442 0.3255 -0.1029, -0.044 0.3215 -0.1022, -0.044 0.3255 -0.1022, -0.0439 0.3215 -0.1016, -0.0439 0.3255 -0.1016, -0.044 0.3215 -0.1008, -0.044 0.3255 -0.1008, -0.0442 0.3215 -0.1002, -0.0442 0.3255 -0.1002, -0.0446 0.3215 -0.0996, -0.0446 0.3255 -0.0996, -0.0453 0.3215 -0.099, -0.0453 0.3255 -0.099, -0.0464 0.3215 -0.0984, -0.0464 0.3255 -0.0984, -0.0476 0.3215 -0.0981, -0.0476 0.3255 -0.0981, -0.049 0.3215 -0.098, -0.049 0.3255 -0.098, -0.0523 0.3215 -0.0984, -0.0523 0.3255 -0.0984, -0.0549 0.3215 -0.0994, -0.0549 0.3255 -0.0994, -0.0557 0.3215 -0.0999, -0.0557 0.3255 -0.0999, -0.0557 0.3255 -0.0954, -0.0557 0.3215 -0.0954, -0.0527 0.3215 -0.0945, -0.0527 0.3255 -0.0945, -0.0495 0.3215 -0.0942, -0.0495 0.3255 -0.0942, -0.0457 0.3215 -0.0947, -0.0457 0.3255 -0.0947, -0.0432 0.3215 -0.0957, -0.0432 0.3255 -0.0957, -0.0421 0.3215 -0.0963, -0.0421 0.3255 -0.0963, -0.0413 0.3215 -0.0971, -0.0407 0.3255 -0.0976, -0.0407 0.3215 -0.0976, -0.0399 0.3215 -0.0989, -0.0399 0.3255 -0.0989, -0.0393 0.3215 -0.1004, -0.0393 0.3255 -0.1004, -0.0391 0.3215 -0.102, -0.0391 0.3255 -0.102, -0.0394 0.3215 -0.1039, -0.0394 0.3255 -0.1039, -0.0399 0.3215 -0.1053, -0.0399 0.3255 -0.1053, -0.0405 0.3215 -0.1062, -0.0405 0.3255 -0.1062, -0.0462 0.3215 -0.1097, -0.0462 0.3255 -0.1097, -0.0434 0.3255 -0.1084, -0.0412 0.3215 -0.107, -0.0412 0.3255 -0.107, -0.0413 0.3215 -0.107, -0.0434 0.3215 -0.1084, -0.0492 0.3215 -0.111, -0.0492 0.3255 -0.111, -0.051 0.3215 -0.1121, -0.051 0.3255 -0.1121, -0.0516 0.3215 -0.1127, -0.0516 0.3255 -0.1127, -0.052 0.3215 -0.1133, -0.052 0.3255 -0.1133, -0.0522 0.3215 -0.114, -0.0522 0.3255 -0.114, -0.0522 0.3215 -0.1146, -0.0522 0.3255 -0.1146, -0.0521 0.3215 -0.1155, -0.0521 0.3255 -0.1155, -0.0519 0.3215 -0.1161, -0.0519 0.3255 -0.1161, -0.0515 0.3215 -0.1167, -0.0515 0.3255 -0.1167, -0.051 0.3215 -0.1172, -0.051 0.3255 -0.1172, -0.0505 0.3215 -0.1175, -0.0505 0.3255 -0.1175, -0.0493 0.3215 -0.1179, -0.0493 0.3255 -0.1179, -0.047 0.3215 -0.1182, -0.047 0.3255 -0.1182, -0.08 0.3255 -0.0948, -0.0848 0.3255 -0.0948, -0.08 0.3215 -0.0948, -0.0848 0.3215 -0.0948, -0.0728 0.3255 -0.1148, -0.0728 0.3215 -0.1148, -0.0724 0.3215 -0.116, -0.0724 0.3255 -0.116, -0.0722 0.3215 -0.1169, -0.0722 0.3255 -0.1169, -0.0721 0.3255 -0.1169, -0.0721 0.3215 -0.1169, -0.0715 0.3255 -0.1147, -0.0715 0.3215 -0.1147, -0.0646 0.3255 -0.0948, -0.0668 0.3215 -0.1013, -0.0646 0.3215 -0.0948, -0.0594 0.3255 -0.0948, -0.0594 0.3215 -0.0948, -0.0698 0.3255 -0.1213, -0.0668 0.3215 -0.1138, -0.0698 0.3215 -0.1213, -0.0678 0.3215 -0.1261, -0.0678 0.3255 -0.1261, -0.0696 0.3215 -0.1216, -0.0668 0.3215 -0.1277, -0.0668 0.3255 -0.1279, -0.0668 0.3215 -0.1279, -0.0659 0.3215 -0.1288, -0.0659 0.3255 -0.1288, -0.0654 0.3215 -0.1292, -0.0654 0.3255 -0.1292, -0.0644 0.3215 -0.1296, -0.0644 0.3255 -0.1296, -0.0633 0.3215 -0.1298, -0.0633 0.3255 -0.1298, -0.063 0.3215 -0.1298, -0.063 0.3255 -0.1298, -0.0613 0.3215 -0.1296, -0.0613 0.3255 -0.1296, -0.0604 0.3215 -0.1293, -0.0604 0.3255 -0.1293, -0.0604 0.3255 -0.1334, -0.0604 0.3215 -0.1334, -0.0623 0.3215 -0.1338, -0.0623 0.3255 -0.1338, -0.0634 0.3215 -0.1338, -0.0634 0.3255 -0.1338, -0.0652 0.3215 -0.1336, -0.0652 0.3255 -0.1336, -0.0668 0.3215 -0.133, -0.0671 0.3255 -0.1329, -0.0671 0.3215 -0.1329, -0.0687 0.3215 -0.1317, -0.0687 0.3255 -0.1317, -0.069 0.3215 -0.1315, -0.069 0.3255 -0.1315, -0.0707 0.3215 -0.1294, -0.0707 0.3255 -0.1294, -0.0728 0.3215 -0.1253, -0.0728 0.3255 -0.1253, -0.0743 0.3215 -0.1216, -0.1098 0.3255 -0.1171, -0.1098 0.3255 -0.1213, -0.1098 0.3215 -0.1171, -0.1098 0.3215 -0.1213, -0.0946 0.3255 -0.1171, -0.1016 0.3215 -0.1171, -0.0946 0.3215 -0.1171, -0.0946 0.3255 -0.1046, -0.0946 0.3215 -0.1046, -0.1079 0.3255 -0.1046, -0.1016 0.3215 -0.1046, -0.1079 0.3215 -0.1046, -0.1079 0.3255 -0.1004, -0.1079 0.3215 -0.1004, -0.0946 0.3215 -0.1004, -0.0946 0.3255 -0.1004, -0.1016 0.3215 -0.1004, -0.0946 0.3255 -0.0885, -0.0946 0.3215 -0.0885, -0.1089 0.3215 -0.0885, -0.1089 0.3255 -0.0885, -0.1016 0.3215 -0.0885, -0.1089 0.3255 -0.0843, -0.1089 0.3215 -0.0843, -0.0898 0.3215 -0.0843, -0.0898 0.3255 -0.0843, -0.1016 0.3215 -0.0843, -0.0898 0.3255 -0.1213, -0.0898 0.3215 -0.1213, -0.1016 0.3215 -0.1213, -0.1398 0.3255 -0.1109, -0.138 0.3255 -0.1132, -0.1414 0.3255 -0.1161, -0.1373 0.3255 -0.1139, -0.1375 0.3255 -0.1189, -0.1348 0.3255 -0.1155, -0.1333 0.3255 -0.1205, -0.1316 0.3255 -0.1166, -0.127 0.3255 -0.1213, -0.1269 0.3255 -0.1171, -0.1168 0.3255 -0.1213, -0.1216 0.3255 -0.1171, -0.1168 0.3255 -0.0843, -0.1216 0.3255 -0.0885, -0.1273 0.3255 -0.0843, -0.1272 0.3255 -0.0885, -0.133 0.3255 -0.0849, -0.1319 0.3255 -0.089, -0.1375 0.3255 -0.0865, -0.1351 0.3255 -0.0902, -0.1414 0.3255 -0.0892, -0.1379 0.3255 -0.092, -0.1426 0.3255 -0.0904, -0.1391 0.3255 -0.0932, -0.1449 0.3255 -0.0936, -0.1405 0.3255 -0.0954, -0.1463 0.3255 -0.0972, -0.1415 0.3255 -0.0982, -0.1469 0.3255 -0.1023, -0.1419 0.3255 -0.1024, -0.1468 0.3255 -0.1047, -0.1418 0.3255 -0.1048, -0.1459 0.3255 -0.109, -0.1411 0.3255 -0.1082, -0.1441 0.3255 -0.1128, -0.127 0.3215 -0.1213, -0.1168 0.3215 -0.1213, -0.1333 0.3215 -0.1205, -0.1375 0.3215 -0.1189, -0.1414 0.3215 -0.1161, -0.1441 0.3215 -0.1128, -0.1459 0.3215 -0.109, -0.1468 0.3215 -0.1047, -0.1469 0.3215 -0.1023, -0.1463 0.3215 -0.0972, -0.1449 0.3215 -0.0936, -0.1426 0.3215 -0.0904, -0.1414 0.3215 -0.0892, -0.1375 0.3215 -0.0865, -0.133 0.3215 -0.0849, -0.1273 0.3215 -0.0843, -0.1168 0.3215 -0.0843, -0.1272 0.3215 -0.0885, -0.1216 0.3215 -0.0885, -0.1216 0.3215 -0.1171, -0.1269 0.3215 -0.1171, -0.138 0.3215 -0.1132, -0.1373 0.3215 -0.1139, -0.1348 0.3215 -0.1155, -0.1316 0.3215 -0.1166, -0.1419 0.3215 -0.1024, -0.1418 0.3215 -0.1048, -0.1411 0.3215 -0.1082, -0.1398 0.3215 -0.1109, -0.1379 0.3215 -0.092, -0.1391 0.3215 -0.0932, -0.1405 0.3215 -0.0954, -0.1415 0.3215 -0.0982, -0.1319 0.3215 -0.089, -0.1351 0.3215 -0.0902, -0.1351 0.3215 -0.0902
            ]
        }
        coordIndex [
            0,1,2,-1,3,4,5,-1,3,5,6,-1,6,5,7,-1,6,7,2,-1,2,7,8,-1,2,8,0,-1,9,1,10,-1,10,1,0,-1,10,11,9,-1,9,11,12,-1,13,14,15,-1,15,14,12,-1,15,12,16,-1,16,12,11,-1,13,17,14,-1,14,17,18,-1,17,19,18,-1,18,19,20,-1,18,20,21,-1,21,20,22,-1,21,22,23,-1,23,22,24,-1,23,24,25,-1,25,24,26,-1,25,26,27,-1,27,26,28,-1,27,28,29,-1,29,28,30,-1,29,30,31,-1,31,30,32,-1,31,32,33,-1,33,32,34,-1,33,34,35,-1,35,34,36,-1,35,36,37,-1,37,36,38,-1,37,38,39,-1,39,38,40,-1,39,40,41,-1,41,40,42,-1,41,42,43,-1,43,42,44,-1,43,44,45,-1,45,44,46,-1,45,46,47,-1,47,46,48,-1,47,48,49,-1,49,48,50,-1,49,50,51,-1,51,50,52,-1,51,52,53,-1,53,52,54,-1,53,54,55,-1,55,54,56,-1,55,56,57,-1,57,56,58,-1,57,58,59,-1,59,58,60,-1,59,60,61,-1,61,60,62,-1,61,62,63,-1,63,62,64,-1,63,64,65,-1,65,64,66,-1,65,66,67,-1,67,66,68,-1,67,68,69,-1,69,68,70,-1,69,70,71,-1,71,70,72,-1,71,72,73,-1,73,72,74,-1,73,74,75,-1,76,75,77,-1,77,75,74,-1,76,77,78,-1,76,78,79,-1,79,78,80,-1,79,80,81,-1,81,80,82,-1,81,82,83,-1,83,82,84,-1,83,84,85,-1,85,84,86,-1,85,86,87,-1,86,88,87,-1,87,88,89,-1,88,90,89,-1,89,90,91,-1,89,91,92,-1,92,91,93,-1,92,93,94,-1,94,93,95,-1,94,95,96,-1,96,95,97,-1,96,97,98,-1,98,97,99,-1,98,99,100,-1,100,99,101,-1,100,101,102,-1,103,104,105,-1,102,101,106,-1,102,106,107,-1,107,106,108,-1,107,108,105,-1,105,108,109,-1,105,109,103,-1,104,103,110,-1,104,110,111,-1,111,110,112,-1,111,112,113,-1,113,112,114,-1,113,114,115,-1,115,114,116,-1,115,116,117,-1,117,116,118,-1,117,118,119,-1,119,118,120,-1,119,120,121,-1,121,120,122,-1,121,122,123,-1,123,122,124,-1,123,124,125,-1,125,124,126,-1,125,126,127,-1,127,126,128,-1,127,128,129,-1,129,128,130,-1,129,130,131,-1,131,130,132,-1,131,132,133,-1,133,132,134,-1,133,134,135,-1,135,134,4,-1,135,4,3,-1,59,61,87,-1,87,61,85,-1,85,61,63,-1,85,63,83,-1,125,25,27,-1,111,43,104,-1,104,43,45,-1,125,27,123,-1,123,27,29,-1,123,29,121,-1,121,29,31,-1,121,31,119,-1,119,31,33,-1,119,33,117,-1,117,33,35,-1,117,35,115,-1,115,35,37,-1,115,37,113,-1,113,37,39,-1,113,39,111,-1,111,39,41,-1,111,41,43,-1,25,125,23,-1,23,125,127,-1,23,127,21,-1,14,3,12,-1,12,3,6,-1,12,6,9,-1,9,6,2,-1,9,2,1,-1,63,65,83,-1,83,65,67,-1,83,67,81,-1,81,67,69,-1,81,69,79,-1,79,69,71,-1,79,71,76,-1,76,71,73,-1,76,73,75,-1,127,129,21,-1,21,129,131,-1,21,131,18,-1,18,131,133,-1,18,133,14,-1,14,133,135,-1,14,135,3,-1,87,89,59,-1,59,89,92,-1,59,92,57,-1,57,92,94,-1,57,94,55,-1,55,94,96,-1,55,96,53,-1,53,96,98,-1,53,98,51,-1,51,98,100,-1,51,100,49,-1,49,100,102,-1,49,102,47,-1,47,102,107,-1,47,107,45,-1,45,107,105,-1,45,105,104,-1,136,137,138,-1,138,137,139,-1,140,136,141,-1,141,136,138,-1,140,141,142,-1,140,142,143,-1,143,142,144,-1,143,144,145,-1,146,145,147,-1,147,145,144,-1,148,146,149,-1,149,146,147,-1,148,149,150,-1,150,149,151,-1,150,151,152,-1,153,150,154,-1,154,150,152,-1,153,154,155,-1,155,154,156,-1,155,156,157,-1,158,159,160,-1,160,159,155,-1,160,155,157,-1,158,161,159,-1,159,161,162,-1,161,163,162,-1,162,163,164,-1,162,164,165,-1,165,164,166,-1,165,166,167,-1,167,166,168,-1,167,168,169,-1,169,168,170,-1,169,170,171,-1,171,170,172,-1,171,172,173,-1,173,172,174,-1,173,174,175,-1,175,174,176,-1,175,176,177,-1,178,177,179,-1,179,177,176,-1,178,179,180,-1,178,180,181,-1,181,180,182,-1,181,182,183,-1,183,182,184,-1,183,184,185,-1,185,184,186,-1,185,186,187,-1,186,188,187,-1,187,188,189,-1,187,189,190,-1,190,189,191,-1,190,191,192,-1,192,191,193,-1,192,193,194,-1,194,193,195,-1,194,195,196,-1,139,137,197,-1,197,137,196,-1,197,196,195,-1,143,145,196,-1,175,177,178,-1,137,136,196,-1,196,136,140,-1,196,140,143,-1,150,153,148,-1,148,153,155,-1,148,155,146,-1,145,146,196,-1,196,146,155,-1,196,155,194,-1,175,178,173,-1,173,178,181,-1,173,181,171,-1,171,181,183,-1,171,183,169,-1,169,183,185,-1,169,185,167,-1,167,185,187,-1,167,187,165,-1,155,159,194,-1,194,159,162,-1,194,162,192,-1,192,162,165,-1,192,165,190,-1,190,165,187,-1,198,199,200,-1,200,199,201,-1,198,200,202,-1,202,200,203,-1,202,203,204,-1,205,202,206,-1,206,202,204,-1,205,206,207,-1,207,206,208,-1,207,208,209,-1,210,207,211,-1,211,207,209,-1,212,213,214,-1,214,213,210,-1,214,210,211,-1,215,213,216,-1,216,213,212,-1,217,218,219,-1,219,218,215,-1,219,215,216,-1,220,218,221,-1,221,218,217,-1,222,223,224,-1,224,223,220,-1,224,220,221,-1,225,223,226,-1,226,223,222,-1,225,226,199,-1,199,226,227,-1,199,227,201,-1,225,199,198,-1,198,202,225,-1,225,202,205,-1,225,205,223,-1,218,220,215,-1,215,220,223,-1,215,223,213,-1,213,223,205,-1,213,205,210,-1,210,205,207,-1,228,229,230,-1,230,229,231,-1,230,231,232,-1,232,231,233,-1,232,233,234,-1,234,233,235,-1,234,235,236,-1,236,235,237,-1,236,237,238,-1,238,237,239,-1,238,239,240,-1,240,239,241,-1,240,241,242,-1,242,241,243,-1,242,243,244,-1,244,243,245,-1,244,245,246,-1,246,245,247,-1,246,247,248,-1,248,247,249,-1,248,249,250,-1,250,249,251,-1,250,251,252,-1,252,251,253,-1,252,253,254,-1,254,253,255,-1,254,255,256,-1,256,255,257,-1,256,257,258,-1,258,257,259,-1,258,259,260,-1,260,259,261,-1,260,261,262,-1,262,261,228,-1,262,228,230,-1,236,238,263,-1,263,238,264,-1,236,263,265,-1,236,265,234,-1,234,265,266,-1,234,266,232,-1,232,266,267,-1,232,267,230,-1,230,267,268,-1,230,268,262,-1,262,268,269,-1,262,269,260,-1,260,269,270,-1,260,270,258,-1,258,270,271,-1,258,271,256,-1,256,271,272,-1,256,272,254,-1,254,272,273,-1,254,273,252,-1,252,273,274,-1,252,274,250,-1,250,274,275,-1,250,275,248,-1,248,275,276,-1,248,276,246,-1,246,276,277,-1,246,277,244,-1,244,277,278,-1,244,278,242,-1,240,242,279,-1,279,242,278,-1,238,240,264,-1,264,240,279,-1,243,241,280,-1,280,241,281,-1,241,239,281,-1,281,239,282,-1,239,237,282,-1,282,237,283,-1,229,284,285,-1,229,285,231,-1,231,285,286,-1,231,286,233,-1,233,286,287,-1,233,287,235,-1,235,287,283,-1,235,283,237,-1,257,288,289,-1,257,289,259,-1,259,289,290,-1,259,290,261,-1,261,290,291,-1,261,291,228,-1,228,291,284,-1,228,284,229,-1,249,292,293,-1,249,293,251,-1,251,293,294,-1,251,294,253,-1,253,294,295,-1,253,295,255,-1,255,295,288,-1,255,288,257,-1,243,280,296,-1,243,296,245,-1,245,296,297,-1,245,297,247,-1,247,297,292,-1,247,292,249,-1,
        ]
    }
}
Shape{
    appearance Appearance {
        material  Material 	{
            diffuseColor 1.0 1.0 1.0
            specularColor 0.5019607843137255 0.5019607843137255 0.5019607843137255
            ambientIntensity 0.2
            transparency 0
            shininess 0.5
        }
    }
    geometry IndexedFaceSet {
        ccw TRUE
        solid FALSE
        coord DEF co Coordinate {
            point [
                -0.1216 0.3215 -0.0885, -0.1216 0.3215 -0.1171, -0.1272 0.3215 -0.0885, -0.1269 0.3215 -0.1171, -0.1316 0.3215 -0.1166, -0.1348 0.3215 -0.1155, -0.1373 0.3215 -0.1139, -0.138 0.3215 -0.1132, -0.1398 0.3215 -0.1109, -0.1411 0.3215 -0.1082, -0.1418 0.3215 -0.1048, -0.1419 0.3215 -0.1024, -0.1415 0.3215 -0.0982, -0.1405 0.3215 -0.0954, -0.1391 0.3215 -0.0932, -0.1379 0.3215 -0.092, -0.1319 0.3215 -0.089, -0.1351 0.3215 -0.0902, -0.1351 0.3215 -0.0902
            ]
        }
        coordIndex [
            0,1,2,-1,2,1,3,-1,2,3,4,-1,4,5,2,-1,2,5,6,-1,2,6,7,-1,7,8,2,-1,2,8,9,-1,2,9,10,-1,10,11,2,-1,2,11,12,-1,2,12,13,-1,13,14,2,-1,2,14,15,-1,2,15,16,-1,16,15,17,-1,
        ]
    }
}
Shape{
    appearance Appearance {
        material  Material 	{
            diffuseColor 0.0 0.0 0.0
            specularColor 0.0 0.0 0.0
            ambientIntensity 0.2
            transparency 0
            shininess 0.5
        }
    }
    geometry IndexedFaceSet {
        ccw TRUE
        solid FALSE
        coord DEF co Coordinate {
            point [
                -0.1594 0.3255 -0.107, -0.1579 0.3255 -0.1112, -0.1718 0.3255 -0.107, -0.1733 0.3255 -0.1112, -0.1649 0.3255 -0.0916, -0.1631 0.3255 -0.0843, -0.149 0.3255 -0.1213, -0.1543 0.3255 -0.1213, -0.1652 0.3255 -0.0905, -0.1655 0.3255 -0.089, -0.1682 0.3255 -0.0843, -0.1656 0.3255 -0.089, -0.1659 0.3255 -0.0906, -0.1662 0.3255 -0.0916, -0.1824 0.3255 -0.1213, -0.1771 0.3255 -0.1213, -0.1682 0.3215 -0.0843, -0.1824 0.3215 -0.1213, -0.1631 0.3215 -0.0843, -0.149 0.3215 -0.1213, -0.1543 0.3215 -0.1213, -0.1579 0.3215 -0.1112, -0.1733 0.3215 -0.1112, -0.1771 0.3215 -0.1213, -0.1594 0.3215 -0.107, -0.1718 0.3215 -0.107, -0.1662 0.3215 -0.0916, -0.1656 0.3215 -0.089, -0.1659 0.3215 -0.0906, -0.1655 0.3215 -0.089, -0.1649 0.3215 -0.0916, -0.1652 0.3215 -0.0905, -0.1652 0.3215 -0.0905
            ]
        }
        coordIndex [
            0,1,2,-1,2,1,3,-1,4,5,0,-1,0,5,6,-1,0,6,1,-1,1,6,7,-1,4,8,5,-1,5,8,9,-1,5,9,10,-1,10,9,11,-1,10,11,12,-1,12,13,10,-1,10,13,2,-1,10,2,14,-1,14,2,3,-1,14,3,15,-1,10,14,16,-1,16,14,17,-1,5,10,18,-1,18,10,16,-1,6,5,19,-1,19,5,18,-1,7,6,20,-1,20,6,19,-1,1,7,21,-1,21,7,20,-1,3,1,22,-1,22,1,21,-1,15,3,23,-1,23,3,22,-1,14,15,17,-1,17,15,23,-1,0,2,24,-1,24,2,25,-1,2,13,25,-1,25,13,26,-1,11,27,28,-1,11,28,12,-1,12,28,26,-1,12,26,13,-1,11,9,27,-1,27,9,29,-1,4,30,31,-1,4,31,8,-1,8,31,29,-1,8,29,9,-1,4,0,30,-1,30,0,24,-1,
        ]
    }
}
Shape{
    appearance Appearance {
        material  Material 	{
            diffuseColor 1.0 1.0 1.0
            specularColor 0.5019607843137255 0.5019607843137255 0.5019607843137255
            ambientIntensity 0.2
            transparency 0
            shininess 0.5
        }
    }
    geometry IndexedFaceSet {
        ccw TRUE
        solid FALSE
        coord DEF co Coordinate {
            point [
                -0.1656 0.3215 -0.089, -0.1655 0.3215 -0.089, -0.1659 0.3215 -0.0906, -0.1652 0.3215 -0.0905, -0.1662 0.3215 -0.0916, -0.1649 0.3215 -0.0916, -0.1718 0.3215 -0.107, -0.1594 0.3215 -0.107, -0.1594 0.3215 -0.107
            ]
        }
        coordIndex [
            0,1,2,-1,2,1,3,-1,2,3,4,-1,4,3,5,-1,4,5,6,-1,6,5,7,-1,
        ]
    }
}
Shape{
    appearance Appearance {
        material  Material 	{
            diffuseColor 0.0 0.0 0.0
            specularColor 0.0 0.0 0.0
            ambientIntensity 0.2
            transparency 0
            shininess 0.5
        }
    }
    geometry IndexedFaceSet {
        ccw TRUE
        solid FALSE
        coord DEF co Coordinate {
            point [
                0.1766 0.3255 -0.1266, 0.1726 0.3255 -0.1314, 0.1789 0.3255 -0.1033, 0.1835 0.3255 -0.0574, 0.1776 0.3255 -0.0543, 0.1791 0.3255 -0.0381, 0.1278 0.3255 -0.1125, 0.1278 0.3255 -0.1099, 0.1501 0.3255 -0.1034, 0.1526 0.3255 -0.1026, 0.1686 0.3255 -0.0369, 0.1462 0.3255 -0.1066, 0.145 0.3255 -0.1087, 0.1279 0.3255 -0.1152, 0.0909 0.3255 -0.0904, 0.0991 0.3255 -0.0764, 0.1344 0.3255 -0.0948, 0.1544 0.3255 -0.1025, 0.1569 0.3255 -0.1028, 0.1604 0.3255 -0.0866, 0.1592 0.3255 -0.1037, 0.1662 0.3255 -0.0889, 0.1613 0.3255 -0.1051, 0.1716 0.3255 -0.0926, 0.1626 0.3255 -0.1065, 0.176 0.3255 -0.0976, 0.1639 0.3255 -0.1087, 0.1646 0.3255 -0.1112, 0.1446 0.3255 -0.0876, 0.1509 0.3255 -0.0861, 0.1541 0.3255 -0.0859, 0.1626 0.3255 -0.0374, 0.1544 0.3255 -0.0566, 0.151 0.3255 -0.0492, 0.1846 0.3255 -0.0997, 0.1826 0.3255 -0.1199, 0.1792 0.3255 -0.1209, 0.148 0.3255 -0.1048, 0.1613 0.3255 -0.1204, 0.1592 0.3255 -0.1218, 0.1675 0.3255 -0.1353, 0.1568 0.3255 -0.1227, 0.1572 0.3255 -0.0311, 0.1453 0.3255 -0.042, 0.151 0.3255 -0.0258, 0.138 0.3255 -0.0364, 0.1446 0.3255 -0.0218, 0.1711 0.3255 -0.0528, 0.1684 0.3255 -0.0527, 0.1656 0.3255 -0.037, 0.1623 0.3255 -0.0534, 0.1564 0.3255 -0.0556, 0.139 0.3255 -0.0907, 0.0822 0.3255 -0.0643, 0.0801 0.3255 -0.0643, 0.0693 0.3255 -0.05, 0.0751 0.3255 -0.0649, 0.0672 0.3255 -0.0508, 0.0705 0.3255 -0.0666, 0.0594 0.3255 -0.0548, 0.0664 0.3255 -0.0695, 0.0524 0.3255 -0.061, 0.0633 0.3255 -0.0729, 0.0472 0.3255 -0.0686, 0.0609 0.3255 -0.0775, 0.0442 0.3255 -0.0767, 0.0597 0.3255 -0.0826, 0.0432 0.3255 -0.0846, 0.0595 0.3255 -0.0848, 0.0432 0.3255 -0.0863, 0.0602 0.3255 -0.0899, 0.0934 0.3255 -0.1213, 0.0925 0.3255 -0.1215, 0.0904 0.3255 -0.1054, 0.1324 0.3255 -0.0171, 0.1295 0.3255 -0.0328, 0.1194 0.3255 -0.0155, 0.0835 0.3255 -0.0292, 0.0917 0.3255 -0.0435, 0.0749 0.3255 -0.0392, 0.0863 0.3255 -0.0511, 0.083 0.3255 -0.0599, 0.194 0.3255 -0.0727, 0.2113 0.3255 -0.0771, 0.1947 0.3255 -0.079, 0.2113 0.3255 -0.0795, 0.1944 0.3255 -0.083, 0.21 0.3255 -0.09, 0.1926 0.3255 -0.0895, 0.2062 0.3255 -0.0998, 0.1894 0.3255 -0.0949, 0.2003 0.3255 -0.1083, 0.1921 0.3255 -0.1153, 0.163 0.3255 -0.1184, 0.1641 0.3255 -0.1162, 0.1646 0.3255 -0.1138, 0.0785 0.3255 -0.1054, 0.0769 0.3255 -0.1215, 0.0738 0.3255 -0.1045, 0.069 0.3255 -0.1199, 0.0692 0.3255 -0.1023, 0.0609 0.3255 -0.1162, 0.0653 0.3255 -0.0992, 0.0539 0.3255 -0.1106, 0.0649 0.3255 -0.0988, 0.0529 0.3255 -0.1096, 0.062 0.3255 -0.0946, 0.0482 0.3255 -0.1031, 0.0446 0.3255 -0.0949, 0.1888 0.3255 -0.0419, 0.1972 0.3255 -0.0478, 0.188 0.3255 -0.0615, 0.1989 0.3255 -0.0495, 0.1917 0.3255 -0.0668, 0.2053 0.3255 -0.0577, 0.2095 0.3255 -0.0672, 0.1443 0.3255 -0.1111, 0.1442 0.3255 -0.1136, 0.1295 0.3255 -0.1217, 0.1447 0.3255 -0.1162, 0.1326 0.3255 -0.1276, 0.1459 0.3255 -0.1185, 0.1367 0.3255 -0.1322, 0.1476 0.3255 -0.1204, 0.1419 0.3255 -0.1358, 0.1496 0.3255 -0.1218, 0.1478 0.3255 -0.1381, 0.1519 0.3255 -0.1227, 0.1541 0.3255 -0.1388, 0.1544 0.3255 -0.123, 0.1552 0.3255 -0.1388, 0.1614 0.3255 -0.1379, 0.1207 0.3255 -0.0314, 0.1191 0.3255 -0.0313, 0.1085 0.3255 -0.0166, 0.1111 0.3255 -0.0322, 0.0953 0.3255 -0.0213, 0.1028 0.3255 -0.0351, 0.0952 0.3255 -0.0401, 0.1001 0.3255 -0.1125, 0.1001 0.3255 -0.1133, 0.0917 0.3255 -0.1051, 0.0999 0.3255 -0.1151, 0.0993 0.3255 -0.1169, 0.0981 0.3255 -0.1185, 0.097 0.3255 -0.1197, 0.0909 0.3255 -0.1053, 0.0952 0.3255 -0.1208, 0.0919 0.3255 -0.1051, 0.0938 0.3255 -0.1053, 0.0956 0.3255 -0.106, 0.0972 0.3255 -0.1071, 0.0986 0.3255 -0.1086, 0.0996 0.3255 -0.1104, 0.0432 0.3215 -0.0846, 0.0442 0.3215 -0.0767, 0.0453 0.3215 -0.0737, 0.0472 0.3215 -0.0686, 0.0524 0.3215 -0.061, 0.0594 0.3215 -0.0548, 0.0672 0.3215 -0.0508, 0.0693 0.3215 -0.05, 0.0749 0.3215 -0.0392, 0.0835 0.3215 -0.0292, 0.0896 0.3215 -0.0251, 0.0953 0.3215 -0.0213, 0.1085 0.3215 -0.0166, 0.1194 0.3215 -0.0155, 0.151 0.3215 -0.0258, 0.1499 0.3215 -0.0251, 0.1446 0.3215 -0.0218, 0.1324 0.3215 -0.0171, 0.1572 0.3215 -0.0311, 0.1626 0.3215 -0.0374, 0.1656 0.3215 -0.037, 0.1686 0.3215 -0.0369, 0.1791 0.3215 -0.0381, 0.1888 0.3215 -0.0419, 0.1972 0.3215 -0.0478, 0.1989 0.3215 -0.0495, 0.2095 0.3215 -0.0672, 0.2053 0.3215 -0.0577, 0.2107 0.3215 -0.0737, 0.2113 0.3215 -0.0771, 0.2113 0.3215 -0.0795, 0.21 0.3215 -0.09, 0.2062 0.3215 -0.0998, 0.2003 0.3215 -0.1083, 0.1921 0.3215 -0.1153, 0.1826 0.3215 -0.1199, 0.1792 0.3215 -0.1209, 0.1789 0.3215 -0.1216, 0.1766 0.3215 -0.1266, 0.1726 0.3215 -0.1314, 0.1675 0.3215 -0.1353, 0.165 0.3215 -0.1363, 0.1614 0.3215 -0.1379, 0.1552 0.3215 -0.1388, 0.1541 0.3215 -0.1388, 0.1278 0.3215 -0.1125, 0.1478 0.3215 -0.1381, 0.1432 0.3215 -0.1363, 0.1419 0.3215 -0.1358, 0.1367 0.3215 -0.1322, 0.1326 0.3215 -0.1276, 0.1295 0.3215 -0.1217, 0.1294 0.3215 -0.1216, 0.1279 0.3215 -0.1152, 0.1278 0.3215 -0.1099, 0.0909 0.3215 -0.0904, 0.0991 0.3215 -0.0764, 0.1344 0.3215 -0.0948, 0.139 0.3215 -0.0907, 0.1446 0.3215 -0.0876, 0.1509 0.3215 -0.0861, 0.1541 0.3215 -0.0859, 0.1604 0.3215 -0.0866, 0.1662 0.3215 -0.0889, 0.1716 0.3215 -0.0926, 0.176 0.3215 -0.0976, 0.1789 0.3215 -0.1033, 0.1846 0.3215 -0.0997, 0.1894 0.3215 -0.0949, 0.1926 0.3215 -0.0895, 0.1944 0.3215 -0.083, 0.1947 0.3215 -0.079, 0.1941 0.3215 -0.0737, 0.194 0.3215 -0.0727, 0.1917 0.3215 -0.0668, 0.188 0.3215 -0.0615, 0.1835 0.3215 -0.0574, 0.1776 0.3215 -0.0543, 0.1711 0.3215 -0.0528, 0.1684 0.3215 -0.0527, 0.1623 0.3215 -0.0534, 0.1564 0.3215 -0.0556, 0.1544 0.3215 -0.0566, 0.151 0.3215 -0.0492, 0.1453 0.3215 -0.042, 0.138 0.3215 -0.0364, 0.1295 0.3215 -0.0328, 0.1207 0.3215 -0.0314, 0.1191 0.3215 -0.0313, 0.1111 0.3215 -0.0322, 0.1028 0.3215 -0.0351, 0.0952 0.3215 -0.0401, 0.0917 0.3215 -0.0435, 0.0863 0.3215 -0.0511, 0.083 0.3215 -0.0599, 0.0822 0.3215 -0.0643, 0.0801 0.3215 -0.0643, 0.0751 0.3215 -0.0649, 0.0705 0.3215 -0.0666, 0.0664 0.3215 -0.0695, 0.0633 0.3215 -0.0729, 0.0629 0.3215 -0.0737, 0.0609 0.3215 -0.0775, 0.0597 0.3215 -0.0826, 0.0595 0.3215 -0.0848, 0.0602 0.3215 -0.0899, 0.062 0.3215 -0.0946, 0.0649 0.3215 -0.0988, 0.0653 0.3215 -0.0992, 0.0692 0.3215 -0.1023, 0.0738 0.3215 -0.1045, 0.0785 0.3215 -0.1054, 0.0904 0.3215 -0.1054, 0.0909 0.3215 -0.1053, 0.0917 0.3215 -0.1051, 0.0919 0.3215 -0.1051, 0.0938 0.3215 -0.1053, 0.0956 0.3215 -0.106, 0.0972 0.3215 -0.1071, 0.0986 0.3215 -0.1086, 0.0996 0.3215 -0.1104, 0.1001 0.3215 -0.1125, 0.1001 0.3215 -0.1133, 0.0999 0.3215 -0.1151, 0.0993 0.3215 -0.1169, 0.0981 0.3215 -0.1185, 0.097 0.3215 -0.1197, 0.0952 0.3215 -0.1208, 0.0934 0.3215 -0.1213, 0.0925 0.3215 -0.1215, 0.0769 0.3215 -0.1215, 0.069 0.3215 -0.1199, 0.0609 0.3215 -0.1162, 0.0539 0.3215 -0.1106, 0.0529 0.3215 -0.1096, 0.0482 0.3215 -0.1031, 0.0446 0.3215 -0.0949, 0.0432 0.3215 -0.0863, 0.1544 0.3215 -0.1025, 0.1526 0.3215 -0.1026, 0.1501 0.3215 -0.1034, 0.148 0.3215 -0.1048, 0.1462 0.3215 -0.1066, 0.145 0.3215 -0.1087, 0.1443 0.3215 -0.1111, 0.1442 0.3215 -0.1136, 0.1447 0.3215 -0.1162, 0.1459 0.3215 -0.1185, 0.1476 0.3215 -0.1204, 0.1496 0.3215 -0.1218, 0.1519 0.3215 -0.1227, 0.1544 0.3215 -0.123, 0.1568 0.3215 -0.1227, 0.1592 0.3215 -0.1218, 0.1613 0.3215 -0.1204, 0.163 0.3215 -0.1184, 0.1641 0.3215 -0.1162, 0.1646 0.3215 -0.1138, 0.1646 0.3215 -0.1112, 0.1639 0.3215 -0.1087, 0.1626 0.3215 -0.1065, 0.1613 0.3215 -0.1051, 0.1592 0.3215 -0.1037, 0.1569 0.3215 -0.1028, 0.1569 0.3215 -0.1028
            ]
        }
        coordIndex [
            0,1,2,-1,3,4,5,-1,6,7,8,-1,8,7,9,-1,5,4,10,-1,11,12,13,-1,14,15,7,-1,7,15,16,-1,7,16,9,-1,9,16,17,-1,18,19,20,-1,20,19,21,-1,20,21,22,-1,22,21,23,-1,22,23,24,-1,24,23,25,-1,24,25,26,-1,26,25,2,-1,26,2,27,-1,28,29,18,-1,18,29,30,-1,18,30,19,-1,31,32,33,-1,34,35,2,-1,2,35,36,-1,2,36,0,-1,6,8,13,-1,13,8,37,-1,13,37,11,-1,38,1,39,-1,39,1,40,-1,39,40,41,-1,31,33,42,-1,42,33,43,-1,42,43,44,-1,44,43,45,-1,44,45,46,-1,4,47,10,-1,10,47,48,-1,10,48,49,-1,49,48,50,-1,49,50,31,-1,31,50,51,-1,31,51,32,-1,17,16,18,-1,18,16,52,-1,18,52,28,-1,53,54,55,-1,55,54,56,-1,55,56,57,-1,57,56,58,-1,57,58,59,-1,59,58,60,-1,59,60,61,-1,61,60,62,-1,61,62,63,-1,63,62,64,-1,63,64,65,-1,65,64,66,-1,65,66,67,-1,67,66,68,-1,67,68,69,-1,69,68,70,-1,71,72,73,-1,46,45,74,-1,74,45,75,-1,74,75,76,-1,77,78,79,-1,79,78,80,-1,79,80,55,-1,55,80,81,-1,55,81,53,-1,82,83,84,-1,84,83,85,-1,84,85,86,-1,86,85,87,-1,86,87,88,-1,88,87,89,-1,88,89,90,-1,90,89,91,-1,90,91,34,-1,34,91,92,-1,34,92,35,-1,38,93,1,-1,1,93,94,-1,1,94,2,-1,2,94,95,-1,2,95,27,-1,73,72,96,-1,96,72,97,-1,96,97,98,-1,98,97,99,-1,98,99,100,-1,100,99,101,-1,100,101,102,-1,102,101,103,-1,102,103,104,-1,104,103,105,-1,104,105,106,-1,106,105,107,-1,106,107,70,-1,70,107,108,-1,70,108,69,-1,5,109,3,-1,3,109,110,-1,3,110,111,-1,111,110,112,-1,111,112,113,-1,113,112,114,-1,113,114,82,-1,82,114,115,-1,82,115,83,-1,12,116,13,-1,13,116,117,-1,13,117,118,-1,118,117,119,-1,118,119,120,-1,120,119,121,-1,120,121,122,-1,122,121,123,-1,122,123,124,-1,124,123,125,-1,124,125,126,-1,126,125,127,-1,126,127,128,-1,128,127,129,-1,128,129,130,-1,130,129,41,-1,130,41,131,-1,131,41,40,-1,75,132,76,-1,76,132,133,-1,76,133,134,-1,134,133,135,-1,134,135,136,-1,136,135,137,-1,136,137,77,-1,77,137,138,-1,77,138,78,-1,139,140,141,-1,141,140,142,-1,142,143,141,-1,141,143,144,-1,141,144,145,-1,73,146,71,-1,71,146,141,-1,71,141,147,-1,147,141,145,-1,141,148,139,-1,139,148,149,-1,139,149,150,-1,150,151,139,-1,139,151,152,-1,139,152,153,-1,67,154,155,-1,67,155,65,-1,65,155,156,-1,65,156,63,-1,156,157,63,-1,63,157,158,-1,63,158,61,-1,61,158,159,-1,61,159,59,-1,59,159,160,-1,59,160,57,-1,57,160,161,-1,57,161,55,-1,55,161,162,-1,55,162,79,-1,79,162,163,-1,79,163,77,-1,77,163,136,-1,136,163,164,-1,164,165,136,-1,136,165,166,-1,136,166,134,-1,134,166,167,-1,134,167,76,-1,168,44,169,-1,169,44,46,-1,169,46,170,-1,170,46,74,-1,170,74,171,-1,171,74,76,-1,171,76,167,-1,44,168,172,-1,44,172,42,-1,42,172,173,-1,42,173,31,-1,31,173,174,-1,31,174,49,-1,49,174,175,-1,49,175,10,-1,10,175,176,-1,10,176,5,-1,5,176,177,-1,5,177,109,-1,109,177,178,-1,109,178,110,-1,110,178,179,-1,110,179,112,-1,180,114,181,-1,181,114,112,-1,181,112,179,-1,182,83,180,-1,180,83,115,-1,180,115,114,-1,182,183,83,-1,83,183,184,-1,83,184,85,-1,85,184,185,-1,85,185,87,-1,87,185,186,-1,87,186,89,-1,89,186,187,-1,89,187,91,-1,91,187,188,-1,91,188,92,-1,92,188,189,-1,92,189,35,-1,35,189,190,-1,35,190,36,-1,36,190,191,-1,36,191,0,-1,191,192,0,-1,0,192,193,-1,0,193,1,-1,1,193,194,-1,1,194,40,-1,40,194,195,-1,40,195,131,-1,195,196,131,-1,131,196,197,-1,131,197,130,-1,130,197,198,-1,130,198,128,-1,199,6,13,-1,128,198,200,-1,128,200,126,-1,126,200,201,-1,126,201,124,-1,201,202,124,-1,124,202,203,-1,124,203,122,-1,122,203,204,-1,122,204,120,-1,120,204,205,-1,120,205,118,-1,118,205,206,-1,118,206,13,-1,13,206,207,-1,13,207,199,-1,7,6,208,-1,208,6,199,-1,14,7,209,-1,209,7,208,-1,15,14,210,-1,210,14,209,-1,16,15,211,-1,211,15,210,-1,16,211,212,-1,16,212,52,-1,52,212,213,-1,52,213,28,-1,28,213,214,-1,28,214,29,-1,29,214,215,-1,29,215,30,-1,30,215,216,-1,30,216,19,-1,19,216,217,-1,19,217,21,-1,21,217,218,-1,21,218,23,-1,23,218,219,-1,23,219,25,-1,25,219,220,-1,25,220,2,-1,2,220,221,-1,2,221,34,-1,34,221,222,-1,34,222,90,-1,90,222,223,-1,90,223,88,-1,88,223,224,-1,88,224,86,-1,86,224,225,-1,86,225,84,-1,225,226,84,-1,84,226,82,-1,226,227,82,-1,82,227,228,-1,82,228,113,-1,113,228,229,-1,113,229,111,-1,111,229,230,-1,111,230,3,-1,3,230,231,-1,3,231,4,-1,4,231,232,-1,4,232,47,-1,47,232,233,-1,47,233,48,-1,48,233,234,-1,48,234,50,-1,50,234,235,-1,50,235,51,-1,51,235,236,-1,51,236,32,-1,32,236,237,-1,32,237,33,-1,33,237,238,-1,33,238,43,-1,43,238,239,-1,43,239,45,-1,45,239,240,-1,45,240,75,-1,75,240,241,-1,75,241,132,-1,132,241,242,-1,132,242,133,-1,133,242,243,-1,133,243,135,-1,135,243,244,-1,135,244,137,-1,137,244,245,-1,137,245,138,-1,138,245,246,-1,138,246,78,-1,78,246,247,-1,78,247,80,-1,80,247,248,-1,80,248,81,-1,81,248,249,-1,81,249,53,-1,54,53,250,-1,250,53,249,-1,54,250,251,-1,54,251,56,-1,56,251,252,-1,56,252,58,-1,58,252,253,-1,58,253,60,-1,60,253,254,-1,60,254,62,-1,62,254,255,-1,62,255,64,-1,255,256,64,-1,64,256,257,-1,64,257,66,-1,66,257,258,-1,66,258,68,-1,68,258,259,-1,68,259,70,-1,70,259,260,-1,70,260,106,-1,106,260,261,-1,106,261,104,-1,104,261,262,-1,104,262,102,-1,102,262,263,-1,102,263,100,-1,100,263,264,-1,100,264,98,-1,98,264,265,-1,98,265,96,-1,73,96,266,-1,266,96,265,-1,73,266,267,-1,73,267,146,-1,146,267,268,-1,146,268,141,-1,141,268,269,-1,141,269,148,-1,148,269,270,-1,148,270,149,-1,149,270,271,-1,149,271,150,-1,150,271,272,-1,150,272,151,-1,151,272,273,-1,151,273,152,-1,152,273,274,-1,152,274,153,-1,153,274,275,-1,153,275,139,-1,139,275,276,-1,139,276,140,-1,140,276,277,-1,140,277,142,-1,142,277,278,-1,142,278,143,-1,143,278,279,-1,143,279,144,-1,144,279,280,-1,144,280,145,-1,145,280,281,-1,145,281,147,-1,147,281,282,-1,147,282,71,-1,71,282,283,-1,71,283,72,-1,97,72,284,-1,284,72,283,-1,97,284,285,-1,97,285,99,-1,99,285,286,-1,99,286,101,-1,101,286,287,-1,101,287,103,-1,103,287,288,-1,103,288,105,-1,105,288,289,-1,105,289,107,-1,107,289,290,-1,107,290,108,-1,108,290,291,-1,108,291,69,-1,69,291,154,-1,69,154,67,-1,17,292,293,-1,17,293,9,-1,9,293,294,-1,9,294,8,-1,8,294,295,-1,8,295,37,-1,37,295,296,-1,37,296,11,-1,11,296,297,-1,11,297,12,-1,12,297,298,-1,12,298,116,-1,116,298,299,-1,116,299,117,-1,117,299,300,-1,117,300,119,-1,119,300,301,-1,119,301,121,-1,121,301,302,-1,121,302,123,-1,123,302,303,-1,123,303,125,-1,125,303,304,-1,125,304,127,-1,127,304,305,-1,127,305,129,-1,129,305,306,-1,129,306,41,-1,41,306,307,-1,41,307,39,-1,39,307,308,-1,39,308,38,-1,38,308,309,-1,38,309,93,-1,93,309,310,-1,93,310,94,-1,94,310,311,-1,94,311,95,-1,95,311,312,-1,95,312,27,-1,27,312,313,-1,27,313,26,-1,26,313,314,-1,26,314,24,-1,24,314,315,-1,24,315,22,-1,22,315,316,-1,22,316,20,-1,20,316,317,-1,20,317,18,-1,18,317,292,-1,18,292,17,-1,
        ]
    }
}
Shape{
    appearance Appearance {
        material  Material 	{
            diffuseColor 1.0 1.0 1.0
            specularColor 0.5019607843137255 0.5019607843137255 0.5019607843137255
            ambientIntensity 0.2
            transparency 0
            shininess 0.5
        }
    }
    geometry IndexedFaceSet {
        ccw TRUE
        solid FALSE
        coord DEF co Coordinate {
            point [
                0.1544 0.3215 -0.123, 0.1613 0.3215 -0.1051, 0.1626 0.3215 -0.1065, 0.1544 0.3215 -0.1025, 0.1526 0.3215 -0.1026, 0.1519 0.3215 -0.1227, 0.1569 0.3215 -0.1028, 0.1592 0.3215 -0.1037, 0.1476 0.3215 -0.1204, 0.1462 0.3215 -0.1066, 0.148 0.3215 -0.1048, 0.1641 0.3215 -0.1162, 0.163 0.3215 -0.1184, 0.1613 0.3215 -0.1204, 0.1496 0.3215 -0.1218, 0.1501 0.3215 -0.1034, 0.1639 0.3215 -0.1087, 0.1646 0.3215 -0.1112, 0.1646 0.3215 -0.1138, 0.1592 0.3215 -0.1218, 0.1568 0.3215 -0.1227, 0.1447 0.3215 -0.1162, 0.1442 0.3215 -0.1136, 0.1459 0.3215 -0.1185, 0.1443 0.3215 -0.1111, 0.145 0.3215 -0.1087, -0.6102 -0.1312 0.2362, -0.6102 0.0262 0.2362, -0.6204 0.0262 0.2349, -0.6204 -0.1312 0.2349, -0.6299 0.0262 0.2309, -0.6299 -0.1312 0.2309, -0.6381 0.0262 0.2247, -0.6381 -0.1312 0.2247, -0.6443 0.0262 0.2165, -0.6443 -0.1312 0.2165, -0.6483 0.0262 0.207, -0.6483 -0.1312 0.207, -0.6496 0.0262 0.1969, -0.6496 -0.1312 0.1969, 0.6102 0.0262 0.2362, 0.6102 -0.1706 0.2362, 0.6204 -0.1706 0.2349, 0.6204 0.0262 0.2349, 0.6299 -0.1706 0.2309, 0.6299 0.0262 0.2309, 0.6381 -0.1706 0.2247, 0.6381 0.0262 0.2247, 0.6443 -0.1706 0.2165, 0.6443 0.0262 0.2165, 0.6483 -0.1706 0.207, 0.6483 0.0262 0.207, 0.6496 -0.1706 0.1969, 0.6496 0.0262 0.1969, -0.5598 -0.1312 0.2362, -0.6496 -0.1312 0.1478, -0.5598 -0.1706 0.2362, -0.6496 -0.1706 0.1478, -0.6102 0.3078 0.2288, -0.5838 0.3806 0.2224, -0.6102 0.3078 -0.1575, -0.5838 0.3806 -0.1575, 0.6102 0.3078 -0.1575, 0.5838 0.3806 -0.1575, 0.6102 0.3078 0.2288, 0.5838 0.3806 0.2224, 0.5838 0.3806 0.2224
            ]
        }
        coordIndex [
            0,1,2,-1,3,0,4,-1,4,0,5,-1,3,6,0,-1,0,6,7,-1,0,7,1,-1,8,9,10,-1,11,12,2,-1,2,12,13,-1,5,14,4,-1,4,14,8,-1,4,8,15,-1,15,8,10,-1,16,17,2,-1,2,17,18,-1,2,18,11,-1,13,19,2,-1,2,19,20,-1,2,20,0,-1,21,22,23,-1,23,22,24,-1,23,24,8,-1,8,24,25,-1,8,25,9,-1,26,27,28,-1,26,28,29,-1,29,28,30,-1,29,30,31,-1,31,30,32,-1,31,32,33,-1,33,32,34,-1,33,34,35,-1,35,34,36,-1,35,36,37,-1,37,36,38,-1,37,38,39,-1,40,41,42,-1,40,42,43,-1,43,42,44,-1,43,44,45,-1,45,44,46,-1,45,46,47,-1,47,46,48,-1,47,48,49,-1,49,48,50,-1,49,50,51,-1,51,50,52,-1,51,52,53,-1,54,55,56,-1,56,55,57,-1,55,54,26,-1,35,37,33,-1,33,37,39,-1,33,39,31,-1,55,26,39,-1,39,26,29,-1,39,29,31,-1,58,59,60,-1,60,59,61,-1,62,63,64,-1,64,63,65,-1,
        ]
    }
}